<?xml version="1.0" encoding="UTF-8" standalone="no"?>
<svg
   xmlns:dc="http://purl.org/dc/elements/1.1/"
   xmlns:cc="http://creativecommons.org/ns#"
   xmlns:rdf="http://www.w3.org/1999/02/22-rdf-syntax-ns#"
   xmlns:svg="http://www.w3.org/2000/svg"
   xmlns="http://www.w3.org/2000/svg"
   width="36"
   height="36"
   version="1.1"
   id="Layer_1"
   x="0px"
   y="0px"
   viewBox="0 0 36 36"
   xml:space="preserve"><metadata
     id="metadata12"><rdf:RDF><cc:Work
         rdf:about=""><dc:format>image/svg+xml</dc:format><dc:type
           rdf:resource="http://purl.org/dc/dcmitype/StillImage" /><dc:title></dc:title></cc:Work></rdf:RDF></metadata><defs
     id="defs10" /><g
     id="_x37_39-question_x40_2x.png"
     transform="matrix(0.64285714,0,0,0.64285714,18,-5.142857)"><g
       id="g4"><path
         d="M 5.1,24.7 C 4.5,24.1 3.8,23.7 3,23.4 2.2,23.2 1.3,23 0.4,23 c -2,0 -3.6,0.6 -4.9,1.8 -1.4,1.2 -2.2,2.8 -2.5,4.8 l 3.4,0.4 c 0.1,-1.2 0.5,-2.1 1.2,-2.9 0.7,-0.7 1.6,-1.1 2.7,-1.1 0.5,0 1,0.1 1.4,0.3 0.4,0.2 0.8,0.5 1.1,0.8 0.3,0.3 0.6,0.7 0.7,1.2 0.2,0.5 0.3,1 0.3,1.5 0,0.5 -0.1,1 -0.3,1.5 -0.2,0.4 -0.4,0.9 -0.7,1.2 -0.3,0.4 -0.6,0.8 -1,1.1 -0.4,0.4 -0.7,0.7 -1.1,1.1 -0.4,0.5 -0.8,0.8 -1.1,1.2 -0.3,0.3 -0.5,0.7 -0.7,1 -0.2,0.3 -0.3,0.7 -0.4,1.2 -0.1,0.4 -0.1,1 -0.1,1.6 l 0,2.2 3.2,0 0,-1.6 c 0,-0.5 0,-0.9 0.1,-1.2 0,-0.3 0.1,-0.6 0.2,-0.9 C 2,37.9 2.2,37.7 2.4,37.4 2.6,37.1 2.9,36.8 3.3,36.5 L 3.6,36.2 5.6,34 C 6,33.4 6.4,32.8 6.6,32.1 6.9,31.3 7,30.5 7,29.6 7,28.6 6.8,27.6 6.5,26.8 6.2,26 5.7,25.3 5.1,24.7 Z M 0,44.4 c -0.6,0 -1.1,0.2 -1.6,0.7 -0.4,0.5 -0.7,1 -0.7,1.7 0,0.7 0.2,1.2 0.7,1.7 0.4,0.5 1,0.7 1.6,0.7 0.6,0 1.1,-0.2 1.6,-0.7 C 2,48 2.2,47.5 2.2,46.8 2.2,46.1 2,45.5 1.6,45 1.1,44.6 0.6,44.4 0,44.4 Z M 0,8 C -15.5,8 -28,20.5 -28,36 -28,51.5 -15.5,64 0,64 15.5,64 28,51.5 28,36 28,20.5 15.5,8 0,8 Z m 0,54.1 c -14.4,0 -26,-11.7 -26,-26 0,-14.3 11.7,-26 26,-26 14.3,0 26,11.7 26,26 0,14.3 -11.6,26 -26,26 z"
         id="path6" /></g></g></svg>