<?xml version="1.0" encoding="utf-8"?>
<!-- Generator: Adobe Illustrator 19.1.0, SVG Export Plug-In . SVG Version: 6.00 Build 0)  -->
<svg version="1.1" id="Layer_1" xmlns="http://www.w3.org/2000/svg" xmlns:xlink="http://www.w3.org/1999/xlink" x="0px" y="0px"
	 viewBox="0 0 332.8 220.6" enable-background="new 0 0 332.8 220.6" xml:space="preserve">
<g>
	<rect x="238.5" y="216.3" width="62.2" height="0.5"/>
	<polygon points="297.2,220.1 296.9,219.8 300.3,216.5 296.9,213.3 297.2,212.9 301.1,216.5 	"/>
</g>
<g>
	<rect x="96.2" y="216.3" width="48.6" height="0.5"/>
	<polygon points="99.7,220.1 95.8,216.5 99.7,212.9 100,213.3 96.5,216.5 100,219.8 	"/>
</g>
<g>
	<rect x="7.8" y="19" width="0.5" height="27.7"/>
	<polygon points="4.8,22.9 4.5,22.5 8.1,18.7 11.7,22.5 11.3,22.9 8.1,19.4 	"/>
</g>
<g>
	<rect x="7.8" y="136.9" width="0.5" height="31.5"/>
	<polygon points="8.1,168.8 4.5,164.9 4.8,164.6 8.1,168.1 11.3,164.6 11.7,164.9 	"/>
</g>
<g>
	<path d="M78.8,203.1h-0.7v-11.9c-0.9,1-2.2,1.6-3.6,1.7v-0.6c1.5-0.2,2.9-1.1,3.7-2.5h0.7V203.1z"/>
</g>
<g>
	<path d="M40.5,133.8v0.7h-8.9c0.2-2.5,2.1-3.9,4.1-5.2c1.9-1.3,3.9-2.5,3.9-4.8c0-1.8-1.5-3-3.3-3c-2.4,0-3.6,1.8-3.6,4.1h-0.7
		c0.2-3.2,1.6-4.7,4.2-4.7c2.3,0,4.1,1.2,4.1,3.7c0,2.3-1.8,3.8-3.8,5.1c-1.9,1.3-3.9,2.5-4,4.1H40.5z"/>
</g>
<g>
	<path d="M37.1,169.3h-0.7v-11.9c-0.9,1-2.2,1.6-3.6,1.7v-0.6c1.5-0.2,2.9-1.1,3.7-2.5h0.7V169.3z"/>
</g>
<g>
	<path d="M32.1,93.4c-0.1,2.5,1.4,4,3.9,4c2,0,3.8-1.2,3.8-3.3c0-2.6-2.3-3.2-4.5-3.1v-0.6c2,0.1,4.2-0.5,4.2-2.8
		c0-1.9-1.9-2.7-3.5-2.7c-2.3,0-3.5,1.6-3.6,3.8h-0.7c0-2.6,1.6-4.5,4.3-4.5c2.2,0,4.3,1,4.3,3.4c0,1.6-1,2.8-2.6,3.1v0
		c1.8,0.2,2.9,1.6,2.9,3.4c0,2.6-2.1,3.9-4.6,3.9c-2.9,0-4.8-1.7-4.6-4.6H32.1z"/>
</g>
<g>
	<path d="M38.5,50.1v9.3h2.2v0.6h-2.2v3.4h-0.7v-3.4h-6.5v-0.7l6.5-9.2H38.5z M37.8,51.1L37.8,51.1L32,59.5h5.8V51.1z"/>
</g>
<g>
	<path d="M33.2,14.4H40V15h-6.2l-1.1,5.3l0,0c0.8-1.1,2-1.6,3.3-1.6c2.7,0,4.5,1.9,4.5,4.6c0,2.7-1.9,4.6-4.5,4.6
		c-2.6,0-4.8-1.6-4.6-4.3h0.7c0,2.2,1.7,3.7,3.9,3.7c2.3,0,3.8-1.8,3.8-4c0-2.2-1.6-3.9-3.8-3.9c-1.5,0-2.6,0.6-3.4,1.9h-0.8
		L33.2,14.4z"/>
</g>
<g>
	<path d="M139.3,202.3v0.7h-8.9c0.2-2.5,2.1-3.9,4.1-5.2c1.9-1.3,3.9-2.5,3.9-4.8c0-1.8-1.5-3-3.3-3c-2.4,0-3.6,1.8-3.6,4.1h-0.7
		c0.2-3.2,1.6-4.7,4.2-4.7c2.3,0,4.1,1.2,4.1,3.7c0,2.3-1.8,3.8-3.8,5.1c-1.9,1.3-3.9,2.5-4,4.1H139.3z"/>
</g>
<g>
	<path d="M187.1,198.6c-0.1,2.5,1.4,4,3.9,4c2,0,3.8-1.2,3.8-3.3c0-2.6-2.3-3.2-4.5-3.1v-0.6c2,0.1,4.2-0.5,4.2-2.8
		c0-1.9-1.9-2.7-3.5-2.7c-2.3,0-3.5,1.6-3.6,3.8h-0.7c0-2.6,1.6-4.5,4.3-4.5c2.1,0,4.3,1,4.3,3.4c0,1.6-1,2.8-2.6,3.1v0
		c1.8,0.2,2.9,1.6,2.9,3.4c0,2.6-2.1,3.9-4.6,3.9c-2.9,0-4.8-1.7-4.6-4.6H187.1z"/>
</g>
<g>
	<path d="M248.8,189.7v9.3h2.2v0.6h-2.2v3.4h-0.7v-3.4h-6.5v-0.7l6.5-9.2H248.8z M248.1,190.7L248.1,190.7l-5.8,8.3h5.8V190.7z"/>
</g>
<g>
	<path d="M303.4,189.7h6.8v0.6h-6.2l-1.1,5.3l0,0c0.8-1.1,2-1.6,3.3-1.6c2.7,0,4.5,1.9,4.5,4.6c0,2.7-1.9,4.6-4.5,4.6
		c-2.6,0-4.8-1.6-4.6-4.3h0.7c0,2.2,1.7,3.7,3.9,3.7c2.3,0,3.8-1.8,3.8-4c0-2.2-1.6-3.9-3.8-3.9c-1.5,0-2.6,0.6-3.4,1.9H302
		L303.4,189.7z"/>
</g>
<rect x="105.6" y="146.3" fill="#00A651" width="56.1" height="34.9"/>
<rect x="105.6" y="110.4" fill="#00A651" width="56.1" height="34.9"/>
<rect x="162.7" y="2.7" fill="#ED1C24" width="56.1" height="34.9"/>
<rect x="219.7" y="2.7" fill="#ED1C24" width="56.1" height="34.9"/>
<rect x="276.8" y="2.7" fill="#ED1C24" width="56" height="34.9"/>
<rect x="276.8" y="38.6" fill="#ED1C24" width="56" height="34.9"/>
<rect x="276.8" y="74.5" fill="#ED1C24" width="56" height="34.9"/>
<rect x="219.7" y="110.4" fill="#FFDE17" width="56.1" height="34.9"/>
<rect x="219.7" y="146.3" fill="#00A651" width="56.1" height="34.9"/>
<rect x="162.7" y="110.4" fill="#00A651" width="56.1" height="34.9"/>
<rect x="162.7" y="146.3" fill="#00A651" width="56.1" height="34.9"/>
<rect x="276.8" y="110.4" fill="#ED1C24" width="56" height="34.9"/>
<rect x="50.2" y="2.7" fill="#FFDE17" width="54.4" height="34.9"/>
<rect x="50.2" y="38.6" fill="#00A651" width="54.4" height="34.9"/>
<rect x="105.6" y="38.6" fill="#FFDE17" width="56.1" height="34.9"/>
<rect x="105.6" y="74.5" fill="#00A651" width="56.1" height="34.9"/>
<rect x="105.6" y="2.7" fill="#ED1C24" width="56.1" height="34.9"/>
<rect x="162.7" y="74.5" fill="#FFDE17" width="56.1" height="34.9"/>
<rect x="219.7" y="74.5" fill="#ED1C24" width="56.1" height="34.9"/>
<rect x="219.7" y="38.6" fill="#ED1C24" width="56.1" height="34.9"/>
<rect x="162.7" y="38.6" fill="#ED1C24" width="56.1" height="34.9"/>
<rect x="276.8" y="146.3" fill="#FFDE17" width="56" height="34.9"/>
<rect x="50.2" y="146.3" fill="#00A651" width="54.4" height="34.9"/>
<rect x="50.2" y="110.4" fill="#00A651" width="54.4" height="34.9"/>
<rect x="50.2" y="74.5" fill="#00A651" width="54.4" height="34.9"/>
<g>
	<path d="M154.7,214.9c-0.1-0.7-0.8-1.3-1.6-1.3c-1.5,0-2,1.3-2,2.6c0,1.2,0.6,2.5,2,2.5c1,0,1.6-0.7,1.7-1.7h1.6
		c-0.2,1.9-1.5,3.1-3.3,3.1c-2.3,0-3.7-1.7-3.7-3.9c0-2.2,1.4-4,3.7-4c1.6,0,3,1,3.2,2.7H154.7z"/>
	<path d="M160.8,212.2c2.3,0,3.7,1.7,3.7,4c0,2.2-1.4,3.9-3.7,3.9c-2.3,0-3.7-1.7-3.7-3.9C157.1,213.9,158.5,212.2,160.8,212.2z
		 M160.8,218.7c1.5,0,2-1.3,2-2.5c0-1.3-0.6-2.6-2-2.6c-1.5,0-2,1.3-2,2.6C158.8,217.4,159.3,218.7,160.8,218.7z"/>
	<path d="M165.6,212.4h1.6l3.1,5h0v-5h1.5v7.5h-1.6l-3.1-5h0v5h-1.5V212.4z"/>
	<path d="M174.5,217.4c0,1,0.8,1.4,1.7,1.4c0.6,0,1.5-0.2,1.5-0.9c0-0.8-1.1-0.9-2.2-1.2c-1.1-0.3-2.2-0.7-2.2-2.1
		c0-1.5,1.4-2.3,2.8-2.3c1.6,0,3,0.7,3,2.4h-1.6c-0.1-0.9-0.7-1.1-1.5-1.1c-0.5,0-1.1,0.2-1.1,0.9c0,0.6,0.4,0.7,2.2,1.1
		c0.5,0.1,2.2,0.5,2.2,2.2c0,1.4-1.1,2.4-3.1,2.4c-1.7,0-3.2-0.8-3.2-2.7H174.5z"/>
	<path d="M180.2,212.4h5.6v1.4h-4v1.6h3.6v1.3h-3.6v1.8h4v1.4h-5.7V212.4z"/>
	<path d="M193.3,220.6l-1.1-1c-0.5,0.3-1.1,0.4-1.8,0.4c-2.3,0-3.7-1.7-3.7-3.9c0-2.2,1.4-4,3.7-4c2.3,0,3.7,1.7,3.7,4
		c0,1.1-0.3,2-1,2.8l0.9,0.9L193.3,220.6z M191.1,217.1l0.9,0.8c0.3-0.4,0.5-0.9,0.5-1.7c0-1.3-0.6-2.6-2-2.6c-1.5,0-2,1.3-2,2.6
		c0,1.2,0.6,2.5,2,2.5c0.2,0,0.5,0,0.7-0.1l-0.7-0.6L191.1,217.1z"/>
	<path d="M201.6,217c0,2-1.2,3-3.2,3c-2,0-3.2-1-3.2-3v-4.7h1.6v4.7c0,0.8,0.2,1.6,1.5,1.6c1.2,0,1.6-0.5,1.6-1.6v-4.7h1.6V217z"/>
	<path d="M203,212.4h5.6v1.4h-4v1.6h3.6v1.3h-3.6v1.8h4v1.4H203V212.4z"/>
	<path d="M209.8,212.4h1.6l3.1,5h0v-5h1.5v7.5h-1.6l-3.1-5h0v5h-1.5V212.4z"/>
	<path d="M222.6,214.9c-0.1-0.7-0.8-1.3-1.6-1.3c-1.5,0-2,1.3-2,2.6c0,1.2,0.6,2.5,2,2.5c1,0,1.6-0.7,1.7-1.7h1.6
		c-0.2,1.9-1.5,3.1-3.3,3.1c-2.3,0-3.7-1.7-3.7-3.9c0-2.2,1.4-4,3.7-4c1.6,0,3,1,3.2,2.7H222.6z"/>
	<path d="M225.3,212.4h5.6v1.4h-4v1.6h3.6v1.3H227v1.8h4v1.4h-5.7V212.4z"/>
</g>
<g>
	<path d="M310.9,213.1h4.5v0.8h-3.6v2.2h3.1v0.8h-3.1v3.1h-0.9V213.1z"/>
	<path d="M320.5,219.8c-0.1,0.1-0.3,0.1-0.6,0.1c-0.4,0-0.7-0.2-0.7-0.8c-0.4,0.5-1,0.8-1.7,0.8c-0.9,0-1.6-0.4-1.6-1.4
		c0-1.1,0.8-1.4,1.7-1.5c0.9-0.2,1.7-0.1,1.7-0.7c0-0.7-0.6-0.8-1.1-0.8c-0.7,0-1.2,0.2-1.2,0.9h-0.8c0-1.2,1-1.6,2.1-1.6
		c0.9,0,1.8,0.2,1.8,1.4v2.5c0,0.4,0,0.6,0.3,0.6c0.1,0,0.1,0,0.2,0V219.8z M319.2,217.3c-0.3,0.2-0.9,0.2-1.5,0.3
		c-0.5,0.1-1,0.3-1,0.9c0,0.5,0.5,0.7,1,0.7c1.1,0,1.5-0.7,1.5-1.1V217.3z"/>
	<path d="M322.4,214.9h1v0.7h-1v3.1c0,0.4,0.1,0.4,0.6,0.4h0.4v0.7h-0.6c-0.8,0-1.2-0.2-1.2-1.1v-3.1h-0.8v-0.7h0.8v-1.5h0.8V214.9z
		"/>
	<path d="M328.6,219.8c-0.1,0.1-0.3,0.1-0.6,0.1c-0.4,0-0.7-0.2-0.7-0.8c-0.4,0.5-1,0.8-1.7,0.8c-0.9,0-1.6-0.4-1.6-1.4
		c0-1.1,0.8-1.4,1.7-1.5c0.9-0.2,1.7-0.1,1.7-0.7c0-0.7-0.6-0.8-1.1-0.8c-0.7,0-1.2,0.2-1.2,0.9h-0.8c0-1.2,1-1.6,2.1-1.6
		c0.9,0,1.8,0.2,1.8,1.4v2.5c0,0.4,0,0.6,0.3,0.6c0.1,0,0.1,0,0.2,0V219.8z M327.3,217.3c-0.3,0.2-0.9,0.2-1.5,0.3
		c-0.5,0.1-1,0.3-1,0.9c0,0.5,0.5,0.7,1,0.7c1.1,0,1.5-0.7,1.5-1.1V217.3z"/>
	<path d="M329.4,213.1h0.8v6.8h-0.8V213.1z"/>
</g>
<g>
	<path d="M49.3,213.1h0.9v2.9h3.6v-2.9h0.9v6.8h-0.9v-3.1h-3.6v3.1h-0.9V213.1z"/>
	<path d="M60.3,219.8c-0.1,0.1-0.3,0.1-0.6,0.1c-0.4,0-0.7-0.2-0.7-0.8c-0.4,0.5-1,0.8-1.7,0.8c-0.9,0-1.6-0.4-1.6-1.4
		c0-1.1,0.8-1.4,1.7-1.5c0.9-0.2,1.7-0.1,1.7-0.7c0-0.7-0.6-0.8-1.1-0.8c-0.7,0-1.2,0.2-1.2,0.9h-0.8c0-1.2,1-1.6,2.1-1.6
		c0.9,0,1.8,0.2,1.8,1.4v2.5c0,0.4,0,0.6,0.3,0.6c0.1,0,0.1,0,0.2,0V219.8z M59,217.3c-0.3,0.2-0.9,0.2-1.5,0.3
		c-0.5,0.1-1,0.3-1,0.9c0,0.5,0.5,0.7,1,0.7c1.1,0,1.5-0.7,1.5-1.1V217.3z"/>
	<path d="M61.1,214.9h0.8v1h0c0.4-0.8,0.9-1.2,1.8-1.2v0.9c-1.3,0-1.8,0.7-1.8,2v2.2h-0.8V214.9z"/>
	<path d="M64.3,214.9H65v0.7h0c0.4-0.6,0.9-0.8,1.6-0.8c0.6,0,1.1,0.2,1.3,0.8c0.3-0.5,0.9-0.8,1.5-0.8c1,0,1.6,0.4,1.6,1.4v3.6
		h-0.8v-3.2c0-0.6-0.2-1.1-1-1.1c-0.8,0-1.3,0.5-1.3,1.3v3.1h-0.8v-3.2c0-0.6-0.2-1.1-0.9-1.1c-1,0-1.3,0.9-1.3,1.3v3.1h-0.8V214.9z
		"/>
	<path d="M72.4,213.1h0.8v6.8h-0.8V213.1z"/>
	<path d="M78.7,218.3c-0.2,1.1-1,1.7-2.1,1.7c-1.6,0-2.3-1.1-2.4-2.6c0-1.5,1-2.6,2.3-2.6c1.7,0,2.3,1.6,2.2,2.8h-3.7
		c0,0.9,0.5,1.6,1.5,1.6c0.7,0,1.1-0.3,1.3-1H78.7z M77.9,216.9c0-0.8-0.6-1.4-1.4-1.4c-0.8,0-1.3,0.6-1.4,1.4H77.9z"/>
	<path d="M80.1,218.3c0,0.7,0.7,1,1.3,1c0.5,0,1.2-0.1,1.2-0.7c0-0.6-0.8-0.7-1.6-0.9c-0.8-0.2-1.6-0.4-1.6-1.4c0-1,1-1.4,1.8-1.4
		c1.1,0,1.9,0.3,2,1.5h-0.8c-0.1-0.6-0.6-0.8-1.1-0.8c-0.5,0-1,0.1-1,0.6c0,0.6,0.9,0.7,1.6,0.9c0.8,0.2,1.6,0.4,1.6,1.4
		c0,1.2-1.1,1.5-2.1,1.5c-1.1,0-2-0.4-2.1-1.7H80.1z"/>
	<path d="M84.8,218.3c0,0.7,0.7,1,1.3,1c0.5,0,1.2-0.1,1.2-0.7c0-0.6-0.8-0.7-1.6-0.9c-0.8-0.2-1.6-0.4-1.6-1.4c0-1,1-1.4,1.8-1.4
		c1.1,0,1.9,0.3,2,1.5h-0.8c-0.1-0.6-0.6-0.8-1.1-0.8c-0.5,0-1,0.1-1,0.6c0,0.6,0.9,0.7,1.6,0.9c0.8,0.2,1.6,0.4,1.6,1.4
		c0,1.2-1.1,1.5-2.1,1.5c-1.1,0-2-0.4-2.1-1.7H84.8z"/>
</g>
<g>
	<path d="M0,0h0.9v2.9h3.6V0h0.9v6.8H4.5V3.7H0.9v3.1H0V0z"/>
	<path d="M7.6,1H6.8V0h0.8V1z M6.8,1.9h0.8v4.9H6.8V1.9z"/>
	<path d="M13.1,6.4c0,1.6-0.7,2.4-2.3,2.4c-0.9,0-2-0.4-2-1.4h0.8c0,0.6,0.7,0.8,1.3,0.8c1.1,0,1.5-0.8,1.5-1.9V6h0
		c-0.3,0.6-0.9,0.9-1.5,0.9c-1.5,0-2.2-1.2-2.2-2.5c0-1.2,0.6-2.6,2.3-2.6c0.6,0,1.2,0.3,1.5,0.8h0V1.9h0.8V6.4z M12.3,4.2
		c0-0.9-0.4-1.8-1.4-1.8c-1,0-1.5,0.8-1.5,1.8c0,0.9,0.3,1.9,1.4,1.9C11.9,6.1,12.3,5.2,12.3,4.2z"/>
	<path d="M14.3,0h0.8v2.6h0c0.3-0.6,1-0.8,1.5-0.8c1.3,0,1.7,0.7,1.7,1.8v3.2h-0.8V3.5c0-0.6-0.4-1-1-1c-1,0-1.5,0.7-1.5,1.5v2.8
		h-0.8V0z"/>
</g>
<g>
	<path d="M1.5,174.3h0.9v6H6v0.8H1.5V174.3z"/>
	<path d="M8.8,176.1c1.6,0,2.4,1.1,2.4,2.6c0,1.4-0.8,2.6-2.4,2.6c-1.6,0-2.4-1.1-2.4-2.6C6.4,177.2,7.2,176.1,8.8,176.1z
		 M8.8,180.5c0.8,0,1.5-0.7,1.5-1.9c0-1.2-0.7-1.9-1.5-1.9c-0.8,0-1.5,0.7-1.5,1.9C7.2,179.8,7.9,180.5,8.8,180.5z"/>
	<path d="M17,181.1h-0.9l-1-3.9h0l-1,3.9h-0.9l-1.6-4.9h0.9l1.1,4h0l1-4h0.9l1,4h0l1.1-4h0.8L17,181.1z"/>
</g>
<g>
	<path d="M4.5,127.3v-3.4c0-1.9,1.2-2.6,2.4-2.6s2.4,0.7,2.4,2.6v1.7H12v1.6H4.5z M8,125.7v-1.3c0-0.8-0.2-1.4-1.1-1.4
		c-1,0-1.1,0.7-1.1,1.4v1.3H8z"/>
	<path d="M4.5,120.3v-4c0-1.3,0.9-2.2,2.1-2.2c0.9,0,1.5,0.4,1.9,1.2h0c0.2-0.8,1-1,1.8-1.1c0.5,0,1.4,0,1.8-0.3v1.6
		c-0.5,0.2-1.2,0.2-1.8,0.3C9.4,115.9,9,116.2,9,117v1.6H12v1.6H4.5z M7.9,118.7v-1.8c0-0.7-0.3-1.1-1.1-1.1c-0.7,0-1,0.4-1,1.1v1.8
		H7.9z"/>
	<path d="M4.3,109.4c0-2.3,1.7-3.7,4-3.7c2.2,0,3.9,1.4,3.9,3.7c0,2.3-1.7,3.7-3.9,3.7C6,113.1,4.3,111.7,4.3,109.4z M10.8,109.4
		c0-1.5-1.3-2-2.5-2c-1.3,0-2.6,0.6-2.6,2c0,1.5,1.3,2,2.6,2C9.5,111.4,10.8,110.9,10.8,109.4z"/>
	<path d="M4.5,104.6V101c0-1.4,0.5-2.4,1.9-2.4c0.7,0,1.2,0.4,1.6,1c0.3-0.9,1-1.4,1.9-1.4c1.5,0,2.2,1.3,2.2,2.6v3.6H4.5z
		 M7.5,102.9v-1.7c0-0.6-0.3-1-0.9-1c-0.7,0-0.9,0.5-0.9,1.1v1.5H7.5z M10.7,102.9v-1.8c0-0.7-0.2-1.2-1-1.2c-0.8,0-1.1,0.5-1.1,1.2
		v1.8H10.7z"/>
	<path d="M4.5,95.1v-1.7l7.5-2.8v1.7l-1.7,0.6v2.8l1.7,0.6V98L4.5,95.1z M9.1,95.3v-1.9l-2.8,0.9v0L9.1,95.3z"/>
	<path d="M4.5,90v-3.5C4.5,85,4.9,84,6.3,84c0.7,0,1.2,0.4,1.6,1c0.3-0.9,1-1.4,1.9-1.4c1.5,0,2.2,1.3,2.2,2.6V90H4.5z M7.5,88.3
		v-1.7c0-0.6-0.3-1-0.9-1c-0.7,0-0.9,0.5-0.9,1.1v1.5H7.5z M10.7,88.3v-1.8c0-0.7-0.2-1.2-1-1.2c-0.8,0-1.1,0.5-1.1,1.2v1.8H10.7z"
		/>
	<path d="M4.5,82.6v-1.6H12v1.6H4.5z"/>
	<path d="M4.5,79.5v-1.6h6.1v-3.7H12v5.3H4.5z"/>
	<path d="M4.5,73.2v-1.6H12v1.6H4.5z"/>
	<path d="M5.9,68.5v2.2H4.5v-6.1h1.4v2.2H12v1.6H5.9z"/>
	<path d="M9,61.8l-4.6,2.8v-1.9l3-1.8l-3-1.7v-1.8l4.6,2.8H12v1.6H9z"/>
</g>
</svg>
