<?xml version="1.0" encoding="utf-8"?>
<!-- Generator: Adobe Illustrator 19.1.0, SVG Export Plug-In . SVG Version: 6.00 Build 0)  -->
<svg version="1.1" id="Layer_1" xmlns="http://www.w3.org/2000/svg" xmlns:xlink="http://www.w3.org/1999/xlink" x="0px" y="0px"
	 viewBox="-24.9 29.8 332.9 217.7" enable-background="new -24.9 29.8 332.9 217.7" xml:space="preserve">
<g>
	<path d="M129.4,239.7h1.6v3.1l2.9-3.1h2l-2.9,2.9l3.2,4.5h-2.1l-2.1-3.4l-0.9,0.9v2.4h-1.6v-7.3H129.4z"/>
	<path d="M140.3,239.5c2.3,0,3.7,1.7,3.7,3.9c0,2.1-1.4,3.9-3.7,3.9s-3.7-1.7-3.7-3.9S138,239.5,140.3,239.5z M140.3,245.9
		c1.5,0,2-1.3,2-2.5c0-1.3-0.6-2.6-2-2.6c-1.5,0-2,1.3-2,2.6C138.3,244.6,138.8,245.9,140.3,245.9z"/>
	<path d="M145.1,239.7h1.6l3.1,5l0,0v-5h1.5v7.4h-1.6l-3.1-5l0,0v5h-1.5V239.7z"/>
	<path d="M153.9,244.6c0,1,0.8,1.4,1.6,1.4c0.6,0,1.4-0.2,1.4-0.9c0-0.8-1.1-0.9-2.2-1.2c-1.1-0.3-2.2-0.7-2.2-2.1
		c0-1.5,1.4-2.3,2.8-2.3c1.6,0,3,0.7,3,2.4h-1.6c-0.1-0.9-0.7-1.1-1.5-1.1c-0.5,0-1.1,0.2-1.1,0.8c0,0.6,0.4,0.6,2.2,1.1
		c0.5,0.1,2.2,0.5,2.2,2.2c0,1.4-1.1,2.4-3.1,2.4c-1.6,0-3.2-0.8-3.2-2.6L153.9,244.6L153.9,244.6z"/>
	<path d="M159.6,239.7h5.6v1.4h-3.9v1.6h3.6v1.3h-3.6v1.8h4v1.4h-5.7L159.6,239.7L159.6,239.7z"/>
	<path d="M166.3,239.7h1.6v3.1l2.9-3.1h2l-2.9,2.9l3.2,4.5H171l-2.2-3.3l-0.8,0.9v2.4h-1.6L166.3,239.7L166.3,239.7z"/>
	<path d="M177.3,247.1h-1.8l-2.4-7.4h1.7l1.7,5.2l0,0l1.7-5.2h1.7L177.3,247.1z"/>
	<path d="M180.4,239.7h5.6v1.4h-3.9v1.6h3.6v1.3h-3.6v1.8h4v1.4h-5.7L180.4,239.7L180.4,239.7z"/>
	<path d="M187.2,239.7h1.6l3.1,5l0,0v-5h1.5v7.4h-1.6l-3.1-5l0,0v5h-1.5V239.7z"/>
	<path d="M196,244.6c0,1,0.8,1.4,1.6,1.4c0.6,0,1.4-0.2,1.4-0.9c0-0.8-1.1-0.9-2.2-1.2c-1.1-0.3-2.2-0.7-2.2-2.1
		c0-1.5,1.4-2.3,2.8-2.3c1.6,0,3,0.7,3,2.4h-1.6c-0.1-0.9-0.7-1.1-1.5-1.1c-0.5,0-1.1,0.2-1.1,0.8c0,0.6,0.4,0.6,2.2,1.1
		c0.5,0.1,2.2,0.5,2.2,2.2c0,1.4-1.1,2.4-3.1,2.4c-1.6,0-3.2-0.8-3.2-2.6L196,244.6L196,244.6z"/>
</g>
<g>
	<path d="M285.3,240.4h4.4v0.8h-3.5v2.1h3.1v0.8h-3.1v3.1h-0.9V240.4z"/>
	<path d="M294.9,247.1c-0.1,0.1-0.3,0.1-0.6,0.1c-0.4,0-0.7-0.2-0.7-0.8c-0.4,0.5-1,0.8-1.7,0.8c-0.9,0-1.6-0.4-1.6-1.4
		c0-1.1,0.8-1.3,1.7-1.5c0.9-0.2,1.6-0.1,1.6-0.7c0-0.7-0.6-0.8-1.1-0.8c-0.7,0-1.2,0.2-1.2,0.9h-0.8c0-1.2,1-1.6,2.1-1.6
		c0.9,0,1.8,0.2,1.8,1.3v2.5c0,0.4,0,0.5,0.3,0.5c0.1,0,0.1,0,0.2,0L294.9,247.1L294.9,247.1z M293.6,244.6
		c-0.3,0.2-0.9,0.2-1.5,0.3c-0.5,0.1-1,0.3-1,0.9c0,0.5,0.5,0.7,0.9,0.7c1.1,0,1.5-0.7,1.5-1.1v-0.8H293.6z"/>
	<path d="M296.7,242.2h1v0.7h-1v3c0,0.4,0.1,0.4,0.6,0.4h0.4v0.7h-0.6c-0.8,0-1.2-0.2-1.2-1.1v-3.1h-0.8v-0.7h0.8v-1.5h0.8
		L296.7,242.2L296.7,242.2z"/>
	<path d="M302.9,247.1c-0.1,0.1-0.3,0.1-0.6,0.1c-0.4,0-0.7-0.2-0.7-0.8c-0.4,0.5-1,0.8-1.7,0.8c-0.9,0-1.6-0.4-1.6-1.4
		c0-1.1,0.8-1.3,1.7-1.5c0.9-0.2,1.6-0.1,1.6-0.7c0-0.7-0.6-0.8-1.1-0.8c-0.7,0-1.2,0.2-1.2,0.9h-0.8c0-1.2,1-1.6,2.1-1.6
		c0.9,0,1.8,0.2,1.8,1.3v2.5c0,0.4,0,0.5,0.3,0.5c0.1,0,0.1,0,0.2,0L302.9,247.1L302.9,247.1z M301.6,244.6
		c-0.3,0.2-0.9,0.2-1.5,0.3c-0.5,0.1-1,0.3-1,0.9c0,0.5,0.5,0.7,0.9,0.7c1.1,0,1.5-0.7,1.5-1.1v-0.8H301.6z"/>
	<path d="M303.7,240.4h0.8v6.7h-0.8V240.4z"/>
</g>
<g>
	<path d="M25.6,240.4h1.2l2.1,5.7l2.1-5.7h1.2v6.7h-0.8v-5.6l0,0l-2.1,5.6h-0.8l-2.1-5.6l0,0v5.6h-0.8L25.6,240.4L25.6,240.4z"/>
	<path d="M34.5,241.3h-0.8v-1h0.8V241.3z M33.7,242.2h0.8v4.9h-0.8V242.2z"/>
	<path d="M35.7,242.2h0.8v0.8l0,0c0.3-0.6,0.9-0.9,1.6-0.9c1.3,0,1.7,0.7,1.7,1.8v3.2H39v-3.3c0-0.6-0.4-1-1-1c-1,0-1.4,0.7-1.4,1.5
		v2.8h-0.8L35.7,242.2L35.7,242.2z"/>
	<path d="M41.8,241.3H41v-1h0.8V241.3z M41,242.2h0.8v4.9H41V242.2z"/>
	<path d="M43.1,242.2h0.8v0.7l0,0c0.4-0.5,0.9-0.8,1.6-0.8c0.6,0,1.1,0.2,1.3,0.8c0.3-0.5,0.9-0.8,1.5-0.8c1,0,1.6,0.4,1.6,1.4v3.6
		h-0.8v-3.2c0-0.6-0.2-1.1-0.9-1.1c-0.8,0-1.3,0.5-1.3,1.2v3h-0.8v-3.2c0-0.6-0.2-1.1-0.9-1.1c-1,0-1.3,0.9-1.3,1.2v3h-0.8
		L43.1,242.2L43.1,242.2z"/>
	<path d="M55.4,247.1c-0.1,0.1-0.3,0.1-0.6,0.1c-0.4,0-0.7-0.2-0.7-0.8c-0.4,0.5-1,0.8-1.7,0.8c-0.9,0-1.6-0.4-1.6-1.4
		c0-1.1,0.8-1.3,1.7-1.5c0.9-0.2,1.6-0.1,1.6-0.7c0-0.7-0.6-0.8-1.1-0.8c-0.7,0-1.2,0.2-1.2,0.9H51c0-1.2,1-1.6,2.1-1.6
		c0.9,0,1.8,0.2,1.8,1.3v2.5c0,0.4,0,0.5,0.3,0.5c0.1,0,0.1,0,0.2,0V247.1z M54.1,244.6c-0.3,0.2-0.9,0.2-1.5,0.3
		c-0.5,0.1-1,0.3-1,0.9c0,0.5,0.5,0.7,0.9,0.7c1.1,0,1.5-0.7,1.5-1.1L54.1,244.6L54.1,244.6z"/>
	<path d="M56.2,240.4H57v6.7h-0.8V240.4z"/>
</g>
<g>
	<path d="M-24.9,29.8h0.9v2.9h3.5v-2.9h0.9v6.7h-0.9v-3.1H-24v3.1h-0.9V29.8z"/>
	<path d="M-14.3,32.3c0.4,0.4,0.5,1.1,0.5,1.7c0,1.4-0.8,2.5-2.4,2.5c-0.7,0-1.2-0.2-1.6-0.5l-0.4,0.7l-0.3-0.2l0.6-0.7
		c-0.4-0.5-0.6-1.1-0.6-1.8c0-1.4,0.8-2.6,2.4-2.6c0.7,0,1.2,0.2,1.6,0.6l0.5-0.6l0.3,0.2L-14.3,32.3z M-15,32.7
		c-0.3-0.3-0.6-0.4-1-0.4c-0.8,0-1.5,0.7-1.5,1.8c0,0.5,0.1,0.8,0.3,1.1L-15,32.7z M-17.1,35.5c0.3,0.3,0.6,0.4,1,0.4
		c0.8,0,1.5-0.7,1.5-1.8c0-0.5-0.1-0.8-0.3-1.1L-17.1,35.5z"/>
	<path d="M-10.9,37.2c-0.4,1-0.7,1.3-1.4,1.3c-0.2,0-0.4,0-0.6-0.1v-0.7c0.2,0,0.3,0.1,0.5,0.1c0.3,0,0.5-0.2,0.7-0.4l0.3-0.8
		l-1.9-4.8h0.9l1.4,4l0,0l1.4-4h0.8L-10.9,37.2z"/>
</g>
<g>
	<path d="M-24.4,201.9h0.9v6h3.6v0.8h-4.5V201.9z"/>
	<path d="M-14.9,208.6c-0.1,0.1-0.3,0.1-0.6,0.1c-0.4,0-0.7-0.2-0.7-0.8c-0.4,0.5-1,0.8-1.7,0.8c-0.9,0-1.6-0.4-1.6-1.4
		c0-1.1,0.8-1.3,1.7-1.5s1.6-0.1,1.6-0.7c0-0.7-0.6-0.8-1.1-0.8c-0.7,0-1.2,0.2-1.2,0.9h-0.8c0-1.2,1-1.6,2.1-1.6
		c0.9,0,1.8,0.2,1.8,1.3v2.5c0,0.4,0,0.5,0.3,0.5c0.1,0,0.1,0,0.2,0V208.6z M-16.2,206.1c-0.3,0.2-0.9,0.2-1.5,0.3
		c-0.5,0.1-1,0.3-1,0.9c0,0.5,0.5,0.7,0.9,0.7c1.1,0,1.5-0.7,1.5-1.1L-16.2,206.1L-16.2,206.1z"/>
	<path d="M-12,208.6h-0.9l-1.8-4.9h0.9l1.4,4.1l0,0l1.3-4.1h0.8L-12,208.6z"/>
</g>
<g>
	<rect x="206.7" y="243.7" width="65.2" height="0.5"/>
	<polygon points="268.4,247.5 268.1,247.1 271.6,243.9 268.1,240.7 268.4,240.3 272.3,243.9 	"/>
</g>
<g>
	<rect x="69.4" y="243.7" width="50.6" height="0.5"/>
	<polygon points="72.9,247.5 69,243.9 72.9,240.3 73.2,240.7 69.8,243.9 73.2,247.1 	"/>
</g>
<g>
	<path d="M-14.5,163.3c1,0,1.4-0.8,1.4-1.6c0-0.6-0.2-1.4-0.9-1.4c-0.8,0-0.9,1.1-1.2,2.2c-0.3,1.1-0.7,2.2-2.1,2.2
		c-1.5,0-2.3-1.4-2.3-2.8c0-1.6,0.7-3,2.4-3v1.6c-0.9,0.1-1.1,0.7-1.1,1.5c0,0.5,0.2,1.1,0.8,1.1s0.6-0.4,1.1-2.2
		c0.1-0.5,0.5-2.2,2.2-2.2c1.4,0,2.4,1.1,2.4,3.1c0,1.6-0.8,3.2-2.6,3.2v-1.7H-14.5z"/>
	<path d="M-19.4,155.6v-1.7l7.4-2.8v1.7l-1.7,0.6v2.8l1.7,0.6v1.7L-19.4,155.6z M-14.9,155.8v-1.9l-2.7,0.9l0,0L-14.9,155.8z"/>
	<path d="M-19.4,150.5v-1.6l5-3.1l0,0h-5v-1.5h7.4v1.6l-5,3.1l0,0h5v1.5H-19.4z"/>
	<path d="M-19.4,142.8v-1.6l5-3.1l0,0h-5v-1.5h7.4v1.6l-5,3.1l0,0h5v1.5H-19.4z"/>
	<path d="M-14.5,133.9c1,0,1.4-0.8,1.4-1.6c0-0.6-0.2-1.4-0.9-1.4c-0.8,0-0.9,1.1-1.2,2.2c-0.3,1.1-0.7,2.2-2.1,2.2
		c-1.5,0-2.3-1.4-2.3-2.8c0-1.6,0.7-3,2.4-3v1.6c-0.9,0.1-1.1,0.7-1.1,1.5c0,0.5,0.2,1.1,0.8,1.1s0.6-0.4,1.1-2.2
		c0.1-0.5,0.5-2.2,2.2-2.2c1.4,0,2.4,1.1,2.4,3.1c0,1.6-0.8,3.2-2.6,3.2v-1.7H-14.5z"/>
	<path d="M-14.9,126.3l-4.5,2.7v-1.8l2.9-1.7l-2.9-1.7V122l4.6,2.8h2.8v1.6h-2.9V126.3z"/>
	<path d="M-19.4,121.3v-1.6l5-3.1l0,0h-5v-1.5h7.4v1.6l-5,3.1l0,0h5v1.5H-19.4z"/>
	<path d="M-19.4,113.6V112h6.1v-3.6h1.3v5.3L-19.4,113.6L-19.4,113.6z"/>
	<path d="M-19.4,107.4v-1.6h7.4v1.6H-19.4z"/>
	<path d="M-12.8,98.9c0.7,0.6,1,1.3,1,2c0,2.3-1.7,3.7-3.9,3.7s-3.9-1.4-3.9-3.7c0-1.5,0.9-3,2.6-3.1v1.6c-0.8,0.2-1.3,0.8-1.3,1.6
		c0,1.5,1.3,2,2.6,2c1.2,0,2.5-0.6,2.5-2c0-1.1-0.6-1.7-1.6-1.8v1.6H-16v-3.1h4v1L-12.8,98.9z"/>
	<path d="M-19.4,96.4v-1.6h2.9v-3h-2.9v-1.6h7.4v1.6h-3.2v3h3.2v1.6H-19.4z"/>
	<path d="M-19.4,88.7v-5.6h1.4V87h1.6v-3.6h1.3V87h1.8v-4h1.3v5.7H-19.4z"/>
	<path d="M-18.1,80.3v2.2h-1.4v-6.1h1.4v2.2h6.1v1.6h-6.1V80.3z"/>
</g>
<g>
	<rect x="-16.9" y="46.4" width="0.5" height="24.7"/>
	<polygon points="-19.9,50.3 -20.3,49.9 -16.7,46 -13.1,49.9 -13.4,50.3 -16.7,46.8 	"/>
</g>
<g>
	<rect x="-16.9" y="171.3" width="0.5" height="24.5"/>
	<polygon points="-16.7,196.2 -20.3,192.3 -19.9,192 -16.7,195.4 -13.4,192 -13.1,192.3 	"/>
</g>
<g>
	<path d="M54.1,230.4h-0.7v-11.9c-0.9,1-2.2,1.6-3.6,1.7v-0.6c1.5-0.2,2.9-1.1,3.7-2.5h0.7L54.1,230.4L54.1,230.4z"/>
</g>
<g>
	<path d="M15.7,161.2v0.7H6.8c0.2-2.5,2.1-3.9,4.1-5.2c1.9-1.3,3.9-2.5,3.9-4.8c0-1.8-1.5-3-3.3-3c-2.4,0-3.6,1.8-3.6,4.1H7.2
		c0.2-3.2,1.6-4.7,4.2-4.7c2.3,0,4.1,1.2,4.1,3.7c0,2.3-1.8,3.8-3.8,5.1c-1.9,1.3-3.9,2.5-4,4.1L15.7,161.2L15.7,161.2z"/>
</g>
<g>
	<path d="M12.3,196.7h-0.7v-12c-0.9,1-2.2,1.6-3.6,1.7v-0.6c1.5-0.2,2.9-1.1,3.7-2.5h0.7L12.3,196.7L12.3,196.7z"/>
</g>
<g>
	<path d="M7.4,120.7c-0.1,2.5,1.4,4,3.9,4c2,0,3.8-1.2,3.8-3.3c0-2.6-2.3-3.2-4.5-3.1v-0.6c2,0.1,4.2-0.5,4.2-2.8
		c0-1.9-1.9-2.7-3.5-2.7c-2.3,0-3.5,1.6-3.6,3.8H7c0-2.6,1.6-4.5,4.3-4.5c2.2,0,4.3,1,4.3,3.4c0,1.6-1,2.8-2.6,3.1l0,0
		c1.8,0.2,2.9,1.6,2.9,3.4c0,2.6-2.1,3.9-4.6,3.9c-2.9,0-4.8-1.7-4.6-4.6L7.4,120.7L7.4,120.7z"/>
</g>
<g>
	<path d="M13.7,77.5v9.3H16v0.6h-2.2v3.4H13v-3.4H6.5v-0.7l6.5-9.2H13.7z M13,78.5L13,78.5l-5.8,8.3H13V78.5z"/>
</g>
<g>
	<path d="M8.4,41.8h6.8v0.6H9l-1.1,5.3l0,0c0.8-1.1,2-1.6,3.3-1.6c2.7,0,4.5,1.9,4.5,4.6s-1.9,4.6-4.5,4.6S6.4,53.7,6.6,51h0.7
		c0,2.2,1.7,3.7,3.9,3.7c2.3,0,3.8-1.8,3.8-4s-1.6-3.9-3.8-3.9c-1.5,0-2.6,0.6-3.4,1.9H7L8.4,41.8z"/>
</g>
<g>
	<path d="M114.6,229.7v0.7h-8.9c0.2-2.5,2.1-3.9,4.1-5.2c1.9-1.3,3.9-2.5,3.9-4.8c0-1.8-1.5-3-3.3-3c-2.4,0-3.6,1.8-3.6,4.1H106
		c0.2-3.2,1.6-4.7,4.2-4.7c2.3,0,4.1,1.2,4.1,3.7c0,2.3-1.8,3.8-3.8,5.1c-1.9,1.3-3.9,2.5-4,4.1L114.6,229.7L114.6,229.7z"/>
</g>
<g>
	<path d="M162.3,226c-0.1,2.5,1.4,4,3.9,4c2,0,3.8-1.2,3.8-3.3c0-2.6-2.3-3.2-4.5-3.1V223c2,0.1,4.2-0.5,4.2-2.8
		c0-1.9-1.9-2.7-3.5-2.7c-2.3,0-3.5,1.6-3.6,3.8h-0.7c0-2.6,1.6-4.5,4.3-4.5c2.1,0,4.3,1,4.3,3.4c0,1.6-1,2.8-2.6,3.1l0,0
		c1.8,0.2,2.9,1.6,2.9,3.4c0,2.6-2.1,3.9-4.6,3.9c-2.9,0-4.8-1.7-4.6-4.6L162.3,226L162.3,226z"/>
</g>
<g>
	<path d="M224.1,217.1v9.3h2.2v0.6h-2.2v3.4h-0.7V227h-6.5v-0.7l6.5-9.2L224.1,217.1L224.1,217.1z M223.3,218.1L223.3,218.1
		l-5.8,8.3h5.8V218.1z"/>
</g>
<g>
	<path d="M278.6,217.1h6.8v0.6h-6.2l-1.1,5.3l0,0c0.8-1.1,2-1.6,3.3-1.6c2.7,0,4.5,1.9,4.5,4.6c0,2.7-1.9,4.6-4.5,4.6
		s-4.8-1.6-4.6-4.3h0.7c0,2.2,1.7,3.7,3.9,3.7c2.3,0,3.8-1.8,3.8-4s-1.6-3.9-3.8-3.9c-1.5,0-2.6,0.6-3.4,1.9h-0.8L278.6,217.1z"/>
</g>
<rect x="80.9" y="173.7" fill="#00A651" width="56.1" height="34.9"/>
<rect x="80.9" y="137.8" fill="#00A651" width="56.1" height="34.9"/>
<rect x="137.9" y="30.1" fill="#ED1C24" width="56.1" height="34.9"/>
<rect x="194.9" y="30.1" fill="#ED1C24" width="56.1" height="34.9"/>
<rect x="252" y="30.1" fill="#ED1C24" width="56" height="34.9"/>
<rect x="252" y="66" fill="#ED1C24" width="56" height="34.9"/>
<rect x="252" y="101.9" fill="#ED1C24" width="56" height="34.9"/>
<rect x="194.9" y="137.8" fill="#FFDE17" width="56.1" height="34.9"/>
<rect x="194.9" y="173.7" fill="#00A651" width="56.1" height="34.9"/>
<rect x="137.9" y="137.8" fill="#00A651" width="56.1" height="34.9"/>
<rect x="137.9" y="173.7" fill="#00A651" width="56.1" height="34.9"/>
<rect x="252" y="137.8" fill="#ED1C24" width="56" height="34.9"/>
<rect x="25.4" y="30.1" fill="#FFDE17" width="54.4" height="34.9"/>
<rect x="25.4" y="66" fill="#00A651" width="54.4" height="34.9"/>
<rect x="80.9" y="66" fill="#FFDE17" width="56.1" height="34.9"/>
<rect x="80.9" y="101.9" fill="#00A651" width="56.1" height="34.9"/>
<rect x="80.9" y="30.1" fill="#ED1C24" width="56.1" height="34.9"/>
<rect x="137.9" y="101.9" fill="#FFDE17" width="56.1" height="34.9"/>
<rect x="194.9" y="101.9" fill="#ED1C24" width="56.1" height="34.9"/>
<rect x="194.9" y="66" fill="#ED1C24" width="56.1" height="34.9"/>
<rect x="137.9" y="66" fill="#ED1C24" width="56.1" height="34.9"/>
<rect x="252" y="173.7" fill="#FFDE17" width="56" height="34.9"/>
<rect x="25.4" y="173.7" fill="#00A651" width="54.4" height="34.9"/>
<rect x="25.4" y="137.8" fill="#00A651" width="54.4" height="34.9"/>
<rect x="25.4" y="101.9" fill="#00A651" width="54.4" height="34.9"/>
</svg>
