<?xml version="1.0" encoding="utf-8"?>
<!-- Generator: Adobe Illustrator 18.1.1, SVG Export Plug-In . SVG Version: 6.00 Build 0)  -->
<svg version="1.1" id="Layer_1" xmlns="http://www.w3.org/2000/svg" xmlns:xlink="http://www.w3.org/1999/xlink" x="0px" y="0px"
	 viewBox="0 0 782 479" enable-background="new 0 0 782 479" xml:space="preserve">
<linearGradient id="SVGID_1_" gradientUnits="userSpaceOnUse" x1="327.7661" y1="329.9478" x2="605.8185" y2="11.4024">
	<stop  offset="0.2379" style="stop-color:#1C75BC"/>
	<stop  offset="1" style="stop-color:#9E1F63"/>
</linearGradient>
<rect x="95.6" y="6.4" fill="url(#SVGID_1_)" width="663.3" height="419.1"/>
<g>
	<path d="M330.3,456.7h3.9v7.3l6.9-7.3h4.8l-6.9,7l7.5,10.7h-4.9l-5.3-7.9l-2.2,2.2v5.7h-3.9V456.7z"/>
	<path d="M356,456.3c5.4,0,8.7,4.1,8.7,9.3c0,5.1-3.2,9.1-8.7,9.1c-5.4,0-8.7-4.1-8.7-9.1C347.4,460.4,350.6,456.3,356,456.3z
		 M356,471.5c3.5,0,4.8-3,4.8-5.9c0-3.1-1.3-6-4.8-6c-3.5,0-4.8,3-4.8,6C351.2,468.5,352.6,471.5,356,471.5z"/>
	<path d="M367.3,456.7h3.8l7.3,11.8h0v-11.8h3.6v17.6h-3.9l-7.3-11.8h0v11.8h-3.6V456.7z"/>
	<path d="M388.2,468.5c0,2.3,1.8,3.3,3.9,3.3c1.4,0,3.4-0.4,3.4-2.2c0-1.9-2.6-2.2-5.2-2.9c-2.6-0.7-5.3-1.7-5.3-5
		c0-3.6,3.4-5.3,6.6-5.3c3.7,0,7.1,1.6,7.1,5.7H395c-0.1-2.1-1.6-2.7-3.5-2.7c-1.2,0-2.7,0.5-2.7,2c0,1.4,0.8,1.5,5.3,2.7
		c1.3,0.3,5.2,1.1,5.2,5.1c0,3.2-2.5,5.6-7.3,5.6c-3.9,0-7.5-1.9-7.5-6.3H388.2z"/>
	<path d="M401.6,456.7h13.2v3.3h-9.3v3.8h8.5v3h-8.5v4.3h9.5v3.3h-13.4V456.7z"/>
	<path d="M417.6,456.7h3.9v7.3l6.9-7.3h4.8l-6.9,7l7.5,10.7H429l-5.3-7.9l-2.2,2.2v5.7h-3.9V456.7z"/>
	<path d="M443.5,474.3h-4.4l-5.7-17.6h4l3.9,12.4h0l4-12.4h4L443.5,474.3z"/>
	<path d="M450.9,456.7h13.2v3.3h-9.3v3.8h8.5v3h-8.5v4.3h9.5v3.3h-13.4V456.7z"/>
	<path d="M466.9,456.7h3.8l7.3,11.8h0v-11.8h3.6v17.6h-3.9l-7.3-11.8h0v11.8h-3.6V456.7z"/>
	<path d="M487.8,468.5c0,2.3,1.8,3.3,3.9,3.3c1.4,0,3.4-0.4,3.4-2.2c0-1.9-2.6-2.2-5.2-2.9c-2.6-0.7-5.3-1.7-5.3-5
		c0-3.6,3.4-5.3,6.6-5.3c3.7,0,7.1,1.6,7.1,5.7h-3.7c-0.1-2.1-1.6-2.7-3.5-2.7c-1.2,0-2.7,0.5-2.7,2c0,1.4,0.8,1.5,5.3,2.7
		c1.3,0.3,5.2,1.1,5.2,5.1c0,3.2-2.5,5.6-7.3,5.6c-3.9,0-7.5-1.9-7.5-6.3H487.8z"/>
</g>
<g>
	<path d="M651.2,458.4h2.1v7.9l8.1-7.9h2.7l-6.7,6.4l7,9.5h-2.7l-5.8-8.1l-2.7,2.5v5.6h-2.1V458.4z"/>
	<path d="M675.9,474.3c-0.3,0.2-0.8,0.3-1.4,0.3c-1,0-1.6-0.5-1.6-1.8c-1,1.2-2.5,1.8-4.1,1.8c-2.1,0-3.8-0.9-3.8-3.2
		c0-2.6,1.9-3.2,3.9-3.5c2.1-0.4,3.9-0.3,3.9-1.7c0-1.7-1.4-1.9-2.6-1.9c-1.6,0-2.8,0.5-2.9,2.2h-1.9c0.1-2.9,2.3-3.9,4.9-3.9
		c2.1,0,4.3,0.5,4.3,3.2v5.9c0,0.9,0,1.3,0.6,1.3c0.2,0,0.3,0,0.6-0.1V474.3z M672.9,468.4c-0.7,0.5-2.2,0.6-3.4,0.8
		c-1.2,0.2-2.3,0.7-2.3,2.1c0,1.2,1.1,1.7,2.2,1.7c2.5,0,3.5-1.6,3.5-2.6V468.4z"/>
	<path d="M680.3,462.8h2.3v1.7h-2.3v7.2c0,0.9,0.2,1,1.4,1h0.9v1.7h-1.5c-2,0-2.7-0.4-2.7-2.5v-7.3h-2v-1.7h2v-3.5h1.9V462.8z"/>
	<path d="M694.9,474.3c-0.3,0.2-0.8,0.3-1.4,0.3c-1,0-1.6-0.5-1.6-1.8c-1,1.2-2.5,1.8-4.1,1.8c-2.1,0-3.8-0.9-3.8-3.2
		c0-2.6,1.9-3.2,3.9-3.5c2.1-0.4,3.9-0.3,3.9-1.7c0-1.7-1.4-1.9-2.6-1.9c-1.6,0-2.8,0.5-2.9,2.2h-1.9c0.1-2.9,2.3-3.9,4.9-3.9
		c2.1,0,4.3,0.5,4.3,3.2v5.9c0,0.9,0,1.3,0.6,1.3c0.2,0,0.3,0,0.6-0.1V474.3z M691.9,468.4c-0.7,0.5-2.2,0.6-3.4,0.8
		c-1.2,0.2-2.3,0.7-2.3,2.1c0,1.2,1.1,1.7,2.2,1.7c2.5,0,3.5-1.6,3.5-2.6V468.4z"/>
	<path d="M697.9,470.7c0.1,1.7,1.5,2.2,3.1,2.2c1.2,0,2.8-0.3,2.8-1.7c0-1.5-1.9-1.7-3.8-2.1c-1.9-0.4-3.8-1-3.8-3.3
		c0-2.3,2.3-3.3,4.3-3.3c2.5,0,4.6,0.8,4.7,3.6h-1.9c-0.1-1.5-1.4-1.9-2.7-1.9c-1.1,0-2.5,0.3-2.5,1.5c0,1.4,2,1.6,3.8,2
		c1.9,0.4,3.8,1,3.8,3.3c0,2.7-2.6,3.6-4.9,3.6c-2.6,0-4.8-1-4.9-3.9H697.9z"/>
	<path d="M710.5,462.8h2.3v1.7h-2.3v7.2c0,0.9,0.2,1,1.4,1h0.9v1.7h-1.4c-2,0-2.7-0.4-2.7-2.5v-7.3h-2v-1.7h2v-3.5h1.9V462.8z"/>
	<path d="M714.8,462.8h1.8v2.4h0c0.9-1.9,2.2-2.8,4.2-2.7v2c-3.1,0-4.2,1.7-4.2,4.7v5.1h-1.9V462.8z"/>
	<path d="M726.9,462.5c3.7,0,5.6,2.7,5.6,6c0,3.4-1.9,6-5.6,6c-3.7,0-5.6-2.7-5.6-6C721.3,465.2,723.2,462.5,726.9,462.5z
		 M726.9,472.9c2,0,3.6-1.6,3.6-4.3c0-2.8-1.6-4.4-3.6-4.4c-2,0-3.6,1.6-3.6,4.4C723.3,471.4,724.9,472.9,726.9,472.9z"/>
	<path d="M735.5,464.5h-1.9v-1.7h1.9v-1.7c0-1.9,1.1-2.9,3.2-2.9c0.4,0,0.9,0.1,1.2,0.2v1.7c-0.3-0.1-0.7-0.2-1.1-0.2
		c-0.9,0-1.4,0.3-1.4,1.3v1.6h2.2v1.7h-2.2v9.9h-1.9V464.5z"/>
	<path d="M751.5,474.3c-0.3,0.2-0.8,0.3-1.4,0.3c-1,0-1.6-0.5-1.6-1.8c-1,1.2-2.5,1.8-4.1,1.8c-2.1,0-3.8-0.9-3.8-3.2
		c0-2.6,1.9-3.2,3.9-3.5c2.1-0.4,3.9-0.3,3.9-1.7c0-1.7-1.4-1.9-2.6-1.9c-1.6,0-2.8,0.5-2.9,2.2h-1.9c0.1-2.9,2.3-3.9,4.9-3.9
		c2.1,0,4.3,0.5,4.3,3.2v5.9c0,0.9,0,1.3,0.6,1.3c0.2,0,0.3,0,0.6-0.1V474.3z M748.4,468.4c-0.7,0.5-2.2,0.6-3.4,0.8
		c-1.2,0.2-2.3,0.7-2.3,2.1c0,1.2,1.1,1.7,2.2,1.7c2.5,0,3.5-1.6,3.5-2.6V468.4z"/>
	<path d="M753.4,458.4h1.9v15.9h-1.9V458.4z"/>
</g>
<g>
	<path d="M108.6,468.6c0,4-2.3,6.1-6.3,6.1c-4.1,0-6.5-1.9-6.5-6.1v-10.2h2.1v10.2c0,2.8,1.6,4.3,4.4,4.3c2.7,0,4.1-1.5,4.1-4.3
		v-10.2h2.1V468.6z"/>
	<path d="M112.5,464.5h-1.9v-1.7h1.9v-1.7c0-1.9,1.1-2.9,3.2-2.9c0.4,0,0.9,0.1,1.2,0.2v1.7c-0.3-0.1-0.7-0.2-1.1-0.2
		c-0.9,0-1.4,0.3-1.4,1.3v1.6h2.2v1.7h-2.2v9.9h-1.9V464.5z"/>
	<path d="M128.5,474.3c-0.3,0.2-0.8,0.3-1.4,0.3c-1,0-1.6-0.5-1.6-1.8c-1,1.2-2.5,1.8-4.1,1.8c-2.1,0-3.8-0.9-3.8-3.2
		c0-2.6,1.9-3.2,3.9-3.5c2.1-0.4,3.9-0.3,3.9-1.7c0-1.7-1.4-1.9-2.6-1.9c-1.6,0-2.8,0.5-2.9,2.2h-1.9c0.1-2.9,2.3-3.9,4.9-3.9
		c2.1,0,4.3,0.5,4.3,3.2v5.9c0,0.9,0,1.3,0.6,1.3c0.2,0,0.3,0,0.6-0.1V474.3z M125.4,468.4c-0.7,0.5-2.2,0.6-3.4,0.8
		c-1.2,0.2-2.3,0.7-2.3,2.1c0,1.2,1.1,1.7,2.2,1.7c2.5,0,3.5-1.6,3.5-2.6V468.4z"/>
	<path d="M130.2,462.8h1.8v2.4h0c0.9-1.9,2.2-2.8,4.2-2.7v2c-3.1,0-4.2,1.7-4.2,4.7v5.1h-1.9V462.8z"/>
	<path d="M137.8,458.4h1.9v15.9h-1.9V458.4z"/>
	<path d="M144.6,460.7h-1.9v-2.3h1.9V460.7z M142.8,462.8h1.9v11.5h-1.9V462.8z"/>
	<path d="M157.5,473.3c0,3.7-1.7,5.7-5.4,5.7c-2.2,0-4.7-0.9-4.8-3.4h1.9c0.1,1.4,1.7,1.9,3,1.9c2.5,0,3.5-1.8,3.5-4.4v-0.8h0
		c-0.6,1.4-2.1,2.1-3.6,2.1c-3.4,0-5.2-2.7-5.2-5.8c0-2.7,1.3-6.1,5.3-6.1c1.4,0,2.7,0.6,3.4,1.9h0v-1.7h1.8V473.3z M155.7,468.3
		c0-2-0.9-4.1-3.3-4.1c-2.4,0-3.4,2-3.4,4.2c0,2.1,0.8,4.4,3.3,4.4S155.7,470.5,155.7,468.3z"/>
</g>
<g>
	<path d="M29.3,3.1c5.1,0,7.6,4,7.6,8.3c0,4.3-2.6,8.3-7.6,8.3c-5.1,0-7.6-4-7.6-8.3C21.6,7.1,24.2,3.1,29.3,3.1z M29.3,18
		c3.9,0,5.5-3.3,5.5-6.6c0-3.2-1.6-6.6-5.5-6.6c-3.9,0-5.5,3.3-5.5,6.6C23.7,14.7,25.4,18,29.3,18z"/>
	<path d="M39.9,9.6H38V7.9h1.9V6.2c0-1.9,1.1-2.9,3.2-2.9c0.4,0,0.9,0.1,1.2,0.2v1.7C44,5,43.6,5,43.3,5c-0.9,0-1.4,0.3-1.4,1.3v1.6
		h2.2v1.7h-2.2v9.9h-1.9V9.6z"/>
	<path d="M48.4,7.9h2.3v1.7h-2.3v7.2c0,0.9,0.2,1,1.4,1h0.9v1.7h-1.4c-2,0-2.7-0.4-2.7-2.5V9.6h-2V7.9h2V4.4h1.9V7.9z"/>
	<path d="M62.6,15.8c-0.5,2.5-2.3,3.9-4.9,3.9c-3.7,0-5.4-2.5-5.5-6.1c0-3.5,2.3-6,5.4-6c4.1,0,5.3,3.8,5.2,6.6h-8.6
		c-0.1,2,1.1,3.8,3.6,3.8c1.6,0,2.7-0.8,3-2.3H62.6z M60.8,12.6c-0.1-1.8-1.4-3.3-3.3-3.3c-2,0-3.2,1.5-3.3,3.3H60.8z"/>
</g>
<g>
	<path d="M14.1,413.2c-0.2-2.3-1.8-3.3-3.9-3.3c-1.8,0-3.6,0.6-3.6,2.7c0,2,2.5,2.3,5.1,2.8c2.5,0.6,5.1,1.5,5.1,4.6
		c0,3.4-3.3,4.8-6.2,4.8c-3.6,0-6.6-1.7-6.6-5.6h2c0,2.7,2.2,3.8,4.6,3.8c1.9,0,4-0.6,4-2.9c0-2.2-2.5-2.6-5.1-3.1
		c-2.5-0.6-5.1-1.3-5.1-4.2c0-3.2,2.9-4.7,5.8-4.7c3.3,0,5.7,1.5,5.9,5H14.1z"/>
	<path d="M21.1,425.9c0,2.1-1.1,2.9-2.8,2.9c-0.3,0-0.6,0-1-0.1v-1.6c0.3,0,0.5,0,0.8,0c0.8,0,1.1-0.4,1.1-1.6v-12.7h1.9V425.9z
		 M21.1,410.8h-1.9v-2.3h1.9V410.8z"/>
	<path d="M33.8,420.8c-0.5,2.5-2.3,3.9-4.9,3.9c-3.7,0-5.4-2.5-5.5-6.1c0-3.5,2.3-6,5.4-6c4.1,0,5.3,3.8,5.2,6.6h-8.6
		c-0.1,2,1.1,3.8,3.6,3.8c1.6,0,2.7-0.8,3-2.3H33.8z M32,417.6c-0.1-1.8-1.4-3.3-3.3-3.3c-2,0-3.2,1.5-3.3,3.3H32z"/>
	<path d="M36.1,408.5H38v15.9h-1.9V408.5z"/>
	<path d="M51.2,424.4h-1.9v-1.6h0c-0.6,1.3-2.1,1.8-3.7,1.8c-3.5,0-5.3-2.8-5.3-6.1c0-3.3,1.7-6,5.3-6c1.2,0,2.9,0.4,3.7,1.8h0v-5.9
		h1.9V424.4z M45.9,423c2.5,0,3.5-2.2,3.5-4.3c0-2.3-1-4.4-3.6-4.4c-2.6,0-3.5,2.2-3.5,4.5C42.3,420.9,43.4,423,45.9,423z"/>
	<path d="M64,420.8c-0.5,2.5-2.3,3.9-4.9,3.9c-3.7,0-5.4-2.5-5.5-6.1c0-3.5,2.3-6,5.4-6c4.1,0,5.3,3.8,5.2,6.6h-8.6
		c-0.1,2,1.1,3.8,3.6,3.8c1.6,0,2.7-0.8,3-2.3H64z M62.2,417.6c-0.1-1.8-1.4-3.3-3.3-3.3c-2,0-3.2,1.5-3.3,3.3H62.2z"/>
	<path d="M66.1,412.9h1.8v1.8h0c0.8-1.4,2.1-2.1,3.7-2.1c3,0,4,1.7,4,4.2v7.6h-1.9v-7.8c0-1.4-0.9-2.3-2.3-2.3
		c-2.3,0-3.4,1.5-3.4,3.6v6.5h-1.9V412.9z"/>
</g>
<g>
	<rect x="508.3" y="466.2" width="133" height="1.2"/>
	<polygon points="633.1,475.3 632.3,474.4 640.5,466.8 632.3,459.1 633.1,458.3 642.2,466.8 	"/>
</g>
<g>
	<rect x="167.3" y="466.2" width="157.1" height="1.2"/>
	<polygon points="175.6,475.3 166.4,466.8 175.6,458.3 176.4,459.1 168.2,466.8 176.4,474.4 	"/>
</g>
<g>
	<path d="M39.4,114.6c-2.3,0-3.3,1.8-3.3,3.9c0,1.4,0.4,3.4,2.2,3.4c1.9,0,2.2-2.6,2.9-5.2c0.7-2.6,1.7-5.3,5-5.3
		c3.6,0,5.3,3.4,5.3,6.6c0,3.7-1.6,7.1-5.7,7.1v-3.7c2.1-0.1,2.7-1.6,2.7-3.5c0-1.2-0.5-2.7-2-2.7c-1.4,0-1.5,0.8-2.7,5.3
		c-0.3,1.3-1.1,5.2-5.1,5.2c-3.2,0-5.6-2.5-5.6-7.3c0-3.9,1.9-7.5,6.3-7.5V114.6z"/>
	<path d="M51.2,132.8v4l-17.6,6.6v-4l3.9-1.3v-6.6l-3.9-1.4v-3.9L51.2,132.8z M40.4,132.4v4.6l6.5-2.2v0L40.4,132.4z"/>
	<path d="M51.2,144.9v3.8l-11.8,7.3v0h11.8v3.6H33.6v-3.9l11.8-7.3v0H33.6v-3.6H51.2z"/>
	<path d="M51.2,163.2v3.8l-11.8,7.3v0h11.8v3.6H33.6v-3.9l11.8-7.3v0H33.6v-3.6H51.2z"/>
	<path d="M39.4,184.1c-2.3,0-3.3,1.8-3.3,3.9c0,1.4,0.4,3.4,2.2,3.4c1.9,0,2.2-2.6,2.9-5.2c0.7-2.6,1.7-5.3,5-5.3
		c3.6,0,5.3,3.4,5.3,6.6c0,3.7-1.6,7.1-5.7,7.1v-3.7c2.1-0.1,2.7-1.6,2.7-3.5c0-1.2-0.5-2.7-2-2.7c-1.4,0-1.5,0.8-2.7,5.3
		c-0.3,1.3-1.1,5.2-5.1,5.2c-3.2,0-5.6-2.5-5.6-7.3c0-3.9,1.9-7.5,6.3-7.5V184.1z"/>
	<path d="M40.4,202l10.8-6.5v4.4l-7,4.1l7,4.1v4.3l-10.8-6.5h-6.8V202H40.4z"/>
	<path d="M51.2,213.9v3.8l-11.8,7.3v0h11.8v3.6H33.6v-3.9l11.8-7.3v0H33.6v-3.6H51.2z"/>
	<path d="M51.2,232.1v3.9H36.8v8.6h-3.3v-12.5H51.2z"/>
	<path d="M51.2,246.8v3.9H33.6v-3.9H51.2z"/>
	<path d="M35.6,266.7c-1.8-1.4-2.4-3.1-2.4-4.8c0-5.4,4.1-8.7,9.1-8.7c5.2,0,9.3,3.2,9.3,8.7c0,3.6-2.2,7-6.2,7.4v-3.7
		c1.9-0.4,3-1.9,3-3.7c0-3.5-3-4.8-6-4.8c-2.9,0-5.9,1.3-5.9,4.8c0,2.5,1.4,4,3.8,4.2v-3.9h2.9v7.4h-9.5v-2.5L35.6,266.7z"/>
	<path d="M51.2,272.7v3.9h-6.8v7.1h6.8v3.9H33.6v-3.9h7.6v-7.1h-7.6v-3.9H51.2z"/>
	<path d="M51.2,291v13.2h-3.3v-9.3h-3.8v8.5h-3v-8.5h-4.3v9.5h-3.3V291H51.2z"/>
	<path d="M47.9,310.9v-5.3h3.3V320h-3.3v-5.3H33.6v-3.9H47.9z"/>
</g>
<g>
	<rect x="41.3" y="29.3" width="1.2" height="70.2"/>
	<polygon points="34.2,38.4 33.4,37.6 41.9,28.4 50.4,37.6 49.5,38.4 41.9,30.2 	"/>
</g>
<g>
	<rect x="41.3" y="331" width="1.2" height="69.1"/>
	<polygon points="41.9,400.9 33.4,391.8 34.2,391 41.9,399.2 49.5,391 50.4,391.8 	"/>
</g>
<g>
	<rect x="93.6" y="7.1" fill="#FFFFFF" width="1.2" height="423.8"/>
	<rect x="226.7" y="7.1" fill="#FFFFFF" width="1.2" height="423.8"/>
	<rect x="359.7" y="7.1" fill="#FFFFFF" width="1.2" height="423.8"/>
	<rect x="492.8" y="7.1" fill="#FFFFFF" width="1.2" height="423.8"/>
	<rect x="625.9" y="7.1" fill="#FFFFFF" width="1.2" height="423.8"/>
	<rect x="759" y="7.1" fill="#FFFFFF" width="1.2" height="423.8"/>
</g>
<g>
	<rect x="91.1" y="4.8" fill="#FFFFFF" width="676.5" height="1.2"/>
	<rect x="91.1" y="88.9" fill="#FFFFFF" width="676.5" height="1.2"/>
	<rect x="91.1" y="173.1" fill="#FFFFFF" width="676.5" height="1.2"/>
	<rect x="91.1" y="257.2" fill="#FFFFFF" width="676.5" height="1.2"/>
	<rect x="91.1" y="341.4" fill="#FFFFFF" width="676.5" height="1.2"/>
	<rect x="91.1" y="425.5" fill="#FFFFFF" width="676.5" height="1.2"/>
</g>
<g>
	<path fill="#FFFFFF" d="M153.8,372.7c5-0.2,8.1-0.3,9-6.2h2.3v32h-2.9v-23.8h-8.5V372.7z"/>
</g>
<g>
	<path fill="#FFFFFF" d="M172.1,315.2H151c0.2-9.5,10-11.9,15.4-17.3c1.7-1.8,2.7-3.5,2.7-6c0-4.2-3.3-6.5-7.2-6.5
		c-5.3,0-7.3,4.2-7.2,8.9h-2.9c-0.1-6.6,3.3-11.4,10.3-11.4c5.6,0,9.9,3.1,9.9,9c0,5.4-3.9,8.7-8.1,11.4c-3.1,2.1-8.8,4.9-9.6,9.2
		h17.8V315.2z"/>
</g>
<g>
	<path fill="#FFFFFF" d="M153.7,219.3c-0.2,5.1,2.8,8.5,8,8.5c4.2,0,8.2-2.5,8.2-7.1c0-4.5-3.4-6.8-7.7-6.8h-2.4v-2.4h2.4
		c3,0,6.5-1.8,6.5-5.8c0-4.2-3.2-6-7-6c-4.8,0-7.4,3.3-7.3,8.1h-2.9c0-6,3.9-10.5,10.1-10.5c5,0,9.9,2.5,9.9,8.1
		c0,3.5-2,6.3-5.4,7.1v0.1c4.2,0.7,6.6,3.7,6.6,7.9c0,6.3-5.1,9.8-11,9.8c-6.6,0-11.4-4-10.9-10.9H153.7z"/>
</g>
<g>
	<path fill="#FFFFFF" d="M150.7,138.9l14.8-21.3h2.6v21.7h4.8v2.4h-4.8v8h-2.7v-8h-14.8V138.9z M165.5,139.3v-17.4h-0.1l-12.1,17.4
		H165.5z"/>
</g>
<g>
	<path fill="#FFFFFF" d="M153.9,57.2c0.1,4.4,3.5,7.4,7.9,7.4c4.9,0,8-4.1,8-8.7c0-4.7-3.4-8.3-8.2-8.3c-2.8,0-5.6,1.4-7.1,3.8h-2.5
		l3.1-16.6h16v2.7h-14L155,48l0.1,0.1c1.6-1.9,4.3-3,6.8-3c6.6,0,10.8,4.6,10.8,11.1c0,6.3-5,10.9-11.1,10.9c-6,0-10.4-3.8-10.5-9.8
		H153.9z"/>
</g>
<g>
	<path fill="#FFFFFF" d="M304.7,398.5h-21.1c0.2-9.5,10-11.9,15.4-17.3c1.7-1.8,2.7-3.5,2.7-6c0-4.2-3.3-6.5-7.2-6.5
		c-5.3,0-7.3,4.2-7.2,8.9h-2.9c-0.1-6.6,3.3-11.4,10.3-11.4c5.6,0,9.9,3.1,9.9,9c0,5.4-3.9,8.7-8.1,11.4c-3.1,2.1-8.8,4.9-9.6,9.2
		h17.8V398.5z"/>
</g>
<g>
	<path fill="#FFFFFF" d="M417.9,388.3c-0.2,5.1,2.8,8.5,8,8.5c4.2,0,8.2-2.5,8.2-7.1c0-4.5-3.4-6.8-7.7-6.8h-2.4v-2.4h2.4
		c3,0,6.5-1.8,6.5-5.8c0-4.2-3.2-6-7-6c-4.8,0-7.4,3.3-7.3,8.1h-2.9c0-6,3.9-10.5,10.1-10.5c5,0,9.9,2.5,9.9,8.1
		c0,3.5-2,6.3-5.4,7.1v0.1c4.2,0.7,6.6,3.7,6.6,7.9c0,6.3-5.1,9.8-11,9.8c-6.6,0-11.4-4-10.9-10.9H417.9z"/>
</g>
<g>
	<path fill="#FFFFFF" d="M545.1,387.8l14.8-21.3h2.6v21.7h4.8v2.4h-4.8v8h-2.7v-8h-14.8V387.8z M559.9,388.1v-17.4h-0.1l-12.1,17.4
		H559.9z"/>
</g>
<g>
	<path fill="#FFFFFF" d="M689.2,389.4c0.1,4.4,3.5,7.4,7.9,7.4c4.9,0,8-4.1,8-8.7c0-4.7-3.4-8.3-8.2-8.3c-2.8,0-5.6,1.4-7.1,3.8
		h-2.5l3.1-16.6h16v2.7h-14l-2.1,10.6l0.1,0.1c1.6-1.9,4.3-3,6.8-3c6.6,0,10.8,4.6,10.8,11.1c0,6.3-5,10.9-11.1,10.9
		c-6,0-10.4-3.8-10.5-9.8H689.2z"/>
</g>
</svg>
