<?xml version="1.0" encoding="utf-8"?>
<!-- Generator: Adobe Illustrator 19.1.0, SVG Export Plug-In . SVG Version: 6.00 Build 0)  -->
<svg version="1.1" id="Layer_1" xmlns="http://www.w3.org/2000/svg" xmlns:xlink="http://www.w3.org/1999/xlink" x="0px" y="0px"
	 viewBox="0 0 841.9 595.3" enable-background="new 0 0 841.9 595.3" xml:space="preserve">
<linearGradient id="SVGID_1_" gradientUnits="userSpaceOnUse" x1="271.5097" y1="229.2791" x2="444.833" y2="22.7205">
	<stop  offset="0" style="stop-color:#00A14B"/>
	<stop  offset="9.194195e-02" style="stop-color:#3E9D48"/>
	<stop  offset="0.2759" style="stop-color:#7A8E40"/>
	<stop  offset="0.5349" style="stop-color:#B37033"/>
	<stop  offset="0.8258" style="stop-color:#ED1C24"/>
</linearGradient>
<rect x="125" y="48.9" fill="url(#SVGID_1_)" width="430.5" height="197.1"/>
<g>
	<rect x="185.1" y="38.6" fill="#FFFFFF" width="1.4" height="210.4"/>
	<rect x="185.2" y="38.7" fill="#FFFFFF" width="1.1" height="210.1"/>
	<rect x="185.5" y="39" fill="#FFFFFF" width="0.6" height="209.5"/>
	<rect x="248" y="38.6" fill="#FFFFFF" width="1.4" height="210.4"/>
	<rect x="248.1" y="38.7" fill="#FFFFFF" width="1.1" height="210.1"/>
	<rect x="248.4" y="39" fill="#FFFFFF" width="0.6" height="209.5"/>
	<rect x="310.8" y="38.6" fill="#FFFFFF" width="1.4" height="210.4"/>
	<rect x="311" y="38.7" fill="#FFFFFF" width="1.1" height="210.1"/>
	<rect x="311.2" y="39" fill="#FFFFFF" width="0.6" height="209.5"/>
	<rect x="373.7" y="38.6" fill="#FFFFFF" width="1.4" height="210.4"/>
	<rect x="373.8" y="38.7" fill="#FFFFFF" width="1.1" height="210.1"/>
	<rect x="374.1" y="39" fill="#FFFFFF" width="0.6" height="209.5"/>
	<rect x="436.6" y="38.6" fill="#FFFFFF" width="1.4" height="210.4"/>
	<rect x="436.7" y="38.7" fill="#FFFFFF" width="1.1" height="210.1"/>
	<rect x="437" y="39" fill="#FFFFFF" width="0.6" height="209.5"/>
</g>
<rect x="499.5" y="38.6" fill="#FFFFFF" width="1.4" height="210.4"/>
<rect x="499.7" y="38.7" fill="#FFFFFF" width="1.1" height="210.1"/>
<rect x="499.9" y="39" fill="#FFFFFF" width="0.6" height="209.5"/>
<g>
	<rect x="124.1" y="48.2" fill="#FFFFFF" width="433.6" height="1.4"/>
	<rect x="124.2" y="48.4" fill="#FFFFFF" width="433.3" height="1.1"/>
	<rect x="124.5" y="48.6" fill="#FFFFFF" width="432.8" height="0.6"/>
	<rect x="124.1" y="87.6" fill="#FFFFFF" width="433.6" height="1.4"/>
	<rect x="124.2" y="87.8" fill="#FFFFFF" width="433.3" height="1.1"/>
	<rect x="124.5" y="88" fill="#FFFFFF" width="432.8" height="0.6"/>
	<rect x="124.1" y="127" fill="#FFFFFF" width="433.6" height="1.4"/>
	<rect x="124.2" y="127.2" fill="#FFFFFF" width="433.3" height="1.1"/>
	<rect x="124.5" y="127.5" fill="#FFFFFF" width="432.8" height="0.6"/>
	<rect x="124.1" y="166.5" fill="#FFFFFF" width="433.6" height="1.4"/>
	<rect x="124.2" y="166.6" fill="#FFFFFF" width="433.3" height="1.1"/>
	<rect x="124.5" y="166.9" fill="#FFFFFF" width="432.8" height="0.6"/>
	<rect x="124.1" y="205.9" fill="#FFFFFF" width="433.6" height="1.4"/>
	<rect x="124.2" y="206" fill="#FFFFFF" width="433.3" height="1.1"/>
	<rect x="124.5" y="206.3" fill="#FFFFFF" width="432.8" height="0.6"/>
	<rect x="124.5" y="245.7" fill="#FFFFFF" width="432.8" height="0.6"/>
</g>
<g>
	<rect x="43.7" y="49.7" width="0.6" height="36"/>
	<polygon points="40.3,54 39.9,53.6 43.9,49.3 47.9,53.6 47.5,54 43.9,50.1 	"/>
</g>
<g>
	<rect x="43.7" y="202.8" width="0.6" height="38.3"/>
	<polygon points="43.9,241.6 39.9,237.3 40.3,236.9 43.9,240.8 47.5,236.9 47.9,237.3 	"/>
</g>
<g>
	<path fill="#FFFFFF" d="M144.3,220.6c2.4-0.1,3.8-0.1,4.2-2.9h1.1v15.1h-1.4v-11.2h-4V220.6z"/>
	<path fill="#FFFFFF" d="M165.4,225.3c0,3.5-0.9,7.8-5.3,7.8c-4.4,0-5.3-4.2-5.3-7.8c0-3.5,0.9-7.8,5.3-7.8
		C164.6,217.5,165.4,221.8,165.4,225.3z M156.3,225.3c0,2.6,0.5,6.6,3.9,6.6s3.9-4,3.9-6.6c0-2.6-0.5-6.6-3.9-6.6
		S156.3,222.7,156.3,225.3z"/>
</g>
<g>
	<path fill="#FFFFFF" d="M214.8,228.4c0.1,2.1,1.6,3.5,3.7,3.5c2.3,0,3.8-1.9,3.8-4.1c0-2.2-1.6-3.9-3.9-3.9c-1.3,0-2.6,0.6-3.4,1.8
		h-1.2l1.5-7.8h7.5v1.2h-6.6l-1,5l0,0c0.8-0.9,2-1.4,3.2-1.4c3.1,0,5.1,2.2,5.1,5.2c0,3-2.3,5.1-5.2,5.1c-2.8,0-4.9-1.8-5-4.6H214.8
		z"/>
</g>
<g>
	<path fill="#FFFFFF" d="M285.7,225.3c0,3.5-0.9,7.8-5.3,7.8c-4.4,0-5.3-4.2-5.3-7.8c0-3.5,0.9-7.8,5.3-7.8
		C284.8,217.5,285.7,221.8,285.7,225.3z M276.6,225.3c0,2.6,0.5,6.6,3.9,6.6s3.9-4,3.9-6.6c0-2.6-0.5-6.6-3.9-6.6
		S276.6,222.7,276.6,225.3z"/>
</g>
<g>
	<path fill="#FFFFFF" d="M334.3,227.4v-1.2h5.4v1.2H334.3z"/>
	<path fill="#FFFFFF" d="M343.1,228.4c0.1,2.1,1.6,3.5,3.7,3.5c2.3,0,3.8-1.9,3.8-4.1c0-2.2-1.6-3.9-3.9-3.9c-1.3,0-2.6,0.6-3.4,1.8
		h-1.2l1.5-7.8h7.5v1.2h-6.6l-1,5l0,0c0.8-0.9,2-1.4,3.2-1.4c3.1,0,5.1,2.2,5.1,5.2c0,3-2.3,5.1-5.2,5.1c-2.8,0-4.9-1.8-5-4.6H343.1
		z"/>
</g>
<g>
	<path fill="#FFFFFF" d="M389.5,227.4v-1.2h5.4v1.2H389.5z"/>
	<path fill="#FFFFFF" d="M398.3,220.6c2.4-0.1,3.8-0.1,4.2-2.9h1.1v15.1h-1.4v-11.2h-4V220.6z"/>
	<path fill="#FFFFFF" d="M419.4,225.3c0,3.5-0.9,7.8-5.3,7.8c-4.4,0-5.3-4.2-5.3-7.8c0-3.5,0.9-7.8,5.3-7.8
		C418.5,217.5,419.4,221.8,419.4,225.3z M410.2,225.3c0,2.6,0.5,6.6,3.9,6.6s3.9-4,3.9-6.6c0-2.6-0.5-6.6-3.9-6.6
		S410.2,222.7,410.2,225.3z"/>
</g>
<g>
	<path fill="#FFFFFF" d="M152,189l7-10h1.2v10.2h2.3v1.1h-2.3v3.7h-1.2v-3.7h-7V189z M158.9,189.2V181h0l-5.7,8.2H158.9z"/>
</g>
<g>
	<path fill="#FFFFFF" d="M208.4,188.8v-1.2h5.4v1.2H208.4z"/>
	<path fill="#FFFFFF" d="M225.8,194.1h-9.9c0.1-4.5,4.7-5.6,7.3-8.1c0.8-0.8,1.2-1.6,1.2-2.8c0-2-1.6-3.1-3.4-3.1
		c-2.5,0-3.4,2-3.4,4.2h-1.4c-0.1-3.1,1.6-5.3,4.8-5.3c2.6,0,4.7,1.4,4.7,4.2c0,2.5-1.8,4.1-3.8,5.4c-1.5,1-4.2,2.3-4.5,4.4h8.4
		V194.1z"/>
</g>
<g>
	<path fill="#FFFFFF" d="M267.5,188.8v-1.2h5.4v1.2H267.5z"/>
	<path fill="#FFFFFF" d="M282.2,186L282.2,186c1.9,0.4,3.1,1.9,3.1,3.9c0,3-2.4,4.5-5.2,4.5c-2.8,0-5.2-1.5-5.2-4.5
		c0-2,1.2-3.5,3.1-3.9v0c-1.6-0.5-2.5-1.7-2.5-3.3c0-2.6,2.3-3.8,4.6-3.8c2.2,0,4.6,1.2,4.6,3.8C284.7,184.3,283.8,185.5,282.2,186z
		 M284,189.9c0-2.2-1.8-3.3-3.8-3.3c-2.1,0-3.8,1.1-3.8,3.3c0,2.3,1.7,3.4,3.8,3.4C282.2,193.3,284,192.2,284,189.9z M283.3,182.7
		c0-1.7-1.4-2.6-3.2-2.6c-1.7,0-3.2,0.9-3.2,2.6c0,2,1.6,2.8,3.2,2.8C281.8,185.5,283.3,184.6,283.3,182.7z"/>
</g>
<g>
	<path fill="#FFFFFF" d="M323.2,188.8v-1.2h5.4v1.2H323.2z"/>
	<path fill="#FFFFFF" d="M332,181.9c2.4-0.1,3.8-0.1,4.2-2.9h1.1v15.1H336v-11.2h-4V181.9z"/>
	<path fill="#FFFFFF" d="M342.5,189l7-10h1.2v10.2h2.3v1.1h-2.3v3.7h-1.2v-3.7h-7V189z M349.5,189.2V181h0l-5.7,8.2H349.5z"/>
</g>
<g>
	<path fill="#FFFFFF" d="M389.5,188.8v-1.2h5.4v1.2H389.5z"/>
	<path fill="#FFFFFF" d="M406.9,194.1H397c0.1-4.5,4.7-5.6,7.3-8.1c0.8-0.8,1.2-1.6,1.2-2.8c0-2-1.6-3.1-3.4-3.1
		c-2.5,0-3.4,2-3.4,4.2h-1.4c-0.1-3.1,1.6-5.3,4.8-5.3c2.6,0,4.7,1.4,4.7,4.2c0,2.5-1.8,4.1-3.8,5.4c-1.5,1-4.2,2.3-4.5,4.4h8.4
		V194.1z"/>
	<path fill="#FFFFFF" d="M419.4,186.6c0,3.5-0.9,7.8-5.3,7.8c-4.4,0-5.3-4.2-5.3-7.8c0-3.5,0.9-7.8,5.3-7.8
		C418.5,178.9,419.4,183.1,419.4,186.6z M410.2,186.6c0,2.6,0.5,6.6,3.9,6.6s3.9-4,3.9-6.6c0-2.6-0.5-6.6-3.9-6.6
		S410.2,184,410.2,186.6z"/>
</g>
<g>
	<path fill="#FFFFFF" d="M162.6,148c0,3.5-0.9,7.8-5.3,7.8c-4.4,0-5.3-4.2-5.3-7.8c0-3.5,0.9-7.8,5.3-7.8
		C161.7,140.2,162.6,144.5,162.6,148z M153.4,148c0,2.6,0.5,6.6,3.9,6.6s3.9-4,3.9-6.6c0-2.6-0.5-6.6-3.9-6.6S153.4,145.4,153.4,148
		z"/>
</g>
<g>
	<path fill="#FFFFFF" d="M208.4,150.1v-1.2h5.4v1.2H208.4z"/>
	<path fill="#FFFFFF" d="M216.2,140.6h9.7v1.2c-1.9,2-5.7,6.6-6.1,13.6h-1.5c0.4-5.1,2-8.9,6.2-13.6h-8.3V140.6z"/>
</g>
<g>
	<path fill="#FFFFFF" d="M267.5,150.1v-1.2h5.4v1.2H267.5z"/>
	<path fill="#FFFFFF" d="M276.2,143.3c2.4-0.1,3.8-0.1,4.2-2.9h1.1v15.1h-1.4v-11.2h-4V143.3z"/>
	<path fill="#FFFFFF" d="M286.8,150.4l7-10h1.2v10.2h2.3v1.1H295v3.7h-1.2v-3.7h-7V150.4z M293.7,150.6v-8.2h0l-5.7,8.2H293.7z"/>
</g>
<g>
	<path fill="#FFFFFF" d="M323.2,150.1v-1.2h5.4v1.2H323.2z"/>
	<path fill="#FFFFFF" d="M340.6,155.4h-9.9c0.1-4.5,4.7-5.6,7.3-8.1c0.8-0.8,1.2-1.6,1.2-2.8c0-2-1.6-3.1-3.4-3.1
		c-2.5,0-3.4,2-3.4,4.2h-1.4c-0.1-3.1,1.6-5.3,4.8-5.3c2.6,0,4.7,1.4,4.7,4.2c0,2.5-1.8,4.1-3.8,5.4c-1.5,1-4.2,2.3-4.5,4.4h8.4
		V155.4z"/>
	<path fill="#FFFFFF" d="M344,143.3c2.4-0.1,3.8-0.1,4.2-2.9h1.1v15.1H348v-11.2h-4V143.3z"/>
</g>
<g>
	<path fill="#FFFFFF" d="M389.5,150.1v-1.2h5.4v1.2H389.5z"/>
	<path fill="#FFFFFF" d="M406.9,155.4H397c0.1-4.5,4.7-5.6,7.3-8.1c0.8-0.8,1.2-1.6,1.2-2.8c0-2-1.6-3.1-3.4-3.1
		c-2.5,0-3.4,2-3.4,4.2h-1.4c-0.1-3.1,1.6-5.3,4.8-5.3c2.6,0,4.7,1.4,4.7,4.2c0,2.5-1.8,4.1-3.8,5.4c-1.5,1-4.2,2.3-4.5,4.4h8.4
		V155.4z"/>
	<path fill="#FFFFFF" d="M410.6,151.8c0.2,1.7,1.4,2.8,3.1,2.8c3.5,0,4.2-4,4.2-6.7h0c-0.7,1.5-2.3,2.5-4,2.5c-3,0-5-2.1-5-5
		c0-2.9,2.1-5.1,5.1-5.1c3.7,0,5.3,2.1,5.3,8c0,1.8-0.5,7.5-5.4,7.5c-2.6,0-4.3-1.3-4.6-3.9H410.6z M417.6,145.3
		c0-2.1-1.1-3.9-3.8-3.9c-2.2,0-3.6,1.8-3.6,3.9c0,2.2,1.3,4,3.6,4C416.2,149.2,417.6,147.5,417.6,145.3z"/>
</g>
<g>
	<path fill="#FFFFFF" d="M145.4,110.7v-1.2h5.4v1.2H145.4z"/>
	<path fill="#FFFFFF" d="M154.2,111.2c-0.1,2.4,1.3,4,3.8,4c2,0,3.9-1.2,3.9-3.3c0-2.1-1.6-3.2-3.6-3.2h-1.1v-1.1h1.1
		c1.4,0,3.1-0.8,3.1-2.7c0-2-1.5-2.8-3.3-2.8c-2.3,0-3.5,1.6-3.4,3.8h-1.4c0-2.8,1.8-5,4.8-5c2.4,0,4.7,1.2,4.7,3.8
		c0,1.6-0.9,3-2.5,3.3v0c2,0.3,3.1,1.7,3.1,3.7c0,3-2.4,4.6-5.2,4.6c-3.1,0-5.4-1.9-5.1-5.1H154.2z"/>
</g>
<g>
	<path fill="#FFFFFF" d="M202.9,110.7v-1.2h5.4v1.2H202.9z"/>
	<path fill="#FFFFFF" d="M211.6,103.8c2.4-0.1,3.8-0.1,4.2-2.9h1.1V116h-1.4v-11.2h-4V103.8z"/>
	<path fill="#FFFFFF" d="M223.6,103.8c2.4-0.1,3.8-0.1,4.2-2.9h1.1V116h-1.4v-11.2h-4V103.8z"/>
</g>
<g>
	<path fill="#FFFFFF" d="M267.5,110.7v-1.2h5.4v1.2H267.5z"/>
	<path fill="#FFFFFF" d="M276.2,103.8c2.4-0.1,3.8-0.1,4.2-2.9h1.1V116h-1.4v-11.2h-4V103.8z"/>
	<path fill="#FFFFFF" d="M294.2,107.8L294.2,107.8c1.9,0.4,3.1,1.9,3.1,3.9c0,3-2.4,4.5-5.2,4.5c-2.8,0-5.2-1.5-5.2-4.5
		c0-2,1.2-3.5,3.1-3.9v0c-1.6-0.5-2.5-1.7-2.5-3.3c0-2.6,2.3-3.8,4.6-3.8c2.2,0,4.6,1.2,4.6,3.8
		C296.7,106.2,295.8,107.4,294.2,107.8z M295.9,111.7c0-2.2-1.8-3.3-3.8-3.3c-2.1,0-3.8,1.1-3.8,3.3c0,2.3,1.7,3.4,3.8,3.4
		C294.2,115.1,295.9,114,295.9,111.7z M295.3,104.5c0-1.7-1.4-2.6-3.2-2.6c-1.7,0-3.2,0.9-3.2,2.6c0,2,1.6,2.8,3.2,2.8
		C293.8,107.4,295.3,106.5,295.3,104.5z"/>
</g>
<g>
	<path fill="#FFFFFF" d="M323.2,110.7v-1.2h5.4v1.2H323.2z"/>
	<path fill="#FFFFFF" d="M340.6,116h-9.9c0.1-4.5,4.7-5.6,7.3-8.1c0.8-0.8,1.2-1.6,1.2-2.8c0-2-1.6-3.1-3.4-3.1
		c-2.5,0-3.4,2-3.4,4.2h-1.4c-0.1-3.1,1.6-5.3,4.8-5.3c2.6,0,4.7,1.4,4.7,4.2c0,2.5-1.8,4.1-3.8,5.4c-1.5,1-4.2,2.3-4.5,4.4h8.4V116
		z"/>
	<path fill="#FFFFFF" d="M351.4,104.7c-0.2-1.7-1.4-2.8-3.1-2.8c-3.5,0-4.2,4-4.2,6.7h0c0.7-1.5,2.3-2.5,4-2.5c3,0,5,2.1,5,5
		c0,2.9-2.1,5.1-5.1,5.1c-3.7,0-5.3-2.1-5.3-8c0-1.8,0.5-7.5,5.4-7.5c2.6,0,4.3,1.3,4.6,3.9H351.4z M344.4,111.3
		c0,2.1,1.1,3.9,3.8,3.9c2.2,0,3.6-1.8,3.6-3.9c0-2.2-1.3-4-3.6-4C345.8,107.3,344.4,109,344.4,111.3z"/>
</g>
<g>
	<path fill="#FFFFFF" d="M389.5,110.7v-1.2h5.4v1.2H389.5z"/>
	<path fill="#FFFFFF" d="M398.2,111.2c-0.1,2.4,1.3,4,3.8,4c2,0,3.9-1.2,3.9-3.3c0-2.1-1.6-3.2-3.6-3.2h-1.1v-1.1h1.1
		c1.4,0,3.1-0.8,3.1-2.7c0-2-1.5-2.8-3.3-2.8c-2.3,0-3.5,1.6-3.4,3.8h-1.4c0-2.8,1.8-5,4.8-5c2.4,0,4.7,1.2,4.7,3.8
		c0,1.6-0.9,3-2.5,3.3v0c2,0.3,3.1,1.7,3.1,3.7c0,3-2.4,4.6-5.2,4.6c-3.1,0-5.4-1.9-5.1-5.1H398.2z"/>
	<path fill="#FFFFFF" d="M408.8,110.9l7-10h1.2v10.2h2.3v1.1H417v3.7h-1.2v-3.7h-7V110.9z M415.8,111.1v-8.2h0l-5.7,8.2H415.8z"/>
</g>
<g>
	<path fill="#FFFFFF" d="M145.4,70.9v-1.2h5.4v1.2H145.4z"/>
	<path fill="#FFFFFF" d="M152.8,71.1l7-10h1.2v10.2h2.3v1.1H161v3.7h-1.2v-3.7h-7V71.1z M159.7,71.3v-8.2h0l-5.7,8.2H159.7z"/>
</g>
<g>
	<path fill="#FFFFFF" d="M202.9,70.9v-1.2h5.4v1.2H202.9z"/>
	<path fill="#FFFFFF" d="M211.6,64c2.4-0.1,3.8-0.1,4.2-2.9h1.1v15.1h-1.4V65h-4V64z"/>
	<path fill="#FFFFFF" d="M232.2,76.2h-9.9c0.1-4.5,4.7-5.6,7.3-8.1c0.8-0.8,1.2-1.6,1.2-2.8c0-2-1.6-3.1-3.4-3.1
		c-2.5,0-3.4,2-3.4,4.2h-1.4c-0.1-3.1,1.6-5.3,4.8-5.3c2.6,0,4.7,1.4,4.7,4.2c0,2.5-1.8,4.1-3.8,5.4c-1.5,1-4.2,2.3-4.5,4.4h8.4
		V76.2z"/>
</g>
<g>
	<path fill="#FFFFFF" d="M267.5,70.9v-1.2h5.4v1.2H267.5z"/>
	<path fill="#FFFFFF" d="M284.9,76.2h-9.9c0.1-4.5,4.7-5.6,7.3-8.1c0.8-0.8,1.2-1.6,1.2-2.8c0-2-1.6-3.1-3.4-3.1
		c-2.5,0-3.4,2-3.4,4.2h-1.4c-0.1-3.1,1.6-5.3,4.8-5.3c2.6,0,4.7,1.4,4.7,4.2c0,2.5-1.8,4.1-3.8,5.4c-1.5,1-4.2,2.3-4.5,4.4h8.4
		V76.2z"/>
	<path fill="#FFFFFF" d="M297.4,68.8c0,3.5-0.9,7.8-5.3,7.8c-4.4,0-5.3-4.2-5.3-7.8c0-3.5,0.9-7.8,5.3-7.8
		C296.5,61,297.4,65.2,297.4,68.8z M288.2,68.8c0,2.6,0.5,6.6,3.9,6.6s3.9-4,3.9-6.6c0-2.6-0.5-6.6-3.9-6.6S288.2,66.1,288.2,68.8z"
		/>
</g>
<g>
	<path fill="#FFFFFF" d="M323.2,70.9v-1.2h5.4v1.2H323.2z"/>
	<path fill="#FFFFFF" d="M340.6,76.2h-9.9c0.1-4.5,4.7-5.6,7.3-8.1c0.8-0.8,1.2-1.6,1.2-2.8c0-2-1.6-3.1-3.4-3.1
		c-2.5,0-3.4,2-3.4,4.2h-1.4c-0.1-3.1,1.6-5.3,4.8-5.3c2.6,0,4.7,1.4,4.7,4.2c0,2.5-1.8,4.1-3.8,5.4c-1.5,1-4.2,2.3-4.5,4.4h8.4
		V76.2z"/>
	<path fill="#FFFFFF" d="M350,68.1L350,68.1c1.9,0.4,3.1,1.9,3.1,3.9c0,3-2.4,4.5-5.2,4.5c-2.8,0-5.2-1.5-5.2-4.5
		c0-2,1.2-3.5,3.1-3.9v0c-1.6-0.5-2.5-1.7-2.5-3.3c0-2.6,2.3-3.8,4.6-3.8c2.2,0,4.6,1.2,4.6,3.8C352.4,66.4,351.5,67.6,350,68.1z
		 M351.7,72c0-2.2-1.8-3.3-3.8-3.3c-2.1,0-3.8,1.1-3.8,3.3c0,2.3,1.7,3.4,3.8,3.4C350,75.4,351.7,74.3,351.7,72z M351.1,64.8
		c0-1.7-1.4-2.6-3.2-2.6c-1.7,0-3.2,0.9-3.2,2.6c0,2,1.6,2.8,3.2,2.8C349.5,67.6,351.1,66.7,351.1,64.8z"/>
</g>
<g>
	<path fill="#FFFFFF" d="M389.5,70.9v-1.2h5.4v1.2H389.5z"/>
	<path fill="#FFFFFF" d="M398.2,71.4c-0.1,2.4,1.3,4,3.8,4c2,0,3.9-1.2,3.9-3.3c0-2.1-1.6-3.2-3.6-3.2h-1.1v-1.1h1.1
		c1.4,0,3.1-0.8,3.1-2.7c0-2-1.5-2.8-3.3-2.8c-2.3,0-3.5,1.6-3.4,3.8h-1.4c0-2.8,1.8-5,4.8-5c2.4,0,4.7,1.2,4.7,3.8
		c0,1.6-0.9,3-2.5,3.3v0c2,0.3,3.1,1.7,3.1,3.7c0,3-2.4,4.6-5.2,4.6c-3.1,0-5.4-1.9-5.1-5.1H398.2z"/>
	<path fill="#FFFFFF" d="M417.7,64.9c-0.2-1.7-1.4-2.8-3.1-2.8c-3.5,0-4.2,4-4.2,6.7h0c0.7-1.5,2.3-2.5,4-2.5c3,0,5,2.1,5,5
		c0,2.9-2.1,5.1-5.1,5.1c-3.7,0-5.3-2.1-5.3-8c0-1.8,0.5-7.5,5.4-7.5c2.6,0,4.3,1.3,4.6,3.9H417.7z M410.7,71.5
		c0,2.1,1.1,3.9,3.8,3.9c2.2,0,3.6-1.8,3.6-3.9c0-2.2-1.3-4-3.6-4C412,67.5,410.7,69.3,410.7,71.5z"/>
</g>
<g>
	<path fill="#FFFFFF" d="M452.2,227.4v-1.2h5.4v1.2H452.2z"/>
	<path fill="#FFFFFF" d="M460.9,220.6c2.4-0.1,3.8-0.1,4.2-2.9h1.1v15.1h-1.4v-11.2h-4V220.6z"/>
	<path fill="#FFFFFF" d="M472.9,228.4c0.1,2.1,1.6,3.5,3.7,3.5c2.3,0,3.8-1.9,3.8-4.1c0-2.2-1.6-3.9-3.9-3.9c-1.3,0-2.6,0.6-3.4,1.8
		H472l1.5-7.8h7.5v1.2h-6.6l-1,5l0,0c0.8-0.9,2-1.4,3.2-1.4c3.1,0,5.1,2.2,5.1,5.2c0,3-2.3,5.1-5.2,5.1c-2.8,0-4.9-1.8-5-4.6H472.9z
		"/>
</g>
<g>
	<path fill="#FFFFFF" d="M512.9,227.4v-1.2h5.4v1.2H512.9z"/>
	<path fill="#FFFFFF" d="M530.3,232.7h-9.9c0.1-4.5,4.7-5.6,7.3-8.1c0.8-0.8,1.2-1.6,1.2-2.8c0-2-1.6-3.1-3.4-3.1
		c-2.5,0-3.4,2-3.4,4.2h-1.4c-0.1-3.1,1.6-5.3,4.8-5.3c2.6,0,4.7,1.4,4.7,4.2c0,2.5-1.8,4.1-3.8,5.4c-1.5,1-4.2,2.3-4.5,4.4h8.4
		V232.7z"/>
	<path fill="#FFFFFF" d="M542.8,225.3c0,3.5-0.9,7.8-5.3,7.8s-5.3-4.2-5.3-7.8c0-3.5,0.9-7.8,5.3-7.8S542.8,221.8,542.8,225.3z
		 M533.6,225.3c0,2.6,0.5,6.6,3.9,6.6s3.9-4,3.9-6.6c0-2.6-0.5-6.6-3.9-6.6S533.6,222.7,533.6,225.3z"/>
</g>
<g>
	<path fill="#FFFFFF" d="M452.2,188.8v-1.2h5.4v1.2H452.2z"/>
	<path fill="#FFFFFF" d="M469.5,194.1h-9.9c0.1-4.5,4.7-5.6,7.3-8.1c0.8-0.8,1.2-1.6,1.2-2.8c0-2-1.6-3.1-3.4-3.1
		c-2.5,0-3.4,2-3.4,4.2H460c-0.1-3.1,1.6-5.3,4.8-5.3c2.6,0,4.7,1.4,4.7,4.2c0,2.5-1.8,4.1-3.8,5.4c-1.5,1-4.2,2.3-4.5,4.4h8.4
		V194.1z"/>
	<path fill="#FFFFFF" d="M480.3,182.8c-0.2-1.7-1.4-2.8-3.1-2.8c-3.5,0-4.2,4-4.2,6.7h0c0.7-1.5,2.3-2.5,4-2.5c3,0,5,2.1,5,5
		c0,2.9-2.1,5.1-5.1,5.1c-3.7,0-5.3-2.1-5.3-8c0-1.8,0.5-7.5,5.4-7.5c2.6,0,4.3,1.3,4.6,3.9H480.3z M473.3,189.4
		c0,2.1,1.1,3.9,3.8,3.9c2.2,0,3.6-1.8,3.6-3.9c0-2.2-1.3-4-3.6-4C474.7,185.4,473.3,187.2,473.3,189.4z"/>
</g>
<g>
	<path fill="#FFFFFF" d="M512.9,188.8v-1.2h5.4v1.2H512.9z"/>
	<path fill="#FFFFFF" d="M521.6,189.3c-0.1,2.4,1.3,4,3.8,4c2,0,3.9-1.2,3.9-3.3c0-2.1-1.6-3.2-3.6-3.2h-1.1v-1.1h1.1
		c1.4,0,3.1-0.8,3.1-2.7c0-2-1.5-2.8-3.3-2.8c-2.3,0-3.5,1.6-3.4,3.8h-1.4c0-2.8,1.8-5,4.8-5c2.4,0,4.7,1.2,4.7,3.8
		c0,1.6-0.9,3-2.5,3.3v0c2,0.3,3.1,1.7,3.1,3.7c0,3-2.4,4.6-5.2,4.6c-3.1,0-5.4-1.9-5.1-5.1H521.6z"/>
	<path fill="#FFFFFF" d="M542.3,194.1h-9.9c0.1-4.5,4.7-5.6,7.3-8.1c0.8-0.8,1.2-1.6,1.2-2.8c0-2-1.6-3.1-3.4-3.1
		c-2.5,0-3.4,2-3.4,4.2h-1.4c-0.1-3.1,1.6-5.3,4.8-5.3c2.6,0,4.7,1.4,4.7,4.2c0,2.5-1.8,4.1-3.8,5.4c-1.5,1-4.2,2.3-4.5,4.4h8.4
		V194.1z"/>
</g>
<g>
	<path fill="#FFFFFF" d="M452.2,150.1v-1.2h5.4v1.2H452.2z"/>
	<path fill="#FFFFFF" d="M460.9,150.6c-0.1,2.4,1.3,4,3.8,4c2,0,3.9-1.2,3.9-3.3c0-2.1-1.6-3.2-3.6-3.2h-1.1V147h1.1
		c1.4,0,3.1-0.8,3.1-2.7c0-2-1.5-2.8-3.3-2.8c-2.3,0-3.5,1.6-3.4,3.8h-1.4c0-2.8,1.8-5,4.8-5c2.4,0,4.7,1.2,4.7,3.8
		c0,1.6-0.9,3-2.5,3.3v0c2,0.3,3.1,1.7,3.1,3.7c0,3-2.4,4.6-5.2,4.6c-3.1,0-5.4-1.9-5.1-5.1H460.9z"/>
	<path fill="#FFFFFF" d="M480.3,144.2c-0.2-1.7-1.4-2.8-3.1-2.8c-3.5,0-4.2,4-4.2,6.7h0c0.7-1.5,2.3-2.5,4-2.5c3,0,5,2.1,5,5
		c0,2.9-2.1,5.1-5.1,5.1c-3.7,0-5.3-2.1-5.3-8c0-1.8,0.5-7.5,5.4-7.5c2.6,0,4.3,1.3,4.6,3.9H480.3z M473.3,150.7
		c0,2.1,1.1,3.9,3.8,3.9c2.2,0,3.6-1.8,3.6-3.9c0-2.2-1.3-4-3.6-4C474.7,146.8,473.3,148.5,473.3,150.7z"/>
</g>
<g>
	<path fill="#FFFFFF" d="M512.9,150.1v-1.2h5.4v1.2H512.9z"/>
	<path fill="#FFFFFF" d="M520.2,150.4l7-10h1.2v10.2h2.3v1.1h-2.3v3.7h-1.2v-3.7h-7V150.4z M527.2,150.6v-8.2h0l-5.7,8.2H527.2z"/>
	<path fill="#FFFFFF" d="M533.6,150.6c-0.1,2.4,1.3,4,3.8,4c2,0,3.9-1.2,3.9-3.3c0-2.1-1.6-3.2-3.6-3.2h-1.1V147h1.1
		c1.4,0,3.1-0.8,3.1-2.7c0-2-1.5-2.8-3.3-2.8c-2.3,0-3.5,1.6-3.4,3.8h-1.4c0-2.8,1.8-5,4.8-5c2.4,0,4.7,1.2,4.7,3.8
		c0,1.6-0.9,3-2.5,3.3v0c2,0.3,3.1,1.7,3.1,3.7c0,3-2.4,4.6-5.2,4.6c-3.1,0-5.4-1.9-5.1-5.1H533.6z"/>
</g>
<g>
	<path fill="#FFFFFF" d="M452.2,110.7v-1.2h5.4v1.2H452.2z"/>
	<path fill="#FFFFFF" d="M459.5,110.9l7-10h1.2v10.2h2.3v1.1h-2.3v3.7h-1.2v-3.7h-7V110.9z M466.4,111.1v-8.2h0l-5.7,8.2H466.4z"/>
	<path fill="#FFFFFF" d="M481.5,116h-9.9c0.1-4.5,4.7-5.6,7.3-8.1c0.8-0.8,1.2-1.6,1.2-2.8c0-2-1.6-3.1-3.4-3.1
		c-2.5,0-3.4,2-3.4,4.2H472c-0.1-3.1,1.6-5.3,4.8-5.3c2.6,0,4.7,1.4,4.7,4.2c0,2.5-1.8,4.1-3.8,5.4c-1.5,1-4.2,2.3-4.5,4.4h8.4V116z
		"/>
</g>
<g>
	<path fill="#FFFFFF" d="M512.9,110.7v-1.2h5.4v1.2H512.9z"/>
	<path fill="#FFFFFF" d="M520.2,110.9l7-10h1.2v10.2h2.3v1.1h-2.3v3.7h-1.2v-3.7h-7V110.9z M527.2,111.1v-8.2h0l-5.7,8.2H527.2z"/>
	<path fill="#FFFFFF" d="M534,112.3c0.2,1.7,1.4,2.8,3.1,2.8c3.5,0,4.2-4,4.2-6.7h0c-0.7,1.5-2.3,2.5-4,2.5c-3,0-5-2.1-5-5
		c0-2.9,2.1-5.1,5.1-5.1c3.7,0,5.3,2.1,5.3,8c0,1.8-0.5,7.5-5.4,7.5c-2.6,0-4.3-1.3-4.6-3.9H534z M541,105.8c0-2.1-1.1-3.9-3.8-3.9
		c-2.2,0-3.6,1.8-3.6,3.9c0,2.2,1.3,4,3.6,4C539.7,109.8,541,108,541,105.8z"/>
</g>
<g>
	<path fill="#FFFFFF" d="M452.2,70.9v-1.2h5.4v1.2H452.2z"/>
	<path fill="#FFFFFF" d="M459.5,71.1l7-10h1.2v10.2h2.3v1.1h-2.3v3.7h-1.2v-3.7h-7V71.1z M466.4,71.3v-8.2h0l-5.7,8.2H466.4z"/>
	<path fill="#FFFFFF" d="M471.5,71.1l7-10h1.2v10.2h2.3v1.1h-2.3v3.7h-1.2v-3.7h-7V71.1z M478.4,71.3v-8.2h0l-5.7,8.2H478.4z"/>
</g>
<g>
	<path fill="#FFFFFF" d="M512.9,70.9v-1.2h5.4v1.2H512.9z"/>
	<path fill="#FFFFFF" d="M521.7,71.9c0.1,2.1,1.6,3.5,3.7,3.5c2.3,0,3.8-1.9,3.8-4.1c0-2.2-1.6-3.9-3.9-3.9c-1.3,0-2.6,0.6-3.4,1.8
		h-1.2l1.5-7.8h7.5v1.2h-6.6l-1,5l0,0c0.8-0.9,2-1.4,3.2-1.4c3.1,0,5.1,2.2,5.1,5.2c0,3-2.3,5.1-5.2,5.1c-2.8,0-4.9-1.8-5-4.6H521.7
		z"/>
	<path fill="#FFFFFF" d="M542.3,76.2h-9.9c0.1-4.5,4.7-5.6,7.3-8.1c0.8-0.8,1.2-1.6,1.2-2.8c0-2-1.6-3.1-3.4-3.1
		c-2.5,0-3.4,2-3.4,4.2h-1.4c-0.1-3.1,1.6-5.3,4.8-5.3c2.6,0,4.7,1.4,4.7,4.2c0,2.5-1.8,4.1-3.8,5.4c-1.5,1-4.2,2.3-4.5,4.4h8.4
		V76.2z"/>
</g>
<g>
	<rect x="410.1" y="264.3" width="91.2" height="0.6"/>
	<polygon points="497.5,268.6 497.1,268.2 501,264.6 497.1,261 497.5,260.6 501.8,264.6 	"/>
</g>
<g>
	<rect x="181.7" y="264.3" width="91.1" height="0.6"/>
	<polygon points="185.6,268.6 181.3,264.6 185.6,260.6 186,261 182.1,264.6 186,268.2 	"/>
</g>
<g>
	<g>
		<path d="M99.7,219.4c-0.2-1.1-1.1-1.6-2.1-1.6c-1.8,0-2.6,1.5-2.6,3.1c0,1.7,0.8,3.2,2.6,3.2c1.3,0,2.1-0.9,2.2-2.2h1
			c-0.2,1.9-1.4,3-3.3,3c-2.4,0-3.5-1.7-3.5-3.9c0-2.2,1.2-4,3.6-4c1.6,0,2.9,0.8,3.1,2.5H99.7z"/>
		<path d="M106.7,224.7c-0.2,0.1-0.4,0.1-0.6,0.1c-0.5,0-0.8-0.3-0.8-0.8c-0.5,0.6-1.2,0.8-1.9,0.8c-1,0-1.8-0.4-1.8-1.5
			c0-1.2,0.9-1.5,1.9-1.7c1-0.2,1.8-0.1,1.8-0.8c0-0.8-0.6-0.9-1.2-0.9c-0.8,0-1.3,0.2-1.4,1h-0.9c0.1-1.4,1.1-1.8,2.3-1.8
			c1,0,2.1,0.2,2.1,1.5v2.8c0,0.4,0,0.6,0.3,0.6c0.1,0,0.2,0,0.3-0.1V224.7z M105.2,221.9c-0.3,0.3-1,0.3-1.6,0.4
			c-0.6,0.1-1.1,0.3-1.1,1c0,0.6,0.5,0.8,1.1,0.8c1.2,0,1.7-0.7,1.7-1.2V221.9z"/>
		<path d="M107.6,217.1h0.9v7.6h-0.9V217.1z"/>
		<path d="M109.9,219.2h0.8v0.8h0c0.4-0.6,1-0.9,1.8-0.9c0.7,0,1.3,0.3,1.5,0.9c0.4-0.6,1-0.9,1.7-0.9c1.1,0,1.8,0.5,1.8,1.6v4h-0.9
			v-3.6c0-0.7-0.2-1.2-1.1-1.2c-0.9,0-1.4,0.6-1.4,1.4v3.4h-0.9v-3.6c0-0.7-0.2-1.2-1-1.2c-1.1,0-1.5,1-1.5,1.4v3.4h-0.9V219.2z"/>
		<path d="M94.5,228.3c2.4,0,2.5,2.2,2.5,3.8c0,1.7-0.1,3.8-2.5,3.8s-2.5-2.2-2.5-3.8C92,230.5,92.1,228.3,94.5,228.3z M94.5,235.2
			c1.5,0,1.5-1.9,1.5-3c0-1.1,0-3-1.5-3s-1.5,1.9-1.5,3C92.9,233.3,92.9,235.2,94.5,235.2z"/>
		<path d="M101,230.4h0.8v0.8h0c0.4-0.6,1-0.9,1.8-0.9c0.7,0,1.3,0.3,1.5,0.9c0.4-0.6,1-0.9,1.7-0.9c1.1,0,1.8,0.5,1.8,1.6v4h-0.9
			v-3.6c0-0.7-0.2-1.2-1.1-1.2c-0.9,0-1.4,0.6-1.4,1.4v3.4h-0.9v-3.6c0-0.7-0.2-1.2-1-1.2c-1.1,0-1.5,1-1.5,1.4v3.4H101V230.4z"/>
		<path d="M112.3,228.1h0.8L110,236h-0.8L112.3,228.1z"/>
		<path d="M114.1,234.1c0,0.8,0.7,1.1,1.5,1.1c0.6,0,1.3-0.1,1.3-0.8c0-0.7-0.9-0.8-1.8-1c-0.9-0.2-1.8-0.5-1.8-1.5
			c0-1.1,1.1-1.6,2-1.6c1.2,0,2.2,0.4,2.2,1.7h-0.9c-0.1-0.7-0.7-0.9-1.3-0.9c-0.5,0-1.2,0.1-1.2,0.7c0,0.6,1,0.8,1.8,1
			c0.9,0.2,1.8,0.5,1.8,1.6c0,1.3-1.2,1.7-2.3,1.7c-1.2,0-2.3-0.5-2.3-1.9H114.1z"/>
	</g>
	<g>
		<path d="M60.8,177.6h1v6.7h4v0.8h-5V177.6z"/>
		<path d="M67.5,178.7h-0.9v-1.1h0.9V178.7z M66.6,179.7h0.9v5.5h-0.9V179.7z"/>
		<path d="M73.6,184.7c0,1.8-0.8,2.7-2.5,2.7c-1,0-2.2-0.4-2.3-1.6h0.9c0,0.7,0.8,0.9,1.4,0.9c1.2,0,1.6-0.8,1.6-2.1v-0.4h0
			c-0.3,0.7-1,1-1.7,1c-1.6,0-2.4-1.3-2.4-2.8c0-1.3,0.6-2.9,2.5-2.9c0.7,0,1.3,0.3,1.6,0.9h0v-0.8h0.8V184.7z M72.7,182.3
			c0-1-0.4-2-1.6-2c-1.2,0-1.6,0.9-1.6,2c0,1,0.4,2.1,1.5,2.1S72.7,183.3,72.7,182.3z"/>
		<path d="M75,177.6h0.9v2.9h0c0.3-0.7,1.1-0.9,1.7-0.9c1.4,0,1.9,0.8,1.9,2v3.6h-0.9v-3.7c0-0.7-0.4-1.1-1.1-1.1
			c-1.1,0-1.6,0.7-1.6,1.7v3.1H75V177.6z"/>
		<path d="M82.1,179.7h1.1v0.8h-1.1v3.4c0,0.4,0.1,0.5,0.7,0.5h0.4v0.8h-0.7c-0.9,0-1.3-0.2-1.3-1.2v-3.5h-0.9v-0.8h0.9V178h0.9
			V179.7z"/>
		<path d="M87.2,177.6h0.9v2.8h0c0.3-0.6,1-0.9,1.7-0.9c1.7,0,2.5,1.3,2.5,2.9c0,1.5-0.8,2.8-2.5,2.8c-0.6,0-1.4-0.2-1.8-0.9h0v0.7
			h-0.9V177.6z M89.7,180.4c-1.2,0-1.7,1-1.7,2.1c0,1.1,0.5,2.1,1.7,2.1c1.2,0,1.6-1,1.6-2.1C91.4,181.3,90.9,180.4,89.7,180.4z"/>
		<path d="M93.4,179.7h0.8v1.2h0c0.4-0.9,1-1.3,2-1.3v1c-1.5,0-2,0.8-2,2.2v2.4h-0.9V179.7z"/>
		<path d="M101.4,183.4c-0.2,1.2-1.1,1.9-2.3,1.9c-1.7,0-2.6-1.2-2.6-2.9c0-1.6,1.1-2.8,2.6-2.8c1.9,0,2.5,1.8,2.5,3.1h-4.1
			c0,1,0.5,1.8,1.7,1.8c0.7,0,1.3-0.4,1.4-1.1H101.4z M100.6,181.9c0-0.9-0.7-1.5-1.6-1.5c-0.9,0-1.5,0.7-1.6,1.5H100.6z"/>
		<path d="M107.1,183.4c-0.2,1.2-1.1,1.9-2.3,1.9c-1.7,0-2.6-1.2-2.6-2.9c0-1.6,1.1-2.8,2.6-2.8c1.9,0,2.5,1.8,2.5,3.1h-4.1
			c0,1,0.5,1.8,1.7,1.8c0.7,0,1.3-0.4,1.4-1.1H107.1z M106.2,181.9c0-0.9-0.7-1.5-1.6-1.5c-0.9,0-1.5,0.7-1.6,1.5H106.2z"/>
		<path d="M107.7,184.5l3.3-4h-3.1v-0.8h4.3v0.6l-3.3,4.1h3.5v0.8h-4.6V184.5z"/>
		<path d="M117.9,183.4c-0.2,1.2-1.1,1.9-2.3,1.9c-1.7,0-2.6-1.2-2.6-2.9c0-1.6,1.1-2.8,2.6-2.8c1.9,0,2.5,1.8,2.5,3.1h-4.1
			c0,1,0.5,1.8,1.7,1.8c0.7,0,1.3-0.4,1.4-1.1H117.9z M117,181.9c0-0.9-0.7-1.5-1.6-1.5c-0.9,0-1.5,0.7-1.6,1.5H117z"/>
		<path d="M82.7,192c0.1,0,0.3,0,0.4,0c0.8,0,1.4-0.4,1.4-1.2c0-0.8-0.6-1.2-1.3-1.2c-1,0-1.4,0.8-1.4,1.6h-0.9
			c0.1-1.4,0.8-2.4,2.3-2.4c1.3,0,2.3,0.6,2.3,2c0,0.7-0.5,1.2-1,1.5v0c0.9,0.2,1.4,0.9,1.4,1.8c0,1.5-1.2,2.3-2.6,2.3
			c-1.5,0-2.5-0.9-2.5-2.4h0.9c0,1,0.6,1.7,1.6,1.7c0.9,0,1.6-0.5,1.6-1.5c0-0.9-0.7-1.4-1.6-1.4c-0.2,0-0.4,0-0.5,0V192z"/>
		<path d="M86.2,192.9h5.3v0.8h-5.3V192.9z"/>
		<path d="M96.5,189.7h-3l-0.4,2.2l0,0c0.3-0.4,0.9-0.5,1.4-0.5c1.3,0,2.4,0.9,2.4,2.6c0,1.3-0.9,2.5-2.6,2.5
			c-1.3,0-2.4-0.8-2.4-2.1h0.9c0.1,0.8,0.7,1.4,1.6,1.4c0.9,0,1.6-0.6,1.6-1.8c0-1-0.7-1.7-1.7-1.7c-0.6,0-1,0.3-1.4,0.7l-0.8,0
			l0.7-3.9h3.7V189.7z"/>
		<path d="M101,190.8h0.8v0.8h0c0.4-0.6,1-0.9,1.8-0.9c0.7,0,1.3,0.3,1.5,0.9c0.4-0.6,1-0.9,1.7-0.9c1.1,0,1.8,0.5,1.8,1.6v4h-0.9
			v-3.6c0-0.7-0.2-1.2-1.1-1.2c-0.9,0-1.4,0.6-1.4,1.4v3.4h-0.9v-3.6c0-0.7-0.2-1.2-1-1.2c-1.1,0-1.5,1-1.5,1.4v3.4H101V190.8z"/>
		<path d="M112.3,188.6h0.8l-3.1,7.9h-0.8L112.3,188.6z"/>
		<path d="M114.1,194.6c0,0.8,0.7,1.1,1.5,1.1c0.6,0,1.3-0.1,1.3-0.8c0-0.7-0.9-0.8-1.8-1c-0.9-0.2-1.8-0.5-1.8-1.5
			c0-1.1,1.1-1.6,2-1.6c1.2,0,2.2,0.4,2.2,1.7h-0.9c-0.1-0.7-0.7-0.9-1.3-0.9c-0.5,0-1.2,0.1-1.2,0.7c0,0.6,1,0.8,1.8,1
			c0.9,0.2,1.8,0.5,1.8,1.6c0,1.3-1.2,1.7-2.3,1.7c-1.2,0-2.3-0.5-2.3-1.9H114.1z"/>
	</g>
	<g>
		<path d="M59.7,140.3c-0.1-1.1-0.8-1.5-1.9-1.5c-0.8,0-1.7,0.3-1.7,1.3c0,0.9,1.2,1.1,2.4,1.3c1.2,0.3,2.4,0.7,2.4,2.2
			c0,1.6-1.6,2.3-3,2.3c-1.7,0-3.1-0.8-3.1-2.7h1c0,1.3,1.1,1.8,2.2,1.8c0.9,0,1.9-0.3,1.9-1.4c0-1-1.2-1.2-2.4-1.5s-2.4-0.6-2.4-2
			c0-1.5,1.4-2.2,2.7-2.2c1.5,0,2.7,0.7,2.8,2.4H59.7z"/>
		<path d="M63.1,140.1h1.1v0.8h-1.1v3.4c0,0.4,0.1,0.5,0.7,0.5h0.4v0.8h-0.7c-0.9,0-1.3-0.2-1.3-1.2v-3.5h-0.9v-0.8h0.9v-1.6h0.9
			V140.1z"/>
		<path d="M64.9,140.1h0.8v1.2h0c0.4-0.9,1-1.3,2-1.3v1c-1.5,0-2,0.8-2,2.2v2.4h-0.9V140.1z"/>
		<path d="M70.4,140c1.7,0,2.7,1.3,2.7,2.9c0,1.6-0.9,2.9-2.7,2.9c-1.7,0-2.7-1.3-2.7-2.9C67.8,141.3,68.7,140,70.4,140z
			 M70.4,144.9c0.9,0,1.7-0.7,1.7-2.1c0-1.3-0.8-2.1-1.7-2.1c-0.9,0-1.7,0.7-1.7,2.1C68.7,144.2,69.5,144.9,70.4,144.9z"/>
		<path d="M73.9,140.1h0.8v0.9h0c0.4-0.7,1-1,1.8-1c1.4,0,1.9,0.8,1.9,2v3.6h-0.9v-3.7c0-0.7-0.4-1.1-1.1-1.1
			c-1.1,0-1.6,0.7-1.6,1.7v3.1h-0.9V140.1z"/>
		<path d="M84.3,145.1c0,1.8-0.8,2.7-2.5,2.7c-1,0-2.2-0.4-2.3-1.6h0.9c0,0.7,0.8,0.9,1.4,0.9c1.2,0,1.6-0.8,1.6-2.1v-0.4h0
			c-0.3,0.7-1,1-1.7,1c-1.6,0-2.4-1.3-2.4-2.8c0-1.3,0.6-2.9,2.5-2.9c0.7,0,1.3,0.3,1.6,0.9h0v-0.8h0.8V145.1z M83.4,142.8
			c0-1-0.4-2-1.6-2c-1.2,0-1.6,0.9-1.6,2c0,1,0.4,2.1,1.5,2.1S83.4,143.8,83.4,142.8z"/>
		<path d="M88.2,138.1h0.9v2.8h0c0.3-0.6,1-0.9,1.7-0.9c1.7,0,2.5,1.3,2.5,2.9c0,1.5-0.8,2.8-2.5,2.8c-0.6,0-1.4-0.2-1.8-0.9h0v0.7
			h-0.9V138.1z M90.8,140.8c-1.2,0-1.7,1-1.7,2.1c0,1.1,0.5,2.1,1.7,2.1c1.2,0,1.6-1,1.6-2.1C92.5,141.8,91.9,140.8,90.8,140.8z"/>
		<path d="M94.2,140.1h0.8v1.2h0c0.4-0.9,1-1.3,2-1.3v1c-1.5,0-2,0.8-2,2.2v2.4h-0.9V140.1z"/>
		<path d="M102.1,143.9c-0.2,1.2-1.1,1.9-2.3,1.9c-1.7,0-2.6-1.2-2.6-2.9c0-1.6,1.1-2.8,2.6-2.8c1.9,0,2.5,1.8,2.5,3.1h-4.1
			c0,1,0.5,1.8,1.7,1.8c0.7,0,1.3-0.4,1.4-1.1H102.1z M101.2,142.4c0-0.9-0.7-1.5-1.6-1.5c-0.9,0-1.5,0.7-1.6,1.5H101.2z"/>
		<path d="M107.5,143.9c-0.2,1.2-1.1,1.9-2.3,1.9c-1.7,0-2.6-1.2-2.6-2.9c0-1.6,1.1-2.8,2.6-2.8c1.9,0,2.5,1.8,2.5,3.1h-4.1
			c0,1,0.5,1.8,1.7,1.8c0.7,0,1.3-0.4,1.4-1.1H107.5z M106.7,142.4c0-0.9-0.7-1.5-1.6-1.5c-0.9,0-1.5,0.7-1.6,1.5H106.7z"/>
		<path d="M107.9,144.9l3.3-4h-3.1v-0.8h4.3v0.6l-3.3,4.1h3.5v0.8h-4.6V144.9z"/>
		<path d="M117.9,143.9c-0.2,1.2-1.1,1.9-2.3,1.9c-1.7,0-2.6-1.2-2.6-2.9c0-1.6,1.1-2.8,2.6-2.8c1.9,0,2.5,1.8,2.5,3.1h-4.1
			c0,1,0.5,1.8,1.7,1.8c0.7,0,1.3-0.4,1.4-1.1H117.9z M117,142.4c0-0.9-0.7-1.5-1.6-1.5c-0.9,0-1.5,0.7-1.6,1.5H117z"/>
		<path d="M77.4,149.2c1.6,0,2.3,1,2.3,1.9c0,0.7-0.4,1.3-1,1.6c0.9,0.3,1.3,0.9,1.3,1.9c0,1.5-1.1,2.3-2.5,2.3
			c-1.4,0-2.6-0.8-2.6-2.3c0-0.9,0.5-1.6,1.3-1.9c-0.6-0.3-1-0.9-1-1.6C75.2,149.9,76.2,149.2,77.4,149.2z M77.5,156.1
			c0.9,0,1.5-0.6,1.5-1.5c0-0.8-0.7-1.4-1.5-1.4c-0.9,0-1.6,0.6-1.6,1.4C75.9,155.5,76.5,156.1,77.5,156.1z M77.5,152.4
			c0.7,0,1.2-0.4,1.2-1.2c0-0.8-0.5-1.2-1.3-1.2c-0.7,0-1.3,0.4-1.3,1.2C76.1,152,76.7,152.4,77.5,152.4z"/>
		<path d="M80.4,153.4h5.3v0.8h-5.3V153.4z"/>
		<path d="M89.4,156.8h-0.9v-5.4h-1.9v-0.7c1,0,2-0.3,2.2-1.4h0.7V156.8z"/>
		<path d="M95.3,156.8h-0.9v-5.4h-1.9v-0.7c1,0,2-0.3,2.2-1.4h0.7V156.8z"/>
		<path d="M101,151.3h0.8v0.8h0c0.4-0.6,1-0.9,1.8-0.9c0.7,0,1.3,0.3,1.5,0.9c0.4-0.6,1-0.9,1.7-0.9c1.1,0,1.8,0.5,1.8,1.6v4h-0.9
			v-3.6c0-0.7-0.2-1.2-1.1-1.2c-0.9,0-1.4,0.6-1.4,1.4v3.4h-0.9v-3.6c0-0.7-0.2-1.2-1-1.2c-1.1,0-1.5,1-1.5,1.4v3.4H101V151.3z"/>
		<path d="M112.3,149h0.8l-3.1,7.9h-0.8L112.3,149z"/>
		<path d="M114.1,155c0,0.8,0.7,1.1,1.5,1.1c0.6,0,1.3-0.1,1.3-0.8c0-0.7-0.9-0.8-1.8-1c-0.9-0.2-1.8-0.5-1.8-1.5
			c0-1.1,1.1-1.6,2-1.6c1.2,0,2.2,0.4,2.2,1.7h-0.9c-0.1-0.7-0.7-0.9-1.3-0.9c-0.5,0-1.2,0.1-1.2,0.7c0,0.6,1,0.8,1.8,1
			c0.9,0.2,1.8,0.5,1.8,1.6c0,1.3-1.2,1.7-2.3,1.7c-1.2,0-2.3-0.5-2.3-1.9H114.1z"/>
	</g>
	<g>
		<path d="M66.4,100.7c-0.1-1.1-0.8-1.5-1.9-1.5c-0.8,0-1.7,0.3-1.7,1.3c0,0.9,1.2,1.1,2.4,1.3c1.2,0.3,2.4,0.7,2.4,2.2
			c0,1.6-1.6,2.3-3,2.3c-1.7,0-3.1-0.8-3.1-2.7h1c0,1.3,1.1,1.8,2.2,1.8c0.9,0,1.9-0.3,1.9-1.4c0-1-1.2-1.2-2.4-1.5s-2.4-0.6-2.4-2
			c0-1.5,1.4-2.2,2.7-2.2c1.5,0,2.7,0.7,2.8,2.4H66.4z"/>
		<path d="M70,100.6h1.1v0.8H70v3.4c0,0.4,0.1,0.5,0.7,0.5h0.4v0.8h-0.7c-0.9,0-1.3-0.2-1.3-1.2v-3.5h-0.9v-0.8h0.9v-1.6H70V100.6z"
			/>
		<path d="M72,100.6h0.8v1.2h0c0.4-0.9,1-1.3,2-1.3v1c-1.5,0-2,0.8-2,2.2v2.4H72V100.6z"/>
		<path d="M77.7,100.5c1.7,0,2.7,1.3,2.7,2.9c0,1.6-0.9,2.9-2.7,2.9c-1.7,0-2.7-1.3-2.7-2.9C75.1,101.7,76,100.5,77.7,100.5z
			 M77.7,105.4c0.9,0,1.7-0.7,1.7-2.1c0-1.3-0.8-2.1-1.7-2.1c-0.9,0-1.7,0.7-1.7,2.1C76,104.7,76.8,105.4,77.7,105.4z"/>
		<path d="M81.5,100.6h0.8v0.9h0c0.4-0.7,1-1,1.8-1c1.4,0,1.9,0.8,1.9,2v3.6h-0.9v-3.7c0-0.7-0.4-1.1-1.1-1.1
			c-1.1,0-1.6,0.7-1.6,1.7v3.1h-0.9V100.6z"/>
		<path d="M92.1,105.6c0,1.8-0.8,2.7-2.5,2.7c-1,0-2.2-0.4-2.3-1.6h0.9c0,0.7,0.8,0.9,1.4,0.9c1.2,0,1.6-0.8,1.6-2.1v-0.4h0
			c-0.3,0.7-1,1-1.7,1c-1.6,0-2.4-1.3-2.4-2.8c0-1.3,0.6-2.9,2.5-2.9c0.7,0,1.3,0.3,1.6,0.9h0v-0.8h0.8V105.6z M91.2,103.2
			c0-1-0.4-2-1.6-2c-1.2,0-1.6,0.9-1.6,2c0,1,0.4,2.1,1.5,2.1S91.2,104.2,91.2,103.2z"/>
		<path d="M101.8,106.1h-1l-1.1-4.4h0l-1.1,4.4h-1l-1.8-5.5h1l1.2,4.5h0l1.1-4.5h1l1.1,4.5h0l1.2-4.5h0.9L101.8,106.1z"/>
		<path d="M105.3,99.6h-0.9v-1.1h0.9V99.6z M104.4,100.6h0.9v5.5h-0.9V100.6z"/>
		<path d="M106.7,100.6h0.8v0.9h0c0.4-0.7,1-1,1.8-1c1.4,0,1.9,0.8,1.9,2v3.6h-0.9v-3.7c0-0.7-0.4-1.1-1.1-1.1
			c-1.1,0-1.6,0.7-1.6,1.7v3.1h-0.9V100.6z"/>
		<path d="M117.5,106.1h-0.9v-0.7h0c-0.3,0.6-1,0.9-1.7,0.9c-1.7,0-2.5-1.3-2.5-2.9c0-1.5,0.8-2.8,2.5-2.8c0.6,0,1.4,0.2,1.8,0.9h0
			v-2.8h0.9V106.1z M115,105.4c1.2,0,1.7-1,1.7-2.1c0-1.1-0.5-2.1-1.7-2.1c-1.2,0-1.6,1-1.6,2.1C113.3,104.4,113.8,105.4,115,105.4z
			"/>
		<path d="M72.4,117.2h-0.9v-5.4h-1.9v-0.7c1,0,2-0.3,2.2-1.4h0.7V117.2z"/>
		<path d="M78.9,114.7h1v0.8h-1v1.8h-0.8v-1.8h-3.3v-0.9l3.4-4.9h0.7V114.7z M78.1,114.7V111h0l-2.5,3.7H78.1z"/>
		<path d="M80.4,113.8h5.3v0.8h-5.3V113.8z"/>
		<path d="M89.4,117.2h-0.9v-5.4h-1.9v-0.7c1,0,2-0.3,2.2-1.4h0.7V117.2z"/>
		<path d="M96.9,110.6c-1.5,1.5-2.7,4.3-2.9,6.6h-1c0.2-2.5,1.4-4.9,3-6.5h-3.9v-0.8h4.9V110.6z"/>
		<path d="M101,111.7h0.8v0.8h0c0.4-0.6,1-0.9,1.8-0.9c0.7,0,1.3,0.3,1.5,0.9c0.4-0.6,1-0.9,1.7-0.9c1.1,0,1.8,0.5,1.8,1.6v4h-0.9
			v-3.6c0-0.7-0.2-1.2-1.1-1.2c-0.9,0-1.4,0.6-1.4,1.4v3.4h-0.9v-3.6c0-0.7-0.2-1.2-1-1.2c-1.1,0-1.5,1-1.5,1.4v3.4H101V111.7z"/>
		<path d="M112.3,109.5h0.8l-3.1,7.9h-0.8L112.3,109.5z"/>
		<path d="M114.1,115.5c0,0.8,0.7,1.1,1.5,1.1c0.6,0,1.3-0.1,1.3-0.8c0-0.7-0.9-0.8-1.8-1c-0.9-0.2-1.8-0.5-1.8-1.5
			c0-1.1,1.1-1.6,2-1.6c1.2,0,2.2,0.4,2.2,1.7h-0.9c-0.1-0.7-0.7-0.9-1.3-0.9c-0.5,0-1.2,0.1-1.2,0.7c0,0.6,1,0.8,1.8,1
			c0.9,0.2,1.8,0.5,1.8,1.6c0,1.3-1.2,1.7-2.3,1.7c-1.2,0-2.3-0.5-2.3-1.9H114.1z"/>
	</g>
	<g>
		<path d="M69.1,61.2c-0.1-1.1-0.8-1.5-1.9-1.5c-0.8,0-1.7,0.3-1.7,1.3c0,0.9,1.2,1.1,2.4,1.3c1.2,0.3,2.4,0.7,2.4,2.2
			c0,1.6-1.6,2.3-3,2.3c-1.7,0-3.1-0.8-3.1-2.7h1c0,1.3,1.1,1.8,2.2,1.8c0.9,0,1.9-0.3,1.9-1.4c0-1-1.2-1.2-2.4-1.5s-2.4-0.6-2.4-2
			c0-1.5,1.4-2.2,2.7-2.2c1.5,0,2.7,0.7,2.8,2.4H69.1z"/>
		<path d="M72.7,61h1.1v0.8h-1.1v3.4c0,0.4,0.1,0.5,0.7,0.5h0.4v0.8h-0.7c-0.9,0-1.3-0.2-1.3-1.2v-3.5h-0.9V61h0.9v-1.6h0.9V61z"/>
		<path d="M74.8,61h0.8v1.2h0c0.4-0.9,1-1.3,2-1.3v1c-1.5,0-2,0.8-2,2.2v2.4h-0.9V61z"/>
		<path d="M80.5,60.9c1.7,0,2.7,1.3,2.7,2.9c0,1.6-0.9,2.9-2.7,2.9c-1.7,0-2.7-1.3-2.7-2.9C77.8,62.2,78.7,60.9,80.5,60.9z
			 M80.5,65.9c0.9,0,1.7-0.7,1.7-2.1c0-1.3-0.8-2.1-1.7-2.1c-0.9,0-1.7,0.7-1.7,2.1C78.8,65.1,79.5,65.9,80.5,65.9z"/>
		<path d="M84.2,61H85v0.9h0c0.4-0.7,1-1,1.8-1c1.4,0,1.9,0.8,1.9,2v3.6h-0.9v-3.7c0-0.7-0.4-1.1-1.1-1.1c-1.1,0-1.6,0.7-1.6,1.7
			v3.1h-0.9V61z"/>
		<path d="M94.8,66.1c0,1.8-0.8,2.7-2.5,2.7c-1,0-2.2-0.4-2.3-1.6h0.9c0,0.7,0.8,0.9,1.4,0.9c1.2,0,1.6-0.8,1.6-2.1v-0.4h0
			c-0.3,0.7-1,1-1.7,1c-1.6,0-2.4-1.3-2.4-2.8c0-1.3,0.6-2.9,2.5-2.9c0.7,0,1.3,0.3,1.6,0.9h0V61h0.8V66.1z M93.9,63.7
			c0-1-0.4-2-1.6-2c-1.2,0-1.6,0.9-1.6,2c0,1,0.4,2.1,1.5,2.1S93.9,64.7,93.9,63.7z"/>
		<path d="M103.8,66.1c0,1.8-0.8,2.7-2.5,2.7c-1,0-2.2-0.4-2.3-1.6h0.9c0,0.7,0.8,0.9,1.4,0.9c1.2,0,1.6-0.8,1.6-2.1v-0.4h0
			c-0.3,0.7-1,1-1.7,1c-1.6,0-2.4-1.3-2.4-2.8c0-1.3,0.6-2.9,2.5-2.9c0.7,0,1.3,0.3,1.6,0.9h0V61h0.8V66.1z M102.9,63.7
			c0-1-0.4-2-1.6-2c-1.2,0-1.6,0.9-1.6,2c0,1,0.4,2.1,1.5,2.1S102.9,64.7,102.9,63.7z"/>
		<path d="M110,66.5c-0.2,0.1-0.4,0.1-0.6,0.1c-0.5,0-0.8-0.3-0.8-0.8c-0.5,0.6-1.2,0.8-1.9,0.8c-1,0-1.8-0.4-1.8-1.5
			c0-1.2,0.9-1.5,1.9-1.7c1-0.2,1.8-0.1,1.8-0.8c0-0.8-0.6-0.9-1.2-0.9c-0.8,0-1.3,0.2-1.4,1h-0.9c0.1-1.4,1.1-1.8,2.3-1.8
			c1,0,2.1,0.2,2.1,1.5v2.8c0,0.4,0,0.6,0.3,0.6c0.1,0,0.2,0,0.3-0.1V66.5z M108.6,63.7c-0.3,0.3-1,0.3-1.6,0.4
			c-0.6,0.1-1.1,0.3-1.1,1c0,0.6,0.5,0.8,1.1,0.8c1.2,0,1.7-0.7,1.7-1.2V63.7z"/>
		<path d="M110.9,59h0.9v7.6h-0.9V59z"/>
		<path d="M117.9,64.8c-0.2,1.2-1.1,1.9-2.3,1.9c-1.7,0-2.6-1.2-2.6-2.9c0-1.6,1.1-2.8,2.6-2.8c1.9,0,2.5,1.8,2.5,3.1h-4.1
			c0,1,0.5,1.8,1.7,1.8c0.7,0,1.3-0.4,1.4-1.1H117.9z M117,63.3c0-0.9-0.7-1.5-1.6-1.5c-0.9,0-1.5,0.7-1.6,1.5H117z"/>
		<path d="M69.1,72.8c-0.1-1.5,0.8-2.7,2.4-2.7c1.3,0,2.4,0.8,2.4,2.2c0,1.3-0.9,2-1.8,2.6c-0.9,0.6-1.9,1-2.1,2h3.9v0.8h-4.9
			c0.1-1.8,1-2.4,2.1-3.1c1.3-0.8,1.9-1.2,1.9-2.3c0-0.8-0.7-1.4-1.5-1.4c-1,0-1.5,1-1.5,1.9H69.1z"/>
		<path d="M78.3,77.7h-0.9v-5.4h-1.9v-0.7c1,0,2-0.3,2.2-1.4h0.7V77.7z"/>
		<path d="M80.4,74.3h5.3v0.8h-5.3V74.3z"/>
		<path d="M86.1,72.8c-0.1-1.5,0.8-2.7,2.4-2.7c1.3,0,2.4,0.8,2.4,2.2c0,1.3-0.9,2-1.8,2.6c-0.9,0.6-1.9,1-2.1,2h3.9v0.8h-4.9
			c0.1-1.8,1-2.4,2.1-3.1c1.3-0.8,1.9-1.2,1.9-2.3c0-0.8-0.7-1.4-1.5-1.4c-1,0-1.5,1-1.5,1.9H86.1z"/>
		<path d="M96,75.1h1v0.8h-1v1.8h-0.8v-1.8h-3.3V75l3.4-4.9H96V75.1z M95.1,75.1v-3.7h0l-2.5,3.7H95.1z"/>
		<path d="M101,72.2h0.8V73h0c0.4-0.6,1-0.9,1.8-0.9c0.7,0,1.3,0.3,1.5,0.9c0.4-0.6,1-0.9,1.7-0.9c1.1,0,1.8,0.5,1.8,1.6v4h-0.9
			v-3.6c0-0.7-0.2-1.2-1.1-1.2c-0.9,0-1.4,0.6-1.4,1.4v3.4h-0.9v-3.6c0-0.7-0.2-1.2-1-1.2c-1.1,0-1.5,1-1.5,1.4v3.4H101V72.2z"/>
		<path d="M112.3,69.9h0.8l-3.1,7.9h-0.8L112.3,69.9z"/>
		<path d="M114.1,75.9c0,0.8,0.7,1.1,1.5,1.1c0.6,0,1.3-0.1,1.3-0.8c0-0.7-0.9-0.8-1.8-1c-0.9-0.2-1.8-0.5-1.8-1.5
			c0-1.1,1.1-1.6,2-1.6c1.2,0,2.2,0.4,2.2,1.7h-0.9c-0.1-0.7-0.7-0.9-1.3-0.9c-0.5,0-1.2,0.1-1.2,0.7c0,0.6,1,0.8,1.8,1
			c0.9,0.2,1.8,0.5,1.8,1.6c0,1.3-1.2,1.7-2.3,1.7c-1.2,0-2.3-0.5-2.3-1.9H114.1z"/>
	</g>
	<g>
		<path d="M285.3,260.9h1.9l3.1,8.4h-1.9l-0.6-1.9h-3.1l-0.7,1.9h-1.9L285.3,260.9z M285.2,266h2.2l-1.1-3.1h0L285.2,266z"/>
		<path d="M291.1,260.9h1.8v8.4h-1.8V260.9z"/>
		<path d="M294.5,260.9h4.5c1.5,0,2.4,1,2.4,2.3c0,1-0.4,1.7-1.3,2.1v0c0.9,0.2,1.2,1.1,1.2,2c0,0.5,0,1.5,0.4,2h-1.8
			c-0.2-0.5-0.2-1.3-0.3-2c-0.1-0.9-0.5-1.3-1.4-1.3h-1.8v3.3h-1.8V260.9z M296.4,264.7h2c0.8,0,1.3-0.4,1.3-1.2
			c0-0.8-0.4-1.2-1.3-1.2h-2V264.7z"/>
		<path d="M308.1,262.5h-2.5v-1.5h6.8v1.5h-2.5v6.8h-1.8V262.5z"/>
		<path d="M313.4,260.9h6.2v1.5h-4.4v1.8h4v1.4h-4v2h4.5v1.5h-6.3V260.9z"/>
		<path d="M320.9,260.9h2.6l2,5.7h0l1.8-5.7h2.6v8.4h-1.7v-5.9h0l-2,5.9h-1.4l-2-5.9h0v5.9h-1.7V260.9z"/>
		<path d="M331.5,260.9h3.8c2.1,0,2.9,1.3,2.9,2.7c0,1.4-0.8,2.7-2.9,2.7h-1.9v3h-1.8V260.9z M333.4,264.8h1.4
			c0.9,0,1.6-0.2,1.6-1.3s-0.8-1.3-1.6-1.3h-1.4V264.8z"/>
		<path d="M339.4,260.9h6.2v1.5h-4.4v1.8h4v1.4h-4v2h4.5v1.5h-6.3V260.9z"/>
		<path d="M346.9,260.9h4.5c1.5,0,2.4,1,2.4,2.3c0,1-0.4,1.7-1.3,2.1v0c0.9,0.2,1.2,1.1,1.2,2c0,0.5,0,1.5,0.4,2h-1.8
			c-0.2-0.5-0.2-1.3-0.3-2c-0.1-0.9-0.5-1.3-1.4-1.3h-1.8v3.3h-1.8V260.9z M348.8,264.7h2c0.8,0,1.3-0.4,1.3-1.2
			c0-0.8-0.4-1.2-1.3-1.2h-2V264.7z"/>
		<path d="M357.7,260.9h1.9l3.1,8.4h-1.9l-0.6-1.9H357l-0.7,1.9h-1.9L357.7,260.9z M357.5,266h2.2l-1.1-3.1h0L357.5,266z"/>
		<path d="M364.4,262.5h-2.5v-1.5h6.8v1.5h-2.5v6.8h-1.8V262.5z"/>
		<path d="M376.8,266.1c0,2.3-1.3,3.4-3.6,3.4c-2.2,0-3.6-1.1-3.6-3.4v-5.2h1.8v5.2c0,0.9,0.2,1.8,1.7,1.8c1.3,0,1.7-0.6,1.7-1.8
			v-5.2h1.8V266.1z"/>
		<path d="M378.3,260.9h4.5c1.5,0,2.4,1,2.4,2.3c0,1-0.4,1.7-1.3,2.1v0c0.9,0.2,1.2,1.1,1.2,2c0,0.5,0,1.5,0.4,2h-1.8
			c-0.2-0.5-0.2-1.3-0.3-2c-0.1-0.9-0.5-1.3-1.4-1.3h-1.8v3.3h-1.8V260.9z M380.2,264.7h2c0.8,0,1.3-0.4,1.3-1.2
			c0-0.8-0.4-1.2-1.3-1.2h-2V264.7z"/>
		<path d="M386.8,260.9h6.2v1.5h-4.4v1.8h4v1.4h-4v2h4.5v1.5h-6.3V260.9z"/>
		<path d="M399.1,260.9c1,0,1.7,0.8,1.7,1.7c0,1-0.8,1.7-1.7,1.7c-1,0-1.7-0.8-1.7-1.7C397.4,261.7,398.2,260.9,399.1,260.9z
			 M399.1,263.7c0.5,0,1-0.5,1-1c0-0.6-0.5-1-1-1c-0.5,0-1,0.5-1,1C398.2,263.2,398.6,263.7,399.1,263.7z"/>
		<path d="M408.4,263.4c-0.3-1.3-1.3-2-2.6-2c-2.2,0-3.1,1.8-3.1,3.7s0.9,3.7,3.1,3.7c1.5,0,2.5-1.2,2.7-2.7h0.8
			c-0.2,2-1.5,3.4-3.5,3.4c-2.6,0-3.9-2.1-3.9-4.4s1.3-4.4,3.9-4.4c1.6,0,3.1,0.9,3.4,2.7H408.4z"/>
	</g>
	<g>
		<path d="M40.2,105.4v-1.8l6.2-1.4v0l-6.2-1.4v-1.9l9.1-2.2v1.8l-6.2,1.3v0l6.2,1.5v1.7l-6.3,1.4v0l6.3,1.4v1.8L40.2,105.4z"/>
		<path d="M49.3,108.4v1.8h-9.1v-1.8H49.3z"/>
		<path d="M49.3,111.9v1.8l-6.1,3.5v0h6.1v1.7h-9.1v-1.8l6.1-3.5v0h-6.1v-1.7H49.3z"/>
		<path d="M49.3,120.6v3.6c0,2.2-1.5,3.8-4.5,3.8c-2.6,0-4.6-1.2-4.6-3.8v-3.6H49.3z M41.9,122.4v1.6c0,1.1,0.7,2.1,2.7,2.1
			c1.8,0,3-0.6,3-2.4v-1.3H41.9z"/>
		<path d="M43.2,130.5c-1.2,0-1.7,0.9-1.7,1.8c0,0.6,0.2,1.6,1.1,1.6c1,0,1.1-1.3,1.5-2.5c0.4-1.2,0.9-2.5,2.6-2.5
			c1.9,0,2.8,1.6,2.8,3.1c0,1.7-0.8,3.3-2.9,3.3v-1.8c1.1-0.1,1.4-0.8,1.4-1.7c0-0.6-0.3-1.3-1-1.3c-0.7,0-0.8,0.4-1.4,2.5
			c-0.2,0.6-0.6,2.5-2.7,2.5c-1.7,0-2.9-1.2-2.9-3.5c0-1.8,1-3.6,3.2-3.6V130.5z"/>
		<path d="M49.3,136.8v3.8c0,2.1-1.4,2.9-2.9,2.9c-1.5,0-2.9-0.8-2.9-2.9v-1.9h-3.3v-1.8H49.3z M45,138.7v1.4c0,0.9,0.2,1.6,1.4,1.6
			c1.2,0,1.4-0.8,1.4-1.6v-1.4H45z"/>
		<path d="M49.3,144.6v6.2h-1.7v-4.4h-2v4h-1.6v-4h-2.2v4.5h-1.7v-6.3H49.3z"/>
		<path d="M49.3,152.2v6.2h-1.7V154h-2v4h-1.6v-4h-2.2v4.5h-1.7v-6.3H49.3z"/>
		<path d="M49.3,159.8v3.6c0,2.2-1.5,3.8-4.5,3.8c-2.6,0-4.6-1.2-4.6-3.8v-3.6H49.3z M41.9,161.6v1.6c0,1.1,0.7,2.1,2.7,2.1
			c1.8,0,3-0.6,3-2.4v-1.3H41.9z"/>
		<path d="M49.3,171.7v1.2l-8,2.9l8,2.9v1.2h-9.1V179h7.9v0l-7.9-2.9v-0.7l7.9-2.9v0h-7.9v-0.8H49.3z"/>
		<path d="M40,180.5l9.5,3.6v0.6l-9.5-3.6V180.5z"/>
		<path d="M43.2,185.8c-1.9,0-2.4,1.2-2.4,2.7c0,0.9,0.5,2.2,1.9,2.2c1,0,1.4-0.9,1.6-1.7l0.5-1.9c0.3-1,0.8-1.9,2.2-1.9
			c0.9,0,2.6,0.5,2.6,2.9c0,1.7-1,3.1-2.8,3.1v-0.8c1.4,0,2.1-1.1,2.1-2.3c0-1.1-0.5-2.1-1.8-2.1c-0.9,0-1.2,0.6-1.4,1.3l-0.5,2
			c-0.3,1.2-0.9,2.2-2.4,2.2c-0.6,0-2.6-0.2-2.6-3.2c0-2,1-3.4,3.2-3.3V185.8z"/>
	</g>
	<g>
		<path d="M511.4,261.7h1v3.3h4v-3.3h1v7.6h-1v-3.5h-4v3.5h-1V261.7z"/>
		<path d="M519.9,262.8H519v-1.1h0.9V262.8z M519,263.8h0.9v5.5H519V263.8z"/>
		<path d="M526,268.8c0,1.8-0.8,2.7-2.5,2.7c-1,0-2.2-0.4-2.3-1.6h0.9c0,0.7,0.8,0.9,1.4,0.9c1.2,0,1.6-0.8,1.6-2.1v-0.4h0
			c-0.3,0.7-1,1-1.7,1c-1.6,0-2.4-1.3-2.4-2.8c0-1.3,0.6-2.9,2.5-2.9c0.7,0,1.3,0.3,1.6,0.9h0v-0.8h0.8V268.8z M525.1,266.4
			c0-1-0.4-2-1.6-2c-1.2,0-1.6,0.9-1.6,2c0,1,0.4,2.1,1.5,2.1C524.7,268.5,525.1,267.4,525.1,266.4z"/>
		<path d="M527.4,261.7h0.9v2.9h0c0.3-0.7,1.1-0.9,1.7-0.9c1.4,0,1.9,0.8,1.9,2v3.6H531v-3.7c0-0.7-0.4-1.1-1.1-1.1
			c-1.1,0-1.6,0.7-1.6,1.7v3.1h-0.9V261.7z"/>
		<path d="M536.2,263.8h0.8v1.2h0c0.4-0.9,1-1.3,2-1.3v1c-1.5,0-2,0.8-2,2.2v2.4h-0.9V263.8z"/>
		<path d="M540.7,262.8h-0.9v-1.1h0.9V262.8z M539.8,263.8h0.9v5.5h-0.9V263.8z"/>
		<path d="M542.6,267.5c0,0.8,0.7,1.1,1.5,1.1c0.6,0,1.3-0.1,1.3-0.8c0-0.7-0.9-0.8-1.8-1c-0.9-0.2-1.8-0.5-1.8-1.5
			c0-1.1,1.1-1.6,2-1.6c1.2,0,2.2,0.4,2.2,1.7h-0.9c-0.1-0.7-0.7-0.9-1.3-0.9c-0.5,0-1.2,0.1-1.2,0.7c0,0.6,1,0.8,1.8,1
			c0.9,0.2,1.8,0.5,1.8,1.6c0,1.3-1.2,1.7-2.3,1.7c-1.2,0-2.3-0.5-2.3-1.9H542.6z"/>
		<path d="M547.4,261.7h0.9v4.5l2.5-2.4h1.2l-2.2,2l2.3,3.5H551l-1.9-2.9l-0.8,0.8v2.1h-0.9V261.7z"/>
	</g>
	<g>
		<path d="M131.3,261.7h1v6.7h4v0.8h-5V261.7z"/>
		<path d="M139.4,263.7c1.7,0,2.7,1.3,2.7,2.9c0,1.6-0.9,2.9-2.7,2.9c-1.7,0-2.7-1.3-2.7-2.9C136.7,264.9,137.7,263.7,139.4,263.7z
			 M139.4,268.6c0.9,0,1.7-0.7,1.7-2.1c0-1.3-0.8-2.1-1.7-2.1c-0.9,0-1.7,0.7-1.7,2.1C137.7,267.9,138.4,268.6,139.4,268.6z"/>
		<path d="M148.5,269.3h-1l-1.1-4.4h0l-1.1,4.4h-1l-1.8-5.5h1l1.2,4.5h0l1.1-4.5h1l1.1,4.5h0l1.2-4.5h0.9L148.5,269.3z"/>
		<path d="M154,263.8h0.8v1.2h0c0.4-0.9,1-1.3,2-1.3v1c-1.5,0-2,0.8-2,2.2v2.4H154V263.8z"/>
		<path d="M158.5,262.8h-0.9v-1.1h0.9V262.8z M157.6,263.8h0.9v5.5h-0.9V263.8z"/>
		<path d="M160.5,267.5c0,0.8,0.7,1.1,1.5,1.1c0.6,0,1.3-0.1,1.3-0.8c0-0.7-0.9-0.8-1.8-1c-0.9-0.2-1.8-0.5-1.8-1.5
			c0-1.1,1.1-1.6,2-1.6c1.2,0,2.2,0.4,2.2,1.7h-0.9c-0.1-0.7-0.7-0.9-1.3-0.9c-0.5,0-1.2,0.1-1.2,0.7c0,0.6,1,0.8,1.8,1
			c0.9,0.2,1.8,0.5,1.8,1.6c0,1.3-1.2,1.7-2.3,1.7c-1.2,0-2.3-0.5-2.3-1.9H160.5z"/>
		<path d="M165.3,261.7h0.9v4.5l2.5-2.4h1.2l-2.2,2l2.3,3.5h-1.1l-1.9-2.9l-0.8,0.8v2.1h-0.9V261.7z"/>
	</g>
	<g>
		<path fill="none" stroke="#000000" stroke-width="2" d="M182.9,265.7"/>
		<path fill="none" stroke="#000000" stroke-width="2" d="M274.7,265.7"/>
	</g>
</g>
</svg>
