<?xml version="1.0" encoding="utf-8"?>
<!-- Generator: Adobe Illustrator 19.1.0, SVG Export Plug-In . SVG Version: 6.00 Build 0)  -->
<svg version="1.1" id="Layer_1" xmlns="http://www.w3.org/2000/svg" xmlns:xlink="http://www.w3.org/1999/xlink" x="0px" y="0px"
	 viewBox="0 0 841.9 595.3" enable-background="new 0 0 841.9 595.3" xml:space="preserve">
<linearGradient id="SVGID_1_" gradientUnits="userSpaceOnUse" x1="271.5097" y1="229.2791" x2="444.833" y2="22.7205">
	<stop  offset="0" style="stop-color:#00A14B"/>
	<stop  offset="9.194195e-02" style="stop-color:#3E9D48"/>
	<stop  offset="0.2759" style="stop-color:#7A8E40"/>
	<stop  offset="0.5349" style="stop-color:#B37033"/>
	<stop  offset="0.8258" style="stop-color:#ED1C24"/>
</linearGradient>
<rect x="125" y="48.9" fill="url(#SVGID_1_)" width="430.5" height="197.1"/>
<g>
	<rect x="185.1" y="38.6" fill="#FFFFFF" width="1.4" height="210.4"/>
	<rect x="185.2" y="38.7" fill="#FFFFFF" width="1.1" height="210.1"/>
	<rect x="185.5" y="39" fill="#FFFFFF" width="0.6" height="209.5"/>
	<rect x="248" y="38.6" fill="#FFFFFF" width="1.4" height="210.4"/>
	<rect x="248.1" y="38.7" fill="#FFFFFF" width="1.1" height="210.1"/>
	<rect x="248.4" y="39" fill="#FFFFFF" width="0.6" height="209.5"/>
	<rect x="310.8" y="38.6" fill="#FFFFFF" width="1.4" height="210.4"/>
	<rect x="311" y="38.7" fill="#FFFFFF" width="1.1" height="210.1"/>
	<rect x="311.2" y="39" fill="#FFFFFF" width="0.6" height="209.5"/>
	<rect x="373.7" y="38.6" fill="#FFFFFF" width="1.4" height="210.4"/>
	<rect x="373.8" y="38.7" fill="#FFFFFF" width="1.1" height="210.1"/>
	<rect x="374.1" y="39" fill="#FFFFFF" width="0.6" height="209.5"/>
	<rect x="436.6" y="38.6" fill="#FFFFFF" width="1.4" height="210.4"/>
	<rect x="436.7" y="38.7" fill="#FFFFFF" width="1.1" height="210.1"/>
	<rect x="437" y="39" fill="#FFFFFF" width="0.6" height="209.5"/>
</g>
<rect x="499.5" y="38.6" fill="#FFFFFF" width="1.4" height="210.4"/>
<rect x="499.7" y="38.7" fill="#FFFFFF" width="1.1" height="210.1"/>
<rect x="499.9" y="39" fill="#FFFFFF" width="0.6" height="209.5"/>
<g>
	<rect x="124.1" y="48.2" fill="#FFFFFF" width="433.6" height="1.4"/>
	<rect x="124.2" y="48.4" fill="#FFFFFF" width="433.3" height="1.1"/>
	<rect x="124.5" y="48.6" fill="#FFFFFF" width="432.8" height="0.6"/>
	<rect x="124.1" y="87.6" fill="#FFFFFF" width="433.6" height="1.4"/>
	<rect x="124.2" y="87.8" fill="#FFFFFF" width="433.3" height="1.1"/>
	<rect x="124.5" y="88" fill="#FFFFFF" width="432.8" height="0.6"/>
	<rect x="124.1" y="127" fill="#FFFFFF" width="433.6" height="1.4"/>
	<rect x="124.2" y="127.2" fill="#FFFFFF" width="433.3" height="1.1"/>
	<rect x="124.5" y="127.5" fill="#FFFFFF" width="432.8" height="0.6"/>
	<rect x="124.1" y="166.5" fill="#FFFFFF" width="433.6" height="1.4"/>
	<rect x="124.2" y="166.6" fill="#FFFFFF" width="433.3" height="1.1"/>
	<rect x="124.5" y="166.9" fill="#FFFFFF" width="432.8" height="0.6"/>
	<rect x="124.1" y="205.9" fill="#FFFFFF" width="433.6" height="1.4"/>
	<rect x="124.2" y="206" fill="#FFFFFF" width="433.3" height="1.1"/>
	<rect x="124.5" y="206.3" fill="#FFFFFF" width="432.8" height="0.6"/>
	<rect x="124.5" y="245.7" fill="#FFFFFF" width="432.8" height="0.6"/>
</g>
<g>
	<rect x="43.7" y="49.7" width="0.6" height="33"/>
	<polygon points="40.3,54 39.9,53.6 43.9,49.3 47.9,53.6 47.5,54 43.9,50.1 	"/>
</g>
<g>
	<rect x="43.7" y="212.8" width="0.6" height="28.3"/>
	<polygon points="43.9,241.6 39.9,237.3 40.3,236.9 43.9,240.8 47.5,236.9 47.9,237.3 	"/>
</g>
<g>
	<path d="M95.9,218.6c-0.1-1.1-0.8-1.5-1.9-1.5c-0.8,0-1.7,0.3-1.7,1.3c0,0.9,1.2,1.1,2.4,1.3c1.2,0.3,2.4,0.7,2.4,2.2
		c0,1.6-1.6,2.2-2.9,2.2c-1.7,0-3.1-0.8-3.1-2.6h0.9c0,1.3,1,1.8,2.2,1.8c0.9,0,1.9-0.3,1.9-1.4c0-1-1.2-1.2-2.4-1.5
		c-1.2-0.3-2.4-0.6-2.4-2c0-1.5,1.4-2.2,2.7-2.2c1.5,0,2.7,0.7,2.8,2.4H95.9z"/>
	<path d="M99.5,218.5h1.1v0.8h-1.1v3.4c0,0.4,0.1,0.5,0.7,0.5h0.4v0.8h-0.7c-0.9,0-1.3-0.2-1.3-1.2v-3.5h-0.9v-0.8h0.9v-1.6h0.9
		V218.5z"/>
	<path d="M102.5,217.5h-0.9v-1.1h0.9V217.5z M101.6,218.5h0.9v5.4h-0.9V218.5z"/>
	<path d="M103.9,216.4h0.9v7.5h-0.9V216.4z"/>
	<path d="M106.2,216.4h0.9v7.5h-0.9V216.4z"/>
	<path d="M113.1,222.2c-0.2,1.2-1.1,1.8-2.3,1.8c-1.7,0-2.5-1.2-2.6-2.9c0-1.6,1.1-2.8,2.5-2.8c1.9,0,2.5,1.8,2.5,3.1h-4.1
		c0,0.9,0.5,1.8,1.7,1.8c0.7,0,1.2-0.4,1.4-1.1H113.1z M112.3,220.7c0-0.8-0.7-1.5-1.6-1.5c-0.9,0-1.5,0.7-1.6,1.5H112.3z"/>
	<path d="M89.9,227.5c2.3,0,2.5,2.1,2.5,3.8c0,1.6-0.1,3.8-2.5,3.8s-2.5-2.1-2.5-3.8C87.5,229.7,87.6,227.5,89.9,227.5z M89.9,234.3
		c1.5,0,1.5-1.9,1.5-3c0-1.1,0-3-1.5-3s-1.5,1.9-1.5,3C88.4,232.4,88.4,234.3,89.9,234.3z"/>
	<path d="M96.4,229.6h0.8v0.8h0c0.4-0.6,1-0.9,1.8-0.9c0.7,0,1.3,0.3,1.5,0.9c0.4-0.6,1-0.9,1.7-0.9c1.1,0,1.8,0.5,1.8,1.6v4h-0.9
		v-3.6c0-0.7-0.2-1.2-1-1.2c-0.9,0-1.4,0.5-1.4,1.4v3.4h-0.9v-3.6c0-0.7-0.2-1.2-1-1.2c-1.1,0-1.4,1-1.4,1.4v3.4h-0.9V229.6z"/>
	<path d="M107.6,227.3h0.8l-3.1,7.8h-0.8L107.6,227.3z"/>
	<path d="M109.4,233.3c0,0.8,0.7,1,1.5,1c0.6,0,1.3-0.1,1.3-0.8c0-0.7-0.9-0.8-1.8-1c-0.9-0.2-1.8-0.5-1.8-1.5c0-1.1,1.1-1.5,2-1.5
		c1.2,0,2.2,0.4,2.2,1.7H112c-0.1-0.7-0.7-0.9-1.3-0.9c-0.5,0-1.2,0.1-1.2,0.7c0,0.6,0.9,0.7,1.8,0.9c0.9,0.2,1.8,0.5,1.8,1.5
		c0,1.3-1.2,1.7-2.3,1.7c-1.2,0-2.2-0.5-2.3-1.8H109.4z"/>
</g>
<g>
	<path d="M76,177.2h1v6.7h4v0.8h-5V177.2z"/>
	<path d="M86.3,183c-0.2,1.2-1.1,1.8-2.3,1.8c-1.7,0-2.5-1.2-2.6-2.9c0-1.6,1.1-2.8,2.5-2.8c1.9,0,2.5,1.8,2.5,3.1h-4.1
		c0,0.9,0.5,1.8,1.7,1.8c0.7,0,1.2-0.4,1.4-1.1H86.3z M85.5,181.5c0-0.8-0.7-1.5-1.6-1.5c-0.9,0-1.5,0.7-1.6,1.5H85.5z"/>
	<path d="M88.6,179.3h1.1v0.8h-1.1v3.4c0,0.4,0.1,0.5,0.7,0.5h0.4v0.8H89c-0.9,0-1.3-0.2-1.3-1.2v-3.5h-0.9v-0.8h0.9v-1.6h0.9V179.3
		z"/>
	<path d="M91.9,179.3h1.1v0.8h-1.1v3.4c0,0.4,0.1,0.5,0.7,0.5h0.4v0.8h-0.7c-0.9,0-1.3-0.2-1.3-1.2v-3.5h-0.9v-0.8H91v-1.6h0.9
		V179.3z"/>
	<path d="M96.9,177.2h0.9v2.8h0c0.3-0.6,1-0.9,1.7-0.9c1.7,0,2.5,1.3,2.5,2.9c0,1.5-0.8,2.8-2.5,2.8c-0.6,0-1.4-0.2-1.8-0.8h0v0.7
		h-0.9V177.2z M99.4,180c-1.2,0-1.7,1-1.7,2c0,1.1,0.5,2.1,1.7,2.1c1.2,0,1.6-1,1.6-2.1C101.1,181,100.6,180,99.4,180z"/>
	<path d="M103,179.3h0.8v1.1h0c0.4-0.9,1-1.3,2-1.3v0.9c-1.4,0-2,0.8-2,2.2v2.4H103V179.3z"/>
	<path d="M107.5,178.3h-0.9v-1.1h0.9V178.3z M106.6,179.3h0.9v5.4h-0.9V179.3z"/>
	<path d="M109.4,183c0,0.8,0.7,1,1.5,1c0.6,0,1.3-0.1,1.3-0.8c0-0.7-0.9-0.8-1.8-1c-0.9-0.2-1.8-0.5-1.8-1.5c0-1.1,1.1-1.5,2-1.5
		c1.2,0,2.2,0.4,2.2,1.7H112c-0.1-0.7-0.7-0.9-1.3-0.9c-0.5,0-1.2,0.1-1.2,0.7c0,0.6,0.9,0.7,1.8,0.9c0.9,0.2,1.8,0.5,1.8,1.5
		c0,1.3-1.2,1.7-2.3,1.7c-1.2,0-2.2-0.5-2.3-1.8H109.4z"/>
	<path d="M78.2,191.5c0.1,0,0.3,0,0.4,0c0.8,0,1.4-0.4,1.4-1.2c0-0.8-0.6-1.2-1.3-1.2c-1,0-1.4,0.7-1.4,1.6h-0.9
		c0.1-1.4,0.8-2.4,2.3-2.4c1.3,0,2.3,0.6,2.3,2c0,0.7-0.5,1.2-1,1.5v0c0.9,0.2,1.3,0.9,1.3,1.8c0,1.5-1.2,2.3-2.6,2.3
		c-1.5,0-2.5-0.9-2.5-2.4h0.9c0,1,0.6,1.6,1.6,1.6c0.9,0,1.6-0.5,1.6-1.4c0-0.9-0.7-1.4-1.6-1.4c-0.2,0-0.4,0-0.5,0V191.5z"/>
	<path d="M81.8,192.4H87v0.8h-5.2V192.4z"/>
	<path d="M92,189.2h-3l-0.4,2.1l0,0c0.3-0.4,0.9-0.5,1.4-0.5c1.3,0,2.4,0.8,2.4,2.5c0,1.3-0.9,2.5-2.6,2.5c-1.3,0-2.3-0.8-2.4-2.1
		h0.9c0.1,0.8,0.7,1.3,1.6,1.3c0.8,0,1.6-0.6,1.6-1.8c0-1-0.7-1.7-1.7-1.7c-0.6,0-1,0.3-1.4,0.7l-0.8,0l0.7-3.9H92V189.2z"/>
	<path d="M96.4,190.3h0.8v0.8h0c0.4-0.6,1-0.9,1.8-0.9c0.7,0,1.3,0.3,1.5,0.9c0.4-0.6,1-0.9,1.7-0.9c1.1,0,1.8,0.5,1.8,1.6v4h-0.9
		v-3.6c0-0.7-0.2-1.2-1-1.2c-0.9,0-1.4,0.5-1.4,1.4v3.4h-0.9v-3.6c0-0.7-0.2-1.2-1-1.2c-1.1,0-1.4,1-1.4,1.4v3.4h-0.9V190.3z"/>
	<path d="M107.6,188.1h0.8l-3.1,7.8h-0.8L107.6,188.1z"/>
	<path d="M109.4,194.1c0,0.8,0.7,1,1.5,1c0.6,0,1.3-0.1,1.3-0.8c0-0.7-0.9-0.8-1.8-1c-0.9-0.2-1.8-0.5-1.8-1.5c0-1.1,1.1-1.5,2-1.5
		c1.2,0,2.2,0.4,2.2,1.7H112c-0.1-0.7-0.7-0.9-1.3-0.9c-0.5,0-1.2,0.1-1.2,0.7c0,0.6,0.9,0.7,1.8,0.9c0.9,0.2,1.8,0.5,1.8,1.5
		c0,1.3-1.2,1.7-2.3,1.7c-1.2,0-2.2-0.5-2.3-1.8H109.4z"/>
</g>
<g>
	<path d="M71.5,138h4.9v0.8h-3.9v2.4H76v0.8h-3.4v3.4h-1V138z"/>
	<path d="M77.4,140.1h0.8v1.1h0c0.4-0.9,1-1.3,2-1.3v0.9c-1.4,0-2,0.8-2,2.2v2.4h-0.9V140.1z"/>
	<path d="M81.9,139.1H81V138h0.9V139.1z M81,140.1h0.9v5.4H81V140.1z"/>
	<path d="M83.8,143.8c0,0.8,0.7,1,1.5,1c0.6,0,1.3-0.1,1.3-0.8c0-0.7-0.9-0.8-1.8-1c-0.9-0.2-1.8-0.5-1.8-1.5c0-1.1,1.1-1.5,2-1.5
		c1.2,0,2.2,0.4,2.2,1.7h-0.9c-0.1-0.7-0.7-0.9-1.3-0.9c-0.5,0-1.2,0.1-1.2,0.7c0,0.6,0.9,0.7,1.8,0.9c0.9,0.2,1.8,0.5,1.8,1.5
		c0,1.3-1.2,1.7-2.3,1.7c-1.2,0-2.2-0.5-2.3-1.8H83.8z"/>
	<path d="M88.5,138h0.9v4.4l2.5-2.4h1.2l-2.2,2l2.3,3.5h-1.1l-1.9-2.8l-0.8,0.8v2.1h-0.9V138z"/>
	<path d="M96.9,138h0.9v2.8h0c0.3-0.6,1-0.9,1.7-0.9c1.7,0,2.5,1.3,2.5,2.9c0,1.5-0.8,2.8-2.5,2.8c-0.6,0-1.4-0.2-1.8-0.8h0v0.7
		h-0.9V138z M99.4,140.8c-1.2,0-1.7,1-1.7,2c0,1.1,0.5,2.1,1.7,2.1c1.2,0,1.6-1,1.6-2.1C101.1,141.7,100.6,140.8,99.4,140.8z"/>
	<path d="M103,140.1h0.8v1.1h0c0.4-0.9,1-1.3,2-1.3v0.9c-1.4,0-2,0.8-2,2.2v2.4H103V140.1z"/>
	<path d="M107.5,139.1h-0.9V138h0.9V139.1z M106.6,140.1h0.9v5.4h-0.9V140.1z"/>
	<path d="M109.4,143.8c0,0.8,0.7,1,1.5,1c0.6,0,1.3-0.1,1.3-0.8c0-0.7-0.9-0.8-1.8-1c-0.9-0.2-1.8-0.5-1.8-1.5c0-1.1,1.1-1.5,2-1.5
		c1.2,0,2.2,0.4,2.2,1.7H112c-0.1-0.7-0.7-0.9-1.3-0.9c-0.5,0-1.2,0.1-1.2,0.7c0,0.6,0.9,0.7,1.8,0.9c0.9,0.2,1.8,0.5,1.8,1.5
		c0,1.3-1.2,1.7-2.3,1.7c-1.2,0-2.2-0.5-2.3-1.8H109.4z"/>
	<path d="M73,149.1c1.6,0,2.3,1,2.3,1.9c0,0.7-0.4,1.3-1,1.5c0.9,0.3,1.3,0.9,1.3,1.9c0,1.4-1.1,2.3-2.5,2.3c-1.4,0-2.5-0.7-2.5-2.3
		c0-0.9,0.5-1.6,1.3-1.9c-0.6-0.3-1-0.9-1-1.5C70.8,149.8,71.8,149.1,73,149.1z M73.1,155.9c0.9,0,1.5-0.6,1.5-1.4
		c0-0.8-0.7-1.4-1.5-1.4c-0.9,0-1.6,0.6-1.6,1.4C71.5,155.4,72.1,155.9,73.1,155.9z M73.1,152.3c0.7,0,1.2-0.4,1.2-1.2
		c0-0.7-0.5-1.1-1.2-1.1c-0.7,0-1.3,0.4-1.3,1.1C71.7,151.9,72.3,152.3,73.1,152.3z"/>
	<path d="M76,153.2h5.2v0.8H76V153.2z"/>
	<path d="M84.9,156.6H84v-5.3h-1.9v-0.7c1,0,1.9-0.3,2.1-1.4h0.7V156.6z"/>
	<path d="M90.8,156.6h-0.9v-5.3h-1.9v-0.7c1,0,1.9-0.3,2.1-1.4h0.7V156.6z"/>
	<path d="M96.4,151.1h0.8v0.8h0c0.4-0.6,1-0.9,1.8-0.9c0.7,0,1.3,0.3,1.5,0.9c0.4-0.6,1-0.9,1.7-0.9c1.1,0,1.8,0.5,1.8,1.6v4h-0.9
		V153c0-0.7-0.2-1.2-1-1.2c-0.9,0-1.4,0.5-1.4,1.4v3.4h-0.9V153c0-0.7-0.2-1.2-1-1.2c-1.1,0-1.4,1-1.4,1.4v3.4h-0.9V151.1z"/>
	<path d="M107.6,148.9h0.8l-3.1,7.8h-0.8L107.6,148.9z"/>
	<path d="M109.4,154.9c0,0.8,0.7,1,1.5,1c0.6,0,1.3-0.1,1.3-0.8c0-0.7-0.9-0.8-1.8-1c-0.9-0.2-1.8-0.5-1.8-1.5c0-1.1,1.1-1.5,2-1.5
		c1.2,0,2.2,0.4,2.2,1.7H112c-0.1-0.7-0.7-0.9-1.3-0.9c-0.5,0-1.2,0.1-1.2,0.7c0,0.6,0.9,0.7,1.8,0.9c0.9,0.2,1.8,0.5,1.8,1.5
		c0,1.3-1.2,1.7-2.3,1.7c-1.2,0-2.2-0.5-2.3-1.8H109.4z"/>
</g>
<g>
	<path d="M70.2,101c-0.1-1.1-0.8-1.5-1.9-1.5c-0.8,0-1.7,0.3-1.7,1.3c0,0.9,1.2,1.1,2.4,1.3c1.2,0.3,2.4,0.7,2.4,2.2
		c0,1.6-1.6,2.2-2.9,2.2c-1.7,0-3.1-0.8-3.1-2.6h0.9c0,1.3,1,1.8,2.2,1.8c0.9,0,1.9-0.3,1.9-1.4c0-1-1.2-1.2-2.4-1.5
		c-1.2-0.3-2.4-0.6-2.4-2c0-1.5,1.4-2.2,2.7-2.2c1.5,0,2.7,0.7,2.8,2.4H70.2z"/>
	<path d="M73.8,100.9h1.1v0.8h-1.1v3.4c0,0.4,0.1,0.5,0.7,0.5h0.4v0.8h-0.7c-0.9,0-1.3-0.2-1.3-1.2v-3.5H72v-0.8h0.9v-1.6h0.9V100.9
		z"/>
	<path d="M76.8,99.9h-0.9v-1.1h0.9V99.9z M75.9,100.9h0.9v5.4h-0.9V100.9z"/>
	<path d="M80.6,106.3h-1l-2-5.4h1l1.5,4.5h0l1.5-4.5h0.9L80.6,106.3z"/>
	<path d="M86.4,98.8h0.9v4.4l2.5-2.4H91l-2.2,2l2.3,3.5H90l-1.9-2.8l-0.8,0.8v2.1h-0.9V98.8z"/>
	<path d="M96.3,106.3h-0.8v-0.9h0c-0.4,0.7-1,1-1.8,1c-1.4,0-1.9-0.8-1.9-2v-3.6h0.9v3.7c0,0.7,0.4,1.1,1.1,1.1
		c1.1,0,1.6-0.7,1.6-1.7v-3.1h0.9V106.3z"/>
	<path d="M97.7,98.8h0.9v7.5h-0.9V98.8z"/>
	<path d="M100.9,99.9H100v-1.1h0.9V99.9z M100,100.9h0.9v5.4H100V100.9z"/>
	<path d="M102.3,100.9h0.8v0.9h0c0.4-0.7,1-1,1.8-1c1.4,0,1.9,0.8,1.9,2v3.6h-0.9v-3.7c0-0.7-0.4-1.1-1.1-1.1
		c-1.1,0-1.6,0.7-1.6,1.7v3.1h-0.9V100.9z"/>
	<path d="M112.8,105.9c0,1.8-0.8,2.7-2.5,2.7c-1,0-2.2-0.4-2.2-1.6h0.9c0,0.7,0.8,0.9,1.4,0.9c1.2,0,1.6-0.8,1.6-2.1v-0.4h0
		c-0.3,0.7-1,1-1.7,1c-1.6,0-2.4-1.3-2.4-2.7c0-1.3,0.6-2.9,2.5-2.9c0.7,0,1.3,0.3,1.6,0.9h0v-0.8h0.8V105.9z M111.9,103.5
		c0-1-0.4-1.9-1.5-1.9c-1.1,0-1.6,0.9-1.6,2c0,1,0.4,2.1,1.5,2.1C111.5,105.6,111.9,104.5,111.9,103.5z"/>
	<path d="M68,117.4h-0.9V112h-1.9v-0.7c1,0,1.9-0.3,2.1-1.4H68V117.4z"/>
	<path d="M74.5,114.8h1v0.8h-1v1.7h-0.8v-1.7h-3.3v-0.9l3.4-4.8h0.7V114.8z M73.7,114.8v-3.6h0l-2.5,3.6H73.7z"/>
	<path d="M76,114h5.2v0.8H76V114z"/>
	<path d="M84.9,117.4H84V112h-1.9v-0.7c1,0,1.9-0.3,2.1-1.4h0.7V117.4z"/>
	<path d="M92.4,110.8c-1.5,1.5-2.7,4.2-2.9,6.5h-1c0.2-2.5,1.4-4.8,2.9-6.5h-3.9v-0.8h4.8V110.8z"/>
	<path d="M96.5,111.9h0.8v0.8h0c0.4-0.6,1-0.9,1.8-0.9c0.7,0,1.3,0.3,1.5,0.9c0.4-0.6,1-0.9,1.7-0.9c1.1,0,1.8,0.5,1.8,1.6v4h-0.9
		v-3.6c0-0.7-0.2-1.2-1-1.2c-0.9,0-1.4,0.5-1.4,1.4v3.4h-0.9v-3.6c0-0.7-0.2-1.2-1-1.2c-1.1,0-1.4,1-1.4,1.4v3.4h-0.9V111.9z"/>
	<path d="M107.6,109.7h0.8l-3.1,7.8h-0.8L107.6,109.7z"/>
	<path d="M109.4,115.7c0,0.8,0.7,1,1.5,1c0.6,0,1.3-0.1,1.3-0.8c0-0.7-0.9-0.8-1.8-1c-0.9-0.2-1.8-0.5-1.8-1.5c0-1.1,1.1-1.5,2-1.5
		c1.2,0,2.2,0.4,2.2,1.7H112c-0.1-0.7-0.7-0.9-1.3-0.9c-0.5,0-1.2,0.1-1.2,0.7c0,0.6,0.9,0.7,1.8,0.9c0.9,0.2,1.8,0.5,1.8,1.5
		c0,1.3-1.2,1.7-2.3,1.7c-1.2,0-2.2-0.5-2.3-1.8H109.4z"/>
</g>
<g>
	<path d="M61.4,59.6h1v6.7h4v0.8h-5V59.6z"/>
	<path d="M68.1,60.7h-0.9v-1.1h0.9V60.7z M67.2,61.7h0.9v5.4h-0.9V61.7z"/>
	<path d="M70.7,61.7h1.1v0.8h-1.1v3.4c0,0.4,0.1,0.5,0.7,0.5h0.4v0.8h-0.7c-0.9,0-1.3-0.2-1.3-1.2v-3.5h-0.9v-0.8h0.9v-1.6h0.9V61.7
		z"/>
	<path d="M77.4,65.4c-0.2,1.2-1.1,1.8-2.3,1.8c-1.7,0-2.5-1.2-2.6-2.9c0-1.6,1.1-2.8,2.5-2.8c1.9,0,2.5,1.8,2.5,3.1h-4.1
		c0,0.9,0.5,1.8,1.7,1.8c0.7,0,1.2-0.4,1.4-1.1H77.4z M76.5,63.9c0-0.8-0.7-1.5-1.6-1.5c-0.9,0-1.5,0.7-1.6,1.5H76.5z"/>
	<path d="M78.4,61.7h0.8v0.9h0c0.4-0.7,1-1,1.8-1c1.4,0,1.9,0.8,1.9,2v3.6H82v-3.7c0-0.7-0.4-1.1-1.1-1.1c-1.1,0-1.6,0.7-1.6,1.7
		v3.1h-0.9V61.7z"/>
	<path d="M87.7,65.4c0,0.8,0.7,1,1.5,1c0.6,0,1.3-0.1,1.3-0.8c0-0.7-0.9-0.8-1.8-1c-0.9-0.2-1.8-0.5-1.8-1.5c0-1.1,1.1-1.5,2-1.5
		c1.2,0,2.2,0.4,2.2,1.7h-0.9c-0.1-0.7-0.7-0.9-1.3-0.9c-0.5,0-1.2,0.1-1.2,0.7c0,0.6,0.9,0.7,1.8,0.9c0.9,0.2,1.8,0.5,1.8,1.5
		c0,1.3-1.2,1.7-2.3,1.7c-1.2,0-2.2-0.5-2.3-1.8H87.7z"/>
	<path d="M93.6,61.7h1.1v0.8h-1.1v3.4c0,0.4,0.1,0.5,0.7,0.5h0.4v0.8H94c-0.9,0-1.3-0.2-1.3-1.2v-3.5h-0.9v-0.8h0.9v-1.6h0.9V61.7z"
		/>
	<path d="M98,61.6c1.7,0,2.6,1.2,2.6,2.8c0,1.6-0.9,2.8-2.6,2.8s-2.6-1.2-2.6-2.8C95.4,62.8,96.3,61.6,98,61.6z M98,66.5
		c0.9,0,1.7-0.7,1.7-2c0-1.3-0.8-2.1-1.7-2.1c-0.9,0-1.7,0.7-1.7,2.1C96.3,65.7,97.1,66.5,98,66.5z"/>
	<path d="M101.7,61.7h0.8v1.1h0c0.4-0.9,1-1.3,2-1.3v0.9c-1.4,0-2,0.8-2,2.2v2.4h-0.9V61.7z"/>
	<path d="M105.2,61.7h0.8v0.8h0c0.4-0.6,1-0.9,1.8-0.9c0.7,0,1.3,0.3,1.5,0.9c0.4-0.6,1-0.9,1.7-0.9c1.1,0,1.8,0.5,1.8,1.6v4h-0.9
		v-3.6c0-0.7-0.2-1.2-1-1.2c-0.9,0-1.4,0.5-1.4,1.4v3.4h-0.9v-3.6c0-0.7-0.2-1.2-1-1.2c-1.1,0-1.4,1-1.4,1.4v3.4h-0.9V61.7z"/>
	<path d="M64.7,73.4c-0.1-1.5,0.8-2.6,2.4-2.6c1.3,0,2.3,0.8,2.3,2.1c0,1.3-0.9,2-1.8,2.5c-0.9,0.6-1.9,1-2.1,2h3.8v0.8h-4.9
		c0.1-1.8,1-2.4,2.1-3c1.3-0.8,1.9-1.2,1.9-2.3c0-0.8-0.7-1.3-1.4-1.3c-1,0-1.5,1-1.4,1.8H64.7z"/>
	<path d="M73.9,78.2H73v-5.3H71v-0.7c1,0,1.9-0.3,2.1-1.4h0.7V78.2z"/>
	<path d="M76,74.8h5.2v0.8H76V74.8z"/>
	<path d="M81.7,73.4c-0.1-1.5,0.8-2.6,2.4-2.6c1.3,0,2.3,0.8,2.3,2.1c0,1.3-0.9,2-1.8,2.5c-0.9,0.6-1.9,1-2.1,2h3.8v0.8h-4.9
		c0.1-1.8,1-2.4,2.1-3c1.3-0.8,1.9-1.2,1.9-2.3c0-0.8-0.7-1.3-1.4-1.3c-1,0-1.5,1-1.4,1.8H81.7z"/>
	<path d="M91.4,75.6h1v0.8h-1v1.7h-0.8v-1.7h-3.3v-0.9l3.4-4.8h0.7V75.6z M90.6,75.6V72h0l-2.5,3.6H90.6z"/>
	<path d="M96.5,72.7h0.8v0.8h0c0.4-0.6,1-0.9,1.8-0.9c0.7,0,1.3,0.3,1.5,0.9c0.4-0.6,1-0.9,1.7-0.9c1.1,0,1.8,0.5,1.8,1.6v4h-0.9
		v-3.6c0-0.7-0.2-1.2-1-1.2c-0.9,0-1.4,0.5-1.4,1.4v3.4h-0.9v-3.6c0-0.7-0.2-1.2-1-1.2c-1.1,0-1.4,1-1.4,1.4v3.4h-0.9V72.7z"/>
	<path d="M107.6,70.5h0.8l-3.1,7.8h-0.8L107.6,70.5z"/>
	<path d="M109.4,76.5c0,0.8,0.7,1,1.5,1c0.6,0,1.3-0.1,1.3-0.8c0-0.7-0.9-0.8-1.8-1c-0.9-0.2-1.8-0.5-1.8-1.5c0-1.1,1.1-1.5,2-1.5
		c1.2,0,2.2,0.4,2.2,1.7H112c-0.1-0.7-0.7-0.9-1.3-0.9c-0.5,0-1.2,0.1-1.2,0.7c0,0.6,0.9,0.7,1.8,0.9c0.9,0.2,1.8,0.5,1.8,1.5
		c0,1.3-1.2,1.7-2.3,1.7c-1.2,0-2.2-0.5-2.3-1.8H109.4z"/>
</g>
<g>
	<path fill="#FFFFFF" d="M144.3,220.6c2.4-0.1,3.8-0.1,4.2-2.9h1.1v15.1h-1.4v-11.2h-4V220.6z"/>
	<path fill="#FFFFFF" d="M165.4,225.3c0,3.5-0.9,7.8-5.3,7.8c-4.4,0-5.3-4.2-5.3-7.8c0-3.5,0.9-7.8,5.3-7.8
		C164.6,217.5,165.4,221.8,165.4,225.3z M156.3,225.3c0,2.6,0.5,6.6,3.9,6.6s3.9-4,3.9-6.6c0-2.6-0.5-6.6-3.9-6.6
		S156.3,222.7,156.3,225.3z"/>
</g>
<g>
	<path fill="#FFFFFF" d="M214.8,228.4c0.1,2.1,1.6,3.5,3.7,3.5c2.3,0,3.8-1.9,3.8-4.1c0-2.2-1.6-3.9-3.9-3.9c-1.3,0-2.6,0.6-3.4,1.8
		h-1.2l1.5-7.8h7.5v1.2h-6.6l-1,5l0,0c0.8-0.9,2-1.4,3.2-1.4c3.1,0,5.1,2.2,5.1,5.2c0,3-2.3,5.1-5.2,5.1c-2.8,0-4.9-1.8-5-4.6H214.8
		z"/>
</g>
<g>
	<path fill="#FFFFFF" d="M285.7,225.3c0,3.5-0.9,7.8-5.3,7.8c-4.4,0-5.3-4.2-5.3-7.8c0-3.5,0.9-7.8,5.3-7.8
		C284.8,217.5,285.7,221.8,285.7,225.3z M276.6,225.3c0,2.6,0.5,6.6,3.9,6.6s3.9-4,3.9-6.6c0-2.6-0.5-6.6-3.9-6.6
		S276.6,222.7,276.6,225.3z"/>
</g>
<g>
	<path fill="#FFFFFF" d="M334.3,227.4v-1.2h5.4v1.2H334.3z"/>
	<path fill="#FFFFFF" d="M343.1,228.4c0.1,2.1,1.6,3.5,3.7,3.5c2.3,0,3.8-1.9,3.8-4.1c0-2.2-1.6-3.9-3.9-3.9c-1.3,0-2.6,0.6-3.4,1.8
		h-1.2l1.5-7.8h7.5v1.2h-6.6l-1,5l0,0c0.8-0.9,2-1.4,3.2-1.4c3.1,0,5.1,2.2,5.1,5.2c0,3-2.3,5.1-5.2,5.1c-2.8,0-4.9-1.8-5-4.6H343.1
		z"/>
</g>
<g>
	<path fill="#FFFFFF" d="M389.5,227.4v-1.2h5.4v1.2H389.5z"/>
	<path fill="#FFFFFF" d="M398.3,220.6c2.4-0.1,3.8-0.1,4.2-2.9h1.1v15.1h-1.4v-11.2h-4V220.6z"/>
	<path fill="#FFFFFF" d="M419.4,225.3c0,3.5-0.9,7.8-5.3,7.8c-4.4,0-5.3-4.2-5.3-7.8c0-3.5,0.9-7.8,5.3-7.8
		C418.5,217.5,419.4,221.8,419.4,225.3z M410.2,225.3c0,2.6,0.5,6.6,3.9,6.6s3.9-4,3.9-6.6c0-2.6-0.5-6.6-3.9-6.6
		S410.2,222.7,410.2,225.3z"/>
</g>
<g>
	<path fill="#FFFFFF" d="M152,189l7-10h1.2v10.2h2.3v1.1h-2.3v3.7h-1.2v-3.7h-7V189z M158.9,189.2V181h0l-5.7,8.2H158.9z"/>
</g>
<g>
	<path fill="#FFFFFF" d="M208.4,188.8v-1.2h5.4v1.2H208.4z"/>
	<path fill="#FFFFFF" d="M225.8,194.1h-9.9c0.1-4.5,4.7-5.6,7.3-8.1c0.8-0.8,1.2-1.6,1.2-2.8c0-2-1.6-3.1-3.4-3.1
		c-2.5,0-3.4,2-3.4,4.2h-1.4c-0.1-3.1,1.6-5.3,4.8-5.3c2.6,0,4.7,1.4,4.7,4.2c0,2.5-1.8,4.1-3.8,5.4c-1.5,1-4.2,2.3-4.5,4.4h8.4
		V194.1z"/>
</g>
<g>
	<path fill="#FFFFFF" d="M267.5,188.8v-1.2h5.4v1.2H267.5z"/>
	<path fill="#FFFFFF" d="M282.2,186L282.2,186c1.9,0.4,3.1,1.9,3.1,3.9c0,3-2.4,4.5-5.2,4.5c-2.8,0-5.2-1.5-5.2-4.5
		c0-2,1.2-3.5,3.1-3.9v0c-1.6-0.5-2.5-1.7-2.5-3.3c0-2.6,2.3-3.8,4.6-3.8c2.2,0,4.6,1.2,4.6,3.8C284.7,184.3,283.8,185.5,282.2,186z
		 M284,189.9c0-2.2-1.8-3.3-3.8-3.3c-2.1,0-3.8,1.1-3.8,3.3c0,2.3,1.7,3.4,3.8,3.4C282.2,193.3,284,192.2,284,189.9z M283.3,182.7
		c0-1.7-1.4-2.6-3.2-2.6c-1.7,0-3.2,0.9-3.2,2.6c0,2,1.6,2.8,3.2,2.8C281.8,185.5,283.3,184.6,283.3,182.7z"/>
</g>
<g>
	<path fill="#FFFFFF" d="M323.2,188.8v-1.2h5.4v1.2H323.2z"/>
	<path fill="#FFFFFF" d="M332,181.9c2.4-0.1,3.8-0.1,4.2-2.9h1.1v15.1H336v-11.2h-4V181.9z"/>
	<path fill="#FFFFFF" d="M342.5,189l7-10h1.2v10.2h2.3v1.1h-2.3v3.7h-1.2v-3.7h-7V189z M349.5,189.2V181h0l-5.7,8.2H349.5z"/>
</g>
<g>
	<path fill="#FFFFFF" d="M389.5,188.8v-1.2h5.4v1.2H389.5z"/>
	<path fill="#FFFFFF" d="M406.9,194.1H397c0.1-4.5,4.7-5.6,7.3-8.1c0.8-0.8,1.2-1.6,1.2-2.8c0-2-1.6-3.1-3.4-3.1
		c-2.5,0-3.4,2-3.4,4.2h-1.4c-0.1-3.1,1.6-5.3,4.8-5.3c2.6,0,4.7,1.4,4.7,4.2c0,2.5-1.8,4.1-3.8,5.4c-1.5,1-4.2,2.3-4.5,4.4h8.4
		V194.1z"/>
	<path fill="#FFFFFF" d="M419.4,186.6c0,3.5-0.9,7.8-5.3,7.8c-4.4,0-5.3-4.2-5.3-7.8c0-3.5,0.9-7.8,5.3-7.8
		C418.5,178.9,419.4,183.1,419.4,186.6z M410.2,186.6c0,2.6,0.5,6.6,3.9,6.6s3.9-4,3.9-6.6c0-2.6-0.5-6.6-3.9-6.6
		S410.2,184,410.2,186.6z"/>
</g>
<g>
	<path fill="#FFFFFF" d="M162.6,148c0,3.5-0.9,7.8-5.3,7.8c-4.4,0-5.3-4.2-5.3-7.8c0-3.5,0.9-7.8,5.3-7.8
		C161.7,140.2,162.6,144.5,162.6,148z M153.4,148c0,2.6,0.5,6.6,3.9,6.6s3.9-4,3.9-6.6c0-2.6-0.5-6.6-3.9-6.6S153.4,145.4,153.4,148
		z"/>
</g>
<g>
	<path fill="#FFFFFF" d="M208.4,150.1v-1.2h5.4v1.2H208.4z"/>
	<path fill="#FFFFFF" d="M216.2,140.6h9.7v1.2c-1.9,2-5.7,6.6-6.1,13.6h-1.5c0.4-5.1,2-8.9,6.2-13.6h-8.3V140.6z"/>
</g>
<g>
	<path fill="#FFFFFF" d="M267.5,150.1v-1.2h5.4v1.2H267.5z"/>
	<path fill="#FFFFFF" d="M276.2,143.3c2.4-0.1,3.8-0.1,4.2-2.9h1.1v15.1h-1.4v-11.2h-4V143.3z"/>
	<path fill="#FFFFFF" d="M286.8,150.4l7-10h1.2v10.2h2.3v1.1H295v3.7h-1.2v-3.7h-7V150.4z M293.7,150.6v-8.2h0l-5.7,8.2H293.7z"/>
</g>
<g>
	<path fill="#FFFFFF" d="M323.2,150.1v-1.2h5.4v1.2H323.2z"/>
	<path fill="#FFFFFF" d="M340.6,155.4h-9.9c0.1-4.5,4.7-5.6,7.3-8.1c0.8-0.8,1.2-1.6,1.2-2.8c0-2-1.6-3.1-3.4-3.1
		c-2.5,0-3.4,2-3.4,4.2h-1.4c-0.1-3.1,1.6-5.3,4.8-5.3c2.6,0,4.7,1.4,4.7,4.2c0,2.5-1.8,4.1-3.8,5.4c-1.5,1-4.2,2.3-4.5,4.4h8.4
		V155.4z"/>
	<path fill="#FFFFFF" d="M344,143.3c2.4-0.1,3.8-0.1,4.2-2.9h1.1v15.1H348v-11.2h-4V143.3z"/>
</g>
<g>
	<path fill="#FFFFFF" d="M389.5,150.1v-1.2h5.4v1.2H389.5z"/>
	<path fill="#FFFFFF" d="M406.9,155.4H397c0.1-4.5,4.7-5.6,7.3-8.1c0.8-0.8,1.2-1.6,1.2-2.8c0-2-1.6-3.1-3.4-3.1
		c-2.5,0-3.4,2-3.4,4.2h-1.4c-0.1-3.1,1.6-5.3,4.8-5.3c2.6,0,4.7,1.4,4.7,4.2c0,2.5-1.8,4.1-3.8,5.4c-1.5,1-4.2,2.3-4.5,4.4h8.4
		V155.4z"/>
	<path fill="#FFFFFF" d="M410.6,151.8c0.2,1.7,1.4,2.8,3.1,2.8c3.5,0,4.2-4,4.2-6.7h0c-0.7,1.5-2.3,2.5-4,2.5c-3,0-5-2.1-5-5
		c0-2.9,2.1-5.1,5.1-5.1c3.7,0,5.3,2.1,5.3,8c0,1.8-0.5,7.5-5.4,7.5c-2.6,0-4.3-1.3-4.6-3.9H410.6z M417.6,145.3
		c0-2.1-1.1-3.9-3.8-3.9c-2.2,0-3.6,1.8-3.6,3.9c0,2.2,1.3,4,3.6,4C416.2,149.2,417.6,147.5,417.6,145.3z"/>
</g>
<g>
	<path fill="#FFFFFF" d="M145.4,110.7v-1.2h5.4v1.2H145.4z"/>
	<path fill="#FFFFFF" d="M154.2,111.2c-0.1,2.4,1.3,4,3.8,4c2,0,3.9-1.2,3.9-3.3c0-2.1-1.6-3.2-3.6-3.2h-1.1v-1.1h1.1
		c1.4,0,3.1-0.8,3.1-2.7c0-2-1.5-2.8-3.3-2.8c-2.3,0-3.5,1.6-3.4,3.8h-1.4c0-2.8,1.8-5,4.8-5c2.4,0,4.7,1.2,4.7,3.8
		c0,1.6-0.9,3-2.5,3.3v0c2,0.3,3.1,1.7,3.1,3.7c0,3-2.4,4.6-5.2,4.6c-3.1,0-5.4-1.9-5.1-5.1H154.2z"/>
</g>
<g>
	<path fill="#FFFFFF" d="M202.9,110.7v-1.2h5.4v1.2H202.9z"/>
	<path fill="#FFFFFF" d="M211.6,103.8c2.4-0.1,3.8-0.1,4.2-2.9h1.1V116h-1.4v-11.2h-4V103.8z"/>
	<path fill="#FFFFFF" d="M223.6,103.8c2.4-0.1,3.8-0.1,4.2-2.9h1.1V116h-1.4v-11.2h-4V103.8z"/>
</g>
<g>
	<path fill="#FFFFFF" d="M267.5,110.7v-1.2h5.4v1.2H267.5z"/>
	<path fill="#FFFFFF" d="M276.2,103.8c2.4-0.1,3.8-0.1,4.2-2.9h1.1V116h-1.4v-11.2h-4V103.8z"/>
	<path fill="#FFFFFF" d="M294.2,107.8L294.2,107.8c1.9,0.4,3.1,1.9,3.1,3.9c0,3-2.4,4.5-5.2,4.5c-2.8,0-5.2-1.5-5.2-4.5
		c0-2,1.2-3.5,3.1-3.9v0c-1.6-0.5-2.5-1.7-2.5-3.3c0-2.6,2.3-3.8,4.6-3.8c2.2,0,4.6,1.2,4.6,3.8
		C296.7,106.2,295.8,107.4,294.2,107.8z M295.9,111.7c0-2.2-1.8-3.3-3.8-3.3c-2.1,0-3.8,1.1-3.8,3.3c0,2.3,1.7,3.4,3.8,3.4
		C294.2,115.1,295.9,114,295.9,111.7z M295.3,104.5c0-1.7-1.4-2.6-3.2-2.6c-1.7,0-3.2,0.9-3.2,2.6c0,2,1.6,2.8,3.2,2.8
		C293.8,107.4,295.3,106.5,295.3,104.5z"/>
</g>
<g>
	<path fill="#FFFFFF" d="M323.2,110.7v-1.2h5.4v1.2H323.2z"/>
	<path fill="#FFFFFF" d="M340.6,116h-9.9c0.1-4.5,4.7-5.6,7.3-8.1c0.8-0.8,1.2-1.6,1.2-2.8c0-2-1.6-3.1-3.4-3.1
		c-2.5,0-3.4,2-3.4,4.2h-1.4c-0.1-3.1,1.6-5.3,4.8-5.3c2.6,0,4.7,1.4,4.7,4.2c0,2.5-1.8,4.1-3.8,5.4c-1.5,1-4.2,2.3-4.5,4.4h8.4V116
		z"/>
	<path fill="#FFFFFF" d="M351.4,104.7c-0.2-1.7-1.4-2.8-3.1-2.8c-3.5,0-4.2,4-4.2,6.7h0c0.7-1.5,2.3-2.5,4-2.5c3,0,5,2.1,5,5
		c0,2.9-2.1,5.1-5.1,5.1c-3.7,0-5.3-2.1-5.3-8c0-1.8,0.5-7.5,5.4-7.5c2.6,0,4.3,1.3,4.6,3.9H351.4z M344.4,111.3
		c0,2.1,1.1,3.9,3.8,3.9c2.2,0,3.6-1.8,3.6-3.9c0-2.2-1.3-4-3.6-4C345.8,107.3,344.4,109,344.4,111.3z"/>
</g>
<g>
	<path fill="#FFFFFF" d="M389.5,110.7v-1.2h5.4v1.2H389.5z"/>
	<path fill="#FFFFFF" d="M398.2,111.2c-0.1,2.4,1.3,4,3.8,4c2,0,3.9-1.2,3.9-3.3c0-2.1-1.6-3.2-3.6-3.2h-1.1v-1.1h1.1
		c1.4,0,3.1-0.8,3.1-2.7c0-2-1.5-2.8-3.3-2.8c-2.3,0-3.5,1.6-3.4,3.8h-1.4c0-2.8,1.8-5,4.8-5c2.4,0,4.7,1.2,4.7,3.8
		c0,1.6-0.9,3-2.5,3.3v0c2,0.3,3.1,1.7,3.1,3.7c0,3-2.4,4.6-5.2,4.6c-3.1,0-5.4-1.9-5.1-5.1H398.2z"/>
	<path fill="#FFFFFF" d="M408.8,110.9l7-10h1.2v10.2h2.3v1.1H417v3.7h-1.2v-3.7h-7V110.9z M415.8,111.1v-8.2h0l-5.7,8.2H415.8z"/>
</g>
<g>
	<path fill="#FFFFFF" d="M145.4,70.9v-1.2h5.4v1.2H145.4z"/>
	<path fill="#FFFFFF" d="M152.8,71.1l7-10h1.2v10.2h2.3v1.1H161v3.7h-1.2v-3.7h-7V71.1z M159.7,71.3v-8.2h0l-5.7,8.2H159.7z"/>
</g>
<g>
	<path fill="#FFFFFF" d="M202.9,70.9v-1.2h5.4v1.2H202.9z"/>
	<path fill="#FFFFFF" d="M211.6,64c2.4-0.1,3.8-0.1,4.2-2.9h1.1v15.1h-1.4V65h-4V64z"/>
	<path fill="#FFFFFF" d="M232.2,76.2h-9.9c0.1-4.5,4.7-5.6,7.3-8.1c0.8-0.8,1.2-1.6,1.2-2.8c0-2-1.6-3.1-3.4-3.1
		c-2.5,0-3.4,2-3.4,4.2h-1.4c-0.1-3.1,1.6-5.3,4.8-5.3c2.6,0,4.7,1.4,4.7,4.2c0,2.5-1.8,4.1-3.8,5.4c-1.5,1-4.2,2.3-4.5,4.4h8.4
		V76.2z"/>
</g>
<g>
	<path fill="#FFFFFF" d="M267.5,70.9v-1.2h5.4v1.2H267.5z"/>
	<path fill="#FFFFFF" d="M284.9,76.2h-9.9c0.1-4.5,4.7-5.6,7.3-8.1c0.8-0.8,1.2-1.6,1.2-2.8c0-2-1.6-3.1-3.4-3.1
		c-2.5,0-3.4,2-3.4,4.2h-1.4c-0.1-3.1,1.6-5.3,4.8-5.3c2.6,0,4.7,1.4,4.7,4.2c0,2.5-1.8,4.1-3.8,5.4c-1.5,1-4.2,2.3-4.5,4.4h8.4
		V76.2z"/>
	<path fill="#FFFFFF" d="M297.4,68.8c0,3.5-0.9,7.8-5.3,7.8c-4.4,0-5.3-4.2-5.3-7.8c0-3.5,0.9-7.8,5.3-7.8
		C296.5,61,297.4,65.2,297.4,68.8z M288.2,68.8c0,2.6,0.5,6.6,3.9,6.6s3.9-4,3.9-6.6c0-2.6-0.5-6.6-3.9-6.6S288.2,66.1,288.2,68.8z"
		/>
</g>
<g>
	<path fill="#FFFFFF" d="M323.2,70.9v-1.2h5.4v1.2H323.2z"/>
	<path fill="#FFFFFF" d="M340.6,76.2h-9.9c0.1-4.5,4.7-5.6,7.3-8.1c0.8-0.8,1.2-1.6,1.2-2.8c0-2-1.6-3.1-3.4-3.1
		c-2.5,0-3.4,2-3.4,4.2h-1.4c-0.1-3.1,1.6-5.3,4.8-5.3c2.6,0,4.7,1.4,4.7,4.2c0,2.5-1.8,4.1-3.8,5.4c-1.5,1-4.2,2.3-4.5,4.4h8.4
		V76.2z"/>
	<path fill="#FFFFFF" d="M350,68.1L350,68.1c1.9,0.4,3.1,1.9,3.1,3.9c0,3-2.4,4.5-5.2,4.5c-2.8,0-5.2-1.5-5.2-4.5
		c0-2,1.2-3.5,3.1-3.9v0c-1.6-0.5-2.5-1.7-2.5-3.3c0-2.6,2.3-3.8,4.6-3.8c2.2,0,4.6,1.2,4.6,3.8C352.4,66.4,351.5,67.6,350,68.1z
		 M351.7,72c0-2.2-1.8-3.3-3.8-3.3c-2.1,0-3.8,1.1-3.8,3.3c0,2.3,1.7,3.4,3.8,3.4C350,75.4,351.7,74.3,351.7,72z M351.1,64.8
		c0-1.7-1.4-2.6-3.2-2.6c-1.7,0-3.2,0.9-3.2,2.6c0,2,1.6,2.8,3.2,2.8C349.5,67.6,351.1,66.7,351.1,64.8z"/>
</g>
<g>
	<path fill="#FFFFFF" d="M389.5,70.9v-1.2h5.4v1.2H389.5z"/>
	<path fill="#FFFFFF" d="M398.2,71.4c-0.1,2.4,1.3,4,3.8,4c2,0,3.9-1.2,3.9-3.3c0-2.1-1.6-3.2-3.6-3.2h-1.1v-1.1h1.1
		c1.4,0,3.1-0.8,3.1-2.7c0-2-1.5-2.8-3.3-2.8c-2.3,0-3.5,1.6-3.4,3.8h-1.4c0-2.8,1.8-5,4.8-5c2.4,0,4.7,1.2,4.7,3.8
		c0,1.6-0.9,3-2.5,3.3v0c2,0.3,3.1,1.7,3.1,3.7c0,3-2.4,4.6-5.2,4.6c-3.1,0-5.4-1.9-5.1-5.1H398.2z"/>
	<path fill="#FFFFFF" d="M417.7,64.9c-0.2-1.7-1.4-2.8-3.1-2.8c-3.5,0-4.2,4-4.2,6.7h0c0.7-1.5,2.3-2.5,4-2.5c3,0,5,2.1,5,5
		c0,2.9-2.1,5.1-5.1,5.1c-3.7,0-5.3-2.1-5.3-8c0-1.8,0.5-7.5,5.4-7.5c2.6,0,4.3,1.3,4.6,3.9H417.7z M410.7,71.5
		c0,2.1,1.1,3.9,3.8,3.9c2.2,0,3.6-1.8,3.6-3.9c0-2.2-1.3-4-3.6-4C412,67.5,410.7,69.3,410.7,71.5z"/>
</g>
<g>
	<path fill="#FFFFFF" d="M452.2,227.4v-1.2h5.4v1.2H452.2z"/>
	<path fill="#FFFFFF" d="M460.9,220.6c2.4-0.1,3.8-0.1,4.2-2.9h1.1v15.1h-1.4v-11.2h-4V220.6z"/>
	<path fill="#FFFFFF" d="M472.9,228.4c0.1,2.1,1.6,3.5,3.7,3.5c2.3,0,3.8-1.9,3.8-4.1c0-2.2-1.6-3.9-3.9-3.9c-1.3,0-2.6,0.6-3.4,1.8
		H472l1.5-7.8h7.5v1.2h-6.6l-1,5l0,0c0.8-0.9,2-1.4,3.2-1.4c3.1,0,5.1,2.2,5.1,5.2c0,3-2.3,5.1-5.2,5.1c-2.8,0-4.9-1.8-5-4.6H472.9z
		"/>
</g>
<g>
	<path fill="#FFFFFF" d="M512.9,227.4v-1.2h5.4v1.2H512.9z"/>
	<path fill="#FFFFFF" d="M530.3,232.7h-9.9c0.1-4.5,4.7-5.6,7.3-8.1c0.8-0.8,1.2-1.6,1.2-2.8c0-2-1.6-3.1-3.4-3.1
		c-2.5,0-3.4,2-3.4,4.2h-1.4c-0.1-3.1,1.6-5.3,4.8-5.3c2.6,0,4.7,1.4,4.7,4.2c0,2.5-1.8,4.1-3.8,5.4c-1.5,1-4.2,2.3-4.5,4.4h8.4
		V232.7z"/>
	<path fill="#FFFFFF" d="M542.8,225.3c0,3.5-0.9,7.8-5.3,7.8s-5.3-4.2-5.3-7.8c0-3.5,0.9-7.8,5.3-7.8S542.8,221.8,542.8,225.3z
		 M533.6,225.3c0,2.6,0.5,6.6,3.9,6.6s3.9-4,3.9-6.6c0-2.6-0.5-6.6-3.9-6.6S533.6,222.7,533.6,225.3z"/>
</g>
<g>
	<path fill="#FFFFFF" d="M452.2,188.8v-1.2h5.4v1.2H452.2z"/>
	<path fill="#FFFFFF" d="M469.5,194.1h-9.9c0.1-4.5,4.7-5.6,7.3-8.1c0.8-0.8,1.2-1.6,1.2-2.8c0-2-1.6-3.1-3.4-3.1
		c-2.5,0-3.4,2-3.4,4.2H460c-0.1-3.1,1.6-5.3,4.8-5.3c2.6,0,4.7,1.4,4.7,4.2c0,2.5-1.8,4.1-3.8,5.4c-1.5,1-4.2,2.3-4.5,4.4h8.4
		V194.1z"/>
	<path fill="#FFFFFF" d="M480.3,182.8c-0.2-1.7-1.4-2.8-3.1-2.8c-3.5,0-4.2,4-4.2,6.7h0c0.7-1.5,2.3-2.5,4-2.5c3,0,5,2.1,5,5
		c0,2.9-2.1,5.1-5.1,5.1c-3.7,0-5.3-2.1-5.3-8c0-1.8,0.5-7.5,5.4-7.5c2.6,0,4.3,1.3,4.6,3.9H480.3z M473.3,189.4
		c0,2.1,1.1,3.9,3.8,3.9c2.2,0,3.6-1.8,3.6-3.9c0-2.2-1.3-4-3.6-4C474.7,185.4,473.3,187.2,473.3,189.4z"/>
</g>
<g>
	<path fill="#FFFFFF" d="M512.9,188.8v-1.2h5.4v1.2H512.9z"/>
	<path fill="#FFFFFF" d="M521.6,189.3c-0.1,2.4,1.3,4,3.8,4c2,0,3.9-1.2,3.9-3.3c0-2.1-1.6-3.2-3.6-3.2h-1.1v-1.1h1.1
		c1.4,0,3.1-0.8,3.1-2.7c0-2-1.5-2.8-3.3-2.8c-2.3,0-3.5,1.6-3.4,3.8h-1.4c0-2.8,1.8-5,4.8-5c2.4,0,4.7,1.2,4.7,3.8
		c0,1.6-0.9,3-2.5,3.3v0c2,0.3,3.1,1.7,3.1,3.7c0,3-2.4,4.6-5.2,4.6c-3.1,0-5.4-1.9-5.1-5.1H521.6z"/>
	<path fill="#FFFFFF" d="M542.3,194.1h-9.9c0.1-4.5,4.7-5.6,7.3-8.1c0.8-0.8,1.2-1.6,1.2-2.8c0-2-1.6-3.1-3.4-3.1
		c-2.5,0-3.4,2-3.4,4.2h-1.4c-0.1-3.1,1.6-5.3,4.8-5.3c2.6,0,4.7,1.4,4.7,4.2c0,2.5-1.8,4.1-3.8,5.4c-1.5,1-4.2,2.3-4.5,4.4h8.4
		V194.1z"/>
</g>
<g>
	<path fill="#FFFFFF" d="M452.2,150.1v-1.2h5.4v1.2H452.2z"/>
	<path fill="#FFFFFF" d="M460.9,150.6c-0.1,2.4,1.3,4,3.8,4c2,0,3.9-1.2,3.9-3.3c0-2.1-1.6-3.2-3.6-3.2h-1.1V147h1.1
		c1.4,0,3.1-0.8,3.1-2.7c0-2-1.5-2.8-3.3-2.8c-2.3,0-3.5,1.6-3.4,3.8h-1.4c0-2.8,1.8-5,4.8-5c2.4,0,4.7,1.2,4.7,3.8
		c0,1.6-0.9,3-2.5,3.3v0c2,0.3,3.1,1.7,3.1,3.7c0,3-2.4,4.6-5.2,4.6c-3.1,0-5.4-1.9-5.1-5.1H460.9z"/>
	<path fill="#FFFFFF" d="M480.3,144.2c-0.2-1.7-1.4-2.8-3.1-2.8c-3.5,0-4.2,4-4.2,6.7h0c0.7-1.5,2.3-2.5,4-2.5c3,0,5,2.1,5,5
		c0,2.9-2.1,5.1-5.1,5.1c-3.7,0-5.3-2.1-5.3-8c0-1.8,0.5-7.5,5.4-7.5c2.6,0,4.3,1.3,4.6,3.9H480.3z M473.3,150.7
		c0,2.1,1.1,3.9,3.8,3.9c2.2,0,3.6-1.8,3.6-3.9c0-2.2-1.3-4-3.6-4C474.7,146.8,473.3,148.5,473.3,150.7z"/>
</g>
<g>
	<path fill="#FFFFFF" d="M512.9,150.1v-1.2h5.4v1.2H512.9z"/>
	<path fill="#FFFFFF" d="M520.2,150.4l7-10h1.2v10.2h2.3v1.1h-2.3v3.7h-1.2v-3.7h-7V150.4z M527.2,150.6v-8.2h0l-5.7,8.2H527.2z"/>
	<path fill="#FFFFFF" d="M533.6,150.6c-0.1,2.4,1.3,4,3.8,4c2,0,3.9-1.2,3.9-3.3c0-2.1-1.6-3.2-3.6-3.2h-1.1V147h1.1
		c1.4,0,3.1-0.8,3.1-2.7c0-2-1.5-2.8-3.3-2.8c-2.3,0-3.5,1.6-3.4,3.8h-1.4c0-2.8,1.8-5,4.8-5c2.4,0,4.7,1.2,4.7,3.8
		c0,1.6-0.9,3-2.5,3.3v0c2,0.3,3.1,1.7,3.1,3.7c0,3-2.4,4.6-5.2,4.6c-3.1,0-5.4-1.9-5.1-5.1H533.6z"/>
</g>
<g>
	<path fill="#FFFFFF" d="M452.2,110.7v-1.2h5.4v1.2H452.2z"/>
	<path fill="#FFFFFF" d="M459.5,110.9l7-10h1.2v10.2h2.3v1.1h-2.3v3.7h-1.2v-3.7h-7V110.9z M466.4,111.1v-8.2h0l-5.7,8.2H466.4z"/>
	<path fill="#FFFFFF" d="M481.5,116h-9.9c0.1-4.5,4.7-5.6,7.3-8.1c0.8-0.8,1.2-1.6,1.2-2.8c0-2-1.6-3.1-3.4-3.1
		c-2.5,0-3.4,2-3.4,4.2H472c-0.1-3.1,1.6-5.3,4.8-5.3c2.6,0,4.7,1.4,4.7,4.2c0,2.5-1.8,4.1-3.8,5.4c-1.5,1-4.2,2.3-4.5,4.4h8.4V116z
		"/>
</g>
<g>
	<path fill="#FFFFFF" d="M512.9,110.7v-1.2h5.4v1.2H512.9z"/>
	<path fill="#FFFFFF" d="M520.2,110.9l7-10h1.2v10.2h2.3v1.1h-2.3v3.7h-1.2v-3.7h-7V110.9z M527.2,111.1v-8.2h0l-5.7,8.2H527.2z"/>
	<path fill="#FFFFFF" d="M534,112.3c0.2,1.7,1.4,2.8,3.1,2.8c3.5,0,4.2-4,4.2-6.7h0c-0.7,1.5-2.3,2.5-4,2.5c-3,0-5-2.1-5-5
		c0-2.9,2.1-5.1,5.1-5.1c3.7,0,5.3,2.1,5.3,8c0,1.8-0.5,7.5-5.4,7.5c-2.6,0-4.3-1.3-4.6-3.9H534z M541,105.8c0-2.1-1.1-3.9-3.8-3.9
		c-2.2,0-3.6,1.8-3.6,3.9c0,2.2,1.3,4,3.6,4C539.7,109.8,541,108,541,105.8z"/>
</g>
<g>
	<path fill="#FFFFFF" d="M452.2,70.9v-1.2h5.4v1.2H452.2z"/>
	<path fill="#FFFFFF" d="M459.5,71.1l7-10h1.2v10.2h2.3v1.1h-2.3v3.7h-1.2v-3.7h-7V71.1z M466.4,71.3v-8.2h0l-5.7,8.2H466.4z"/>
	<path fill="#FFFFFF" d="M471.5,71.1l7-10h1.2v10.2h2.3v1.1h-2.3v3.7h-1.2v-3.7h-7V71.1z M478.4,71.3v-8.2h0l-5.7,8.2H478.4z"/>
</g>
<g>
	<path fill="#FFFFFF" d="M512.9,70.9v-1.2h5.4v1.2H512.9z"/>
	<path fill="#FFFFFF" d="M521.7,71.9c0.1,2.1,1.6,3.5,3.7,3.5c2.3,0,3.8-1.9,3.8-4.1c0-2.2-1.6-3.9-3.9-3.9c-1.3,0-2.6,0.6-3.4,1.8
		h-1.2l1.5-7.8h7.5v1.2h-6.6l-1,5l0,0c0.8-0.9,2-1.4,3.2-1.4c3.1,0,5.1,2.2,5.1,5.2c0,3-2.3,5.1-5.2,5.1c-2.8,0-4.9-1.8-5-4.6H521.7
		z"/>
	<path fill="#FFFFFF" d="M542.3,76.2h-9.9c0.1-4.5,4.7-5.6,7.3-8.1c0.8-0.8,1.2-1.6,1.2-2.8c0-2-1.6-3.1-3.4-3.1
		c-2.5,0-3.4,2-3.4,4.2h-1.4c-0.1-3.1,1.6-5.3,4.8-5.3c2.6,0,4.7,1.4,4.7,4.2c0,2.5-1.8,4.1-3.8,5.4c-1.5,1-4.2,2.3-4.5,4.4h8.4
		V76.2z"/>
</g>
<g>
	<path d="M281,259.8h1.8v6.7h4v1.5H281V259.8z"/>
	<path d="M294.9,265c0,2.2-1.3,3.3-3.5,3.3c-2.2,0-3.5-1.1-3.5-3.3v-5.1h1.8v5.1c0,0.9,0.2,1.8,1.7,1.8c1.3,0,1.7-0.6,1.7-1.8v-5.1
		h1.8V265z"/>
	<path d="M296.5,259.8h5.8v1.5h-4v1.9h3.5v1.4h-3.5v3.4h-1.8V259.8z"/>
	<path d="M305.2,261.4h-2.5v-1.5h6.8v1.5H307v6.7h-1.8V261.4z"/>
	<path d="M312.3,261.4h-2.5v-1.5h6.8v1.5h-2.5v6.7h-1.8V261.4z"/>
	<path d="M317.5,259.8h6.2v1.5h-4.4v1.8h4v1.4h-4v2h4.5v1.5h-6.3V259.8z"/>
	<path d="M325,259.8h2.6l1.9,5.7h0l1.8-5.7h2.6v8.3h-1.7v-5.9h0l-2,5.9h-1.4l-2-5.8h0v5.8H325V259.8z"/>
	<path d="M335.6,259.8h3.7c2.1,0,2.9,1.3,2.9,2.7c0,1.3-0.8,2.7-2.9,2.7h-1.9v3h-1.8V259.8z M337.4,263.7h1.4c0.8,0,1.6-0.2,1.6-1.2
		c0-1.1-0.8-1.2-1.6-1.2h-1.4V263.7z"/>
	<path d="M343.3,259.8h6.2v1.5h-4.4v1.8h4v1.4h-4v2h4.5v1.5h-6.3V259.8z"/>
	<path d="M350.8,259.8h4.5c1.5,0,2.4,1,2.4,2.3c0,1-0.4,1.7-1.3,2.1v0c0.9,0.2,1.1,1.1,1.2,1.9c0,0.5,0,1.5,0.3,2h-1.8
		c-0.2-0.5-0.2-1.3-0.3-2c-0.1-0.9-0.5-1.3-1.4-1.3h-1.8v3.2h-1.8V259.8z M352.6,263.6h2c0.8,0,1.3-0.3,1.3-1.2
		c0-0.8-0.4-1.1-1.3-1.1h-2V263.6z"/>
	<path d="M361.4,259.8h1.9l3.1,8.3h-1.9l-0.6-1.8h-3.1l-0.6,1.8h-1.8L361.4,259.8z M361.3,264.9h2.1l-1-3h0L361.3,264.9z"/>
	<path d="M368.1,261.4h-2.5v-1.5h6.8v1.5h-2.5v6.7h-1.8V261.4z"/>
	<path d="M380.4,265c0,2.2-1.3,3.3-3.5,3.3c-2.2,0-3.5-1.1-3.5-3.3v-5.1h1.8v5.1c0,0.9,0.2,1.8,1.7,1.8c1.3,0,1.7-0.6,1.7-1.8v-5.1
		h1.8V265z"/>
	<path d="M381.9,259.8h4.5c1.5,0,2.4,1,2.4,2.3c0,1-0.4,1.7-1.3,2.1v0c0.9,0.2,1.1,1.1,1.2,1.9c0,0.5,0,1.5,0.3,2h-1.8
		c-0.2-0.5-0.2-1.3-0.3-2c-0.1-0.9-0.5-1.3-1.4-1.3h-1.8v3.2h-1.8V259.8z M383.8,263.6h2c0.8,0,1.3-0.3,1.3-1.2
		c0-0.8-0.4-1.1-1.3-1.1h-2V263.6z"/>
	<path d="M395.1,259.8c1,0,1.7,0.8,1.7,1.7c0,1-0.8,1.7-1.7,1.7s-1.7-0.8-1.7-1.7C393.3,260.6,394.1,259.8,395.1,259.8z
		 M395.1,262.6c0.5,0,1-0.5,1-1c0-0.6-0.5-1-1-1c-0.5,0-1,0.5-1,1C394.1,262.1,394.6,262.6,395.1,262.6z"/>
	<path d="M404.3,262.3c-0.3-1.3-1.3-2-2.5-2c-2.2,0-3.1,1.8-3.1,3.6c0,1.8,0.9,3.6,3.1,3.6c1.5,0,2.5-1.2,2.7-2.7h0.8
		c-0.2,2-1.5,3.3-3.4,3.3c-2.6,0-3.9-2.1-3.9-4.3c0-2.3,1.3-4.3,3.9-4.3c1.6,0,3.1,0.9,3.3,2.7H404.3z"/>
</g>
<g>
	<path d="M40.3,91.1V89l9-2.7v1.9l-6.4,1.8v0l6.4,1.9v1.9L40.3,91.1z"/>
	<path d="M49.3,94.5v1.8h-9v-1.8H49.3z"/>
	<path d="M49.3,98v1.8l-6.1,3.5v0h6.1v1.7h-9v-1.8l6-3.4v0h-6V98H49.3z"/>
	<path d="M49.3,106.6v3.6c0,2.1-1.5,3.8-4.5,3.8c-2.6,0-4.6-1.2-4.6-3.8v-3.6H49.3z M41.9,108.4v1.6c0,1.1,0.7,2.1,2.7,2.1
		c1.8,0,3-0.6,3-2.4v-1.3H41.9z"/>
	<path d="M49.3,115.2v1.8h-3.5v3.4h3.5v1.8h-9v-1.8h3.9V117h-3.9v-1.8H49.3z"/>
	<path d="M49.3,126v1.9l-9,3.1v-1.9l2-0.6v-3.1l-2-0.6v-1.8L49.3,126z M43.7,125.8v2.1l3.3-1v0L43.7,125.8z"/>
	<path d="M43.3,132.9c-1.2,0-1.7,0.9-1.7,1.8c0,0.6,0.2,1.6,1.1,1.6c1,0,1.1-1.2,1.5-2.5c0.4-1.2,0.9-2.5,2.6-2.5
		c1.8,0,2.7,1.6,2.7,3.1c0,1.7-0.8,3.3-2.9,3.3v-1.8c1.1-0.1,1.4-0.8,1.4-1.6c0-0.6-0.3-1.3-1-1.3c-0.7,0-0.8,0.4-1.4,2.5
		c-0.2,0.6-0.6,2.5-2.6,2.5c-1.7,0-2.9-1.2-2.9-3.4c0-1.8,1-3.5,3.2-3.5V132.9z"/>
	<path d="M47.6,141v-2.5h1.7v6.8h-1.7v-2.5h-7.4V141H47.6z"/>
	<path d="M49.3,146.3v1.8h-9v-1.8H49.3z"/>
	<path d="M41.3,155.7c-0.9-0.6-1.2-1.5-1.2-2.3c0-2.6,2.1-4.1,4.7-4.1c2.7,0,4.8,1.5,4.8,4.1c0,1.7-1.1,3.3-3.2,3.5v-1.7
		c1-0.2,1.5-0.9,1.5-1.8c0-1.6-1.5-2.2-3.1-2.2c-1.5,0-3,0.6-3,2.2c0,1.2,0.7,1.9,1.9,2v-1.8h1.5v3.5h-4.9v-1.2L41.3,155.7z"/>
	<path d="M49.3,158.5v1.8h-3.5v3.4h3.5v1.8h-9v-1.8h3.9v-3.4h-3.9v-1.8H49.3z"/>
	<path d="M49.3,167.1v6.2h-1.7v-4.4h-1.9v4h-1.5v-4h-2.2v4.5h-1.7v-6.3H49.3z"/>
	<path d="M47.6,176.5V174h1.7v6.8h-1.7v-2.5h-7.4v-1.8H47.6z"/>
	<path d="M49.3,184.9v1.2l-7.9,2.9l7.9,2.9v1.2h-9v-0.8h7.8v0l-7.8-2.8v-0.7l7.8-2.8v0h-7.8v-0.8H49.3z"/>
	<path d="M40.1,193.6l9.4,3.6v0.6l-9.4-3.5V193.6z"/>
	<path d="M43.2,198.9c-1.9,0-2.4,1.2-2.4,2.7c0,0.9,0.5,2.2,1.8,2.2c1,0,1.4-0.9,1.6-1.7l0.5-1.8c0.3-1,0.8-1.9,2.2-1.9
		c0.9,0,2.5,0.5,2.5,2.9c0,1.6-1,3.1-2.8,3.1v-0.8c1.4,0,2.1-1.1,2.1-2.3c0-1.1-0.5-2.1-1.8-2.1c-0.8,0-1.2,0.6-1.4,1.3l-0.5,2
		c-0.3,1.2-0.9,2.1-2.4,2.1c-0.6,0-2.6-0.2-2.6-3.2c0-2,1-3.4,3.2-3.3V198.9z"/>
</g>
<g>
	<path d="M513.7,262.8c-0.1-1.1-0.8-1.5-1.9-1.5c-0.8,0-1.7,0.3-1.7,1.3c0,0.9,1.2,1.1,2.4,1.3c1.2,0.3,2.4,0.7,2.4,2.2
		c0,1.6-1.6,2.2-2.9,2.2c-1.7,0-3.1-0.8-3.1-2.6h0.9c0,1.3,1,1.8,2.2,1.8c0.9,0,1.9-0.3,1.9-1.4c0-1-1.2-1.2-2.4-1.5
		c-1.2-0.3-2.4-0.6-2.4-2c0-1.5,1.4-2.2,2.7-2.2c1.5,0,2.7,0.7,2.8,2.4H513.7z"/>
	<path d="M517.3,262.7h1.1v0.8h-1.1v3.4c0,0.4,0.1,0.5,0.7,0.5h0.4v0.8h-0.7c-0.9,0-1.3-0.2-1.3-1.2v-3.5h-0.9v-0.8h0.9v-1.6h0.9
		V262.7z"/>
	<path d="M521.7,262.6c1.7,0,2.6,1.2,2.6,2.8c0,1.6-0.9,2.8-2.6,2.8c-1.7,0-2.6-1.2-2.6-2.8C519.1,263.8,520,262.6,521.7,262.6z
		 M521.7,267.4c0.9,0,1.7-0.7,1.7-2c0-1.3-0.8-2.1-1.7-2.1c-0.9,0-1.7,0.7-1.7,2.1C520,266.7,520.8,267.4,521.7,267.4z"/>
	<path d="M525.4,262.7h0.8v1.1h0c0.4-0.9,1-1.3,2-1.3v0.9c-1.4,0-2,0.8-2,2.2v2.4h-0.9V262.7z"/>
	<path d="M532.2,263.5h-0.9v-0.8h0.9v-0.8c0-0.9,0.5-1.3,1.5-1.3c0.2,0,0.4,0,0.6,0.1v0.8c-0.2-0.1-0.3-0.1-0.5-0.1
		c-0.4,0-0.7,0.1-0.7,0.6v0.8h1v0.8h-1v4.6h-0.9V263.5z"/>
	<path d="M539.7,268.1c-0.2,0.1-0.4,0.1-0.6,0.1c-0.5,0-0.8-0.3-0.8-0.8c-0.5,0.6-1.2,0.8-1.9,0.8c-1,0-1.8-0.4-1.8-1.5
		c0-1.2,0.9-1.5,1.8-1.7c1-0.2,1.8-0.1,1.8-0.8c0-0.8-0.6-0.9-1.2-0.9c-0.8,0-1.3,0.2-1.4,1h-0.9c0.1-1.3,1.1-1.8,2.3-1.8
		c1,0,2,0.2,2,1.5v2.8c0,0.4,0,0.6,0.3,0.6c0.1,0,0.2,0,0.3-0.1V268.1z M538.3,265.3c-0.3,0.3-1,0.3-1.6,0.4c-0.6,0.1-1.1,0.3-1.1,1
		c0,0.6,0.5,0.8,1,0.8c1.2,0,1.7-0.7,1.7-1.2V265.3z"/>
	<path d="M540.5,262.7h0.8v1.1h0c0.4-0.9,1-1.3,2-1.3v0.9c-1.4,0-2,0.8-2,2.2v2.4h-0.9V262.7z"/>
	<path d="M548.5,266.4c-0.2,1.2-1.1,1.8-2.3,1.8c-1.7,0-2.5-1.2-2.6-2.9c0-1.6,1.1-2.8,2.5-2.8c1.9,0,2.5,1.8,2.5,3.1h-4.1
		c0,0.9,0.5,1.8,1.7,1.8c0.7,0,1.2-0.4,1.4-1.1H548.5z M547.6,264.9c0-0.8-0.7-1.5-1.6-1.5c-0.9,0-1.5,0.7-1.6,1.5H547.6z"/>
</g>
<g>
	<path d="M130.6,260.6h1v6.7h4v0.8h-5V260.6z"/>
	<path d="M137.2,261.7h-0.9v-1.1h0.9V261.7z M136.3,262.7h0.9v5.4h-0.9V262.7z"/>
	<path d="M139.8,262.7h1.1v0.8h-1.1v3.4c0,0.4,0.1,0.5,0.7,0.5h0.4v0.8h-0.7c-0.9,0-1.3-0.2-1.3-1.2v-3.5H138v-0.8h0.9v-1.6h0.9
		V262.7z"/>
	<path d="M146.5,266.4c-0.2,1.2-1.1,1.8-2.3,1.8c-1.7,0-2.5-1.2-2.6-2.9c0-1.6,1.1-2.8,2.5-2.8c1.9,0,2.5,1.8,2.5,3.1h-4.1
		c0,0.9,0.5,1.8,1.7,1.8c0.7,0,1.2-0.4,1.4-1.1H146.5z M145.7,264.9c0-0.8-0.7-1.5-1.6-1.5c-0.9,0-1.5,0.7-1.6,1.5H145.7z"/>
	<path d="M147.5,262.7h0.8v0.9h0c0.4-0.7,1-1,1.8-1c1.4,0,1.9,0.8,1.9,2v3.6h-0.9v-3.7c0-0.7-0.4-1.1-1.1-1.1
		c-1.1,0-1.6,0.7-1.6,1.7v3.1h-0.9V262.7z"/>
	<path d="M156.6,263.5h-0.9v-0.8h0.9v-0.8c0-0.9,0.5-1.3,1.5-1.3c0.2,0,0.4,0,0.6,0.1v0.8c-0.2-0.1-0.3-0.1-0.5-0.1
		c-0.4,0-0.7,0.1-0.7,0.6v0.8h1v0.8h-1v4.6h-0.9V263.5z"/>
	<path d="M164.2,268.1c-0.2,0.1-0.4,0.1-0.6,0.1c-0.5,0-0.8-0.3-0.8-0.8c-0.5,0.6-1.2,0.8-1.9,0.8c-1,0-1.8-0.4-1.8-1.5
		c0-1.2,0.9-1.5,1.8-1.7c1-0.2,1.8-0.1,1.8-0.8c0-0.8-0.6-0.9-1.2-0.9c-0.8,0-1.3,0.2-1.4,1h-0.9c0.1-1.3,1.1-1.8,2.3-1.8
		c1,0,2,0.2,2,1.5v2.8c0,0.4,0,0.6,0.3,0.6c0.1,0,0.2,0,0.3-0.1V268.1z M162.7,265.3c-0.3,0.3-1,0.3-1.6,0.4c-0.6,0.1-1.1,0.3-1.1,1
		c0,0.6,0.5,0.8,1,0.8c1.2,0,1.7-0.7,1.7-1.2V265.3z"/>
	<path d="M165,262.7h0.8v1.1h0c0.4-0.9,1-1.3,2-1.3v0.9c-1.4,0-2,0.8-2,2.2v2.4H165V262.7z"/>
	<path d="M172.9,266.4c-0.2,1.2-1.1,1.8-2.3,1.8c-1.7,0-2.5-1.2-2.6-2.9c0-1.6,1.1-2.8,2.5-2.8c1.9,0,2.5,1.8,2.5,3.1H169
		c0,0.9,0.5,1.8,1.7,1.8c0.7,0,1.2-0.4,1.4-1.1H172.9z M172.1,264.9c0-0.8-0.7-1.5-1.6-1.5c-0.9,0-1.5,0.7-1.6,1.5H172.1z"/>
</g>
<g>
	<rect x="410.1" y="264.3" width="91.2" height="0.6"/>
	<polygon points="497.5,268.6 497.1,268.2 501,264.6 497.1,261 497.5,260.6 501.8,264.6 	"/>
</g>
<g>
	<rect x="181.7" y="264.3" width="91.1" height="0.6"/>
	<polygon points="185.6,268.6 181.3,264.6 185.6,260.6 186,261 182.1,264.6 186,268.2 	"/>
</g>
</svg>
