<?xml version="1.0" encoding="utf-8"?>
<!-- Generator: Adobe Illustrator 19.1.0, SVG Export Plug-In . SVG Version: 6.00 Build 0)  -->
<svg version="1.1" id="Layer_1" xmlns="http://www.w3.org/2000/svg" xmlns:xlink="http://www.w3.org/1999/xlink" x="0px" y="0px"
	 viewBox="-238.1 124.8 517.8 230.9" enable-background="new -238.1 124.8 517.8 230.9" xml:space="preserve">
<linearGradient id="SVGID_1_" gradientUnits="userSpaceOnUse" x1="-6.4448" y1="314.1172" x2="166.8785" y2="107.5587" gradientTransform="matrix(1 0 0 1 0 1.4)">
	<stop  offset="0" style="stop-color:#00A14B"/>
	<stop  offset="9.194195e-02" style="stop-color:#3E9D48"/>
	<stop  offset="0.2759" style="stop-color:#7A8E40"/>
	<stop  offset="0.5349" style="stop-color:#B37033"/>
	<stop  offset="0.8258" style="stop-color:#ED1C24"/>
</linearGradient>
<rect x="-153" y="135.1" fill="url(#SVGID_1_)" width="430.5" height="197.1"/>
<g>
	<rect x="-92.9" y="124.8" fill="#FFFFFF" width="1.4" height="210.4"/>
	<rect x="-92.8" y="124.9" fill="#FFFFFF" width="1.1" height="210.1"/>
	<rect x="-92.5" y="125.2" fill="#FFFFFF" width="0.6" height="209.5"/>
	<rect x="-30" y="124.8" fill="#FFFFFF" width="1.4" height="210.4"/>
	<rect x="-29.9" y="124.9" fill="#FFFFFF" width="1.1" height="210.1"/>
	<rect x="-29.6" y="125.2" fill="#FFFFFF" width="0.6" height="209.5"/>
	<rect x="32.8" y="124.8" fill="#FFFFFF" width="1.4" height="210.4"/>
	<rect x="33" y="124.9" fill="#FFFFFF" width="1.1" height="210.1"/>
	<rect x="33.2" y="125.2" fill="#FFFFFF" width="0.6" height="209.5"/>
	<rect x="95.7" y="124.8" fill="#FFFFFF" width="1.4" height="210.4"/>
	<rect x="95.8" y="124.9" fill="#FFFFFF" width="1.1" height="210.1"/>
	<rect x="96.1" y="125.2" fill="#FFFFFF" width="0.6" height="209.5"/>
	<rect x="158.6" y="124.8" fill="#FFFFFF" width="1.4" height="210.4"/>
	<rect x="158.7" y="124.9" fill="#FFFFFF" width="1.1" height="210.1"/>
	<rect x="159" y="125.2" fill="#FFFFFF" width="0.6" height="209.5"/>
</g>
<rect x="221.5" y="124.8" fill="#FFFFFF" width="1.4" height="210.4"/>
<rect x="221.7" y="124.9" fill="#FFFFFF" width="1.1" height="210.1"/>
<rect x="221.9" y="125.2" fill="#FFFFFF" width="0.6" height="209.5"/>
<g>
	<rect x="-153.9" y="134.4" fill="#FFFFFF" width="433.6" height="1.4"/>
	<rect x="-153.8" y="134.6" fill="#FFFFFF" width="433.3" height="1.1"/>
	<rect x="-153.5" y="134.8" fill="#FFFFFF" width="432.8" height="0.6"/>
	<rect x="-153.9" y="173.8" fill="#FFFFFF" width="433.6" height="1.4"/>
	<rect x="-153.8" y="174" fill="#FFFFFF" width="433.3" height="1.1"/>
	<rect x="-153.5" y="174.2" fill="#FFFFFF" width="432.8" height="0.6"/>
	<rect x="-153.9" y="213.2" fill="#FFFFFF" width="433.6" height="1.4"/>
	<rect x="-153.8" y="213.4" fill="#FFFFFF" width="433.3" height="1.1"/>
	<rect x="-153.5" y="213.7" fill="#FFFFFF" width="432.8" height="0.6"/>
	<rect x="-153.9" y="252.7" fill="#FFFFFF" width="433.6" height="1.4"/>
	<rect x="-153.8" y="252.8" fill="#FFFFFF" width="433.3" height="1.1"/>
	<rect x="-153.5" y="253.1" fill="#FFFFFF" width="432.8" height="0.6"/>
	<rect x="-153.9" y="292.1" fill="#FFFFFF" width="433.6" height="1.4"/>
	<rect x="-153.8" y="292.2" fill="#FFFFFF" width="433.3" height="1.1"/>
	<rect x="-153.5" y="292.5" fill="#FFFFFF" width="432.8" height="0.6"/>
	<rect x="-153.5" y="331.9" fill="#FFFFFF" width="432.8" height="0.6"/>
</g>
<g>
	<rect x="-234.3" y="135.9" width="0.6" height="36"/>
	<polygon points="-237.7,140.2 -238.1,139.8 -234.1,135.5 -230.1,139.8 -230.5,140.2 -234.1,136.3 	"/>
</g>
<g>
	<rect x="-234.3" y="289" width="0.6" height="38.3"/>
	<polygon points="-234.1,327.8 -238.1,323.5 -237.7,323.1 -234.1,327 -230.5,323.1 -230.1,323.5 	"/>
</g>
<g>
	<path fill="#FFFFFF" d="M-133.7,306.8c2.4-0.1,3.8-0.1,4.2-2.9h1.1V319h-1.4v-11.2h-4L-133.7,306.8L-133.7,306.8z"/>
	<path fill="#FFFFFF" d="M-112.6,311.5c0,3.5-0.9,7.8-5.3,7.8s-5.3-4.2-5.3-7.8c0-3.5,0.9-7.8,5.3-7.8
		C-113.4,303.7-112.6,308-112.6,311.5z M-121.7,311.5c0,2.6,0.5,6.6,3.9,6.6s3.9-4,3.9-6.6s-0.5-6.6-3.9-6.6
		S-121.7,308.9-121.7,311.5z"/>
</g>
<g>
	<path fill="#FFFFFF" d="M-63.2,314.6c0.1,2.1,1.6,3.5,3.7,3.5c2.3,0,3.8-1.9,3.8-4.1s-1.6-3.9-3.9-3.9c-1.3,0-2.6,0.6-3.4,1.8h-1.2
		l1.5-7.8h7.5v1.2h-6.6l-1,5l0,0c0.8-0.9,2-1.4,3.2-1.4c3.1,0,5.1,2.2,5.1,5.2s-2.3,5.1-5.2,5.1c-2.8,0-4.9-1.8-5-4.6H-63.2z"/>
</g>
<g>
	<path fill="#FFFFFF" d="M7.7,311.5c0,3.5-0.9,7.8-5.3,7.8s-5.3-4.2-5.3-7.8c0-3.5,0.9-7.8,5.3-7.8S7.7,308,7.7,311.5z M-1.4,311.5
		c0,2.6,0.5,6.6,3.9,6.6s3.9-4,3.9-6.6s-0.5-6.6-3.9-6.6S-1.4,308.9-1.4,311.5z"/>
</g>
<g>
	<path fill="#FFFFFF" d="M56.3,313.6v-1.2h5.4v1.2H56.3z"/>
	<path fill="#FFFFFF" d="M65.1,314.6c0.1,2.1,1.6,3.5,3.7,3.5c2.3,0,3.8-1.9,3.8-4.1s-1.6-3.9-3.9-3.9c-1.3,0-2.6,0.6-3.4,1.8h-1.2
		l1.5-7.8h7.5v1.2h-6.6l-1,5l0,0c0.8-0.9,2-1.4,3.2-1.4c3.1,0,5.1,2.2,5.1,5.2s-2.3,5.1-5.2,5.1c-2.8,0-4.9-1.8-5-4.6H65.1z"/>
</g>
<g>
	<path fill="#FFFFFF" d="M111.5,313.6v-1.2h5.4v1.2H111.5z"/>
	<path fill="#FFFFFF" d="M120.3,306.8c2.4-0.1,3.8-0.1,4.2-2.9h1.1V319h-1.4v-11.2h-4L120.3,306.8L120.3,306.8z"/>
	<path fill="#FFFFFF" d="M141.4,311.5c0,3.5-0.9,7.8-5.3,7.8s-5.3-4.2-5.3-7.8c0-3.5,0.9-7.8,5.3-7.8S141.4,308,141.4,311.5z
		 M132.2,311.5c0,2.6,0.5,6.6,3.9,6.6s3.9-4,3.9-6.6s-0.5-6.6-3.9-6.6S132.2,308.9,132.2,311.5z"/>
</g>
<g>
	<path fill="#FFFFFF" d="M-126,275.2l7-10h1.2v10.2h2.3v1.1h-2.3v3.7h-1.2v-3.7h-7V275.2z M-119.1,275.4v-8.2l0,0l-5.7,8.2H-119.1z"
		/>
</g>
<g>
	<path fill="#FFFFFF" d="M-69.6,275v-1.2h5.4v1.2H-69.6z"/>
	<path fill="#FFFFFF" d="M-52.2,280.3h-9.9c0.1-4.5,4.7-5.6,7.3-8.1c0.8-0.8,1.2-1.6,1.2-2.8c0-2-1.6-3.1-3.4-3.1
		c-2.5,0-3.4,2-3.4,4.2h-1.4c-0.1-3.1,1.6-5.3,4.8-5.3c2.6,0,4.7,1.4,4.7,4.2c0,2.5-1.8,4.1-3.8,5.4c-1.5,1-4.2,2.3-4.5,4.4h8.4
		L-52.2,280.3L-52.2,280.3z"/>
</g>
<g>
	<path fill="#FFFFFF" d="M-10.5,275v-1.2h5.4v1.2H-10.5z"/>
	<path fill="#FFFFFF" d="M4.2,272.2L4.2,272.2c1.9,0.4,3.1,1.9,3.1,3.9c0,3-2.4,4.5-5.2,4.5s-5.2-1.5-5.2-4.5c0-2,1.2-3.5,3.1-3.9
		l0,0c-1.6-0.5-2.5-1.7-2.5-3.3c0-2.6,2.3-3.8,4.6-3.8c2.2,0,4.6,1.2,4.6,3.8C6.7,270.5,5.8,271.7,4.2,272.2z M6,276.1
		c0-2.2-1.8-3.3-3.8-3.3c-2.1,0-3.8,1.1-3.8,3.3c0,2.3,1.7,3.4,3.8,3.4C4.2,279.5,6,278.4,6,276.1z M5.3,268.9
		c0-1.7-1.4-2.6-3.2-2.6c-1.7,0-3.2,0.9-3.2,2.6c0,2,1.6,2.8,3.2,2.8C3.8,271.7,5.3,270.8,5.3,268.9z"/>
</g>
<g>
	<path fill="#FFFFFF" d="M45.2,275v-1.2h5.4v1.2H45.2z"/>
	<path fill="#FFFFFF" d="M54,268.1c2.4-0.1,3.8-0.1,4.2-2.9h1.1v15.1H58v-11.2h-4V268.1z"/>
	<path fill="#FFFFFF" d="M64.5,275.2l7-10h1.2v10.2H75v1.1h-2.3v3.7h-1.2v-3.7h-7V275.2z M71.5,275.4v-8.2l0,0l-5.7,8.2H71.5z"/>
</g>
<g>
	<path fill="#FFFFFF" d="M111.5,275v-1.2h5.4v1.2H111.5z"/>
	<path fill="#FFFFFF" d="M128.9,280.3H119c0.1-4.5,4.7-5.6,7.3-8.1c0.8-0.8,1.2-1.6,1.2-2.8c0-2-1.6-3.1-3.4-3.1
		c-2.5,0-3.4,2-3.4,4.2h-1.4c-0.1-3.1,1.6-5.3,4.8-5.3c2.6,0,4.7,1.4,4.7,4.2c0,2.5-1.8,4.1-3.8,5.4c-1.5,1-4.2,2.3-4.5,4.4h8.4
		L128.9,280.3L128.9,280.3z"/>
	<path fill="#FFFFFF" d="M141.4,272.8c0,3.5-0.9,7.8-5.3,7.8s-5.3-4.2-5.3-7.8c0-3.5,0.9-7.8,5.3-7.8
		C140.5,265.1,141.4,269.3,141.4,272.8z M132.2,272.8c0,2.6,0.5,6.6,3.9,6.6s3.9-4,3.9-6.6s-0.5-6.6-3.9-6.6
		S132.2,270.2,132.2,272.8z"/>
</g>
<g>
	<path fill="#FFFFFF" d="M-115.4,234.2c0,3.5-0.9,7.8-5.3,7.8s-5.3-4.2-5.3-7.8c0-3.5,0.9-7.8,5.3-7.8
		C-116.3,226.4-115.4,230.7-115.4,234.2z M-124.6,234.2c0,2.6,0.5,6.6,3.9,6.6s3.9-4,3.9-6.6s-0.5-6.6-3.9-6.6
		S-124.6,231.6-124.6,234.2z"/>
</g>
<g>
	<path fill="#FFFFFF" d="M-69.6,236.3v-1.2h5.4v1.2H-69.6z"/>
	<path fill="#FFFFFF" d="M-61.8,226.8h9.7v1.2c-1.9,2-5.7,6.6-6.1,13.6h-1.5c0.4-5.1,2-8.9,6.2-13.6h-8.3L-61.8,226.8L-61.8,226.8z"
		/>
</g>
<g>
	<path fill="#FFFFFF" d="M-10.5,236.3v-1.2h5.4v1.2H-10.5z"/>
	<path fill="#FFFFFF" d="M-1.8,229.5c2.4-0.1,3.8-0.1,4.2-2.9h1.1v15.1H2.1v-11.2h-4L-1.8,229.5L-1.8,229.5z"/>
	<path fill="#FFFFFF" d="M8.8,236.6l7-10H17v10.2h2.3v1.1H17v3.7h-1.2v-3.7h-7V236.6z M15.7,236.8v-8.2l0,0l-5.7,8.2H15.7z"/>
</g>
<g>
	<path fill="#FFFFFF" d="M45.2,236.3v-1.2h5.4v1.2H45.2z"/>
	<path fill="#FFFFFF" d="M62.6,241.6h-9.9c0.1-4.5,4.7-5.6,7.3-8.1c0.8-0.8,1.2-1.6,1.2-2.8c0-2-1.6-3.1-3.4-3.1
		c-2.5,0-3.4,2-3.4,4.2H53c-0.1-3.1,1.6-5.3,4.8-5.3c2.6,0,4.7,1.4,4.7,4.2c0,2.5-1.8,4.1-3.8,5.4c-1.5,1-4.2,2.3-4.5,4.4h8.4V241.6
		L62.6,241.6z"/>
	<path fill="#FFFFFF" d="M66,229.5c2.4-0.1,3.8-0.1,4.2-2.9h1.1v15.1H70v-11.2h-4V229.5z"/>
</g>
<g>
	<path fill="#FFFFFF" d="M111.5,236.3v-1.2h5.4v1.2H111.5z"/>
	<path fill="#FFFFFF" d="M128.9,241.6H119c0.1-4.5,4.7-5.6,7.3-8.1c0.8-0.8,1.2-1.6,1.2-2.8c0-2-1.6-3.1-3.4-3.1
		c-2.5,0-3.4,2-3.4,4.2h-1.4c-0.1-3.1,1.6-5.3,4.8-5.3c2.6,0,4.7,1.4,4.7,4.2c0,2.5-1.8,4.1-3.8,5.4c-1.5,1-4.2,2.3-4.5,4.4h8.4
		L128.9,241.6L128.9,241.6z"/>
	<path fill="#FFFFFF" d="M132.6,238c0.2,1.7,1.4,2.8,3.1,2.8c3.5,0,4.2-4,4.2-6.7l0,0c-0.7,1.5-2.3,2.5-4,2.5c-3,0-5-2.1-5-5
		s2.1-5.1,5.1-5.1c3.7,0,5.3,2.1,5.3,8c0,1.8-0.5,7.5-5.4,7.5c-2.6,0-4.3-1.3-4.6-3.9h1.3V238z M139.6,231.5c0-2.1-1.1-3.9-3.8-3.9
		c-2.2,0-3.6,1.8-3.6,3.9c0,2.2,1.3,4,3.6,4C138.2,235.4,139.6,233.7,139.6,231.5z"/>
</g>
<g>
	<path fill="#FFFFFF" d="M-132.6,196.9v-1.2h5.4v1.2H-132.6z"/>
	<path fill="#FFFFFF" d="M-123.8,197.4c-0.1,2.4,1.3,4,3.8,4c2,0,3.9-1.2,3.9-3.3s-1.6-3.2-3.6-3.2h-1.1v-1.1h1.1
		c1.4,0,3.1-0.8,3.1-2.7c0-2-1.5-2.8-3.3-2.8c-2.3,0-3.5,1.6-3.4,3.8h-1.4c0-2.8,1.8-5,4.8-5c2.4,0,4.7,1.2,4.7,3.8
		c0,1.6-0.9,3-2.5,3.3l0,0c2,0.3,3.1,1.7,3.1,3.7c0,3-2.4,4.6-5.2,4.6c-3.1,0-5.4-1.9-5.1-5.1C-124.9,197.4-123.8,197.4-123.8,197.4
		z"/>
</g>
<g>
	<path fill="#FFFFFF" d="M-75.1,196.9v-1.2h5.4v1.2H-75.1z"/>
	<path fill="#FFFFFF" d="M-66.4,190c2.4-0.1,3.8-0.1,4.2-2.9h1.1v15.1h-1.4V191h-4L-66.4,190L-66.4,190z"/>
	<path fill="#FFFFFF" d="M-54.4,190c2.4-0.1,3.8-0.1,4.2-2.9h1.1v15.1h-1.4V191h-4L-54.4,190L-54.4,190z"/>
</g>
<g>
	<path fill="#FFFFFF" d="M-10.5,196.9v-1.2h5.4v1.2H-10.5z"/>
	<path fill="#FFFFFF" d="M-1.8,190c2.4-0.1,3.8-0.1,4.2-2.9h1.1v15.1H2.1V191h-4L-1.8,190L-1.8,190z"/>
	<path fill="#FFFFFF" d="M16.2,194L16.2,194c1.9,0.4,3.1,1.9,3.1,3.9c0,3-2.4,4.5-5.2,4.5s-5.2-1.5-5.2-4.5c0-2,1.2-3.5,3.1-3.9l0,0
		c-1.6-0.5-2.5-1.7-2.5-3.3c0-2.6,2.3-3.8,4.6-3.8c2.2,0,4.6,1.2,4.6,3.8C18.7,192.4,17.8,193.6,16.2,194z M17.9,197.9
		c0-2.2-1.8-3.3-3.8-3.3c-2.1,0-3.8,1.1-3.8,3.3c0,2.3,1.7,3.4,3.8,3.4S17.9,200.2,17.9,197.9z M17.3,190.7c0-1.7-1.4-2.6-3.2-2.6
		c-1.7,0-3.2,0.9-3.2,2.6c0,2,1.6,2.8,3.2,2.8C15.8,193.6,17.3,192.7,17.3,190.7z"/>
</g>
<g>
	<path fill="#FFFFFF" d="M45.2,196.9v-1.2h5.4v1.2H45.2z"/>
	<path fill="#FFFFFF" d="M62.6,202.2h-9.9c0.1-4.5,4.7-5.6,7.3-8.1c0.8-0.8,1.2-1.6,1.2-2.8c0-2-1.6-3.1-3.4-3.1
		c-2.5,0-3.4,2-3.4,4.2H53c-0.1-3.1,1.6-5.3,4.8-5.3c2.6,0,4.7,1.4,4.7,4.2c0,2.5-1.8,4.1-3.8,5.4c-1.5,1-4.2,2.3-4.5,4.4h8.4V202.2
		L62.6,202.2z"/>
	<path fill="#FFFFFF" d="M73.4,190.9c-0.2-1.7-1.4-2.8-3.1-2.8c-3.5,0-4.2,4-4.2,6.7l0,0c0.7-1.5,2.3-2.5,4-2.5c3,0,5,2.1,5,5
		c0,2.9-2.1,5.1-5.1,5.1c-3.7,0-5.3-2.1-5.3-8c0-1.8,0.5-7.5,5.4-7.5c2.6,0,4.3,1.3,4.6,3.9h-1.3V190.9z M66.4,197.5
		c0,2.1,1.1,3.9,3.8,3.9c2.2,0,3.6-1.8,3.6-3.9c0-2.2-1.3-4-3.6-4C67.8,193.5,66.4,195.2,66.4,197.5z"/>
</g>
<g>
	<path fill="#FFFFFF" d="M111.5,196.9v-1.2h5.4v1.2H111.5z"/>
	<path fill="#FFFFFF" d="M120.2,197.4c-0.1,2.4,1.3,4,3.8,4c2,0,3.9-1.2,3.9-3.3s-1.6-3.2-3.6-3.2h-1.1v-1.1h1.1
		c1.4,0,3.1-0.8,3.1-2.7c0-2-1.5-2.8-3.3-2.8c-2.3,0-3.5,1.6-3.4,3.8h-1.4c0-2.8,1.8-5,4.8-5c2.4,0,4.7,1.2,4.7,3.8
		c0,1.6-0.9,3-2.5,3.3l0,0c2,0.3,3.1,1.7,3.1,3.7c0,3-2.4,4.6-5.2,4.6c-3.1,0-5.4-1.9-5.1-5.1C119.1,197.4,120.2,197.4,120.2,197.4z
		"/>
	<path fill="#FFFFFF" d="M130.8,197.1l7-10h1.2v10.2h2.3v1.1H139v3.7h-1.2v-3.7h-7V197.1z M137.8,197.3v-8.2l0,0l-5.7,8.2H137.8z"/>
</g>
<g>
	<path fill="#FFFFFF" d="M-132.6,157.1v-1.2h5.4v1.2H-132.6z"/>
	<path fill="#FFFFFF" d="M-125.2,157.3l7-10h1.2v10.2h2.3v1.1h-2.3v3.7h-1.2v-3.7h-7V157.3z M-118.3,157.5v-8.2l0,0l-5.7,8.2H-118.3
		z"/>
</g>
<g>
	<path fill="#FFFFFF" d="M-75.1,157.1v-1.2h5.4v1.2H-75.1z"/>
	<path fill="#FFFFFF" d="M-66.4,150.2c2.4-0.1,3.8-0.1,4.2-2.9h1.1v15.1h-1.4v-11.2h-4L-66.4,150.2L-66.4,150.2z"/>
	<path fill="#FFFFFF" d="M-45.8,162.4h-9.9c0.1-4.5,4.7-5.6,7.3-8.1c0.8-0.8,1.2-1.6,1.2-2.8c0-2-1.6-3.1-3.4-3.1
		c-2.5,0-3.4,2-3.4,4.2h-1.4c-0.1-3.1,1.6-5.3,4.8-5.3c2.6,0,4.7,1.4,4.7,4.2c0,2.5-1.8,4.1-3.8,5.4c-1.5,1-4.2,2.3-4.5,4.4h8.4
		L-45.8,162.4L-45.8,162.4z"/>
</g>
<g>
	<path fill="#FFFFFF" d="M-10.5,157.1v-1.2h5.4v1.2H-10.5z"/>
	<path fill="#FFFFFF" d="M6.9,162.4H-3c0.1-4.5,4.7-5.6,7.3-8.1c0.8-0.8,1.2-1.6,1.2-2.8c0-2-1.6-3.1-3.4-3.1c-2.5,0-3.4,2-3.4,4.2
		h-1.4c-0.1-3.1,1.6-5.3,4.8-5.3c2.6,0,4.7,1.4,4.7,4.2c0,2.5-1.8,4.1-3.8,5.4c-1.5,1-4.2,2.3-4.5,4.4h8.4L6.9,162.4L6.9,162.4z"/>
	<path fill="#FFFFFF" d="M19.4,155c0,3.5-0.9,7.8-5.3,7.8s-5.3-4.2-5.3-7.8c0-3.5,0.9-7.8,5.3-7.8S19.4,151.4,19.4,155z M10.2,155
		c0,2.6,0.5,6.6,3.9,6.6s3.9-4,3.9-6.6c0-2.6-0.5-6.6-3.9-6.6S10.2,152.3,10.2,155z"/>
</g>
<g>
	<path fill="#FFFFFF" d="M45.2,157.1v-1.2h5.4v1.2H45.2z"/>
	<path fill="#FFFFFF" d="M62.6,162.4h-9.9c0.1-4.5,4.7-5.6,7.3-8.1c0.8-0.8,1.2-1.6,1.2-2.8c0-2-1.6-3.1-3.4-3.1
		c-2.5,0-3.4,2-3.4,4.2H53c-0.1-3.1,1.6-5.3,4.8-5.3c2.6,0,4.7,1.4,4.7,4.2c0,2.5-1.8,4.1-3.8,5.4c-1.5,1-4.2,2.3-4.5,4.4h8.4V162.4
		L62.6,162.4z"/>
	<path fill="#FFFFFF" d="M72,154.3L72,154.3c1.9,0.4,3.1,1.9,3.1,3.9c0,3-2.4,4.5-5.2,4.5c-2.8,0-5.2-1.5-5.2-4.5
		c0-2,1.2-3.5,3.1-3.9l0,0c-1.6-0.5-2.5-1.7-2.5-3.3c0-2.6,2.3-3.8,4.6-3.8c2.2,0,4.6,1.2,4.6,3.8C74.4,152.6,73.5,153.8,72,154.3z
		 M73.7,158.2c0-2.2-1.8-3.3-3.8-3.3c-2.1,0-3.8,1.1-3.8,3.3c0,2.3,1.7,3.4,3.8,3.4S73.7,160.5,73.7,158.2z M73.1,151
		c0-1.7-1.4-2.6-3.2-2.6c-1.7,0-3.2,0.9-3.2,2.6c0,2,1.6,2.8,3.2,2.8S73.1,152.9,73.1,151z"/>
</g>
<g>
	<path fill="#FFFFFF" d="M111.5,157.1v-1.2h5.4v1.2H111.5z"/>
	<path fill="#FFFFFF" d="M120.2,157.6c-0.1,2.4,1.3,4,3.8,4c2,0,3.9-1.2,3.9-3.3s-1.6-3.2-3.6-3.2h-1.1V154h1.1
		c1.4,0,3.1-0.8,3.1-2.7c0-2-1.5-2.8-3.3-2.8c-2.3,0-3.5,1.6-3.4,3.8h-1.4c0-2.8,1.8-5,4.8-5c2.4,0,4.7,1.2,4.7,3.8
		c0,1.6-0.9,3-2.5,3.3l0,0c2,0.3,3.1,1.7,3.1,3.7c0,3-2.4,4.6-5.2,4.6c-3.1,0-5.4-1.9-5.1-5.1H120.2z"/>
	<path fill="#FFFFFF" d="M139.7,151.1c-0.2-1.7-1.4-2.8-3.1-2.8c-3.5,0-4.2,4-4.2,6.7l0,0c0.7-1.5,2.3-2.5,4-2.5c3,0,5,2.1,5,5
		c0,2.9-2.1,5.1-5.1,5.1c-3.7,0-5.3-2.1-5.3-8c0-1.8,0.5-7.5,5.4-7.5c2.6,0,4.3,1.3,4.6,3.9L139.7,151.1L139.7,151.1z M132.7,157.7
		c0,2.1,1.1,3.9,3.8,3.9c2.2,0,3.6-1.8,3.6-3.9c0-2.2-1.3-4-3.6-4C134,153.7,132.7,155.5,132.7,157.7z"/>
</g>
<g>
	<path fill="#FFFFFF" d="M174.2,313.6v-1.2h5.4v1.2H174.2z"/>
	<path fill="#FFFFFF" d="M182.9,306.8c2.4-0.1,3.8-0.1,4.2-2.9h1.1V319h-1.4v-11.2h-4L182.9,306.8L182.9,306.8z"/>
	<path fill="#FFFFFF" d="M194.9,314.6c0.1,2.1,1.6,3.5,3.7,3.5c2.3,0,3.8-1.9,3.8-4.1s-1.6-3.9-3.9-3.9c-1.3,0-2.6,0.6-3.4,1.8H194
		l1.5-7.8h7.5v1.2h-6.6l-1,5l0,0c0.8-0.9,2-1.4,3.2-1.4c3.1,0,5.1,2.2,5.1,5.2s-2.3,5.1-5.2,5.1c-2.8,0-4.9-1.8-5-4.6H194.9z"/>
</g>
<g>
	<path fill="#FFFFFF" d="M234.9,313.6v-1.2h5.4v1.2H234.9z"/>
	<path fill="#FFFFFF" d="M252.3,318.9h-9.9c0.1-4.5,4.7-5.6,7.3-8.1c0.8-0.8,1.2-1.6,1.2-2.8c0-2-1.6-3.1-3.4-3.1
		c-2.5,0-3.4,2-3.4,4.2h-1.4c-0.1-3.1,1.6-5.3,4.8-5.3c2.6,0,4.7,1.4,4.7,4.2c0,2.5-1.8,4.1-3.8,5.4c-1.5,1-4.2,2.3-4.5,4.4h8.4
		L252.3,318.9L252.3,318.9z"/>
	<path fill="#FFFFFF" d="M264.8,311.5c0,3.5-0.9,7.8-5.3,7.8s-5.3-4.2-5.3-7.8c0-3.5,0.9-7.8,5.3-7.8S264.8,308,264.8,311.5z
		 M255.6,311.5c0,2.6,0.5,6.6,3.9,6.6s3.9-4,3.9-6.6s-0.5-6.6-3.9-6.6S255.6,308.9,255.6,311.5z"/>
</g>
<g>
	<path fill="#FFFFFF" d="M174.2,275v-1.2h5.4v1.2H174.2z"/>
	<path fill="#FFFFFF" d="M191.5,280.3h-9.9c0.1-4.5,4.7-5.6,7.3-8.1c0.8-0.8,1.2-1.6,1.2-2.8c0-2-1.6-3.1-3.4-3.1
		c-2.5,0-3.4,2-3.4,4.2H182c-0.1-3.1,1.6-5.3,4.8-5.3c2.6,0,4.7,1.4,4.7,4.2c0,2.5-1.8,4.1-3.8,5.4c-1.5,1-4.2,2.3-4.5,4.4h8.4v1.1
		L191.5,280.3L191.5,280.3z"/>
	<path fill="#FFFFFF" d="M202.3,269c-0.2-1.7-1.4-2.8-3.1-2.8c-3.5,0-4.2,4-4.2,6.7l0,0c0.7-1.5,2.3-2.5,4-2.5c3,0,5,2.1,5,5
		s-2.1,5.1-5.1,5.1c-3.7,0-5.3-2.1-5.3-8c0-1.8,0.5-7.5,5.4-7.5c2.6,0,4.3,1.3,4.6,3.9h-1.3V269z M195.3,275.6
		c0,2.1,1.1,3.9,3.8,3.9c2.2,0,3.6-1.8,3.6-3.9c0-2.2-1.3-4-3.6-4C196.7,271.6,195.3,273.4,195.3,275.6z"/>
</g>
<g>
	<path fill="#FFFFFF" d="M234.9,275v-1.2h5.4v1.2H234.9z"/>
	<path fill="#FFFFFF" d="M243.6,275.5c-0.1,2.4,1.3,4,3.8,4c2,0,3.9-1.2,3.9-3.3s-1.6-3.2-3.6-3.2h-1.1v-1.1h1.1
		c1.4,0,3.1-0.8,3.1-2.7c0-2-1.5-2.8-3.3-2.8c-2.3,0-3.5,1.6-3.4,3.8h-1.4c0-2.8,1.8-5,4.8-5c2.4,0,4.7,1.2,4.7,3.8
		c0,1.6-0.9,3-2.5,3.3l0,0c2,0.3,3.1,1.7,3.1,3.7c0,3-2.4,4.6-5.2,4.6c-3.1,0-5.4-1.9-5.1-5.1H243.6z"/>
	<path fill="#FFFFFF" d="M264.3,280.3h-9.9c0.1-4.5,4.7-5.6,7.3-8.1c0.8-0.8,1.2-1.6,1.2-2.8c0-2-1.6-3.1-3.4-3.1
		c-2.5,0-3.4,2-3.4,4.2h-1.4c-0.1-3.1,1.6-5.3,4.8-5.3c2.6,0,4.7,1.4,4.7,4.2c0,2.5-1.8,4.1-3.8,5.4c-1.5,1-4.2,2.3-4.5,4.4h8.4
		L264.3,280.3L264.3,280.3z"/>
</g>
<g>
	<path fill="#FFFFFF" d="M174.2,236.3v-1.2h5.4v1.2H174.2z"/>
	<path fill="#FFFFFF" d="M182.9,236.8c-0.1,2.4,1.3,4,3.8,4c2,0,3.9-1.2,3.9-3.3s-1.6-3.2-3.6-3.2h-1.1v-1.1h1.1
		c1.4,0,3.1-0.8,3.1-2.7c0-2-1.5-2.8-3.3-2.8c-2.3,0-3.5,1.6-3.4,3.8H182c0-2.8,1.8-5,4.8-5c2.4,0,4.7,1.2,4.7,3.8
		c0,1.6-0.9,3-2.5,3.3l0,0c2,0.3,3.1,1.7,3.1,3.7c0,3-2.4,4.6-5.2,4.6c-3.1,0-5.4-1.9-5.1-5.1H182.9z"/>
	<path fill="#FFFFFF" d="M202.3,230.4c-0.2-1.7-1.4-2.8-3.1-2.8c-3.5,0-4.2,4-4.2,6.7l0,0c0.7-1.5,2.3-2.5,4-2.5c3,0,5,2.1,5,5
		s-2.1,5.1-5.1,5.1c-3.7,0-5.3-2.1-5.3-8c0-1.8,0.5-7.5,5.4-7.5c2.6,0,4.3,1.3,4.6,3.9L202.3,230.4L202.3,230.4z M195.3,236.9
		c0,2.1,1.1,3.9,3.8,3.9c2.2,0,3.6-1.8,3.6-3.9c0-2.2-1.3-4-3.6-4C196.7,233,195.3,234.7,195.3,236.9z"/>
</g>
<g>
	<path fill="#FFFFFF" d="M234.9,236.3v-1.2h5.4v1.2H234.9z"/>
	<path fill="#FFFFFF" d="M242.2,236.6l7-10h1.2v10.2h2.3v1.1h-2.3v3.7h-1.2v-3.7h-7V236.6z M249.2,236.8v-8.2l0,0l-5.7,8.2H249.2z"
		/>
	<path fill="#FFFFFF" d="M255.6,236.8c-0.1,2.4,1.3,4,3.8,4c2,0,3.9-1.2,3.9-3.3s-1.6-3.2-3.6-3.2h-1.1v-1.1h1.1
		c1.4,0,3.1-0.8,3.1-2.7c0-2-1.5-2.8-3.3-2.8c-2.3,0-3.5,1.6-3.4,3.8h-1.4c0-2.8,1.8-5,4.8-5c2.4,0,4.7,1.2,4.7,3.8
		c0,1.6-0.9,3-2.5,3.3l0,0c2,0.3,3.1,1.7,3.1,3.7c0,3-2.4,4.6-5.2,4.6c-3.1,0-5.4-1.9-5.1-5.1H255.6z"/>
</g>
<g>
	<path fill="#FFFFFF" d="M174.2,196.9v-1.2h5.4v1.2H174.2z"/>
	<path fill="#FFFFFF" d="M181.5,197.1l7-10h1.2v10.2h2.3v1.1h-2.3v3.7h-1.2v-3.7h-7V197.1z M188.4,197.3v-8.2l0,0l-5.7,8.2H188.4z"
		/>
	<path fill="#FFFFFF" d="M203.5,202.2h-9.9c0.1-4.5,4.7-5.6,7.3-8.1c0.8-0.8,1.2-1.6,1.2-2.8c0-2-1.6-3.1-3.4-3.1
		c-2.5,0-3.4,2-3.4,4.2H194c-0.1-3.1,1.6-5.3,4.8-5.3c2.6,0,4.7,1.4,4.7,4.2c0,2.5-1.8,4.1-3.8,5.4c-1.5,1-4.2,2.3-4.5,4.4h8.4v1.1
		C203.6,202.2,203.5,202.2,203.5,202.2z"/>
</g>
<g>
	<path fill="#FFFFFF" d="M234.9,196.9v-1.2h5.4v1.2H234.9z"/>
	<path fill="#FFFFFF" d="M242.2,197.1l7-10h1.2v10.2h2.3v1.1h-2.3v3.7h-1.2v-3.7h-7V197.1z M249.2,197.3v-8.2l0,0l-5.7,8.2H249.2z"
		/>
	<path fill="#FFFFFF" d="M256,198.5c0.2,1.7,1.4,2.8,3.1,2.8c3.5,0,4.2-4,4.2-6.7l0,0c-0.7,1.5-2.3,2.5-4,2.5c-3,0-5-2.1-5-5
		c0-2.9,2.1-5.1,5.1-5.1c3.7,0,5.3,2.1,5.3,8c0,1.8-0.5,7.5-5.4,7.5c-2.6,0-4.3-1.3-4.6-3.9h1.3V198.5z M263,192
		c0-2.1-1.1-3.9-3.8-3.9c-2.2,0-3.6,1.8-3.6,3.9c0,2.2,1.3,4,3.6,4C261.7,196,263,194.2,263,192z"/>
</g>
<g>
	<path fill="#FFFFFF" d="M174.2,157.1v-1.2h5.4v1.2H174.2z"/>
	<path fill="#FFFFFF" d="M181.5,157.3l7-10h1.2v10.2h2.3v1.1h-2.3v3.7h-1.2v-3.7h-7V157.3z M188.4,157.5v-8.2l0,0l-5.7,8.2H188.4z"
		/>
	<path fill="#FFFFFF" d="M193.5,157.3l7-10h1.2v10.2h2.3v1.1h-2.3v3.7h-1.2v-3.7h-7V157.3z M200.4,157.5v-8.2l0,0l-5.7,8.2H200.4z"
		/>
</g>
<g>
	<path fill="#FFFFFF" d="M234.9,157.1v-1.2h5.4v1.2H234.9z"/>
	<path fill="#FFFFFF" d="M243.7,158.1c0.1,2.1,1.6,3.5,3.7,3.5c2.3,0,3.8-1.9,3.8-4.1s-1.6-3.9-3.9-3.9c-1.3,0-2.6,0.6-3.4,1.8h-1.2
		l1.5-7.8h7.5v1.2h-6.6l-1,5l0,0c0.8-0.9,2-1.4,3.2-1.4c3.1,0,5.1,2.2,5.1,5.2s-2.3,5.1-5.2,5.1c-2.8,0-4.9-1.8-5-4.6H243.7z"/>
	<path fill="#FFFFFF" d="M264.3,162.4h-9.9c0.1-4.5,4.7-5.6,7.3-8.1c0.8-0.8,1.2-1.6,1.2-2.8c0-2-1.6-3.1-3.4-3.1
		c-2.5,0-3.4,2-3.4,4.2h-1.4c-0.1-3.1,1.6-5.3,4.8-5.3c2.6,0,4.7,1.4,4.7,4.2c0,2.5-1.8,4.1-3.8,5.4c-1.5,1-4.2,2.3-4.5,4.4h8.4
		L264.3,162.4L264.3,162.4z"/>
</g>
<g>
	<rect x="137.1" y="350.5" width="91.2" height="0.6"/>
	<polygon points="224.5,354.8 224.1,354.4 228,350.8 224.1,347.2 224.5,346.8 228.8,350.8 	"/>
</g>
<g>
	<rect x="-96.3" y="350.5" width="91.1" height="0.6"/>
	<polygon points="-92.4,354.8 -96.7,350.8 -92.4,346.8 -92,347.2 -95.9,350.8 -92,354.4 	"/>
</g>
<g>
	<g>
		<path d="M-178.3,305.6c-0.2-1.1-1.1-1.6-2.1-1.6c-1.8,0-2.6,1.5-2.6,3.1c0,1.7,0.8,3.2,2.6,3.2c1.3,0,2.1-0.9,2.2-2.2h1
			c-0.2,1.9-1.4,3-3.3,3c-2.4,0-3.5-1.7-3.5-3.9c0-2.2,1.2-4,3.6-4c1.6,0,2.9,0.8,3.1,2.5h-1V305.6z"/>
		<path d="M-171.3,310.9c-0.2,0.1-0.4,0.1-0.6,0.1c-0.5,0-0.8-0.3-0.8-0.8c-0.5,0.6-1.2,0.8-1.9,0.8c-1,0-1.8-0.4-1.8-1.5
			c0-1.2,0.9-1.5,1.9-1.7c1-0.2,1.8-0.1,1.8-0.8c0-0.8-0.6-0.9-1.2-0.9c-0.8,0-1.3,0.2-1.4,1h-0.9c0.1-1.4,1.1-1.8,2.3-1.8
			c1,0,2.1,0.2,2.1,1.5v2.8c0,0.4,0,0.6,0.3,0.6c0.1,0,0.2,0,0.3-0.1L-171.3,310.9L-171.3,310.9L-171.3,310.9z M-172.8,308.1
			c-0.3,0.3-1,0.3-1.6,0.4c-0.6,0.1-1.1,0.3-1.1,1c0,0.6,0.5,0.8,1.1,0.8c1.2,0,1.7-0.7,1.7-1.2L-172.8,308.1L-172.8,308.1z"/>
		<path d="M-170.4,303.3h0.9v7.6h-0.9V303.3z"/>
		<path d="M-168.1,305.4h0.8v0.8l0,0c0.4-0.6,1-0.9,1.8-0.9c0.7,0,1.3,0.3,1.5,0.9c0.4-0.6,1-0.9,1.7-0.9c1.1,0,1.8,0.5,1.8,1.6v4
			h-0.9v-3.6c0-0.7-0.2-1.2-1.1-1.2c-0.9,0-1.4,0.6-1.4,1.4v3.4h-0.9v-3.6c0-0.7-0.2-1.2-1-1.2c-1.1,0-1.5,1-1.5,1.4v3.4h-0.9
			L-168.1,305.4L-168.1,305.4z"/>
		<path d="M-183.5,314.5c2.4,0,2.5,2.2,2.5,3.8c0,1.7-0.1,3.8-2.5,3.8c-2.4,0-2.5-2.2-2.5-3.8S-185.9,314.5-183.5,314.5z
			 M-183.5,321.4c1.5,0,1.5-1.9,1.5-3s0-3-1.5-3s-1.5,1.9-1.5,3C-185.1,319.5-185.1,321.4-183.5,321.4z"/>
		<path d="M-177,316.6h0.8v0.8l0,0c0.4-0.6,1-0.9,1.8-0.9c0.7,0,1.3,0.3,1.5,0.9c0.4-0.6,1-0.9,1.7-0.9c1.1,0,1.8,0.5,1.8,1.6v4
			h-0.9v-3.6c0-0.7-0.2-1.2-1.1-1.2s-1.4,0.6-1.4,1.4v3.4h-0.9v-3.6c0-0.7-0.2-1.2-1-1.2c-1.1,0-1.5,1-1.5,1.4v3.4h-0.8V316.6z"/>
		<path d="M-165.7,314.3h0.8l-3.1,7.9h-0.8L-165.7,314.3z"/>
		<path d="M-163.9,320.3c0,0.8,0.7,1.1,1.5,1.1c0.6,0,1.3-0.1,1.3-0.8c0-0.7-0.9-0.8-1.8-1c-0.9-0.2-1.8-0.5-1.8-1.5
			c0-1.1,1.1-1.6,2-1.6c1.2,0,2.2,0.4,2.2,1.7h-0.9c-0.1-0.7-0.7-0.9-1.3-0.9c-0.5,0-1.2,0.1-1.2,0.7s1,0.8,1.8,1
			c0.9,0.2,1.8,0.5,1.8,1.6c0,1.3-1.2,1.7-2.3,1.7c-1.2,0-2.3-0.5-2.3-1.9h1V320.3z"/>
	</g>
	<g>
		<path d="M-217.2,263.8h1v6.7h4v0.8h-5C-217.2,271.3-217.2,263.8-217.2,263.8z"/>
		<path d="M-210.5,264.9h-0.9v-1.1h0.9V264.9z M-211.4,265.9h0.9v5.5h-0.9V265.9z"/>
		<path d="M-204.4,270.9c0,1.8-0.8,2.7-2.5,2.7c-1,0-2.2-0.4-2.3-1.6h0.9c0,0.7,0.8,0.9,1.4,0.9c1.2,0,1.6-0.8,1.6-2.1v-0.4l0,0
			c-0.3,0.7-1,1-1.7,1c-1.6,0-2.4-1.3-2.4-2.8c0-1.3,0.6-2.9,2.5-2.9c0.7,0,1.3,0.3,1.6,0.9l0,0v-0.8h0.8L-204.4,270.9L-204.4,270.9
			z M-205.3,268.5c0-1-0.4-2-1.6-2s-1.6,0.9-1.6,2c0,1,0.4,2.1,1.5,2.1C-205.9,270.6-205.3,269.5-205.3,268.5z"/>
		<path d="M-203,263.8h0.9v2.9l0,0c0.3-0.7,1.1-0.9,1.7-0.9c1.4,0,1.9,0.8,1.9,2v3.6h-0.9v-3.7c0-0.7-0.4-1.1-1.1-1.1
			c-1.1,0-1.6,0.7-1.6,1.7v3.1h-0.9V263.8z"/>
		<path d="M-195.9,265.9h1.1v0.8h-1.1v3.4c0,0.4,0.1,0.5,0.7,0.5h0.4v0.8h-0.7c-0.9,0-1.3-0.2-1.3-1.2v-3.5h-0.9v-0.8h0.9v-1.7h0.9
			V265.9z"/>
		<path d="M-190.8,263.8h0.9v2.8l0,0c0.3-0.6,1-0.9,1.7-0.9c1.7,0,2.5,1.3,2.5,2.9c0,1.5-0.8,2.8-2.5,2.8c-0.6,0-1.4-0.2-1.8-0.9
			l0,0v0.7h-0.9L-190.8,263.8L-190.8,263.8L-190.8,263.8z M-188.3,266.6c-1.2,0-1.7,1-1.7,2.1s0.5,2.1,1.7,2.1s1.6-1,1.6-2.1
			C-186.6,267.5-187.1,266.6-188.3,266.6z"/>
		<path d="M-184.6,265.9h0.8v1.2l0,0c0.4-0.9,1-1.3,2-1.3v1c-1.5,0-2,0.8-2,2.2v2.4h-0.9L-184.6,265.9L-184.6,265.9z"/>
		<path d="M-176.6,269.6c-0.2,1.2-1.1,1.9-2.3,1.9c-1.7,0-2.6-1.2-2.6-2.9c0-1.6,1.1-2.8,2.6-2.8c1.9,0,2.5,1.8,2.5,3.1h-4.1
			c0,1,0.5,1.8,1.7,1.8c0.7,0,1.3-0.4,1.4-1.1H-176.6z M-177.4,268.1c0-0.9-0.7-1.5-1.6-1.5c-0.9,0-1.5,0.7-1.6,1.5H-177.4z"/>
		<path d="M-170.9,269.6c-0.2,1.2-1.1,1.9-2.3,1.9c-1.7,0-2.6-1.2-2.6-2.9c0-1.6,1.1-2.8,2.6-2.8c1.9,0,2.5,1.8,2.5,3.1h-4.1
			c0,1,0.5,1.8,1.7,1.8c0.7,0,1.3-0.4,1.4-1.1H-170.9z M-171.8,268.1c0-0.9-0.7-1.5-1.6-1.5c-0.9,0-1.5,0.7-1.6,1.5H-171.8z"/>
		<path d="M-170.3,270.7l3.3-4h-3.1v-0.8h4.3v0.6l-3.3,4.1h3.5v0.8h-4.6v-0.7L-170.3,270.7L-170.3,270.7z"/>
		<path d="M-160.1,269.6c-0.2,1.2-1.1,1.9-2.3,1.9c-1.7,0-2.6-1.2-2.6-2.9c0-1.6,1.1-2.8,2.6-2.8c1.9,0,2.5,1.8,2.5,3.1h-4.1
			c0,1,0.5,1.8,1.7,1.8c0.7,0,1.3-0.4,1.4-1.1H-160.1z M-161,268.1c0-0.9-0.7-1.5-1.6-1.5s-1.5,0.7-1.6,1.5H-161z"/>
		<path d="M-195.3,278.2c0.1,0,0.3,0,0.4,0c0.8,0,1.4-0.4,1.4-1.2c0-0.8-0.6-1.2-1.3-1.2c-1,0-1.4,0.8-1.4,1.6h-0.9
			c0.1-1.4,0.8-2.4,2.3-2.4c1.3,0,2.3,0.6,2.3,2c0,0.7-0.5,1.2-1,1.5l0,0c0.9,0.2,1.4,0.9,1.4,1.8c0,1.5-1.2,2.3-2.6,2.3
			c-1.5,0-2.5-0.9-2.5-2.4h0.9c0,1,0.6,1.7,1.6,1.7c0.9,0,1.6-0.5,1.6-1.5c0-0.9-0.7-1.4-1.6-1.4c-0.2,0-0.4,0-0.5,0L-195.3,278.2
			L-195.3,278.2L-195.3,278.2z"/>
		<path d="M-191.8,279.1h5.3v0.8h-5.3V279.1z"/>
		<path d="M-181.5,275.9h-3l-0.4,2.2l0,0c0.3-0.4,0.9-0.5,1.4-0.5c1.3,0,2.4,0.9,2.4,2.6c0,1.3-0.9,2.5-2.6,2.5
			c-1.3,0-2.4-0.8-2.4-2.1h0.9c0.1,0.8,0.7,1.4,1.6,1.4s1.6-0.6,1.6-1.8c0-1-0.7-1.7-1.7-1.7c-0.6,0-1,0.3-1.4,0.7h-0.8l0.7-3.9h3.7
			C-181.5,275.3-181.5,275.9-181.5,275.9z"/>
		<path d="M-177,277h0.8v0.8l0,0c0.4-0.6,1-0.9,1.8-0.9c0.7,0,1.3,0.3,1.5,0.9c0.4-0.6,1-0.9,1.7-0.9c1.1,0,1.8,0.5,1.8,1.6v4h-0.9
			v-3.6c0-0.7-0.2-1.2-1.1-1.2s-1.4,0.6-1.4,1.4v3.4h-0.9v-3.6c0-0.7-0.2-1.2-1-1.2c-1.1,0-1.5,1-1.5,1.4v3.4h-0.8V277z"/>
		<path d="M-165.7,274.8h0.8l-3.1,7.9h-0.8L-165.7,274.8z"/>
		<path d="M-163.9,280.8c0,0.8,0.7,1.1,1.5,1.1c0.6,0,1.3-0.1,1.3-0.8c0-0.7-0.9-0.8-1.8-1c-0.9-0.2-1.8-0.5-1.8-1.5
			c0-1.1,1.1-1.6,2-1.6c1.2,0,2.2,0.4,2.2,1.7h-0.9c-0.1-0.7-0.7-0.9-1.3-0.9c-0.5,0-1.2,0.1-1.2,0.7s1,0.8,1.8,1
			c0.9,0.2,1.8,0.5,1.8,1.6c0,1.3-1.2,1.7-2.3,1.7c-1.2,0-2.3-0.5-2.3-1.9h1V280.8z"/>
	</g>
	<g>
		<path d="M-218.3,226.5c-0.1-1.1-0.8-1.5-1.9-1.5c-0.8,0-1.7,0.3-1.7,1.3c0,0.9,1.2,1.1,2.4,1.3c1.2,0.3,2.4,0.7,2.4,2.2
			c0,1.6-1.6,2.3-3,2.3c-1.7,0-3.1-0.8-3.1-2.7h1c0,1.3,1.1,1.8,2.2,1.8c0.9,0,1.9-0.3,1.9-1.4c0-1-1.2-1.2-2.4-1.5
			c-1.2-0.3-2.4-0.6-2.4-2c0-1.5,1.4-2.2,2.7-2.2c1.5,0,2.7,0.7,2.8,2.4L-218.3,226.5L-218.3,226.5z"/>
		<path d="M-214.9,226.3h1.1v0.8h-1.1v3.4c0,0.4,0.1,0.5,0.7,0.5h0.4v0.8h-0.7c-0.9,0-1.3-0.2-1.3-1.2v-3.5h-0.9v-0.8h0.9v-1.6h0.9
			V226.3z"/>
		<path d="M-213.1,226.3h0.8v1.2l0,0c0.4-0.9,1-1.3,2-1.3v1c-1.5,0-2,0.8-2,2.2v2.4h-0.9L-213.1,226.3L-213.1,226.3z"/>
		<path d="M-207.6,226.2c1.7,0,2.7,1.3,2.7,2.9c0,1.6-0.9,2.9-2.7,2.9c-1.7,0-2.7-1.3-2.7-2.9C-210.2,227.5-209.3,226.2-207.6,226.2
			z M-207.6,231.1c0.9,0,1.7-0.7,1.7-2.1c0-1.3-0.8-2.1-1.7-2.1s-1.7,0.7-1.7,2.1C-209.3,230.4-208.5,231.1-207.6,231.1z"/>
		<path d="M-204.1,226.3h0.8v0.9l0,0c0.4-0.7,1-1,1.8-1c1.4,0,1.9,0.8,1.9,2v3.6h-0.9v-3.7c0-0.7-0.4-1.1-1.1-1.1
			c-1.1,0-1.6,0.7-1.6,1.7v3.1h-0.9C-204.1,231.8-204.1,226.3-204.1,226.3z"/>
		<path d="M-193.7,231.3c0,1.8-0.8,2.7-2.5,2.7c-1,0-2.2-0.4-2.3-1.6h0.9c0,0.7,0.8,0.9,1.4,0.9c1.2,0,1.6-0.8,1.6-2.1v-0.4l0,0
			c-0.3,0.7-1,1-1.7,1c-1.6,0-2.4-1.3-2.4-2.8c0-1.3,0.6-2.9,2.5-2.9c0.7,0,1.3,0.3,1.6,0.9l0,0v-0.8h0.8L-193.7,231.3L-193.7,231.3
			z M-194.6,229c0-1-0.4-2-1.6-2c-1.2,0-1.6,0.9-1.6,2c0,1,0.4,2.1,1.5,2.1C-195.2,231.1-194.6,230-194.6,229z"/>
		<path d="M-189.8,224.3h0.9v2.8l0,0c0.3-0.6,1-0.9,1.7-0.9c1.7,0,2.5,1.3,2.5,2.9c0,1.5-0.8,2.8-2.5,2.8c-0.6,0-1.4-0.2-1.8-0.9
			l0,0v0.7h-0.9v-7.4C-189.9,224.3-189.8,224.3-189.8,224.3z M-187.2,227c-1.2,0-1.7,1-1.7,2.1c0,1.1,0.5,2.1,1.7,2.1
			c1.2,0,1.6-1,1.6-2.1C-185.5,228-186.1,227-187.2,227z"/>
		<path d="M-183.8,226.3h0.8v1.2l0,0c0.4-0.9,1-1.3,2-1.3v1c-1.5,0-2,0.8-2,2.2v2.4h-0.9L-183.8,226.3L-183.8,226.3z"/>
		<path d="M-175.9,230.1c-0.2,1.2-1.1,1.9-2.3,1.9c-1.7,0-2.6-1.2-2.6-2.9c0-1.6,1.1-2.8,2.6-2.8c1.9,0,2.5,1.8,2.5,3.1h-4.1
			c0,1,0.5,1.8,1.7,1.8c0.7,0,1.3-0.4,1.4-1.1H-175.9z M-176.8,228.6c0-0.9-0.7-1.5-1.6-1.5c-0.9,0-1.5,0.7-1.6,1.5H-176.8z"/>
		<path d="M-170.5,230.1c-0.2,1.2-1.1,1.9-2.3,1.9c-1.7,0-2.6-1.2-2.6-2.9c0-1.6,1.1-2.8,2.6-2.8c1.9,0,2.5,1.8,2.5,3.1h-4.1
			c0,1,0.5,1.8,1.7,1.8c0.7,0,1.3-0.4,1.4-1.1H-170.5z M-171.3,228.6c0-0.9-0.7-1.5-1.6-1.5c-0.9,0-1.5,0.7-1.6,1.5H-171.3z"/>
		<path d="M-170.1,231.1l3.3-4h-3.1v-0.8h4.3v0.6l-3.3,4.1h3.5v0.8h-4.6v-0.7C-170,231.1-170.1,231.1-170.1,231.1z"/>
		<path d="M-160.1,230.1c-0.2,1.2-1.1,1.9-2.3,1.9c-1.7,0-2.6-1.2-2.6-2.9c0-1.6,1.1-2.8,2.6-2.8c1.9,0,2.5,1.8,2.5,3.1h-4.1
			c0,1,0.5,1.8,1.7,1.8c0.7,0,1.3-0.4,1.4-1.1H-160.1z M-161,228.6c0-0.9-0.7-1.5-1.6-1.5s-1.5,0.7-1.6,1.5H-161z"/>
		<path d="M-200.6,235.4c1.6,0,2.3,1,2.3,1.9c0,0.7-0.4,1.3-1,1.6c0.9,0.3,1.3,0.9,1.3,1.9c0,1.5-1.1,2.3-2.5,2.3
			c-1.4,0-2.6-0.8-2.6-2.3c0-0.9,0.5-1.6,1.3-1.9c-0.6-0.3-1-0.9-1-1.6C-202.8,236.1-201.8,235.4-200.6,235.4z M-200.5,242.3
			c0.9,0,1.5-0.6,1.5-1.5c0-0.8-0.7-1.4-1.5-1.4c-0.9,0-1.6,0.6-1.6,1.4C-202.1,241.7-201.5,242.3-200.5,242.3z M-200.5,238.6
			c0.7,0,1.2-0.4,1.2-1.2s-0.5-1.2-1.3-1.2c-0.7,0-1.3,0.4-1.3,1.2C-201.9,238.2-201.3,238.6-200.5,238.6z"/>
		<path d="M-197.6,239.6h5.3v0.8h-5.3C-197.6,240.4-197.6,239.6-197.6,239.6z"/>
		<path d="M-188.6,243h-0.9v-5.4h-1.9v-0.7c1,0,2-0.3,2.2-1.4h0.7L-188.6,243L-188.6,243z"/>
		<path d="M-182.7,243h-0.9v-5.4h-1.9v-0.7c1,0,2-0.3,2.2-1.4h0.7L-182.7,243L-182.7,243z"/>
		<path d="M-177,237.5h0.8v0.8l0,0c0.4-0.6,1-0.9,1.8-0.9c0.7,0,1.3,0.3,1.5,0.9c0.4-0.6,1-0.9,1.7-0.9c1.1,0,1.8,0.5,1.8,1.6v4
			h-0.9v-3.6c0-0.7-0.2-1.2-1.1-1.2s-1.4,0.6-1.4,1.4v3.4h-0.9v-3.6c0-0.7-0.2-1.2-1-1.2c-1.1,0-1.5,1-1.5,1.4v3.4h-0.8V237.5z"/>
		<path d="M-165.7,235.2h0.8l-3.1,7.9h-0.8L-165.7,235.2z"/>
		<path d="M-163.9,241.2c0,0.8,0.7,1.1,1.5,1.1c0.6,0,1.3-0.1,1.3-0.8s-0.9-0.8-1.8-1s-1.8-0.5-1.8-1.5c0-1.1,1.1-1.6,2-1.6
			c1.2,0,2.2,0.4,2.2,1.7h-0.9c-0.1-0.7-0.7-0.9-1.3-0.9c-0.5,0-1.2,0.1-1.2,0.7c0,0.6,1,0.8,1.8,1c0.9,0.2,1.8,0.5,1.8,1.6
			c0,1.3-1.2,1.7-2.3,1.7c-1.2,0-2.3-0.5-2.3-1.9h1V241.2z"/>
	</g>
	<g>
		<path d="M-211.6,186.9c-0.1-1.1-0.8-1.5-1.9-1.5c-0.8,0-1.7,0.3-1.7,1.3c0,0.9,1.2,1.1,2.4,1.3c1.2,0.3,2.4,0.7,2.4,2.2
			c0,1.6-1.6,2.3-3,2.3c-1.7,0-3.1-0.8-3.1-2.7h1c0,1.3,1.1,1.8,2.2,1.8c0.9,0,1.9-0.3,1.9-1.4c0-1-1.2-1.2-2.4-1.5s-2.4-0.6-2.4-2
			c0-1.5,1.4-2.2,2.7-2.2c1.5,0,2.7,0.7,2.8,2.4L-211.6,186.9L-211.6,186.9z"/>
		<path d="M-208,186.8h1.1v0.8h-1.1v3.4c0,0.4,0.1,0.5,0.7,0.5h0.4v0.8h-0.7c-0.9,0-1.3-0.2-1.3-1.2v-3.5h-0.9v-0.8h0.9v-1.6h0.9
			V186.8z"/>
		<path d="M-206,186.8h0.8v1.2l0,0c0.4-0.9,1-1.3,2-1.3v1c-1.5,0-2,0.8-2,2.2v2.4h-0.8V186.8z"/>
		<path d="M-200.3,186.7c1.7,0,2.7,1.3,2.7,2.9c0,1.6-0.9,2.9-2.7,2.9c-1.7,0-2.7-1.3-2.7-2.9C-202.9,187.9-202,186.7-200.3,186.7z
			 M-200.3,191.6c0.9,0,1.7-0.7,1.7-2.1c0-1.3-0.8-2.1-1.7-2.1c-0.9,0-1.7,0.7-1.7,2.1C-202,190.9-201.2,191.6-200.3,191.6z"/>
		<path d="M-196.5,186.8h0.8v0.9l0,0c0.4-0.7,1-1,1.8-1c1.4,0,1.9,0.8,1.9,2v3.6h-0.9v-3.7c0-0.7-0.4-1.1-1.1-1.1
			c-1.1,0-1.6,0.7-1.6,1.7v3.1h-0.9C-196.5,192.3-196.5,186.8-196.5,186.8z"/>
		<path d="M-185.9,191.8c0,1.8-0.8,2.7-2.5,2.7c-1,0-2.2-0.4-2.3-1.6h0.9c0,0.7,0.8,0.9,1.4,0.9c1.2,0,1.6-0.8,1.6-2.1v-0.4l0,0
			c-0.3,0.7-1,1-1.7,1c-1.6,0-2.4-1.3-2.4-2.8c0-1.3,0.6-2.9,2.5-2.9c0.7,0,1.3,0.3,1.6,0.9l0,0v-0.8h0.8L-185.9,191.8L-185.9,191.8
			z M-186.8,189.4c0-1-0.4-2-1.6-2s-1.6,0.9-1.6,2c0,1,0.4,2.1,1.5,2.1C-187.4,191.5-186.8,190.4-186.8,189.4z"/>
		<path d="M-176.2,192.3h-1l-1.1-4.4l0,0l-1.1,4.4h-1l-1.8-5.5h1l1.2,4.5l0,0l1.1-4.5h1l1.1,4.5l0,0l1.2-4.5h0.9L-176.2,192.3z"/>
		<path d="M-172.7,185.8h-0.9v-1.1h0.9V185.8z M-173.6,186.8h0.9v5.5h-0.9V186.8z"/>
		<path d="M-171.3,186.8h0.8v0.9l0,0c0.4-0.7,1-1,1.8-1c1.4,0,1.9,0.8,1.9,2v3.6h-0.9v-3.7c0-0.7-0.4-1.1-1.1-1.1
			c-1.1,0-1.6,0.7-1.6,1.7v3.1h-0.9V186.8z"/>
		<path d="M-160.5,192.3h-0.9v-0.7l0,0c-0.3,0.6-1,0.9-1.7,0.9c-1.7,0-2.5-1.3-2.5-2.9c0-1.5,0.8-2.8,2.5-2.8c0.6,0,1.4,0.2,1.8,0.9
			l0,0v-2.8h0.9L-160.5,192.3L-160.5,192.3z M-163,191.6c1.2,0,1.7-1,1.7-2.1c0-1.1-0.5-2.1-1.7-2.1c-1.2,0-1.6,1-1.6,2.1
			C-164.7,190.6-164.2,191.6-163,191.6z"/>
		<path d="M-205.6,203.4h-0.9V198h-1.9v-0.7c1,0,2-0.3,2.2-1.4h0.7L-205.6,203.4L-205.6,203.4z"/>
		<path d="M-199.1,200.9h1v0.8h-1v1.8h-0.8v-1.8h-3.3v-0.9l3.4-4.9h0.7C-199.1,195.9-199.1,200.9-199.1,200.9z M-199.9,200.9v-3.7
			l0,0l-2.5,3.7H-199.9z"/>
		<path d="M-197.6,200h5.3v0.8h-5.3C-197.6,200.8-197.6,200-197.6,200z"/>
		<path d="M-188.6,203.4h-0.9V198h-1.9v-0.7c1,0,2-0.3,2.2-1.4h0.7L-188.6,203.4L-188.6,203.4z"/>
		<path d="M-181.1,196.8c-1.5,1.5-2.7,4.3-2.9,6.6h-1c0.2-2.5,1.4-4.9,3-6.5h-3.9v-0.8h4.9L-181.1,196.8L-181.1,196.8z"/>
		<path d="M-177,197.9h0.8v0.8l0,0c0.4-0.6,1-0.9,1.8-0.9c0.7,0,1.3,0.3,1.5,0.9c0.4-0.6,1-0.9,1.7-0.9c1.1,0,1.8,0.5,1.8,1.6v4
			h-0.9v-3.6c0-0.7-0.2-1.2-1.1-1.2s-1.4,0.6-1.4,1.4v3.4h-0.9v-3.6c0-0.7-0.2-1.2-1-1.2c-1.1,0-1.5,1-1.5,1.4v3.4h-0.8V197.9z"/>
		<path d="M-165.7,195.7h0.8l-3.1,7.9h-0.8L-165.7,195.7z"/>
		<path d="M-163.9,201.7c0,0.8,0.7,1.1,1.5,1.1c0.6,0,1.3-0.1,1.3-0.8s-0.9-0.8-1.8-1s-1.8-0.5-1.8-1.5c0-1.1,1.1-1.6,2-1.6
			c1.2,0,2.2,0.4,2.2,1.7h-0.9c-0.1-0.7-0.7-0.9-1.3-0.9c-0.5,0-1.2,0.1-1.2,0.7c0,0.6,1,0.8,1.8,1c0.9,0.2,1.8,0.5,1.8,1.6
			c0,1.3-1.2,1.7-2.3,1.7c-1.2,0-2.3-0.5-2.3-1.9L-163.9,201.7L-163.9,201.7z"/>
	</g>
	<g>
		<path d="M-208.9,147.4c-0.1-1.1-0.8-1.5-1.9-1.5c-0.8,0-1.7,0.3-1.7,1.3c0,0.9,1.2,1.1,2.4,1.3c1.2,0.3,2.4,0.7,2.4,2.2
			c0,1.6-1.6,2.3-3,2.3c-1.7,0-3.1-0.8-3.1-2.7h1c0,1.3,1.1,1.8,2.2,1.8c0.9,0,1.9-0.3,1.9-1.4c0-1-1.2-1.2-2.4-1.5
			c-1.2-0.3-2.4-0.6-2.4-2c0-1.5,1.4-2.2,2.7-2.2c1.5,0,2.7,0.7,2.8,2.4C-208,147.4-208.9,147.4-208.9,147.4z"/>
		<path d="M-205.3,147.2h1.1v0.8h-1.1v3.4c0,0.4,0.1,0.5,0.7,0.5h0.4v0.8h-0.7c-0.9,0-1.3-0.2-1.3-1.2V148h-0.9v-0.8h0.9v-1.6h0.9
			C-205.3,145.6-205.3,147.2-205.3,147.2z"/>
		<path d="M-203.2,147.2h0.8v1.2l0,0c0.4-0.9,1-1.3,2-1.3v1c-1.5,0-2,0.8-2,2.2v2.4h-0.9L-203.2,147.2L-203.2,147.2z"/>
		<path d="M-197.5,147.1c1.7,0,2.7,1.3,2.7,2.9c0,1.6-0.9,2.9-2.7,2.9c-1.7,0-2.7-1.3-2.7-2.9C-200.2,148.4-199.3,147.1-197.5,147.1
			z M-197.5,152.1c0.9,0,1.7-0.7,1.7-2.1c0-1.3-0.8-2.1-1.7-2.1c-0.9,0-1.7,0.7-1.7,2.1C-199.2,151.3-198.5,152.1-197.5,152.1z"/>
		<path d="M-193.8,147.2h0.8v0.9l0,0c0.4-0.7,1-1,1.8-1c1.4,0,1.9,0.8,1.9,2v3.6h-0.9V149c0-0.7-0.4-1.1-1.1-1.1
			c-1.1,0-1.6,0.7-1.6,1.7v3.1h-0.9C-193.8,152.7-193.8,147.2-193.8,147.2z"/>
		<path d="M-183.2,152.3c0,1.8-0.8,2.7-2.5,2.7c-1,0-2.2-0.4-2.3-1.6h0.9c0,0.7,0.8,0.9,1.4,0.9c1.2,0,1.6-0.8,1.6-2.1v-0.4l0,0
			c-0.3,0.7-1,1-1.7,1c-1.6,0-2.4-1.3-2.4-2.8c0-1.3,0.6-2.9,2.5-2.9c0.7,0,1.3,0.3,1.6,0.9l0,0v-0.8h0.8L-183.2,152.3L-183.2,152.3
			z M-184.1,149.9c0-1-0.4-2-1.6-2s-1.6,0.9-1.6,2c0,1,0.4,2.1,1.5,2.1C-184.7,152-184.1,150.9-184.1,149.9z"/>
		<path d="M-174.2,152.3c0,1.8-0.8,2.7-2.5,2.7c-1,0-2.2-0.4-2.3-1.6h0.9c0,0.7,0.8,0.9,1.4,0.9c1.2,0,1.6-0.8,1.6-2.1v-0.4l0,0
			c-0.3,0.7-1,1-1.7,1c-1.6,0-2.4-1.3-2.4-2.8c0-1.3,0.6-2.9,2.5-2.9c0.7,0,1.3,0.3,1.6,0.9l0,0v-0.8h0.8L-174.2,152.3L-174.2,152.3
			z M-175.1,149.9c0-1-0.4-2-1.6-2s-1.6,0.9-1.6,2c0,1,0.4,2.1,1.5,2.1C-175.7,152-175.1,150.9-175.1,149.9z"/>
		<path d="M-168,152.7c-0.2,0.1-0.4,0.1-0.6,0.1c-0.5,0-0.8-0.3-0.8-0.8c-0.5,0.6-1.2,0.8-1.9,0.8c-1,0-1.8-0.4-1.8-1.5
			c0-1.2,0.9-1.5,1.9-1.7s1.8-0.1,1.8-0.8c0-0.8-0.6-0.9-1.2-0.9c-0.8,0-1.3,0.2-1.4,1h-0.9c0.1-1.4,1.1-1.8,2.3-1.8
			c1,0,2.1,0.2,2.1,1.5v2.8c0,0.4,0,0.6,0.3,0.6c0.1,0,0.2,0,0.3-0.1L-168,152.7C-167.9,152.7-168,152.7-168,152.7z M-169.4,149.9
			c-0.3,0.3-1,0.3-1.6,0.4c-0.6,0.1-1.1,0.3-1.1,1c0,0.6,0.5,0.8,1.1,0.8c1.2,0,1.7-0.7,1.7-1.2L-169.4,149.9L-169.4,149.9z"/>
		<path d="M-167.1,145.2h0.9v7.6h-0.9V145.2z"/>
		<path d="M-160.1,151c-0.2,1.2-1.1,1.9-2.3,1.9c-1.7,0-2.6-1.2-2.6-2.9c0-1.6,1.1-2.8,2.6-2.8c1.9,0,2.5,1.8,2.5,3.1h-4.1
			c0,1,0.5,1.8,1.7,1.8c0.7,0,1.3-0.4,1.4-1.1C-160.9,151-160.1,151-160.1,151z M-161,149.5c0-0.9-0.7-1.5-1.6-1.5s-1.5,0.7-1.6,1.5
			H-161z"/>
		<path d="M-208.9,159c-0.1-1.5,0.8-2.7,2.4-2.7c1.3,0,2.4,0.8,2.4,2.2c0,1.3-0.9,2-1.8,2.6c-0.9,0.6-1.9,1-2.1,2h3.9v0.8h-4.9
			c0.1-1.8,1-2.4,2.1-3.1c1.3-0.8,1.9-1.2,1.9-2.3c0-0.8-0.7-1.4-1.5-1.4c-1,0-1.5,1-1.5,1.9H-208.9z"/>
		<path d="M-199.7,163.9h-0.9v-5.4h-1.9v-0.7c1,0,2-0.3,2.2-1.4h0.7L-199.7,163.9L-199.7,163.9z"/>
		<path d="M-197.6,160.5h5.3v0.8h-5.3C-197.6,161.3-197.6,160.5-197.6,160.5z"/>
		<path d="M-191.9,159c-0.1-1.5,0.8-2.7,2.4-2.7c1.3,0,2.4,0.8,2.4,2.2c0,1.3-0.9,2-1.8,2.6c-0.9,0.6-1.9,1-2.1,2h3.9v0.8h-4.9
			c0.1-1.8,1-2.4,2.1-3.1c1.3-0.8,1.9-1.2,1.9-2.3c0-0.8-0.7-1.4-1.5-1.4c-1,0-1.5,1-1.5,1.9H-191.9z"/>
		<path d="M-182,161.3h1v0.8h-1v1.8h-0.8v-1.8h-3.3v-0.9l3.4-4.9h0.7V161.3z M-182.9,161.3v-3.7l0,0l-2.5,3.7H-182.9z"/>
		<path d="M-177,158.4h0.8v0.8l0,0c0.4-0.6,1-0.9,1.8-0.9c0.7,0,1.3,0.3,1.5,0.9c0.4-0.6,1-0.9,1.7-0.9c1.1,0,1.8,0.5,1.8,1.6v4
			h-0.9v-3.6c0-0.7-0.2-1.2-1.1-1.2s-1.4,0.6-1.4,1.4v3.4h-0.9v-3.6c0-0.7-0.2-1.2-1-1.2c-1.1,0-1.5,1-1.5,1.4v3.4h-0.8V158.4z"/>
		<path d="M-165.7,156.1h0.8l-3.1,7.9h-0.8L-165.7,156.1z"/>
		<path d="M-163.9,162.1c0,0.8,0.7,1.1,1.5,1.1c0.6,0,1.3-0.1,1.3-0.8c0-0.7-0.9-0.8-1.8-1c-0.9-0.2-1.8-0.5-1.8-1.5
			c0-1.1,1.1-1.6,2-1.6c1.2,0,2.2,0.4,2.2,1.7h-0.9c-0.1-0.7-0.7-0.9-1.3-0.9c-0.5,0-1.2,0.1-1.2,0.7s1,0.8,1.8,1
			c0.9,0.2,1.8,0.5,1.8,1.6c0,1.3-1.2,1.7-2.3,1.7c-1.2,0-2.3-0.5-2.3-1.9L-163.9,162.1L-163.9,162.1z"/>
	</g>
	<g>
		<path d="M7.3,347.1h1.9l3.1,8.4h-1.9l-0.6-1.9H6.7L6,355.5H4.1L7.3,347.1z M7.2,352.2h2.2l-1.1-3.1l0,0L7.2,352.2z"/>
		<path d="M13.1,347.1h1.8v8.4h-1.8V347.1z"/>
		<path d="M16.5,347.1H21c1.5,0,2.4,1,2.4,2.3c0,1-0.4,1.7-1.3,2.1l0,0c0.9,0.2,1.2,1.1,1.2,2c0,0.5,0,1.5,0.4,2h-1.8
			c-0.2-0.5-0.2-1.3-0.3-2c-0.1-0.9-0.5-1.3-1.4-1.3h-1.8v3.3h-1.8L16.5,347.1L16.5,347.1L16.5,347.1z M18.4,350.9h2
			c0.8,0,1.3-0.4,1.3-1.2c0-0.8-0.4-1.2-1.3-1.2h-2V350.9z"/>
		<path d="M30.1,348.7h-2.5v-1.5h6.8v1.5h-2.5v6.8h-1.8V348.7z"/>
		<path d="M35.4,347.1h6.2v1.5h-4.4v1.8h4v1.4h-4v2h4.5v1.5h-6.3L35.4,347.1L35.4,347.1z"/>
		<path d="M42.9,347.1h2.6l2,5.7l0,0l1.8-5.7h2.6v8.4h-1.7v-5.9l0,0l-2,5.9h-1.4l-2-5.9l0,0v5.9h-1.7v-8.4H42.9z"/>
		<path d="M53.5,347.1h3.8c2.1,0,2.9,1.3,2.9,2.7s-0.8,2.7-2.9,2.7h-1.9v3h-1.8v-8.4H53.5z M55.4,351h1.4c0.9,0,1.6-0.2,1.6-1.3
			s-0.8-1.3-1.6-1.3h-1.4V351z"/>
		<path d="M61.4,347.1h6.2v1.5h-4.4v1.8h4v1.4h-4v2h4.5v1.5h-6.3L61.4,347.1L61.4,347.1z"/>
		<path d="M68.9,347.1h4.5c1.5,0,2.4,1,2.4,2.3c0,1-0.4,1.7-1.3,2.1l0,0c0.9,0.2,1.2,1.1,1.2,2c0,0.5,0,1.5,0.4,2h-1.8
			c-0.2-0.5-0.2-1.3-0.3-2c-0.1-0.9-0.5-1.3-1.4-1.3h-1.8v3.3H69v-8.4H68.9L68.9,347.1z M70.8,350.9h2c0.8,0,1.3-0.4,1.3-1.2
			c0-0.8-0.4-1.2-1.3-1.2h-2V350.9z"/>
		<path d="M79.7,347.1h1.9l3.1,8.4h-1.9l-0.6-1.9H79l-0.7,1.9h-1.9L79.7,347.1z M79.5,352.2h2.2l-1.1-3.1l0,0L79.5,352.2z"/>
		<path d="M86.4,348.7h-2.5v-1.5h6.8v1.5h-2.5v6.8h-1.8V348.7z"/>
		<path d="M98.8,352.3c0,2.3-1.3,3.4-3.6,3.4c-2.2,0-3.6-1.1-3.6-3.4v-5.2h1.8v5.2c0,0.9,0.2,1.8,1.7,1.8c1.3,0,1.7-0.6,1.7-1.8
			v-5.2h1.8v5.2H98.8z"/>
		<path d="M100.3,347.1h4.5c1.5,0,2.4,1,2.4,2.3c0,1-0.4,1.7-1.3,2.1l0,0c0.9,0.2,1.2,1.1,1.2,2c0,0.5,0,1.5,0.4,2h-1.8
			c-0.2-0.5-0.2-1.3-0.3-2c-0.1-0.9-0.5-1.3-1.4-1.3h-1.8v3.3h-1.8v-8.4H100.3L100.3,347.1z M102.2,350.9h2c0.8,0,1.3-0.4,1.3-1.2
			c0-0.8-0.4-1.2-1.3-1.2h-2V350.9z"/>
		<path d="M108.8,347.1h6.2v1.5h-4.4v1.8h4v1.4h-4v2h4.5v1.5h-6.3L108.8,347.1L108.8,347.1z"/>
		<path d="M121.1,347.1c1,0,1.7,0.8,1.7,1.7c0,1-0.8,1.7-1.7,1.7c-1,0-1.7-0.8-1.7-1.7S120.2,347.1,121.1,347.1z M121.1,349.9
			c0.5,0,1-0.5,1-1c0-0.6-0.5-1-1-1s-1,0.5-1,1C120.2,349.4,120.6,349.9,121.1,349.9z"/>
		<path d="M130.4,349.6c-0.3-1.3-1.3-2-2.6-2c-2.2,0-3.1,1.8-3.1,3.7s0.9,3.7,3.1,3.7c1.5,0,2.5-1.2,2.7-2.7h0.8
			c-0.2,2-1.5,3.4-3.5,3.4c-2.6,0-3.9-2.1-3.9-4.4s1.3-4.4,3.9-4.4c1.6,0,3.1,0.9,3.4,2.7H130.4L130.4,349.6z"/>
	</g>
	<g>
		<path d="M-237.8,191.6v-1.8l6.2-1.4l0,0l-6.2-1.4v-1.9l9.1-2.2v1.8l-6.2,1.3l0,0l6.2,1.5v1.7l-6.3,1.4l0,0l6.3,1.4v1.8
			L-237.8,191.6z"/>
		<path d="M-228.7,194.6v1.8h-9.1v-1.8H-228.7z"/>
		<path d="M-228.7,198.1v1.8l-6.1,3.5l0,0h6.1v1.7h-9.1v-1.8l6.1-3.5l0,0h-6.1v-1.7H-228.7z"/>
		<path d="M-228.7,206.8v3.6c0,2.2-1.5,3.8-4.5,3.8c-2.6,0-4.6-1.2-4.6-3.8v-3.6H-228.7z M-236.1,208.6v1.6c0,1.1,0.7,2.1,2.7,2.1
			c1.8,0,3-0.6,3-2.4v-1.3C-230.4,208.6-236.1,208.6-236.1,208.6z"/>
		<path d="M-234.8,216.7c-1.2,0-1.7,0.9-1.7,1.8c0,0.6,0.2,1.6,1.1,1.6c1,0,1.1-1.3,1.5-2.5c0.4-1.2,0.9-2.5,2.6-2.5
			c1.9,0,2.8,1.6,2.8,3.1c0,1.7-0.8,3.3-2.9,3.3v-1.8c1.1-0.1,1.4-0.8,1.4-1.7c0-0.6-0.3-1.3-1-1.3c-0.7,0-0.8,0.4-1.4,2.5
			c-0.2,0.6-0.6,2.5-2.7,2.5c-1.7,0-2.9-1.2-2.9-3.5c0-1.8,1-3.6,3.2-3.6V216.7z"/>
		<path d="M-228.7,223v3.8c0,2.1-1.4,2.9-2.9,2.9s-2.9-0.8-2.9-2.9v-1.9h-3.3v-1.8h9.1C-228.7,223.1-228.7,223-228.7,223z
			 M-233,224.9v1.4c0,0.9,0.2,1.6,1.4,1.6s1.4-0.8,1.4-1.6v-1.4H-233z"/>
		<path d="M-228.7,230.8v6.2h-1.7v-4.4h-2v4h-1.6v-4h-2.2v4.5h-1.7v-6.3H-228.7z"/>
		<path d="M-228.7,238.4v6.2h-1.7v-4.4h-2v4h-1.6v-4h-2.2v4.5h-1.7v-6.3H-228.7z"/>
		<path d="M-228.7,246v3.6c0,2.2-1.5,3.8-4.5,3.8c-2.6,0-4.6-1.2-4.6-3.8V246H-228.7z M-236.1,247.8v1.6c0,1.1,0.7,2.1,2.7,2.1
			c1.8,0,3-0.6,3-2.4v-1.3L-236.1,247.8L-236.1,247.8z"/>
		<path d="M-228.7,257.9v1.2l-8,2.9l8,2.9v1.2h-9.1v-0.9h7.9l0,0l-7.9-2.9v-0.7l7.9-2.9l0,0h-7.9v-0.8H-228.7L-228.7,257.9z"/>
		<path d="M-238,266.7l9.5,3.6v0.6l-9.5-3.6V266.7z"/>
		<path d="M-234.8,272c-1.9,0-2.4,1.2-2.4,2.7c0,0.9,0.5,2.2,1.9,2.2c1,0,1.4-0.9,1.6-1.7l0.5-1.9c0.3-1,0.8-1.9,2.2-1.9
			c0.9,0,2.6,0.5,2.6,2.9c0,1.7-1,3.1-2.8,3.1v-0.8c1.4,0,2.1-1.1,2.1-2.3c0-1.1-0.5-2.1-1.8-2.1c-0.9,0-1.2,0.6-1.4,1.3l-0.5,2
			c-0.3,1.2-0.9,2.2-2.4,2.2c-0.6,0-2.6-0.2-2.6-3.2c0-2,1-3.4,3.2-3.3v0.8H-234.8z"/>
	</g>
	<g>
		<path fill="none" stroke="#000000" stroke-width="2" d="M-95.1,351.9"/>
		<path fill="none" stroke="#000000" stroke-width="2" d="M-3.3,351.9"/>
	</g>
</g>
</svg>
