<?xml version="1.0" encoding="utf-8"?>
<!-- Generator: Adobe Illustrator 19.1.0, SVG Export Plug-In . SVG Version: 6.00 Build 0)  -->
<svg version="1.1" id="Layer_1" xmlns="http://www.w3.org/2000/svg" xmlns:xlink="http://www.w3.org/1999/xlink" x="0px" y="0px"
	 viewBox="-238.1 187.3 517.8 230" enable-background="new -238.1 187.3 517.8 230" xml:space="preserve">
<linearGradient id="SVGID_1_" gradientUnits="userSpaceOnUse" x1="-6.4448" y1="376.6172" x2="166.8785" y2="170.0587" gradientTransform="matrix(1 0 0 1 0 1.4)">
	<stop  offset="0" style="stop-color:#00A14B"/>
	<stop  offset="9.194195e-02" style="stop-color:#3E9D48"/>
	<stop  offset="0.2759" style="stop-color:#7A8E40"/>
	<stop  offset="0.5349" style="stop-color:#B37033"/>
	<stop  offset="0.8258" style="stop-color:#ED1C24"/>
</linearGradient>
<rect x="-153" y="197.6" fill="url(#SVGID_1_)" width="430.5" height="197.1"/>
<g>
	<rect x="-92.9" y="187.3" fill="#FFFFFF" width="1.4" height="210.4"/>
	<rect x="-92.8" y="187.4" fill="#FFFFFF" width="1.1" height="210.1"/>
	<rect x="-92.5" y="187.7" fill="#FFFFFF" width="0.6" height="209.5"/>
	<rect x="-30" y="187.3" fill="#FFFFFF" width="1.4" height="210.4"/>
	<rect x="-29.9" y="187.4" fill="#FFFFFF" width="1.1" height="210.1"/>
	<rect x="-29.6" y="187.7" fill="#FFFFFF" width="0.6" height="209.5"/>
	<rect x="32.8" y="187.3" fill="#FFFFFF" width="1.4" height="210.4"/>
	<rect x="33" y="187.4" fill="#FFFFFF" width="1.1" height="210.1"/>
	<rect x="33.2" y="187.7" fill="#FFFFFF" width="0.6" height="209.5"/>
	<rect x="95.7" y="187.3" fill="#FFFFFF" width="1.4" height="210.4"/>
	<rect x="95.8" y="187.4" fill="#FFFFFF" width="1.1" height="210.1"/>
	<rect x="96.1" y="187.7" fill="#FFFFFF" width="0.6" height="209.5"/>
	<rect x="158.6" y="187.3" fill="#FFFFFF" width="1.4" height="210.4"/>
	<rect x="158.7" y="187.4" fill="#FFFFFF" width="1.1" height="210.1"/>
	<rect x="159" y="187.7" fill="#FFFFFF" width="0.6" height="209.5"/>
</g>
<rect x="221.5" y="187.3" fill="#FFFFFF" width="1.4" height="210.4"/>
<rect x="221.7" y="187.4" fill="#FFFFFF" width="1.1" height="210.1"/>
<rect x="221.9" y="187.7" fill="#FFFFFF" width="0.6" height="209.5"/>
<g>
	<rect x="-153.9" y="196.9" fill="#FFFFFF" width="433.6" height="1.4"/>
	<rect x="-153.8" y="197.1" fill="#FFFFFF" width="433.3" height="1.1"/>
	<rect x="-153.5" y="197.3" fill="#FFFFFF" width="432.8" height="0.6"/>
	<rect x="-153.9" y="236.3" fill="#FFFFFF" width="433.6" height="1.4"/>
	<rect x="-153.8" y="236.5" fill="#FFFFFF" width="433.3" height="1.1"/>
	<rect x="-153.5" y="236.7" fill="#FFFFFF" width="432.8" height="0.6"/>
	<rect x="-153.9" y="275.7" fill="#FFFFFF" width="433.6" height="1.4"/>
	<rect x="-153.8" y="275.9" fill="#FFFFFF" width="433.3" height="1.1"/>
	<rect x="-153.5" y="276.2" fill="#FFFFFF" width="432.8" height="0.6"/>
	<rect x="-153.9" y="315.2" fill="#FFFFFF" width="433.6" height="1.4"/>
	<rect x="-153.8" y="315.3" fill="#FFFFFF" width="433.3" height="1.1"/>
	<rect x="-153.5" y="315.6" fill="#FFFFFF" width="432.8" height="0.6"/>
	<rect x="-153.9" y="354.6" fill="#FFFFFF" width="433.6" height="1.4"/>
	<rect x="-153.8" y="354.7" fill="#FFFFFF" width="433.3" height="1.1"/>
	<rect x="-153.5" y="355" fill="#FFFFFF" width="432.8" height="0.6"/>
	<rect x="-153.5" y="394.4" fill="#FFFFFF" width="432.8" height="0.6"/>
</g>
<g>
	<rect x="-234.3" y="198.4" width="0.6" height="33"/>
	<polygon points="-237.7,202.7 -238.1,202.3 -234.1,198 -230.1,202.3 -230.5,202.7 -234.1,198.8 	"/>
</g>
<g>
	<rect x="-234.3" y="361.5" width="0.6" height="28.3"/>
	<polygon points="-234.1,390.3 -238.1,386 -237.7,385.6 -234.1,389.5 -230.5,385.6 -230.1,386 	"/>
</g>
<g>
	<path d="M-182.1,367.3c-0.1-1.1-0.8-1.5-1.9-1.5c-0.8,0-1.7,0.3-1.7,1.3c0,0.9,1.2,1.1,2.4,1.3c1.2,0.3,2.4,0.7,2.4,2.2
		c0,1.6-1.6,2.2-2.9,2.2c-1.7,0-3.1-0.8-3.1-2.6h0.9c0,1.3,1,1.8,2.2,1.8c0.9,0,1.9-0.3,1.9-1.4c0-1-1.2-1.2-2.4-1.5
		c-1.2-0.3-2.4-0.6-2.4-2c0-1.5,1.4-2.2,2.7-2.2c1.5,0,2.7,0.7,2.8,2.4H-182.1z"/>
	<path d="M-178.5,367.2h1.1v0.8h-1.1v3.4c0,0.4,0.1,0.5,0.7,0.5h0.4v0.8h-0.7c-0.9,0-1.3-0.2-1.3-1.2V368h-0.9v-0.8h0.9v-1.6h0.9
		C-178.5,365.6-178.5,367.2-178.5,367.2z"/>
	<path d="M-175.5,366.2h-0.9v-1.1h0.9V366.2z M-176.4,367.2h0.9v5.4h-0.9V367.2z"/>
	<path d="M-174.1,365.1h0.9v7.5h-0.9V365.1z"/>
	<path d="M-171.8,365.1h0.9v7.5h-0.9V365.1z"/>
	<path d="M-164.9,370.9c-0.2,1.2-1.1,1.8-2.3,1.8c-1.7,0-2.5-1.2-2.6-2.9c0-1.6,1.1-2.8,2.5-2.8c1.9,0,2.5,1.8,2.5,3.1h-4.1
		c0,0.9,0.5,1.8,1.7,1.8c0.7,0,1.2-0.4,1.4-1.1L-164.9,370.9L-164.9,370.9z M-165.7,369.4c0-0.8-0.7-1.5-1.6-1.5s-1.5,0.7-1.6,1.5
		H-165.7z"/>
	<path d="M-188.1,376.2c2.3,0,2.5,2.1,2.5,3.8c0,1.6-0.1,3.8-2.5,3.8c-2.4,0-2.5-2.1-2.5-3.8C-190.5,378.4-190.4,376.2-188.1,376.2z
		 M-188.1,383c1.5,0,1.5-1.9,1.5-3s0-3-1.5-3s-1.5,1.9-1.5,3S-189.6,383-188.1,383z"/>
	<path d="M-181.6,378.3h0.8v0.8l0,0c0.4-0.6,1-0.9,1.8-0.9c0.7,0,1.3,0.3,1.5,0.9c0.4-0.6,1-0.9,1.7-0.9c1.1,0,1.8,0.5,1.8,1.6v4
		h-0.9v-3.6c0-0.7-0.2-1.2-1-1.2c-0.9,0-1.4,0.5-1.4,1.4v3.4h-0.9v-3.6c0-0.7-0.2-1.2-1-1.2c-1.1,0-1.4,1-1.4,1.4v3.4h-0.9
		L-181.6,378.3L-181.6,378.3z"/>
	<path d="M-170.4,376h0.8l-3.1,7.8h-0.8L-170.4,376z"/>
	<path d="M-168.6,382c0,0.8,0.7,1,1.5,1c0.6,0,1.3-0.1,1.3-0.8c0-0.7-0.9-0.8-1.8-1c-0.9-0.2-1.8-0.5-1.8-1.5c0-1.1,1.1-1.5,2-1.5
		c1.2,0,2.2,0.4,2.2,1.7h-0.8c-0.1-0.7-0.7-0.9-1.3-0.9c-0.5,0-1.2,0.1-1.2,0.7c0,0.6,0.9,0.7,1.8,0.9c0.9,0.2,1.8,0.5,1.8,1.5
		c0,1.3-1.2,1.7-2.3,1.7c-1.2,0-2.2-0.5-2.3-1.8L-168.6,382L-168.6,382z"/>
</g>
<g>
	<path d="M-202,325.9h1v6.7h4v0.8h-5V325.9z"/>
	<path d="M-191.7,331.7c-0.2,1.2-1.1,1.8-2.3,1.8c-1.7,0-2.5-1.2-2.6-2.9c0-1.6,1.1-2.8,2.5-2.8c1.9,0,2.5,1.8,2.5,3.1h-4.1
		c0,0.9,0.5,1.8,1.7,1.8c0.7,0,1.2-0.4,1.4-1.1L-191.7,331.7L-191.7,331.7z M-192.5,330.2c0-0.8-0.7-1.5-1.6-1.5s-1.5,0.7-1.6,1.5
		H-192.5z"/>
	<path d="M-189.4,328h1.1v0.8h-1.1v3.4c0,0.4,0.1,0.5,0.7,0.5h0.4v0.8h-0.7c-0.9,0-1.3-0.2-1.3-1.2v-3.5h-0.9V328h0.9v-1.6h0.9V328z
		"/>
	<path d="M-186.1,328h1.1v0.8h-1.1v3.4c0,0.4,0.1,0.5,0.7,0.5h0.4v0.8h-0.7c-0.9,0-1.3-0.2-1.3-1.2v-3.5h-0.9V328h0.9v-1.6h0.9V328z
		"/>
	<path d="M-181.1,325.9h0.9v2.8l0,0c0.3-0.6,1-0.9,1.7-0.9c1.7,0,2.5,1.3,2.5,2.9c0,1.5-0.8,2.8-2.5,2.8c-0.6,0-1.4-0.2-1.8-0.8l0,0
		v0.7h-0.9L-181.1,325.9L-181.1,325.9z M-178.6,328.7c-1.2,0-1.7,1-1.7,2c0,1.1,0.5,2.1,1.7,2.1s1.6-1,1.6-2.1
		C-176.9,329.7-177.4,328.7-178.6,328.7z"/>
	<path d="M-175,328h0.8v1.1l0,0c0.4-0.9,1-1.3,2-1.3v0.9c-1.4,0-2,0.8-2,2.2v2.4h-0.8V328z"/>
	<path d="M-170.5,327h-0.9v-1.1h0.9V327z M-171.4,328h0.9v5.4h-0.9V328z"/>
	<path d="M-168.6,331.7c0,0.8,0.7,1,1.5,1c0.6,0,1.3-0.1,1.3-0.8c0-0.7-0.9-0.8-1.8-1c-0.9-0.2-1.8-0.5-1.8-1.5c0-1.1,1.1-1.5,2-1.5
		c1.2,0,2.2,0.4,2.2,1.7h-0.8c-0.1-0.7-0.7-0.9-1.3-0.9c-0.5,0-1.2,0.1-1.2,0.7s0.9,0.7,1.8,0.9c0.9,0.2,1.8,0.5,1.8,1.5
		c0,1.3-1.2,1.7-2.3,1.7c-1.2,0-2.2-0.5-2.3-1.8H-168.6L-168.6,331.7z"/>
	<path d="M-199.8,340.2c0.1,0,0.3,0,0.4,0c0.8,0,1.4-0.4,1.4-1.2c0-0.8-0.6-1.2-1.3-1.2c-1,0-1.4,0.7-1.4,1.6h-0.9
		c0.1-1.4,0.8-2.4,2.3-2.4c1.3,0,2.3,0.6,2.3,2c0,0.7-0.5,1.2-1,1.5l0,0c0.9,0.2,1.3,0.9,1.3,1.8c0,1.5-1.2,2.3-2.6,2.3
		c-1.5,0-2.5-0.9-2.5-2.4h0.9c0,1,0.6,1.6,1.6,1.6c0.9,0,1.6-0.5,1.6-1.4s-0.7-1.4-1.6-1.4c-0.2,0-0.4,0-0.5,0
		C-199.8,341-199.8,340.2-199.8,340.2z"/>
	<path d="M-196.2,341.1h5.2v0.8h-5.2V341.1z"/>
	<path d="M-186,337.9h-3l-0.4,2.1l0,0c0.3-0.4,0.9-0.5,1.4-0.5c1.3,0,2.4,0.8,2.4,2.5c0,1.3-0.9,2.5-2.6,2.5c-1.3,0-2.3-0.8-2.4-2.1
		h0.9c0.1,0.8,0.7,1.3,1.6,1.3c0.8,0,1.6-0.6,1.6-1.8c0-1-0.7-1.7-1.7-1.7c-0.6,0-1,0.3-1.4,0.7h-0.8l0.7-3.9h3.7V337.9z"/>
	<path d="M-181.6,339h0.8v0.8l0,0c0.4-0.6,1-0.9,1.8-0.9c0.7,0,1.3,0.3,1.5,0.9c0.4-0.6,1-0.9,1.7-0.9c1.1,0,1.8,0.5,1.8,1.6v4h-0.9
		v-3.6c0-0.7-0.2-1.2-1-1.2c-0.9,0-1.4,0.5-1.4,1.4v3.4h-0.9v-3.6c0-0.7-0.2-1.2-1-1.2c-1.1,0-1.4,1-1.4,1.4v3.4h-0.9L-181.6,339
		L-181.6,339z"/>
	<path d="M-170.4,336.8h0.8l-3.1,7.8h-0.8L-170.4,336.8z"/>
	<path d="M-168.6,342.8c0,0.8,0.7,1,1.5,1c0.6,0,1.3-0.1,1.3-0.8c0-0.7-0.9-0.8-1.8-1c-0.9-0.2-1.8-0.5-1.8-1.5c0-1.1,1.1-1.5,2-1.5
		c1.2,0,2.2,0.4,2.2,1.7h-0.8c-0.1-0.7-0.7-0.9-1.3-0.9c-0.5,0-1.2,0.1-1.2,0.7s0.9,0.7,1.8,0.9c0.9,0.2,1.8,0.5,1.8,1.5
		c0,1.3-1.2,1.7-2.3,1.7c-1.2,0-2.2-0.5-2.3-1.8H-168.6L-168.6,342.8z"/>
</g>
<g>
	<path d="M-206.5,286.7h4.9v0.8h-3.9v2.4h3.5v0.8h-3.4v3.4h-1L-206.5,286.7L-206.5,286.7z"/>
	<path d="M-200.6,288.8h0.8v1.1l0,0c0.4-0.9,1-1.3,2-1.3v0.9c-1.4,0-2,0.8-2,2.2v2.4h-0.9L-200.6,288.8L-200.6,288.8z"/>
	<path d="M-196.1,287.8h-0.9v-1.1h0.9V287.8z M-197,288.8h0.9v5.4h-0.9V288.8z"/>
	<path d="M-194.2,292.5c0,0.8,0.7,1,1.5,1c0.6,0,1.3-0.1,1.3-0.8s-0.9-0.8-1.8-1c-0.9-0.2-1.8-0.5-1.8-1.5c0-1.1,1.1-1.5,2-1.5
		c1.2,0,2.2,0.4,2.2,1.7h-0.9c-0.1-0.7-0.7-0.9-1.3-0.9c-0.5,0-1.2,0.1-1.2,0.7s0.9,0.7,1.8,0.9c0.9,0.2,1.8,0.5,1.8,1.5
		c0,1.3-1.2,1.7-2.3,1.7c-1.2,0-2.2-0.5-2.3-1.8L-194.2,292.5L-194.2,292.5z"/>
	<path d="M-189.5,286.7h0.9v4.4l2.5-2.4h1.2l-2.2,2l2.3,3.5h-1.1l-1.9-2.8l-0.8,0.8v2.1h-0.9C-189.5,294.3-189.5,286.7-189.5,286.7z
		"/>
	<path d="M-181.1,286.7h0.9v2.8l0,0c0.3-0.6,1-0.9,1.7-0.9c1.7,0,2.5,1.3,2.5,2.9c0,1.5-0.8,2.8-2.5,2.8c-0.6,0-1.4-0.2-1.8-0.8l0,0
		v0.7h-0.9L-181.1,286.7L-181.1,286.7z M-178.6,289.5c-1.2,0-1.7,1-1.7,2c0,1.1,0.5,2.1,1.7,2.1s1.6-1,1.6-2.1
		C-176.9,290.4-177.4,289.5-178.6,289.5z"/>
	<path d="M-175,288.8h0.8v1.1l0,0c0.4-0.9,1-1.3,2-1.3v0.9c-1.4,0-2,0.8-2,2.2v2.4h-0.8V288.8z"/>
	<path d="M-170.5,287.8h-0.9v-1.1h0.9V287.8z M-171.4,288.8h0.9v5.4h-0.9V288.8z"/>
	<path d="M-168.6,292.5c0,0.8,0.7,1,1.5,1c0.6,0,1.3-0.1,1.3-0.8s-0.9-0.8-1.8-1c-0.9-0.2-1.8-0.5-1.8-1.5c0-1.1,1.1-1.5,2-1.5
		c1.2,0,2.2,0.4,2.2,1.7h-0.8c-0.1-0.7-0.7-0.9-1.3-0.9c-0.5,0-1.2,0.1-1.2,0.7s0.9,0.7,1.8,0.9c0.9,0.2,1.8,0.5,1.8,1.5
		c0,1.3-1.2,1.7-2.3,1.7c-1.2,0-2.2-0.5-2.3-1.8L-168.6,292.5L-168.6,292.5z"/>
	<path d="M-205,297.8c1.6,0,2.3,1,2.3,1.9c0,0.7-0.4,1.3-1,1.5c0.9,0.3,1.3,0.9,1.3,1.9c0,1.4-1.1,2.3-2.5,2.3
		c-1.4,0-2.5-0.7-2.5-2.3c0-0.9,0.5-1.6,1.3-1.9c-0.6-0.3-1-0.9-1-1.5C-207.2,298.5-206.2,297.8-205,297.8z M-204.9,304.6
		c0.9,0,1.5-0.6,1.5-1.4c0-0.8-0.7-1.4-1.5-1.4c-0.9,0-1.6,0.6-1.6,1.4C-206.5,304.1-205.9,304.6-204.9,304.6z M-204.9,301
		c0.7,0,1.2-0.4,1.2-1.2c0-0.7-0.5-1.1-1.2-1.1s-1.3,0.4-1.3,1.1C-206.3,300.6-205.7,301-204.9,301z"/>
	<path d="M-202,301.9h5.2v0.8h-5.2V301.9z"/>
	<path d="M-193.1,305.3h-0.9V300h-1.9v-0.7c1,0,1.9-0.3,2.1-1.4h0.7C-193.1,297.9-193.1,305.3-193.1,305.3z"/>
	<path d="M-187.2,305.3h-0.9V300h-1.9v-0.7c1,0,1.9-0.3,2.1-1.4h0.7C-187.2,297.9-187.2,305.3-187.2,305.3z"/>
	<path d="M-181.6,299.8h0.8v0.8l0,0c0.4-0.6,1-0.9,1.8-0.9c0.7,0,1.3,0.3,1.5,0.9c0.4-0.6,1-0.9,1.7-0.9c1.1,0,1.8,0.5,1.8,1.6v4
		h-0.9v-3.6c0-0.7-0.2-1.2-1-1.2c-0.9,0-1.4,0.5-1.4,1.4v3.4h-0.9v-3.6c0-0.7-0.2-1.2-1-1.2c-1.1,0-1.4,1-1.4,1.4v3.4h-0.9
		L-181.6,299.8L-181.6,299.8z"/>
	<path d="M-170.4,297.6h0.8l-3.1,7.8h-0.8L-170.4,297.6z"/>
	<path d="M-168.6,303.6c0,0.8,0.7,1,1.5,1c0.6,0,1.3-0.1,1.3-0.8c0-0.7-0.9-0.8-1.8-1c-0.9-0.2-1.8-0.5-1.8-1.5c0-1.1,1.1-1.5,2-1.5
		c1.2,0,2.2,0.4,2.2,1.7h-0.8c-0.1-0.7-0.7-0.9-1.3-0.9c-0.5,0-1.2,0.1-1.2,0.7c0,0.6,0.9,0.7,1.8,0.9c0.9,0.2,1.8,0.5,1.8,1.5
		c0,1.3-1.2,1.7-2.3,1.7c-1.2,0-2.2-0.5-2.3-1.8L-168.6,303.6L-168.6,303.6z"/>
</g>
<g>
	<path d="M-207.8,249.7c-0.1-1.1-0.8-1.5-1.9-1.5c-0.8,0-1.7,0.3-1.7,1.3c0,0.9,1.2,1.1,2.4,1.3c1.2,0.3,2.4,0.7,2.4,2.2
		c0,1.6-1.6,2.2-2.9,2.2c-1.7,0-3.1-0.8-3.1-2.6h0.9c0,1.3,1,1.8,2.2,1.8c0.9,0,1.9-0.3,1.9-1.4c0-1-1.2-1.2-2.4-1.5
		c-1.2-0.3-2.4-0.6-2.4-2c0-1.5,1.4-2.2,2.7-2.2c1.5,0,2.7,0.7,2.8,2.4C-206.9,249.7-207.8,249.7-207.8,249.7z"/>
	<path d="M-204.2,249.6h1.1v0.8h-1.1v3.4c0,0.4,0.1,0.5,0.7,0.5h0.4v0.8h-0.7c-0.9,0-1.3-0.2-1.3-1.2v-3.5h-0.9v-0.8h0.9V248h0.9
		C-204.2,248-204.2,249.6-204.2,249.6z"/>
	<path d="M-201.2,248.6h-0.9v-1.1h0.9V248.6z M-202.1,249.6h0.9v5.4h-0.9V249.6z"/>
	<path d="M-197.4,255h-1l-2-5.4h1l1.5,4.5l0,0l1.5-4.5h0.9L-197.4,255z"/>
	<path d="M-191.6,247.5h0.9v4.4l2.5-2.4h1.2l-2.2,2l2.3,3.5h-1.1l-1.9-2.8l-0.8,0.8v2.1h-0.9V247.5z"/>
	<path d="M-181.7,255h-0.8v-0.9l0,0c-0.4,0.7-1,1-1.8,1c-1.4,0-1.9-0.8-1.9-2v-3.6h0.9v3.7c0,0.7,0.4,1.1,1.1,1.1
		c1.1,0,1.6-0.7,1.6-1.7v-3.1h0.9V255z"/>
	<path d="M-180.3,247.5h0.9v7.5h-0.9V247.5z"/>
	<path d="M-177.1,248.6h-0.9v-1.1h0.9V248.6z M-178,249.6h0.9v5.4h-0.9V249.6z"/>
	<path d="M-175.7,249.6h0.8v0.9l0,0c0.4-0.7,1-1,1.8-1c1.4,0,1.9,0.8,1.9,2v3.6h-0.9v-3.7c0-0.7-0.4-1.1-1.1-1.1
		c-1.1,0-1.6,0.7-1.6,1.7v3.1h-0.9V249.6z"/>
	<path d="M-165.2,254.6c0,1.8-0.8,2.7-2.5,2.7c-1,0-2.2-0.4-2.2-1.6h0.9c0,0.7,0.8,0.9,1.4,0.9c1.2,0,1.6-0.8,1.6-2.1v-0.4l0,0
		c-0.3,0.7-1,1-1.7,1c-1.6,0-2.4-1.3-2.4-2.7c0-1.3,0.6-2.9,2.5-2.9c0.7,0,1.3,0.3,1.6,0.9l0,0v-0.8h0.8
		C-165.2,249.6-165.2,254.6-165.2,254.6z M-166.1,252.2c0-1-0.4-1.9-1.5-1.9c-1.1,0-1.6,0.9-1.6,2c0,1,0.4,2.1,1.5,2.1
		C-166.5,254.3-166.1,253.2-166.1,252.2z"/>
	<path d="M-210,266.1h-0.9v-5.4h-1.9V260c1,0,1.9-0.3,2.1-1.4h0.7V266.1z"/>
	<path d="M-203.5,263.5h1v0.8h-1v1.7h-0.8v-1.7h-3.3v-0.9l3.4-4.8h0.7V263.5z M-204.3,263.5v-3.6l0,0l-2.5,3.6H-204.3z"/>
	<path d="M-202,262.7h5.2v0.8h-5.2V262.7z"/>
	<path d="M-193.1,266.1h-0.9v-5.4h-1.9V260c1,0,1.9-0.3,2.1-1.4h0.7C-193.1,258.6-193.1,266.1-193.1,266.1z"/>
	<path d="M-185.6,259.5c-1.5,1.5-2.7,4.2-2.9,6.5h-1c0.2-2.5,1.4-4.8,2.9-6.5h-3.9v-0.8h4.8L-185.6,259.5L-185.6,259.5z"/>
	<path d="M-181.5,260.6h0.8v0.8l0,0c0.4-0.6,1-0.9,1.8-0.9c0.7,0,1.3,0.3,1.5,0.9c0.4-0.6,1-0.9,1.7-0.9c1.1,0,1.8,0.5,1.8,1.6v4
		h-0.9v-3.6c0-0.7-0.2-1.2-1-1.2c-0.9,0-1.4,0.5-1.4,1.4v3.4h-0.9v-3.6c0-0.7-0.2-1.2-1-1.2c-1.1,0-1.4,1-1.4,1.4v3.4h-0.9
		L-181.5,260.6L-181.5,260.6z"/>
	<path d="M-170.4,258.4h0.8l-3.1,7.8h-0.8L-170.4,258.4z"/>
	<path d="M-168.6,264.4c0,0.8,0.7,1,1.5,1c0.6,0,1.3-0.1,1.3-0.8c0-0.7-0.9-0.8-1.8-1c-0.9-0.2-1.8-0.5-1.8-1.5c0-1.1,1.1-1.5,2-1.5
		c1.2,0,2.2,0.4,2.2,1.7h-0.8c-0.1-0.7-0.7-0.9-1.3-0.9c-0.5,0-1.2,0.1-1.2,0.7s0.9,0.7,1.8,0.9c0.9,0.2,1.8,0.5,1.8,1.5
		c0,1.3-1.2,1.7-2.3,1.7c-1.2,0-2.2-0.5-2.3-1.8L-168.6,264.4L-168.6,264.4z"/>
</g>
<g>
	<path d="M-216.6,208.3h1v6.7h4v0.8h-5C-216.6,215.8-216.6,208.3-216.6,208.3z"/>
	<path d="M-209.9,209.4h-0.9v-1.1h0.9C-209.9,208.3-209.9,209.4-209.9,209.4z M-210.8,210.4h0.9v5.4h-0.9V210.4z"/>
	<path d="M-207.3,210.4h1.1v0.8h-1.1v3.4c0,0.4,0.1,0.5,0.7,0.5h0.4v0.8h-0.7c-0.9,0-1.3-0.2-1.3-1.2v-3.5h-0.9v-0.8h0.9v-1.6h0.9
		C-207.3,208.8-207.3,210.4-207.3,210.4z"/>
	<path d="M-200.6,214.1c-0.2,1.2-1.1,1.8-2.3,1.8c-1.7,0-2.5-1.2-2.6-2.9c0-1.6,1.1-2.8,2.5-2.8c1.9,0,2.5,1.8,2.5,3.1h-4.1
		c0,0.9,0.5,1.8,1.7,1.8c0.7,0,1.2-0.4,1.4-1.1L-200.6,214.1L-200.6,214.1z M-201.5,212.6c0-0.8-0.7-1.5-1.6-1.5s-1.5,0.7-1.6,1.5
		H-201.5z"/>
	<path d="M-199.6,210.4h0.8v0.9l0,0c0.4-0.7,1-1,1.8-1c1.4,0,1.9,0.8,1.9,2v3.6h-0.9v-3.7c0-0.7-0.4-1.1-1.1-1.1
		c-1.1,0-1.6,0.7-1.6,1.7v3.1h-0.9V210.4z"/>
	<path d="M-190.3,214.1c0,0.8,0.7,1,1.5,1c0.6,0,1.3-0.1,1.3-0.8s-0.9-0.8-1.8-1c-0.9-0.2-1.8-0.5-1.8-1.5c0-1.1,1.1-1.5,2-1.5
		c1.2,0,2.2,0.4,2.2,1.7h-0.9c-0.1-0.7-0.7-0.9-1.3-0.9c-0.5,0-1.2,0.1-1.2,0.7s0.9,0.7,1.8,0.9c0.9,0.2,1.8,0.5,1.8,1.5
		c0,1.3-1.2,1.7-2.3,1.7c-1.2,0-2.2-0.5-2.3-1.8C-191.3,214.1-190.3,214.1-190.3,214.1z"/>
	<path d="M-184.4,210.4h1.1v0.8h-1.1v3.4c0,0.4,0.1,0.5,0.7,0.5h0.4v0.8h-0.7c-0.9,0-1.3-0.2-1.3-1.2v-3.5h-0.9v-0.8h0.9v-1.6h0.9
		C-184.4,208.8-184.4,210.4-184.4,210.4z"/>
	<path d="M-180,210.3c1.7,0,2.6,1.2,2.6,2.8c0,1.6-0.9,2.8-2.6,2.8s-2.6-1.2-2.6-2.8C-182.6,211.5-181.7,210.3-180,210.3z
		 M-180,215.2c0.9,0,1.7-0.7,1.7-2c0-1.3-0.8-2.1-1.7-2.1c-0.9,0-1.7,0.7-1.7,2.1C-181.7,214.4-180.9,215.2-180,215.2z"/>
	<path d="M-176.3,210.4h0.8v1.1l0,0c0.4-0.9,1-1.3,2-1.3v0.9c-1.4,0-2,0.8-2,2.2v2.4h-0.9L-176.3,210.4L-176.3,210.4z"/>
	<path d="M-172.8,210.4h0.8v0.8l0,0c0.4-0.6,1-0.9,1.8-0.9c0.7,0,1.3,0.3,1.5,0.9c0.4-0.6,1-0.9,1.7-0.9c1.1,0,1.8,0.5,1.8,1.6v4
		h-0.9v-3.6c0-0.7-0.2-1.2-1-1.2c-0.9,0-1.4,0.5-1.4,1.4v3.4h-0.9v-3.6c0-0.7-0.2-1.2-1-1.2c-1.1,0-1.4,1-1.4,1.4v3.4h-0.9
		L-172.8,210.4L-172.8,210.4z"/>
	<path d="M-213.3,222.1c-0.1-1.5,0.8-2.6,2.4-2.6c1.3,0,2.3,0.8,2.3,2.1s-0.9,2-1.8,2.5c-0.9,0.6-1.9,1-2.1,2h3.8v0.8h-4.9
		c0.1-1.8,1-2.4,2.1-3c1.3-0.8,1.9-1.2,1.9-2.3c0-0.8-0.7-1.3-1.4-1.3c-1,0-1.5,1-1.4,1.8H-213.3z"/>
	<path d="M-204.1,226.9h-0.9v-5.3h-2v-0.7c1,0,1.9-0.3,2.1-1.4h0.7v7.4H-204.1z"/>
	<path d="M-202,223.5h5.2v0.8h-5.2V223.5z"/>
	<path d="M-196.3,222.1c-0.1-1.5,0.8-2.6,2.4-2.6c1.3,0,2.3,0.8,2.3,2.1s-0.9,2-1.8,2.5c-0.9,0.6-1.9,1-2.1,2h3.8v0.8h-4.9
		c0.1-1.8,1-2.4,2.1-3c1.3-0.8,1.9-1.2,1.9-2.3c0-0.8-0.7-1.3-1.4-1.3c-1,0-1.5,1-1.4,1.8H-196.3z"/>
	<path d="M-186.6,224.3h1v0.8h-1v1.7h-0.8v-1.7h-3.3v-0.9l3.4-4.8h0.7C-186.6,219.4-186.6,224.3-186.6,224.3z M-187.4,224.3v-3.6
		l0,0l-2.5,3.6H-187.4z"/>
	<path d="M-181.5,221.4h0.8v0.8l0,0c0.4-0.6,1-0.9,1.8-0.9c0.7,0,1.3,0.3,1.5,0.9c0.4-0.6,1-0.9,1.7-0.9c1.1,0,1.8,0.5,1.8,1.6v4
		h-0.9v-3.6c0-0.7-0.2-1.2-1-1.2c-0.9,0-1.4,0.5-1.4,1.4v3.4h-0.9v-3.6c0-0.7-0.2-1.2-1-1.2c-1.1,0-1.4,1-1.4,1.4v3.4h-0.9
		L-181.5,221.4L-181.5,221.4z"/>
	<path d="M-170.4,219.2h0.8l-3.1,7.8h-0.8L-170.4,219.2z"/>
	<path d="M-168.6,225.2c0,0.8,0.7,1,1.5,1c0.6,0,1.3-0.1,1.3-0.8c0-0.7-0.9-0.8-1.8-1c-0.9-0.2-1.8-0.5-1.8-1.5c0-1.1,1.1-1.5,2-1.5
		c1.2,0,2.2,0.4,2.2,1.7h-0.8c-0.1-0.7-0.7-0.9-1.3-0.9c-0.5,0-1.2,0.1-1.2,0.7s0.9,0.7,1.8,0.9c0.9,0.2,1.8,0.5,1.8,1.5
		c0,1.3-1.2,1.7-2.3,1.7c-1.2,0-2.2-0.5-2.3-1.8L-168.6,225.2L-168.6,225.2z"/>
</g>
<g>
	<path fill="#FFFFFF" d="M-133.7,369.3c2.4-0.1,3.8-0.1,4.2-2.9h1.1v15.1h-1.4v-11.2h-4L-133.7,369.3L-133.7,369.3z"/>
	<path fill="#FFFFFF" d="M-112.6,374c0,3.5-0.9,7.8-5.3,7.8s-5.3-4.2-5.3-7.8c0-3.5,0.9-7.8,5.3-7.8
		C-113.4,366.2-112.6,370.5-112.6,374z M-121.7,374c0,2.6,0.5,6.6,3.9,6.6s3.9-4,3.9-6.6s-0.5-6.6-3.9-6.6S-121.7,371.4-121.7,374z"
		/>
</g>
<g>
	<path fill="#FFFFFF" d="M-63.2,377.1c0.1,2.1,1.6,3.5,3.7,3.5c2.3,0,3.8-1.9,3.8-4.1s-1.6-3.9-3.9-3.9c-1.3,0-2.6,0.6-3.4,1.8h-1.2
		l1.5-7.8h7.5v1.2h-6.6l-1,5l0,0c0.8-0.9,2-1.4,3.2-1.4c3.1,0,5.1,2.2,5.1,5.2s-2.3,5.1-5.2,5.1c-2.8,0-4.9-1.8-5-4.6H-63.2z"/>
</g>
<g>
	<path fill="#FFFFFF" d="M7.7,374c0,3.5-0.9,7.8-5.3,7.8s-5.3-4.2-5.3-7.8c0-3.5,0.9-7.8,5.3-7.8S7.7,370.5,7.7,374z M-1.4,374
		c0,2.6,0.5,6.6,3.9,6.6s3.9-4,3.9-6.6s-0.5-6.6-3.9-6.6S-1.4,371.4-1.4,374z"/>
</g>
<g>
	<path fill="#FFFFFF" d="M56.3,376.1v-1.2h5.4v1.2H56.3z"/>
	<path fill="#FFFFFF" d="M65.1,377.1c0.1,2.1,1.6,3.5,3.7,3.5c2.3,0,3.8-1.9,3.8-4.1s-1.6-3.9-3.9-3.9c-1.3,0-2.6,0.6-3.4,1.8h-1.2
		l1.5-7.8h7.5v1.2h-6.6l-1,5l0,0c0.8-0.9,2-1.4,3.2-1.4c3.1,0,5.1,2.2,5.1,5.2s-2.3,5.1-5.2,5.1c-2.8,0-4.9-1.8-5-4.6H65.1z"/>
</g>
<g>
	<path fill="#FFFFFF" d="M111.5,376.1v-1.2h5.4v1.2H111.5z"/>
	<path fill="#FFFFFF" d="M120.3,369.3c2.4-0.1,3.8-0.1,4.2-2.9h1.1v15.1h-1.4v-11.2h-4L120.3,369.3L120.3,369.3z"/>
	<path fill="#FFFFFF" d="M141.4,374c0,3.5-0.9,7.8-5.3,7.8s-5.3-4.2-5.3-7.8c0-3.5,0.9-7.8,5.3-7.8S141.4,370.5,141.4,374z
		 M132.2,374c0,2.6,0.5,6.6,3.9,6.6s3.9-4,3.9-6.6s-0.5-6.6-3.9-6.6S132.2,371.4,132.2,374z"/>
</g>
<g>
	<path fill="#FFFFFF" d="M-126,337.7l7-10h1.2v10.2h2.3v1.1h-2.3v3.7h-1.2V339h-7V337.7z M-119.1,337.9v-8.2l0,0l-5.7,8.2H-119.1z"
		/>
</g>
<g>
	<path fill="#FFFFFF" d="M-69.6,337.5v-1.2h5.4v1.2H-69.6z"/>
	<path fill="#FFFFFF" d="M-52.2,342.8h-9.9c0.1-4.5,4.7-5.6,7.3-8.1c0.8-0.8,1.2-1.6,1.2-2.8c0-2-1.6-3.1-3.4-3.1
		c-2.5,0-3.4,2-3.4,4.2h-1.4c-0.1-3.1,1.6-5.3,4.8-5.3c2.6,0,4.7,1.4,4.7,4.2c0,2.5-1.8,4.1-3.8,5.4c-1.5,1-4.2,2.3-4.5,4.4h8.4
		L-52.2,342.8L-52.2,342.8z"/>
</g>
<g>
	<path fill="#FFFFFF" d="M-10.5,337.5v-1.2h5.4v1.2H-10.5z"/>
	<path fill="#FFFFFF" d="M4.2,334.7L4.2,334.7c1.9,0.4,3.1,1.9,3.1,3.9c0,3-2.4,4.5-5.2,4.5s-5.2-1.5-5.2-4.5c0-2,1.2-3.5,3.1-3.9
		l0,0c-1.6-0.5-2.5-1.7-2.5-3.3c0-2.6,2.3-3.8,4.6-3.8c2.2,0,4.6,1.2,4.6,3.8C6.7,333,5.8,334.2,4.2,334.7z M6,338.6
		c0-2.2-1.8-3.3-3.8-3.3c-2.1,0-3.8,1.1-3.8,3.3c0,2.3,1.7,3.4,3.8,3.4C4.2,342,6,340.9,6,338.6z M5.3,331.4c0-1.7-1.4-2.6-3.2-2.6
		c-1.7,0-3.2,0.9-3.2,2.6c0,2,1.6,2.8,3.2,2.8C3.8,334.2,5.3,333.3,5.3,331.4z"/>
</g>
<g>
	<path fill="#FFFFFF" d="M45.2,337.5v-1.2h5.4v1.2H45.2z"/>
	<path fill="#FFFFFF" d="M54,330.6c2.4-0.1,3.8-0.1,4.2-2.9h1.1v15.1H58v-11.2h-4V330.6z"/>
	<path fill="#FFFFFF" d="M64.5,337.7l7-10h1.2v10.2H75v1.1h-2.3v3.7h-1.2V339h-7V337.7z M71.5,337.9v-8.2l0,0l-5.7,8.2H71.5z"/>
</g>
<g>
	<path fill="#FFFFFF" d="M111.5,337.5v-1.2h5.4v1.2H111.5z"/>
	<path fill="#FFFFFF" d="M128.9,342.8H119c0.1-4.5,4.7-5.6,7.3-8.1c0.8-0.8,1.2-1.6,1.2-2.8c0-2-1.6-3.1-3.4-3.1
		c-2.5,0-3.4,2-3.4,4.2h-1.4c-0.1-3.1,1.6-5.3,4.8-5.3c2.6,0,4.7,1.4,4.7,4.2c0,2.5-1.8,4.1-3.8,5.4c-1.5,1-4.2,2.3-4.5,4.4h8.4
		L128.9,342.8L128.9,342.8z"/>
	<path fill="#FFFFFF" d="M141.4,335.3c0,3.5-0.9,7.8-5.3,7.8s-5.3-4.2-5.3-7.8c0-3.5,0.9-7.8,5.3-7.8
		C140.5,327.6,141.4,331.8,141.4,335.3z M132.2,335.3c0,2.6,0.5,6.6,3.9,6.6s3.9-4,3.9-6.6s-0.5-6.6-3.9-6.6
		S132.2,332.7,132.2,335.3z"/>
</g>
<g>
	<path fill="#FFFFFF" d="M-115.4,296.7c0,3.5-0.9,7.8-5.3,7.8s-5.3-4.2-5.3-7.8c0-3.5,0.9-7.8,5.3-7.8S-115.4,293.2-115.4,296.7z
		 M-124.6,296.7c0,2.6,0.5,6.6,3.9,6.6s3.9-4,3.9-6.6s-0.5-6.6-3.9-6.6S-124.6,294.1-124.6,296.7z"/>
</g>
<g>
	<path fill="#FFFFFF" d="M-69.6,298.8v-1.2h5.4v1.2H-69.6z"/>
	<path fill="#FFFFFF" d="M-61.8,289.3h9.7v1.2c-1.9,2-5.7,6.6-6.1,13.6h-1.5c0.4-5.1,2-8.9,6.2-13.6h-8.3L-61.8,289.3L-61.8,289.3z"
		/>
</g>
<g>
	<path fill="#FFFFFF" d="M-10.5,298.8v-1.2h5.4v1.2H-10.5z"/>
	<path fill="#FFFFFF" d="M-1.8,292c2.4-0.1,3.8-0.1,4.2-2.9h1.1v15.1H2.1V293h-4L-1.8,292L-1.8,292z"/>
	<path fill="#FFFFFF" d="M8.8,299.1l7-10H17v10.2h2.3v1.1H17v3.7h-1.2v-3.7h-7V299.1z M15.7,299.3v-8.2l0,0l-5.7,8.2H15.7z"/>
</g>
<g>
	<path fill="#FFFFFF" d="M45.2,298.8v-1.2h5.4v1.2H45.2z"/>
	<path fill="#FFFFFF" d="M62.6,304.1h-9.9c0.1-4.5,4.7-5.6,7.3-8.1c0.8-0.8,1.2-1.6,1.2-2.8c0-2-1.6-3.1-3.4-3.1
		c-2.5,0-3.4,2-3.4,4.2H53c-0.1-3.1,1.6-5.3,4.8-5.3c2.6,0,4.7,1.4,4.7,4.2c0,2.5-1.8,4.1-3.8,5.4c-1.5,1-4.2,2.3-4.5,4.4h8.4V304.1
		L62.6,304.1z"/>
	<path fill="#FFFFFF" d="M66,292c2.4-0.1,3.8-0.1,4.2-2.9h1.1v15.1H70V293h-4V292z"/>
</g>
<g>
	<path fill="#FFFFFF" d="M111.5,298.8v-1.2h5.4v1.2H111.5z"/>
	<path fill="#FFFFFF" d="M128.9,304.1H119c0.1-4.5,4.7-5.6,7.3-8.1c0.8-0.8,1.2-1.6,1.2-2.8c0-2-1.6-3.1-3.4-3.1
		c-2.5,0-3.4,2-3.4,4.2h-1.4c-0.1-3.1,1.6-5.3,4.8-5.3c2.6,0,4.7,1.4,4.7,4.2c0,2.5-1.8,4.1-3.8,5.4c-1.5,1-4.2,2.3-4.5,4.4h8.4
		L128.9,304.1L128.9,304.1z"/>
	<path fill="#FFFFFF" d="M132.6,300.5c0.2,1.7,1.4,2.8,3.1,2.8c3.5,0,4.2-4,4.2-6.7l0,0c-0.7,1.5-2.3,2.5-4,2.5c-3,0-5-2.1-5-5
		s2.1-5.1,5.1-5.1c3.7,0,5.3,2.1,5.3,8c0,1.8-0.5,7.5-5.4,7.5c-2.6,0-4.3-1.3-4.6-3.9h1.3V300.5z M139.6,294c0-2.1-1.1-3.9-3.8-3.9
		c-2.2,0-3.6,1.8-3.6,3.9c0,2.2,1.3,4,3.6,4C138.2,297.9,139.6,296.2,139.6,294z"/>
</g>
<g>
	<path fill="#FFFFFF" d="M-132.6,259.4v-1.2h5.4v1.2H-132.6z"/>
	<path fill="#FFFFFF" d="M-123.8,259.9c-0.1,2.4,1.3,4,3.8,4c2,0,3.9-1.2,3.9-3.3c0-2.1-1.6-3.2-3.6-3.2h-1.1v-1.1h1.1
		c1.4,0,3.1-0.8,3.1-2.7c0-2-1.5-2.8-3.3-2.8c-2.3,0-3.5,1.6-3.4,3.8h-1.4c0-2.8,1.8-5,4.8-5c2.4,0,4.7,1.2,4.7,3.8
		c0,1.6-0.9,3-2.5,3.3l0,0c2,0.3,3.1,1.7,3.1,3.7c0,3-2.4,4.6-5.2,4.6c-3.1,0-5.4-1.9-5.1-5.1C-124.9,259.9-123.8,259.9-123.8,259.9
		z"/>
</g>
<g>
	<path fill="#FFFFFF" d="M-75.1,259.4v-1.2h5.4v1.2H-75.1z"/>
	<path fill="#FFFFFF" d="M-66.4,252.5c2.4-0.1,3.8-0.1,4.2-2.9h1.1v15.1h-1.4v-11.2h-4L-66.4,252.5L-66.4,252.5z"/>
	<path fill="#FFFFFF" d="M-54.4,252.5c2.4-0.1,3.8-0.1,4.2-2.9h1.1v15.1h-1.4v-11.2h-4L-54.4,252.5L-54.4,252.5z"/>
</g>
<g>
	<path fill="#FFFFFF" d="M-10.5,259.4v-1.2h5.4v1.2H-10.5z"/>
	<path fill="#FFFFFF" d="M-1.8,252.5c2.4-0.1,3.8-0.1,4.2-2.9h1.1v15.1H2.1v-11.2h-4L-1.8,252.5L-1.8,252.5z"/>
	<path fill="#FFFFFF" d="M16.2,256.5L16.2,256.5c1.9,0.4,3.1,1.9,3.1,3.9c0,3-2.4,4.5-5.2,4.5s-5.2-1.5-5.2-4.5c0-2,1.2-3.5,3.1-3.9
		l0,0c-1.6-0.5-2.5-1.7-2.5-3.3c0-2.6,2.3-3.8,4.6-3.8c2.2,0,4.6,1.2,4.6,3.8C18.7,254.9,17.8,256.1,16.2,256.5z M17.9,260.4
		c0-2.2-1.8-3.3-3.8-3.3c-2.1,0-3.8,1.1-3.8,3.3c0,2.3,1.7,3.4,3.8,3.4S17.9,262.7,17.9,260.4z M17.3,253.2c0-1.7-1.4-2.6-3.2-2.6
		c-1.7,0-3.2,0.9-3.2,2.6c0,2,1.6,2.8,3.2,2.8C15.8,256.1,17.3,255.2,17.3,253.2z"/>
</g>
<g>
	<path fill="#FFFFFF" d="M45.2,259.4v-1.2h5.4v1.2H45.2z"/>
	<path fill="#FFFFFF" d="M62.6,264.7h-9.9c0.1-4.5,4.7-5.6,7.3-8.1c0.8-0.8,1.2-1.6,1.2-2.8c0-2-1.6-3.1-3.4-3.1
		c-2.5,0-3.4,2-3.4,4.2H53c-0.1-3.1,1.6-5.3,4.8-5.3c2.6,0,4.7,1.4,4.7,4.2c0,2.5-1.8,4.1-3.8,5.4c-1.5,1-4.2,2.3-4.5,4.4h8.4V264.7
		L62.6,264.7z"/>
	<path fill="#FFFFFF" d="M73.4,253.4c-0.2-1.7-1.4-2.8-3.1-2.8c-3.5,0-4.2,4-4.2,6.7l0,0c0.7-1.5,2.3-2.5,4-2.5c3,0,5,2.1,5,5
		s-2.1,5.1-5.1,5.1c-3.7,0-5.3-2.1-5.3-8c0-1.8,0.5-7.5,5.4-7.5c2.6,0,4.3,1.3,4.6,3.9h-1.3V253.4z M66.4,260c0,2.1,1.1,3.9,3.8,3.9
		c2.2,0,3.6-1.8,3.6-3.9c0-2.2-1.3-4-3.6-4C67.8,256,66.4,257.7,66.4,260z"/>
</g>
<g>
	<path fill="#FFFFFF" d="M111.5,259.4v-1.2h5.4v1.2H111.5z"/>
	<path fill="#FFFFFF" d="M120.2,259.9c-0.1,2.4,1.3,4,3.8,4c2,0,3.9-1.2,3.9-3.3c0-2.1-1.6-3.2-3.6-3.2h-1.1v-1.1h1.1
		c1.4,0,3.1-0.8,3.1-2.7c0-2-1.5-2.8-3.3-2.8c-2.3,0-3.5,1.6-3.4,3.8h-1.4c0-2.8,1.8-5,4.8-5c2.4,0,4.7,1.2,4.7,3.8
		c0,1.6-0.9,3-2.5,3.3l0,0c2,0.3,3.1,1.7,3.1,3.7c0,3-2.4,4.6-5.2,4.6c-3.1,0-5.4-1.9-5.1-5.1C119.1,259.9,120.2,259.9,120.2,259.9z
		"/>
	<path fill="#FFFFFF" d="M130.8,259.6l7-10h1.2v10.2h2.3v1.1H139v3.7h-1.2v-3.7h-7V259.6z M137.8,259.8v-8.2l0,0l-5.7,8.2H137.8z"/>
</g>
<g>
	<path fill="#FFFFFF" d="M-132.6,219.6v-1.2h5.4v1.2H-132.6z"/>
	<path fill="#FFFFFF" d="M-125.2,219.8l7-10h1.2V220h2.3v1.1h-2.3v3.7h-1.2v-3.7h-7V219.8z M-118.3,220v-8.2l0,0l-5.7,8.2H-118.3z"
		/>
</g>
<g>
	<path fill="#FFFFFF" d="M-75.1,219.6v-1.2h5.4v1.2H-75.1z"/>
	<path fill="#FFFFFF" d="M-66.4,212.7c2.4-0.1,3.8-0.1,4.2-2.9h1.1v15.1h-1.4v-11.2h-4L-66.4,212.7L-66.4,212.7z"/>
	<path fill="#FFFFFF" d="M-45.8,224.9h-9.9c0.1-4.5,4.7-5.6,7.3-8.1c0.8-0.8,1.2-1.6,1.2-2.8c0-2-1.6-3.1-3.4-3.1
		c-2.5,0-3.4,2-3.4,4.2h-1.4c-0.1-3.1,1.6-5.3,4.8-5.3c2.6,0,4.7,1.4,4.7,4.2c0,2.5-1.8,4.1-3.8,5.4c-1.5,1-4.2,2.3-4.5,4.4h8.4
		L-45.8,224.9L-45.8,224.9z"/>
</g>
<g>
	<path fill="#FFFFFF" d="M-10.5,219.6v-1.2h5.4v1.2H-10.5z"/>
	<path fill="#FFFFFF" d="M6.9,224.9H-3c0.1-4.5,4.7-5.6,7.3-8.1c0.8-0.8,1.2-1.6,1.2-2.8c0-2-1.6-3.1-3.4-3.1c-2.5,0-3.4,2-3.4,4.2
		h-1.4c-0.1-3.1,1.6-5.3,4.8-5.3c2.6,0,4.7,1.4,4.7,4.2c0,2.5-1.8,4.1-3.8,5.4c-1.5,1-4.2,2.3-4.5,4.4h8.4L6.9,224.9L6.9,224.9z"/>
	<path fill="#FFFFFF" d="M19.4,217.5c0,3.5-0.9,7.8-5.3,7.8s-5.3-4.2-5.3-7.8c0-3.5,0.9-7.8,5.3-7.8S19.4,213.9,19.4,217.5z
		 M10.2,217.5c0,2.6,0.5,6.6,3.9,6.6s3.9-4,3.9-6.6c0-2.6-0.5-6.6-3.9-6.6S10.2,214.8,10.2,217.5z"/>
</g>
<g>
	<path fill="#FFFFFF" d="M45.2,219.6v-1.2h5.4v1.2H45.2z"/>
	<path fill="#FFFFFF" d="M62.6,224.9h-9.9c0.1-4.5,4.7-5.6,7.3-8.1c0.8-0.8,1.2-1.6,1.2-2.8c0-2-1.6-3.1-3.4-3.1
		c-2.5,0-3.4,2-3.4,4.2H53c-0.1-3.1,1.6-5.3,4.8-5.3c2.6,0,4.7,1.4,4.7,4.2c0,2.5-1.8,4.1-3.8,5.4c-1.5,1-4.2,2.3-4.5,4.4h8.4V224.9
		L62.6,224.9z"/>
	<path fill="#FFFFFF" d="M72,216.8L72,216.8c1.9,0.4,3.1,1.9,3.1,3.9c0,3-2.4,4.5-5.2,4.5c-2.8,0-5.2-1.5-5.2-4.5
		c0-2,1.2-3.5,3.1-3.9l0,0c-1.6-0.5-2.5-1.7-2.5-3.3c0-2.6,2.3-3.8,4.6-3.8c2.2,0,4.6,1.2,4.6,3.8C74.4,215.1,73.5,216.3,72,216.8z
		 M73.7,220.7c0-2.2-1.8-3.3-3.8-3.3c-2.1,0-3.8,1.1-3.8,3.3c0,2.3,1.7,3.4,3.8,3.4S73.7,223,73.7,220.7z M73.1,213.5
		c0-1.7-1.4-2.6-3.2-2.6c-1.7,0-3.2,0.9-3.2,2.6c0,2,1.6,2.8,3.2,2.8S73.1,215.4,73.1,213.5z"/>
</g>
<g>
	<path fill="#FFFFFF" d="M111.5,219.6v-1.2h5.4v1.2H111.5z"/>
	<path fill="#FFFFFF" d="M120.2,220.1c-0.1,2.4,1.3,4,3.8,4c2,0,3.9-1.2,3.9-3.3s-1.6-3.2-3.6-3.2h-1.1v-1.1h1.1
		c1.4,0,3.1-0.8,3.1-2.7c0-2-1.5-2.8-3.3-2.8c-2.3,0-3.5,1.6-3.4,3.8h-1.4c0-2.8,1.8-5,4.8-5c2.4,0,4.7,1.2,4.7,3.8
		c0,1.6-0.9,3-2.5,3.3l0,0c2,0.3,3.1,1.7,3.1,3.7c0,3-2.4,4.6-5.2,4.6c-3.1,0-5.4-1.9-5.1-5.1H120.2z"/>
	<path fill="#FFFFFF" d="M139.7,213.6c-0.2-1.7-1.4-2.8-3.1-2.8c-3.5,0-4.2,4-4.2,6.7l0,0c0.7-1.5,2.3-2.5,4-2.5c3,0,5,2.1,5,5
		c0,2.9-2.1,5.1-5.1,5.1c-3.7,0-5.3-2.1-5.3-8c0-1.8,0.5-7.5,5.4-7.5c2.6,0,4.3,1.3,4.6,3.9L139.7,213.6L139.7,213.6z M132.7,220.2
		c0,2.1,1.1,3.9,3.8,3.9c2.2,0,3.6-1.8,3.6-3.9c0-2.2-1.3-4-3.6-4C134,216.2,132.7,218,132.7,220.2z"/>
</g>
<g>
	<path fill="#FFFFFF" d="M174.2,376.1v-1.2h5.4v1.2H174.2z"/>
	<path fill="#FFFFFF" d="M182.9,369.3c2.4-0.1,3.8-0.1,4.2-2.9h1.1v15.1h-1.4v-11.2h-4L182.9,369.3L182.9,369.3z"/>
	<path fill="#FFFFFF" d="M194.9,377.1c0.1,2.1,1.6,3.5,3.7,3.5c2.3,0,3.8-1.9,3.8-4.1s-1.6-3.9-3.9-3.9c-1.3,0-2.6,0.6-3.4,1.8H194
		l1.5-7.8h7.5v1.2h-6.6l-1,5l0,0c0.8-0.9,2-1.4,3.2-1.4c3.1,0,5.1,2.2,5.1,5.2s-2.3,5.1-5.2,5.1c-2.8,0-4.9-1.8-5-4.6H194.9z"/>
</g>
<g>
	<path fill="#FFFFFF" d="M234.9,376.1v-1.2h5.4v1.2H234.9z"/>
	<path fill="#FFFFFF" d="M252.3,381.4h-9.9c0.1-4.5,4.7-5.6,7.3-8.1c0.8-0.8,1.2-1.6,1.2-2.8c0-2-1.6-3.1-3.4-3.1
		c-2.5,0-3.4,2-3.4,4.2h-1.4c-0.1-3.1,1.6-5.3,4.8-5.3c2.6,0,4.7,1.4,4.7,4.2c0,2.5-1.8,4.1-3.8,5.4c-1.5,1-4.2,2.3-4.5,4.4h8.4
		L252.3,381.4L252.3,381.4z"/>
	<path fill="#FFFFFF" d="M264.8,374c0,3.5-0.9,7.8-5.3,7.8s-5.3-4.2-5.3-7.8c0-3.5,0.9-7.8,5.3-7.8S264.8,370.5,264.8,374z
		 M255.6,374c0,2.6,0.5,6.6,3.9,6.6s3.9-4,3.9-6.6s-0.5-6.6-3.9-6.6S255.6,371.4,255.6,374z"/>
</g>
<g>
	<path fill="#FFFFFF" d="M174.2,337.5v-1.2h5.4v1.2H174.2z"/>
	<path fill="#FFFFFF" d="M191.5,342.8h-9.9c0.1-4.5,4.7-5.6,7.3-8.1c0.8-0.8,1.2-1.6,1.2-2.8c0-2-1.6-3.1-3.4-3.1
		c-2.5,0-3.4,2-3.4,4.2H182c-0.1-3.1,1.6-5.3,4.8-5.3c2.6,0,4.7,1.4,4.7,4.2c0,2.5-1.8,4.1-3.8,5.4c-1.5,1-4.2,2.3-4.5,4.4h8.4v1.1
		L191.5,342.8L191.5,342.8z"/>
	<path fill="#FFFFFF" d="M202.3,331.5c-0.2-1.7-1.4-2.8-3.1-2.8c-3.5,0-4.2,4-4.2,6.7l0,0c0.7-1.5,2.3-2.5,4-2.5c3,0,5,2.1,5,5
		s-2.1,5.1-5.1,5.1c-3.7,0-5.3-2.1-5.3-8c0-1.8,0.5-7.5,5.4-7.5c2.6,0,4.3,1.3,4.6,3.9h-1.3V331.5z M195.3,338.1
		c0,2.1,1.1,3.9,3.8,3.9c2.2,0,3.6-1.8,3.6-3.9c0-2.2-1.3-4-3.6-4C196.7,334.1,195.3,335.9,195.3,338.1z"/>
</g>
<g>
	<path fill="#FFFFFF" d="M234.9,337.5v-1.2h5.4v1.2H234.9z"/>
	<path fill="#FFFFFF" d="M243.6,338c-0.1,2.4,1.3,4,3.8,4c2,0,3.9-1.2,3.9-3.3s-1.6-3.2-3.6-3.2h-1.1v-1.1h1.1
		c1.4,0,3.1-0.8,3.1-2.7c0-2-1.5-2.8-3.3-2.8c-2.3,0-3.5,1.6-3.4,3.8h-1.4c0-2.8,1.8-5,4.8-5c2.4,0,4.7,1.2,4.7,3.8
		c0,1.6-0.9,3-2.5,3.3l0,0c2,0.3,3.1,1.7,3.1,3.7c0,3-2.4,4.6-5.2,4.6c-3.1,0-5.4-1.9-5.1-5.1H243.6z"/>
	<path fill="#FFFFFF" d="M264.3,342.8h-9.9c0.1-4.5,4.7-5.6,7.3-8.1c0.8-0.8,1.2-1.6,1.2-2.8c0-2-1.6-3.1-3.4-3.1
		c-2.5,0-3.4,2-3.4,4.2h-1.4c-0.1-3.1,1.6-5.3,4.8-5.3c2.6,0,4.7,1.4,4.7,4.2c0,2.5-1.8,4.1-3.8,5.4c-1.5,1-4.2,2.3-4.5,4.4h8.4
		L264.3,342.8L264.3,342.8z"/>
</g>
<g>
	<path fill="#FFFFFF" d="M174.2,298.8v-1.2h5.4v1.2H174.2z"/>
	<path fill="#FFFFFF" d="M182.9,299.3c-0.1,2.4,1.3,4,3.8,4c2,0,3.9-1.2,3.9-3.3s-1.6-3.2-3.6-3.2h-1.1v-1.1h1.1
		c1.4,0,3.1-0.8,3.1-2.7c0-2-1.5-2.8-3.3-2.8c-2.3,0-3.5,1.6-3.4,3.8H182c0-2.8,1.8-5,4.8-5c2.4,0,4.7,1.2,4.7,3.8
		c0,1.6-0.9,3-2.5,3.3l0,0c2,0.3,3.1,1.7,3.1,3.7c0,3-2.4,4.6-5.2,4.6c-3.1,0-5.4-1.9-5.1-5.1H182.9z"/>
	<path fill="#FFFFFF" d="M202.3,292.9c-0.2-1.7-1.4-2.8-3.1-2.8c-3.5,0-4.2,4-4.2,6.7l0,0c0.7-1.5,2.3-2.5,4-2.5c3,0,5,2.1,5,5
		s-2.1,5.1-5.1,5.1c-3.7,0-5.3-2.1-5.3-8c0-1.8,0.5-7.5,5.4-7.5c2.6,0,4.3,1.3,4.6,3.9h-1.3V292.9z M195.3,299.4
		c0,2.1,1.1,3.9,3.8,3.9c2.2,0,3.6-1.8,3.6-3.9c0-2.2-1.3-4-3.6-4C196.7,295.5,195.3,297.2,195.3,299.4z"/>
</g>
<g>
	<path fill="#FFFFFF" d="M234.9,298.8v-1.2h5.4v1.2H234.9z"/>
	<path fill="#FFFFFF" d="M242.2,299.1l7-10h1.2v10.2h2.3v1.1h-2.3v3.7h-1.2v-3.7h-7V299.1z M249.2,299.3v-8.2l0,0l-5.7,8.2H249.2z"
		/>
	<path fill="#FFFFFF" d="M255.6,299.3c-0.1,2.4,1.3,4,3.8,4c2,0,3.9-1.2,3.9-3.3s-1.6-3.2-3.6-3.2h-1.1v-1.1h1.1
		c1.4,0,3.1-0.8,3.1-2.7c0-2-1.5-2.8-3.3-2.8c-2.3,0-3.5,1.6-3.4,3.8h-1.4c0-2.8,1.8-5,4.8-5c2.4,0,4.7,1.2,4.7,3.8
		c0,1.6-0.9,3-2.5,3.3l0,0c2,0.3,3.1,1.7,3.1,3.7c0,3-2.4,4.6-5.2,4.6c-3.1,0-5.4-1.9-5.1-5.1H255.6z"/>
</g>
<g>
	<path fill="#FFFFFF" d="M174.2,259.4v-1.2h5.4v1.2H174.2z"/>
	<path fill="#FFFFFF" d="M181.5,259.6l7-10h1.2v10.2h2.3v1.1h-2.3v3.7h-1.2v-3.7h-7V259.6z M188.4,259.8v-8.2l0,0l-5.7,8.2H188.4z"
		/>
	<path fill="#FFFFFF" d="M203.5,264.7h-9.9c0.1-4.5,4.7-5.6,7.3-8.1c0.8-0.8,1.2-1.6,1.2-2.8c0-2-1.6-3.1-3.4-3.1
		c-2.5,0-3.4,2-3.4,4.2H194c-0.1-3.1,1.6-5.3,4.8-5.3c2.6,0,4.7,1.4,4.7,4.2c0,2.5-1.8,4.1-3.8,5.4c-1.5,1-4.2,2.3-4.5,4.4h8.4v1.1
		C203.6,264.7,203.5,264.7,203.5,264.7z"/>
</g>
<g>
	<path fill="#FFFFFF" d="M234.9,259.4v-1.2h5.4v1.2H234.9z"/>
	<path fill="#FFFFFF" d="M242.2,259.6l7-10h1.2v10.2h2.3v1.1h-2.3v3.7h-1.2v-3.7h-7V259.6z M249.2,259.8v-8.2l0,0l-5.7,8.2H249.2z"
		/>
	<path fill="#FFFFFF" d="M256,261c0.2,1.7,1.4,2.8,3.1,2.8c3.5,0,4.2-4,4.2-6.7l0,0c-0.7,1.5-2.3,2.5-4,2.5c-3,0-5-2.1-5-5
		c0-2.9,2.1-5.1,5.1-5.1c3.7,0,5.3,2.1,5.3,8c0,1.8-0.5,7.5-5.4,7.5c-2.6,0-4.3-1.3-4.6-3.9h1.3V261z M263,254.5
		c0-2.1-1.1-3.9-3.8-3.9c-2.2,0-3.6,1.8-3.6,3.9c0,2.2,1.3,4,3.6,4C261.7,258.5,263,256.7,263,254.5z"/>
</g>
<g>
	<path fill="#FFFFFF" d="M174.2,219.6v-1.2h5.4v1.2H174.2z"/>
	<path fill="#FFFFFF" d="M181.5,219.8l7-10h1.2V220h2.3v1.1h-2.3v3.7h-1.2v-3.7h-7V219.8z M188.4,220v-8.2l0,0l-5.7,8.2H188.4z"/>
	<path fill="#FFFFFF" d="M193.5,219.8l7-10h1.2V220h2.3v1.1h-2.3v3.7h-1.2v-3.7h-7V219.8z M200.4,220v-8.2l0,0l-5.7,8.2H200.4z"/>
</g>
<g>
	<path fill="#FFFFFF" d="M234.9,219.6v-1.2h5.4v1.2H234.9z"/>
	<path fill="#FFFFFF" d="M243.7,220.6c0.1,2.1,1.6,3.5,3.7,3.5c2.3,0,3.8-1.9,3.8-4.1s-1.6-3.9-3.9-3.9c-1.3,0-2.6,0.6-3.4,1.8h-1.2
		l1.5-7.8h7.5v1.2h-6.6l-1,5l0,0c0.8-0.9,2-1.4,3.2-1.4c3.1,0,5.1,2.2,5.1,5.2s-2.3,5.1-5.2,5.1c-2.8,0-4.9-1.8-5-4.6H243.7z"/>
	<path fill="#FFFFFF" d="M264.3,224.9h-9.9c0.1-4.5,4.7-5.6,7.3-8.1c0.8-0.8,1.2-1.6,1.2-2.8c0-2-1.6-3.1-3.4-3.1
		c-2.5,0-3.4,2-3.4,4.2h-1.4c-0.1-3.1,1.6-5.3,4.8-5.3c2.6,0,4.7,1.4,4.7,4.2c0,2.5-1.8,4.1-3.8,5.4c-1.5,1-4.2,2.3-4.5,4.4h8.4
		L264.3,224.9L264.3,224.9z"/>
</g>
<g>
	<path d="M3,408.5h1.8v6.7h4v1.5H3V408.5z"/>
	<path d="M16.9,413.7c0,2.2-1.3,3.3-3.5,3.3s-3.5-1.1-3.5-3.3v-5.1h1.8v5.1c0,0.9,0.2,1.8,1.7,1.8c1.3,0,1.7-0.6,1.7-1.8v-5.1h1.8
		V413.7z"/>
	<path d="M18.5,408.5h5.8v1.5h-4v1.9h3.5v1.4h-3.5v3.4h-1.8V408.5z"/>
	<path d="M27.2,410.1h-2.5v-1.5h6.8v1.5H29v6.7h-1.8V410.1z"/>
	<path d="M34.3,410.1h-2.5v-1.5h6.8v1.5h-2.5v6.7h-1.8V410.1z"/>
	<path d="M39.5,408.5h6.2v1.5h-4.4v1.8h4v1.4h-4v2h4.5v1.5h-6.3L39.5,408.5L39.5,408.5z"/>
	<path d="M47,408.5h2.6l1.9,5.7l0,0l1.8-5.7h2.6v8.3h-1.7v-5.9l0,0l-2,5.9h-1.4l-2-5.8l0,0v5.8H47V408.5z"/>
	<path d="M57.6,408.5h3.7c2.1,0,2.9,1.3,2.9,2.7c0,1.3-0.8,2.7-2.9,2.7h-1.9v3h-1.8L57.6,408.5L57.6,408.5z M59.4,412.4h1.4
		c0.8,0,1.6-0.2,1.6-1.2c0-1.1-0.8-1.2-1.6-1.2h-1.4V412.4z"/>
	<path d="M65.3,408.5h6.2v1.5h-4.4v1.8h4v1.4h-4v2h4.5v1.5h-6.3L65.3,408.5L65.3,408.5z"/>
	<path d="M72.8,408.5h4.5c1.5,0,2.4,1,2.4,2.3c0,1-0.4,1.7-1.3,2.1l0,0c0.9,0.2,1.1,1.1,1.2,1.9c0,0.5,0,1.5,0.3,2h-1.8
		c-0.2-0.5-0.2-1.3-0.3-2c-0.1-0.9-0.5-1.3-1.4-1.3h-1.8v3.2h-1.8L72.8,408.5L72.8,408.5z M74.6,412.3h2c0.8,0,1.3-0.3,1.3-1.2
		c0-0.8-0.4-1.1-1.3-1.1h-2V412.3z"/>
	<path d="M83.4,408.5h1.9l3.1,8.3h-1.9l-0.6-1.8h-3.1l-0.6,1.8h-1.8L83.4,408.5z M83.3,413.6h2.1l-1-3l0,0L83.3,413.6z"/>
	<path d="M90.1,410.1h-2.5v-1.5h6.8v1.5h-2.5v6.7h-1.8V410.1z"/>
	<path d="M102.4,413.7c0,2.2-1.3,3.3-3.5,3.3s-3.5-1.1-3.5-3.3v-5.1h1.8v5.1c0,0.9,0.2,1.8,1.7,1.8c1.3,0,1.7-0.6,1.7-1.8v-5.1h1.8
		V413.7z"/>
	<path d="M103.9,408.5h4.5c1.5,0,2.4,1,2.4,2.3c0,1-0.4,1.7-1.3,2.1l0,0c0.9,0.2,1.1,1.1,1.2,1.9c0,0.5,0,1.5,0.3,2h-1.8
		c-0.2-0.5-0.2-1.3-0.3-2c-0.1-0.9-0.5-1.3-1.4-1.3h-1.8v3.2h-1.8L103.9,408.5L103.9,408.5z M105.8,412.3h2c0.8,0,1.3-0.3,1.3-1.2
		c0-0.8-0.4-1.1-1.3-1.1h-2V412.3z"/>
	<path d="M117.1,408.5c1,0,1.7,0.8,1.7,1.7c0,1-0.8,1.7-1.7,1.7s-1.7-0.8-1.7-1.7C115.3,409.3,116.1,408.5,117.1,408.5z
		 M117.1,411.3c0.5,0,1-0.5,1-1c0-0.6-0.5-1-1-1s-1,0.5-1,1S116.6,411.3,117.1,411.3z"/>
	<path d="M126.3,411c-0.3-1.3-1.3-2-2.5-2c-2.2,0-3.1,1.8-3.1,3.6c0,1.8,0.9,3.6,3.1,3.6c1.5,0,2.5-1.2,2.7-2.7h0.8
		c-0.2,2-1.5,3.3-3.4,3.3c-2.6,0-3.9-2.1-3.9-4.3c0-2.3,1.3-4.3,3.9-4.3c1.6,0,3.1,0.9,3.3,2.7L126.3,411L126.3,411z"/>
</g>
<g>
	<path d="M-237.7,239.8v-2.1l9-2.7v1.9l-6.4,1.8l0,0l6.4,1.9v1.9L-237.7,239.8z"/>
	<path d="M-228.7,243.2v1.8h-9v-1.8H-228.7z"/>
	<path d="M-228.7,246.7v1.8l-6.1,3.5l0,0h6.1v1.7h-9v-1.8l6-3.4l0,0h-6v-1.8C-237.7,246.7-228.7,246.7-228.7,246.7z"/>
	<path d="M-228.7,255.3v3.6c0,2.1-1.5,3.8-4.5,3.8c-2.6,0-4.6-1.2-4.6-3.8v-3.6H-228.7z M-236.1,257.1v1.6c0,1.1,0.7,2.1,2.7,2.1
		c1.8,0,3-0.6,3-2.4v-1.3C-230.4,257.1-236.1,257.1-236.1,257.1z"/>
	<path d="M-228.7,263.9v1.8h-3.5v3.4h3.5v1.8h-9v-1.8h3.9v-3.4h-3.9v-1.8H-228.7z"/>
	<path d="M-228.7,274.7v1.9l-9,3.1v-1.9l2-0.6v-3.1l-2-0.6v-1.8L-228.7,274.7z M-234.3,274.5v2.1l3.3-1l0,0L-234.3,274.5z"/>
	<path d="M-234.7,281.6c-1.2,0-1.7,0.9-1.7,1.8c0,0.6,0.2,1.6,1.1,1.6c1,0,1.1-1.2,1.5-2.5c0.4-1.2,0.9-2.5,2.6-2.5
		c1.8,0,2.7,1.6,2.7,3.1c0,1.7-0.8,3.3-2.9,3.3v-1.8c1.1-0.1,1.4-0.8,1.4-1.6c0-0.6-0.3-1.3-1-1.3c-0.7,0-0.8,0.4-1.4,2.5
		c-0.2,0.6-0.6,2.5-2.6,2.5c-1.7,0-2.9-1.2-2.9-3.4c0-1.8,1-3.5,3.2-3.5C-234.7,279.8-234.7,281.6-234.7,281.6z"/>
	<path d="M-230.4,289.7v-2.5h1.7v6.8h-1.7v-2.5h-7.4v-1.8H-230.4z"/>
	<path d="M-228.7,295v1.8h-9V295H-228.7z"/>
	<path d="M-236.7,304.4c-0.9-0.6-1.2-1.5-1.2-2.3c0-2.6,2.1-4.1,4.7-4.1c2.7,0,4.8,1.5,4.8,4.1c0,1.7-1.1,3.3-3.2,3.5v-1.7
		c1-0.2,1.5-0.9,1.5-1.8c0-1.6-1.5-2.2-3.1-2.2c-1.5,0-3,0.6-3,2.2c0,1.2,0.7,1.9,1.9,2v-1.8h1.5v3.5h-4.9v-1.2L-236.7,304.4z"/>
	<path d="M-228.7,307.2v1.8h-3.5v3.4h3.5v1.8h-9v-1.8h3.9V309h-3.9v-1.8H-228.7z"/>
	<path d="M-228.7,315.8v6.2h-1.7v-4.4h-1.9v4h-1.5v-4h-2.2v4.5h-1.7v-6.3H-228.7z"/>
	<path d="M-230.4,325.2v-2.5h1.7v6.8h-1.7V327h-7.4v-1.8H-230.4z"/>
	<path d="M-228.7,333.6v1.2l-7.9,2.9l7.9,2.9v1.2h-9V341h7.8l0,0l-7.8-2.8v-0.7l7.8-2.8l0,0h-7.8v-0.8h9
		C-228.7,333.9-228.7,333.6-228.7,333.6z"/>
	<path d="M-237.9,342.3l9.4,3.6v0.6l-9.4-3.5V342.3z"/>
	<path d="M-234.8,347.6c-1.9,0-2.4,1.2-2.4,2.7c0,0.9,0.5,2.2,1.8,2.2c1,0,1.4-0.9,1.6-1.7l0.5-1.8c0.3-1,0.8-1.9,2.2-1.9
		c0.9,0,2.5,0.5,2.5,2.9c0,1.6-1,3.1-2.8,3.1v-0.8c1.4,0,2.1-1.1,2.1-2.3c0-1.1-0.5-2.1-1.8-2.1c-0.8,0-1.2,0.6-1.4,1.3l-0.5,2
		c-0.3,1.2-0.9,2.1-2.4,2.1c-0.6,0-2.6-0.2-2.6-3.2c0-2,1-3.4,3.2-3.3C-234.8,346.8-234.8,347.6-234.8,347.6z"/>
</g>
<g>
	<rect x="132.1" y="413" width="91.2" height="0.6"/>
	<polygon points="219.5,417.3 219.1,416.9 223,413.3 219.1,409.7 219.5,409.3 223.8,413.3 	"/>
</g>
<g>
	<rect x="-96.3" y="413" width="91.1" height="0.6"/>
	<polygon points="-92.4,417.3 -96.7,413.3 -92.4,409.3 -92,409.7 -95.9,413.3 -92,416.9 	"/>
</g>
</svg>
