<?xml version="1.0" encoding="utf-8"?>
<!-- Generator: Adobe Illustrator 18.1.1, SVG Export Plug-In . SVG Version: 6.00 Build 0)  -->
<svg version="1.1" id="Layer_1" xmlns="http://www.w3.org/2000/svg" xmlns:xlink="http://www.w3.org/1999/xlink" x="0px" y="0px"
	 viewBox="0 0 782 524" enable-background="new 0 0 782 524" xml:space="preserve">
<linearGradient id="SVGID_1_" gradientUnits="userSpaceOnUse" x1="297.0853" y1="231.3944" x2="686.0731" y2="43.6072">
	<stop  offset="0.2379" style="stop-color:#1C75BC"/>
	<stop  offset="1" style="stop-color:#9E1F63"/>
</linearGradient>
<rect x="139.7" y="14.3" fill="url(#SVGID_1_)" width="623.1" height="285.3"/>
<g>
	<rect x="136.3" fill="#FFFFFF" width="0.8" height="303.3"/>
	<rect x="227.3" fill="#FFFFFF" width="0.8" height="303.3"/>
	<rect x="318.3" fill="#FFFFFF" width="0.8" height="303.3"/>
	<rect x="409.3" fill="#FFFFFF" width="0.8" height="303.3"/>
	<rect x="500.3" fill="#FFFFFF" width="0.8" height="303.3"/>
	<rect x="591.3" fill="#FFFFFF" width="0.8" height="303.3"/>
</g>
<rect x="682.4" fill="#FFFFFF" width="0.8" height="303.3"/>
<rect x="773.5" fill="#FFFFFF" width="0.8" height="303.3"/>
<g>
	<rect x="139.1" y="14" fill="#FFFFFF" width="626.4" height="0.8"/>
	<rect x="139.1" y="71.1" fill="#FFFFFF" width="626.4" height="0.8"/>
	<rect x="139.1" y="128.3" fill="#FFFFFF" width="626.4" height="0.8"/>
	<rect x="139.1" y="185.5" fill="#FFFFFF" width="626.4" height="0.8"/>
	<rect x="139.1" y="242.7" fill="#FFFFFF" width="626.4" height="0.8"/>
	<rect x="139.1" y="299.8" fill="#FFFFFF" width="626.4" height="0.8"/>
</g>
<g>
	<rect x="22" y="15.5" width="0.8" height="47.8"/>
	<polygon points="17.2,21.7 16.6,21.1 22.4,14.9 28.2,21.1 27.6,21.7 22.4,16.1 	"/>
</g>
<g>
	<rect x="22" y="251.7" width="0.8" height="41"/>
	<polygon points="22.4,293.3 16.6,287 17.2,286.5 22.4,292.1 27.6,286.5 28.2,287 	"/>
</g>
<g>
	<path d="M97.6,260.1c-0.2-1.5-1.2-2.2-2.7-2.2c-1.2,0-2.4,0.4-2.4,1.9c0,1.3,1.7,1.5,3.5,1.9c1.7,0.4,3.5,1,3.5,3.1
		c0,2.3-2.3,3.2-4.2,3.2c-2.4,0-4.5-1.2-4.5-3.8h1.4c0,1.8,1.5,2.6,3.2,2.6c1.3,0,2.7-0.4,2.7-2c0-1.5-1.7-1.7-3.5-2.1
		c-1.7-0.4-3.5-0.9-3.5-2.9c0-2.2,2-3.2,3.9-3.2c2.2,0,3.9,1,4,3.4H97.6z"/>
	<path d="M102.8,259.9h1.6v1.1h-1.6v4.9c0,0.6,0.2,0.7,1,0.7h0.6v1.1h-1c-1.3,0-1.9-0.3-1.9-1.7v-5h-1.3v-1.1h1.3v-2.4h1.3V259.9z"
		/>
	<path d="M107.1,258.5h-1.3v-1.6h1.3V258.5z M105.8,259.9h1.3v7.8h-1.3V259.9z"/>
	<path d="M109.2,256.9h1.3v10.8h-1.3V256.9z"/>
	<path d="M112.6,256.9h1.3v10.8h-1.3V256.9z"/>
	<path d="M122.6,265.2c-0.3,1.7-1.6,2.7-3.4,2.7c-2.5,0-3.7-1.7-3.8-4.1c0-2.4,1.5-4.1,3.7-4.1c2.8,0,3.6,2.6,3.6,4.5h-5.9
		c0,1.4,0.7,2.6,2.4,2.6c1.1,0,1.8-0.5,2-1.5H122.6z M121.3,263c-0.1-1.2-1-2.2-2.3-2.2c-1.4,0-2.2,1-2.2,2.2H121.3z"/>
	<path d="M89,272.9c3.4,0,3.6,3.1,3.6,5.5c0,2.4-0.2,5.5-3.6,5.5c-3.4,0-3.6-3.1-3.6-5.5C85.4,276,85.7,272.9,89,272.9z M89,282.7
		c2.2,0,2.2-2.7,2.2-4.3c0-1.6,0-4.3-2.2-4.3c-2.2,0-2.2,2.7-2.2,4.3C86.8,280,86.8,282.7,89,282.7z"/>
	<path d="M98.4,275.9h1.2v1.2h0c0.6-0.9,1.5-1.3,2.5-1.3c1,0,1.8,0.4,2.2,1.3c0.5-0.8,1.5-1.3,2.5-1.3c1.6,0,2.6,0.7,2.6,2.3v5.8
		h-1.3v-5.1c0-1-0.3-1.7-1.5-1.7c-1.2,0-2,0.8-2,2v4.9h-1.3v-5.1c0-1-0.3-1.7-1.5-1.7c-1.5,0-2.1,1.4-2.1,2v4.9h-1.3V275.9z"/>
	<path d="M114.6,272.6h1.1l-4.5,11.4h-1.1L114.6,272.6z"/>
	<path d="M117.2,281.2c0,1.2,1,1.5,2.1,1.5c0.8,0,1.9-0.2,1.9-1.2c0-1-1.3-1.2-2.6-1.5c-1.3-0.3-2.6-0.7-2.6-2.2
		c0-1.6,1.6-2.2,2.9-2.2c1.7,0,3.1,0.5,3.2,2.5H121c-0.1-1-1-1.3-1.8-1.3c-0.8,0-1.7,0.2-1.7,1c0,0.9,1.4,1.1,2.6,1.4
		c1.3,0.3,2.6,0.7,2.6,2.2c0,1.9-1.7,2.5-3.3,2.5c-1.8,0-3.2-0.7-3.3-2.7H117.2z"/>
</g>
<g>
	<path d="M68.8,200.1h1.4v9.6H76v1.2h-7.2V200.1z"/>
	<path d="M83.8,208.5c-0.3,1.7-1.6,2.7-3.4,2.7c-2.5,0-3.7-1.7-3.8-4.1c0-2.4,1.5-4.1,3.7-4.1c2.8,0,3.6,2.6,3.6,4.5H78
		c0,1.4,0.7,2.6,2.4,2.6c1.1,0,1.8-0.5,2-1.5H83.8z M82.5,206.3c-0.1-1.2-1-2.2-2.3-2.2c-1.4,0-2.2,1-2.2,2.2H82.5z"/>
	<path d="M87,203.1h1.6v1.1H87v4.9c0,0.6,0.2,0.7,1,0.7h0.6v1.1h-1c-1.3,0-1.9-0.3-1.9-1.7v-5h-1.3v-1.1h1.3v-2.4H87V203.1z"/>
	<path d="M91.8,203.1h1.6v1.1h-1.6v4.9c0,0.6,0.2,0.7,1,0.7h0.6v1.1h-1c-1.3,0-1.9-0.3-1.9-1.7v-5h-1.3v-1.1h1.3v-2.4h1.3V203.1z"/>
	<path d="M99.1,200.1h1.3v4.1h0c0.4-0.9,1.4-1.2,2.5-1.2c2.4,0,3.6,1.9,3.6,4.1s-1.2,4.1-3.6,4.1c-0.8,0-2-0.3-2.5-1.2h0v1h-1.3
		V200.1z M102.7,204.1c-1.7,0-2.4,1.5-2.4,3c0,1.5,0.7,3,2.5,3c1.8,0,2.4-1.5,2.4-3C105.1,205.5,104.4,204.1,102.7,204.1z"/>
	<path d="M108,203.1h1.2v1.7h0c0.6-1.3,1.5-1.9,2.9-1.8v1.4c-2.1,0-2.8,1.2-2.8,3.2v3.5H108V203.1z"/>
	<path d="M114.4,201.7h-1.3v-1.6h1.3V201.7z M113.2,203.1h1.3v7.8h-1.3V203.1z"/>
	<path d="M117.2,208.5c0,1.2,1,1.5,2.1,1.5c0.8,0,1.9-0.2,1.9-1.2c0-1-1.3-1.2-2.6-1.5c-1.3-0.3-2.6-0.7-2.6-2.2
		c0-1.6,1.6-2.2,2.9-2.2c1.7,0,3.1,0.5,3.2,2.5H121c-0.1-1-1-1.3-1.8-1.3c-0.8,0-1.7,0.2-1.7,1c0,0.9,1.4,1.1,2.6,1.4
		c1.3,0.3,2.6,0.7,2.6,2.2c0,1.9-1.7,2.5-3.3,2.5c-1.8,0-3.2-0.7-3.3-2.7H117.2z"/>
	<path d="M72.1,220.8c0.2,0,0.4,0,0.6,0c1.1,0,2-0.6,2-1.8c0-1.1-0.8-1.7-1.9-1.7c-1.4,0-2,1.1-2,2.3h-1.3c0.1-2,1.2-3.5,3.3-3.5
		c1.9,0,3.3,0.9,3.3,2.9c0,0.9-0.7,1.8-1.5,2.1v0c1.3,0.3,1.9,1.3,1.9,2.6c0,2.2-1.7,3.3-3.7,3.3c-2.2,0-3.6-1.3-3.6-3.5h1.3
		c0,1.4,0.8,2.4,2.3,2.4c1.3,0,2.3-0.8,2.3-2.1c0-1.4-1-2.1-2.3-2.1c-0.3,0-0.5,0-0.8,0V220.8z"/>
	<path d="M77.2,222.1h7.6v1.2h-7.6V222.1z"/>
	<path d="M91.9,217.5h-4.3l-0.6,3.1l0,0c0.5-0.5,1.3-0.8,2-0.8c1.9,0,3.5,1.2,3.5,3.7c0,1.8-1.3,3.6-3.8,3.6c-1.9,0-3.4-1.1-3.4-3.1
		h1.3c0.1,1.1,1,1.9,2.3,1.9c1.2,0,2.3-0.8,2.3-2.6c0-1.4-1-2.4-2.4-2.4c-0.8,0-1.5,0.4-2,1l-1.1-0.1l1-5.6h5.3V217.5z"/>
	<path d="M98.4,219.1h1.2v1.2h0c0.6-0.9,1.5-1.3,2.5-1.3c1,0,1.8,0.4,2.2,1.3c0.5-0.8,1.5-1.3,2.5-1.3c1.6,0,2.6,0.7,2.6,2.3v5.8
		h-1.3v-5.1c0-1-0.3-1.7-1.5-1.7c-1.2,0-2,0.8-2,2v4.9h-1.3v-5.1c0-1-0.3-1.7-1.5-1.7c-1.5,0-2.1,1.4-2.1,2v4.9h-1.3V219.1z"/>
	<path d="M114.6,215.9h1.1l-4.5,11.4h-1.1L114.6,215.9z"/>
	<path d="M117.2,224.5c0,1.2,1,1.5,2.1,1.5c0.8,0,1.9-0.2,1.9-1.2c0-1-1.3-1.2-2.6-1.5c-1.3-0.3-2.6-0.7-2.6-2.2
		c0-1.6,1.6-2.2,2.9-2.2c1.7,0,3.1,0.5,3.2,2.5H121c-0.1-1-1-1.3-1.8-1.3c-0.8,0-1.7,0.2-1.7,1c0,0.9,1.4,1.1,2.6,1.4
		c1.3,0.3,2.6,0.7,2.6,2.2c0,1.9-1.7,2.5-3.3,2.5c-1.8,0-3.2-0.7-3.3-2.7H117.2z"/>
</g>
<g>
	<path d="M62.4,143.4h7.1v1.2h-5.7v3.4h5v1.2h-5v5h-1.4V143.4z"/>
	<path d="M70.8,146.4h1.2v1.7h0c0.6-1.3,1.5-1.9,2.9-1.8v1.4c-2.1,0-2.8,1.2-2.8,3.2v3.5h-1.3V146.4z"/>
	<path d="M77.3,145H76v-1.6h1.3V145z M76,146.4h1.3v7.8H76V146.4z"/>
	<path d="M80.1,151.8c0,1.2,1,1.5,2.1,1.5c0.8,0,1.9-0.2,1.9-1.2c0-1-1.3-1.2-2.6-1.5c-1.3-0.3-2.6-0.7-2.6-2.2
		c0-1.6,1.6-2.2,2.9-2.2c1.7,0,3.1,0.5,3.2,2.5h-1.3c-0.1-1-1-1.3-1.8-1.3c-0.8,0-1.7,0.2-1.7,1c0,0.9,1.4,1.1,2.6,1.4
		c1.3,0.3,2.6,0.7,2.6,2.2c0,1.9-1.7,2.5-3.3,2.5c-1.8,0-3.2-0.7-3.3-2.7H80.1z"/>
	<path d="M87,143.4h1.3v6.4l3.6-3.4h1.7l-3.1,2.9l3.3,5h-1.6l-2.7-4.1l-1.2,1.1v3H87V143.4z"/>
	<path d="M99.1,143.4h1.3v4.1h0c0.4-0.9,1.4-1.2,2.5-1.2c2.4,0,3.6,1.9,3.6,4.1s-1.2,4.1-3.6,4.1c-0.8,0-2-0.3-2.5-1.2h0v1h-1.3
		V143.4z M102.7,147.3c-1.7,0-2.4,1.5-2.4,3c0,1.5,0.7,3,2.5,3c1.8,0,2.4-1.5,2.4-3C105.1,148.8,104.4,147.3,102.7,147.3z"/>
	<path d="M108,146.4h1.2v1.7h0c0.6-1.3,1.5-1.9,2.9-1.8v1.4c-2.1,0-2.8,1.2-2.8,3.2v3.5H108V146.4z"/>
	<path d="M114.4,145h-1.3v-1.6h1.3V145z M113.2,146.4h1.3v7.8h-1.3V146.4z"/>
	<path d="M117.2,151.8c0,1.2,1,1.5,2.1,1.5c0.8,0,1.9-0.2,1.9-1.2c0-1-1.3-1.2-2.6-1.5c-1.3-0.3-2.6-0.7-2.6-2.2
		c0-1.6,1.6-2.2,2.9-2.2c1.7,0,3.1,0.5,3.2,2.5H121c-0.1-1-1-1.3-1.8-1.3c-0.8,0-1.7,0.2-1.7,1c0,0.9,1.4,1.1,2.6,1.4
		c1.3,0.3,2.6,0.7,2.6,2.2c0,1.9-1.7,2.5-3.3,2.5c-1.8,0-3.2-0.7-3.3-2.7H117.2z"/>
	<path d="M64.5,159.5c2.4,0,3.3,1.4,3.3,2.7c0,1-0.6,1.8-1.5,2.2c1.3,0.4,1.9,1.4,1.9,2.7c0,2.1-1.6,3.3-3.6,3.3
		c-2.1,0-3.7-1.1-3.7-3.3c0-1.3,0.7-2.3,1.9-2.7c-0.9-0.4-1.5-1.3-1.5-2.2C61.3,160.4,62.8,159.5,64.5,159.5z M64.6,169.3
		c1.3,0,2.2-0.9,2.2-2.1c0-1.2-1-2-2.2-2c-1.3,0-2.3,0.8-2.3,2.1C62.3,168.5,63.3,169.3,64.6,169.3z M64.6,164c1,0,1.8-0.6,1.8-1.7
		c0-1.1-0.8-1.7-1.8-1.7c-1,0-1.9,0.6-1.9,1.7C62.7,163.4,63.5,164,64.6,164z"/>
	<path d="M68.8,165.4h7.6v1.2h-7.6V165.4z"/>
	<path d="M81.8,170.2h-1.3v-7.7h-2.8v-1c1.5,0,2.8-0.4,3.1-2h1V170.2z"/>
	<path d="M90.2,170.2h-1.3v-7.7h-2.8v-1c1.5,0,2.8-0.4,3.1-2h1V170.2z"/>
	<path d="M98.4,162.4h1.2v1.2h0c0.6-0.9,1.5-1.3,2.5-1.3c1,0,1.8,0.4,2.2,1.3c0.5-0.8,1.5-1.3,2.5-1.3c1.6,0,2.6,0.7,2.6,2.3v5.8
		h-1.3v-5.1c0-1-0.3-1.7-1.5-1.7c-1.2,0-2,0.8-2,2v4.9h-1.3v-5.1c0-1-0.3-1.7-1.5-1.7c-1.5,0-2.1,1.4-2.1,2v4.9h-1.3V162.4z"/>
	<path d="M114.6,159.1h1.1l-4.5,11.4h-1.1L114.6,159.1z"/>
	<path d="M117.2,167.7c0,1.2,1,1.5,2.1,1.5c0.8,0,1.9-0.2,1.9-1.2c0-1-1.3-1.2-2.6-1.5c-1.3-0.3-2.6-0.7-2.6-2.2
		c0-1.6,1.6-2.2,2.9-2.2c1.7,0,3.1,0.5,3.2,2.5H121c-0.1-1-1-1.3-1.8-1.3c-0.8,0-1.7,0.2-1.7,1c0,0.9,1.4,1.1,2.6,1.4
		c1.3,0.3,2.6,0.7,2.6,2.2c0,1.9-1.7,2.5-3.3,2.5c-1.8,0-3.2-0.7-3.3-2.7H117.2z"/>
</g>
<g>
	<path d="M60.5,89.8c-0.2-1.5-1.2-2.2-2.7-2.2c-1.2,0-2.4,0.4-2.4,1.9c0,1.3,1.7,1.5,3.5,1.9c1.7,0.4,3.5,1,3.5,3.1
		c0,2.3-2.3,3.2-4.2,3.2c-2.4,0-4.5-1.2-4.5-3.8H55c0,1.8,1.5,2.6,3.2,2.6c1.3,0,2.7-0.4,2.7-2c0-1.5-1.7-1.7-3.5-2.1
		c-1.7-0.4-3.5-0.9-3.5-2.9c0-2.2,2-3.2,3.9-3.2c2.2,0,3.9,1,4,3.4H60.5z"/>
	<path d="M65.6,89.6h1.6v1.1h-1.6v4.9c0,0.6,0.2,0.7,1,0.7h0.6v1.1h-1c-1.3,0-1.9-0.3-1.9-1.7v-5H63v-1.1h1.3v-2.4h1.3V89.6z"/>
	<path d="M70,88.2h-1.3v-1.6H70V88.2z M68.7,89.6H70v7.8h-1.3V89.6z"/>
	<path d="M75.5,97.5h-1.4l-2.9-7.8h1.4l2.2,6.5h0l2.1-6.5h1.4L75.5,97.5z"/>
	<path d="M83.9,86.6h1.3v6.4l3.6-3.4h1.7l-3.1,2.9l3.3,5h-1.6l-2.7-4.1l-1.2,1.1v3h-1.3V86.6z"/>
	<path d="M98.2,97.5H97v-1.2h0c-0.5,1-1.4,1.4-2.6,1.4c-2.1,0-2.7-1.2-2.7-2.9v-5.2H93V95c0,1,0.6,1.6,1.6,1.6c1.6,0,2.3-1,2.3-2.5
		v-4.4h1.3V97.5z"/>
	<path d="M100.2,86.6h1.3v10.8h-1.3V86.6z"/>
	<path d="M104.9,88.2h-1.3v-1.6h1.3V88.2z M103.6,89.6h1.3v7.8h-1.3V89.6z"/>
	<path d="M106.9,89.6h1.2v1.2h0c0.5-1,1.4-1.4,2.6-1.4c2.1,0,2.7,1.2,2.7,2.9v5.2h-1.3v-5.3c0-1-0.6-1.6-1.6-1.6
		c-1.6,0-2.3,1-2.3,2.5v4.4h-1.3V89.6z"/>
	<path d="M122.1,96.8c0,2.6-1.2,3.9-3.6,3.9c-1.5,0-3.2-0.6-3.2-2.3h1.3c0.1,0.9,1.2,1.3,2,1.3c1.7,0,2.4-1.2,2.4-3v-0.5h0
		c-0.4,1-1.5,1.4-2.4,1.4c-2.3,0-3.5-1.8-3.5-4c0-1.9,0.9-4.1,3.6-4.1c1,0,1.9,0.4,2.3,1.3h0v-1.1h1.2V96.8z M120.8,93.4
		c0-1.4-0.6-2.8-2.2-2.8c-1.7,0-2.3,1.4-2.3,2.9c0,1.4,0.5,3,2.2,3S120.8,94.9,120.8,93.4z"/>
	<path d="M57.3,113.5H56v-7.7h-2.8v-1c1.5,0,2.8-0.4,3.1-2h1V113.5z"/>
	<path d="M66.7,109.8h1.5v1.1h-1.5v2.5h-1.2V111h-4.7v-1.2l4.9-7h1V109.8z M65.5,109.8v-5.3h0l-3.6,5.3H65.5z"/>
	<path d="M68.8,108.6h7.6v1.2h-7.6V108.6z"/>
	<path d="M81.8,113.5h-1.3v-7.7h-2.8v-1c1.5,0,2.8-0.4,3.1-2h1V113.5z"/>
	<path d="M92.5,104c-2.2,2.2-3.9,6.1-4.1,9.5H87c0.2-3.6,2-7,4.3-9.4h-5.6v-1.2h7V104z"/>
	<path d="M98.4,105.6h1.2v1.2h0c0.6-0.9,1.5-1.3,2.5-1.3c1,0,1.8,0.4,2.2,1.3c0.5-0.8,1.5-1.3,2.5-1.3c1.6,0,2.6,0.7,2.6,2.3v5.8
		h-1.3v-5.1c0-1-0.3-1.7-1.5-1.7c-1.2,0-2,0.8-2,2v4.9h-1.3v-5.1c0-1-0.3-1.7-1.5-1.7c-1.5,0-2.1,1.4-2.1,2v4.9h-1.3V105.6z"/>
	<path d="M114.6,102.4h1.1l-4.5,11.4h-1.1L114.6,102.4z"/>
	<path d="M117.2,111c0,1.2,1,1.5,2.1,1.5c0.8,0,1.9-0.2,1.9-1.2c0-1-1.3-1.2-2.6-1.5c-1.3-0.3-2.6-0.7-2.6-2.2
		c0-1.6,1.6-2.2,2.9-2.2c1.7,0,3.1,0.5,3.2,2.5H121c-0.1-1-1-1.3-1.8-1.3c-0.8,0-1.7,0.2-1.7,1c0,0.9,1.4,1.1,2.6,1.4
		c1.3,0.3,2.6,0.7,2.6,2.2c0,1.9-1.7,2.5-3.3,2.5c-1.8,0-3.2-0.7-3.3-2.7H117.2z"/>
</g>
<g>
	<path d="M47.7,29.9h1.4v9.6h5.7v1.2h-7.2V29.9z"/>
	<path d="M57.3,31.5H56v-1.6h1.3V31.5z M56,32.9h1.3v7.8H56V32.9z"/>
	<path d="M61.1,32.9h1.6V34h-1.6v4.9c0,0.6,0.2,0.7,1,0.7h0.6v1.1h-1c-1.3,0-1.9-0.3-1.9-1.7v-5h-1.3v-1.1h1.3v-2.4h1.3V32.9z"/>
	<path d="M70.8,38.3c-0.3,1.7-1.6,2.7-3.4,2.7c-2.5,0-3.7-1.7-3.8-4.1c0-2.4,1.5-4.1,3.7-4.1c2.8,0,3.6,2.6,3.6,4.5h-5.9
		c0,1.4,0.7,2.6,2.4,2.6c1.1,0,1.8-0.5,2-1.5H70.8z M69.6,36.1c-0.1-1.2-1-2.2-2.3-2.2c-1.4,0-2.2,1-2.2,2.2H69.6z"/>
	<path d="M72.3,32.9h1.2v1.2h0c0.5-1,1.4-1.4,2.6-1.4c2.1,0,2.7,1.2,2.7,2.9v5.2h-1.3v-5.3c0-1-0.6-1.6-1.6-1.6
		c-1.6,0-2.3,1-2.3,2.5v4.4h-1.3V32.9z"/>
	<path d="M85.7,38.3c0,1.2,1,1.5,2.1,1.5c0.8,0,1.9-0.2,1.9-1.2c0-1-1.3-1.2-2.6-1.5c-1.3-0.3-2.6-0.7-2.6-2.2
		c0-1.6,1.6-2.2,2.9-2.2c1.7,0,3.1,0.5,3.2,2.5h-1.3c-0.1-1-1-1.3-1.8-1.3c-0.8,0-1.7,0.2-1.7,1c0,0.9,1.4,1.1,2.6,1.4
		c1.3,0.3,2.6,0.7,2.6,2.2c0,1.9-1.7,2.5-3.3,2.5c-1.8,0-3.2-0.7-3.3-2.7H85.7z"/>
	<path d="M94.3,32.9h1.6V34h-1.6v4.9c0,0.6,0.2,0.7,1,0.7h0.6v1.1h-1c-1.3,0-1.9-0.3-1.9-1.7v-5h-1.3v-1.1H93v-2.4h1.3V32.9z"/>
	<path d="M100.7,32.7c2.5,0,3.8,1.8,3.8,4.1c0,2.3-1.3,4.1-3.8,4.1c-2.5,0-3.8-1.8-3.8-4.1C96.9,34.5,98.2,32.7,100.7,32.7z
		 M100.7,39.8c1.4,0,2.4-1.1,2.4-3c0-1.9-1.1-3-2.4-3c-1.4,0-2.4,1.1-2.4,3C98.3,38.7,99.3,39.8,100.7,39.8z"/>
	<path d="M106,32.9h1.2v1.7h0c0.6-1.3,1.5-1.9,2.9-1.8v1.4c-2.1,0-2.8,1.2-2.8,3.2v3.5H106V32.9z"/>
	<path d="M111.1,32.9h1.2V34h0c0.6-0.9,1.5-1.3,2.5-1.3c1,0,1.8,0.4,2.2,1.3c0.5-0.8,1.5-1.3,2.5-1.3c1.6,0,2.6,0.7,2.6,2.3v5.8
		h-1.3v-5.1c0-1-0.3-1.7-1.5-1.7c-1.2,0-2,0.8-2,2v4.9h-1.3v-5.1c0-1-0.3-1.7-1.5-1.7c-1.5,0-2.1,1.4-2.1,2v4.9h-1.3V32.9z"/>
	<path d="M52.5,49.8C52.4,47.6,53.7,46,56,46c1.9,0,3.4,1.1,3.4,3.1c0,1.9-1.3,2.9-2.6,3.7c-1.4,0.8-2.8,1.5-3,2.8h5.5v1.1h-7
		c0.2-2.6,1.5-3.5,3-4.4c1.8-1.1,2.7-1.8,2.7-3.3c0-1.2-0.9-1.9-2.1-1.9c-1.5,0-2.1,1.4-2.1,2.7H52.5z"/>
	<path d="M65.7,56.7h-1.3V49h-2.8v-1c1.5,0,2.8-0.4,3.1-2h1V56.7z"/>
	<path d="M68.8,51.9h7.6v1.2h-7.6V51.9z"/>
	<path d="M77,49.8c-0.1-2.2,1.2-3.8,3.5-3.8c1.9,0,3.4,1.1,3.4,3.1c0,1.9-1.3,2.9-2.6,3.7c-1.4,0.8-2.8,1.5-3,2.8h5.5v1.1h-7
		c0.2-2.6,1.5-3.5,3-4.4c1.8-1.1,2.7-1.8,2.7-3.3c0-1.2-0.9-1.9-2.1-1.9c-1.5,0-2.1,1.4-2.1,2.7H77z"/>
	<path d="M91.2,53.1h1.5v1.1h-1.5v2.5h-1.2v-2.5h-4.7V53l4.9-7h1V53.1z M89.9,53.1v-5.3h0l-3.6,5.3H89.9z"/>
	<path d="M98.4,48.9h1.2V50h0c0.6-0.9,1.5-1.3,2.5-1.3c1,0,1.8,0.4,2.2,1.3c0.5-0.8,1.5-1.3,2.5-1.3c1.6,0,2.6,0.7,2.6,2.3v5.8h-1.3
		v-5.1c0-1-0.3-1.7-1.5-1.7c-1.2,0-2,0.8-2,2v4.9h-1.3v-5.1c0-1-0.3-1.7-1.5-1.7c-1.5,0-2.1,1.4-2.1,2v4.9h-1.3V48.9z"/>
	<path d="M114.6,45.6h1.1L111.3,57h-1.1L114.6,45.6z"/>
	<path d="M117.2,54.3c0,1.2,1,1.5,2.1,1.5c0.8,0,1.9-0.2,1.9-1.2c0-1-1.3-1.2-2.6-1.5c-1.3-0.3-2.6-0.7-2.6-2.2
		c0-1.6,1.6-2.2,2.9-2.2c1.7,0,3.1,0.5,3.2,2.5H121c-0.1-1-1-1.3-1.8-1.3c-0.8,0-1.7,0.2-1.7,1c0,0.9,1.4,1.1,2.6,1.4
		c1.3,0.3,2.6,0.7,2.6,2.2c0,1.9-1.7,2.5-3.3,2.5c-1.8,0-3.2-0.7-3.3-2.7H117.2z"/>
</g>
<g>
	<path fill="#FFFFFF" d="M167.7,262.9c3.4-0.1,5.5-0.2,6.1-4.2h1.6v21.8h-2v-16.2h-5.8V262.9z"/>
	<path fill="#FFFFFF" d="M198.3,269.7c0,5.1-1.2,11.3-7.6,11.3c-6.4,0-7.6-6.1-7.6-11.2c0-5.1,1.2-11.3,7.6-11.3
		C197,258.5,198.3,264.6,198.3,269.7z M185,269.7c0,3.8,0.7,9.6,5.6,9.6s5.6-5.8,5.6-9.6c0-3.8-0.7-9.6-5.6-9.6S185,265.9,185,269.7
		z"/>
</g>
<g>
	<path fill="#FFFFFF" d="M269.7,274.2c0.1,3,2.4,5,5.4,5c3.4,0,5.5-2.8,5.5-6c0-3.2-2.3-5.7-5.6-5.7c-1.9,0-3.8,0.9-4.9,2.6h-1.7
		l2.1-11.3h10.9v1.8h-9.5l-1.4,7.2l0.1,0.1c1.1-1.3,2.9-2,4.6-2c4.5,0,7.3,3.1,7.3,7.5c0,4.3-3.4,7.4-7.6,7.4
		c-4.1,0-7.1-2.6-7.2-6.7H269.7z"/>
</g>
<g>
	<path fill="#FFFFFF" d="M372.4,269.7c0,5.1-1.2,11.3-7.6,11.3c-6.4,0-7.6-6.1-7.6-11.2c0-5.1,1.2-11.3,7.6-11.3
		C371.1,258.5,372.4,264.6,372.4,269.7z M359.1,269.7c0,3.8,0.7,9.6,5.6,9.6c5,0,5.6-5.8,5.6-9.6c0-3.8-0.7-9.6-5.6-9.6
		C359.8,260.1,359.1,265.9,359.1,269.7z"/>
</g>
<g>
	<path fill="#FFFFFF" d="M442.7,272.8V271h7.8v1.8H442.7z"/>
	<path fill="#FFFFFF" d="M455.4,274.2c0.1,3,2.4,5,5.4,5c3.4,0,5.5-2.8,5.5-6c0-3.2-2.3-5.7-5.6-5.7c-1.9,0-3.8,0.9-4.9,2.6h-1.7
		l2.1-11.3h10.9v1.8h-9.5l-1.4,7.2l0.1,0.1c1.1-1.3,2.9-2,4.6-2c4.5,0,7.3,3.1,7.3,7.5c0,4.3-3.4,7.4-7.6,7.4
		c-4.1,0-7.1-2.6-7.2-6.7H455.4z"/>
</g>
<g>
	<path fill="#FFFFFF" d="M522.6,272.8V271h7.8v1.8H522.6z"/>
	<path fill="#FFFFFF" d="M535.3,262.9c3.4-0.1,5.5-0.2,6.1-4.2h1.6v21.8h-2v-16.2h-5.8V262.9z"/>
	<path fill="#FFFFFF" d="M565.9,269.7c0,5.1-1.2,11.3-7.6,11.3c-6.4,0-7.6-6.1-7.6-11.2c0-5.1,1.2-11.3,7.6-11.3
		C564.6,258.5,565.9,264.6,565.9,269.7z M552.6,269.7c0,3.8,0.7,9.6,5.6,9.6s5.6-5.8,5.6-9.6c0-3.8-0.7-9.6-5.6-9.6
		S552.6,265.9,552.6,269.7z"/>
</g>
<g>
	<path fill="#FFFFFF" d="M178.8,217.2l10.1-14.5h1.8v14.7h3.3v1.7h-3.3v5.4h-1.8v-5.4h-10.1V217.2z M188.9,217.5v-11.9h-0.1
		l-8.2,11.9H188.9z"/>
</g>
<g>
	<path fill="#FFFFFF" d="M260.5,216.9v-1.8h7.8v1.8H260.5z"/>
	<path fill="#FFFFFF" d="M285.6,224.5h-14.4c0.2-6.5,6.8-8.1,10.5-11.8c1.2-1.2,1.8-2.4,1.8-4.1c0-2.8-2.2-4.5-4.9-4.5
		c-3.6,0-5,2.9-4.9,6.1h-2c-0.1-4.5,2.2-7.7,7-7.7c3.8,0,6.8,2.1,6.8,6.1c0,3.6-2.6,5.9-5.5,7.8c-2.1,1.4-6,3.4-6.5,6.3h12.1V224.5z
		"/>
</g>
<g>
	<path fill="#FFFFFF" d="M346,216.9v-1.8h7.8v1.8H346z"/>
	<path fill="#FFFFFF" d="M367.4,212.8L367.4,212.8c2.8,0.6,4.5,2.7,4.5,5.6c0,4.4-3.4,6.6-7.5,6.6c-4.1,0-7.5-2.2-7.5-6.6
		c0.1-2.8,1.7-5.1,4.4-5.6v-0.1c-2.3-0.7-3.6-2.4-3.6-4.8c0-3.7,3.4-5.5,6.6-5.5c3.2,0,6.6,1.7,6.6,5.5
		C370.9,210.3,369.6,212.1,367.4,212.8z M369.9,218.4c0-3.1-2.6-4.8-5.5-4.7c-3-0.1-5.5,1.5-5.5,4.7c0,3.3,2.5,4.9,5.5,4.9
		C367.4,223.3,369.9,221.8,369.9,218.4z M369,208c0-2.5-2-3.8-4.6-3.8c-2.4,0-4.7,1.3-4.7,3.8c0,2.9,2.4,4.1,4.7,4.1
		C366.7,212.1,369,210.8,369,208z"/>
</g>
<g>
	<path fill="#FFFFFF" d="M426.7,216.9v-1.8h7.8v1.8H426.7z"/>
	<path fill="#FFFFFF" d="M439.4,206.9c3.4-0.1,5.5-0.2,6.1-4.2h1.6v21.8h-2v-16.2h-5.8V206.9z"/>
	<path fill="#FFFFFF" d="M454.6,217.2l10.1-14.5h1.8v14.7h3.3v1.7h-3.3v5.4h-1.8v-5.4h-10.1V217.2z M464.7,217.5v-11.9h-0.1
		l-8.2,11.9H464.7z"/>
</g>
<g>
	<path fill="#FFFFFF" d="M522.6,216.9v-1.8h7.8v1.8H522.6z"/>
	<path fill="#FFFFFF" d="M547.8,224.5h-14.4c0.2-6.5,6.8-8.1,10.5-11.8c1.2-1.2,1.8-2.4,1.8-4.1c0-2.8-2.2-4.5-4.9-4.5
		c-3.6,0-5,2.9-4.9,6.1h-2c-0.1-4.5,2.2-7.7,7-7.7c3.8,0,6.8,2.1,6.8,6.1c0,3.6-2.6,5.9-5.5,7.8c-2.1,1.4-6,3.4-6.5,6.3h12.1V224.5z
		"/>
	<path fill="#FFFFFF" d="M565.9,213.7c0,5.1-1.2,11.3-7.6,11.3c-6.4,0-7.6-6.1-7.6-11.2c0-5.1,1.2-11.3,7.6-11.3
		C564.6,202.5,565.9,208.7,565.9,213.7z M552.6,213.7c0,3.8,0.7,9.6,5.6,9.6s5.6-5.8,5.6-9.6c0-3.8-0.7-9.6-5.6-9.6
		S552.6,210,552.6,213.7z"/>
</g>
<g>
	<path fill="#FFFFFF" d="M194.1,157.8c0,5.1-1.2,11.3-7.6,11.3c-6.4,0-7.6-6.1-7.6-11.2c0-5.1,1.2-11.3,7.6-11.3
		C192.9,146.6,194.1,152.7,194.1,157.8z M180.9,157.8c0,3.8,0.7,9.6,5.6,9.6s5.6-5.8,5.6-9.6c0-3.8-0.7-9.6-5.6-9.6
		S180.9,154,180.9,157.8z"/>
</g>
<g>
	<path fill="#FFFFFF" d="M260.5,160.9v-1.8h7.8v1.8H260.5z"/>
	<path fill="#FFFFFF" d="M271.7,147h14v1.8c-2.7,2.8-8.3,9.6-8.8,19.7h-2.1c0.5-7.4,2.9-12.8,9-19.7h-12.1V147z"/>
</g>
<g>
	<path fill="#FFFFFF" d="M346,160.9v-1.8h7.8v1.8H346z"/>
	<path fill="#FFFFFF" d="M358.7,151c3.4-0.1,5.5-0.2,6.1-4.2h1.6v21.8h-2v-16.2h-5.8V151z"/>
	<path fill="#FFFFFF" d="M373.9,161.3l10.1-14.5h1.8v14.7h3.3v1.7h-3.3v5.4H384v-5.4h-10.1V161.3z M384,161.5v-11.9h-0.1l-8.2,11.9
		H384z"/>
</g>
<g>
	<path fill="#FFFFFF" d="M426.7,160.9v-1.8h7.8v1.8H426.7z"/>
	<path fill="#FFFFFF" d="M451.9,168.6h-14.4c0.2-6.5,6.8-8.1,10.5-11.8c1.2-1.2,1.8-2.4,1.8-4.1c0-2.8-2.2-4.5-4.9-4.5
		c-3.6,0-5,2.9-4.9,6.1h-2c-0.1-4.5,2.2-7.7,7-7.7c3.8,0,6.8,2.1,6.8,6.1c0,3.6-2.6,5.9-5.5,7.8c-2.1,1.4-6,3.4-6.5,6.3h12.1V168.6z
		"/>
	<path fill="#FFFFFF" d="M456.7,151c3.4-0.1,5.5-0.2,6.1-4.2h1.6v21.8h-2v-16.2h-5.8V151z"/>
</g>
<g>
	<path fill="#FFFFFF" d="M522.6,160.9v-1.8h7.8v1.8H522.6z"/>
	<path fill="#FFFFFF" d="M547.8,168.6h-14.4c0.2-6.5,6.8-8.1,10.5-11.8c1.2-1.2,1.8-2.4,1.8-4.1c0-2.8-2.2-4.5-4.9-4.5
		c-3.6,0-5,2.9-4.9,6.1h-2c-0.1-4.5,2.2-7.7,7-7.7c3.8,0,6.8,2.1,6.8,6.1c0,3.6-2.6,5.9-5.5,7.8c-2.1,1.4-6,3.4-6.5,6.3h12.1V168.6z
		"/>
	<path fill="#FFFFFF" d="M553.2,163.3c0.3,2.4,2,4.1,4.6,4.1c5.1,0,6-5.8,6-9.8h-0.1c-1,2.2-3.3,3.6-5.8,3.6c-4.4,0-7.2-3-7.2-7.3
		c0-4.2,3.1-7.4,7.4-7.4c5.3,0,7.6,3.1,7.6,11.6c0,2.6-0.7,10.9-7.8,10.9c-3.8,0-6.2-1.9-6.7-5.7H553.2z M563.3,153.8
		c0-3.1-1.7-5.6-5.5-5.6c-3.1,0-5.2,2.6-5.2,5.6c0,3.2,1.9,5.8,5.3,5.8C561.3,159.6,563.3,157,563.3,153.8z"/>
</g>
<g>
	<path fill="#FFFFFF" d="M169.4,103.8V102h7.8v1.8H169.4z"/>
	<path fill="#FFFFFF" d="M182,104.5c-0.1,3.5,1.9,5.8,5.5,5.8c2.9,0,5.6-1.7,5.6-4.8c0-3.1-2.3-4.6-5.2-4.6h-1.7v-1.7h1.7
		c2,0,4.4-1.2,4.4-4c0-2.9-2.2-4.1-4.8-4.1c-3.3,0-5,2.3-5,5.5h-2c0-4.1,2.6-7.2,6.9-7.2c3.4,0,6.8,1.7,6.8,5.5
		c0,2.4-1.3,4.3-3.7,4.8v0.1c2.8,0.5,4.5,2.5,4.5,5.4c0,4.3-3.5,6.6-7.5,6.6c-4.5,0-7.8-2.7-7.4-7.4H182z"/>
</g>
<g>
	<path fill="#FFFFFF" d="M252.5,103.8V102h7.8v1.8H252.5z"/>
	<path fill="#FFFFFF" d="M265.2,93.8c3.4-0.1,5.5-0.2,6.1-4.2h1.6v21.8h-2V95.2h-5.8V93.8z"/>
	<path fill="#FFFFFF" d="M282.5,93.8c3.4-0.1,5.5-0.2,6.1-4.2h1.6v21.8h-2V95.2h-5.8V93.8z"/>
</g>
<g>
	<path fill="#FFFFFF" d="M346,103.8V102h7.8v1.8H346z"/>
	<path fill="#FFFFFF" d="M358.7,93.8c3.4-0.1,5.5-0.2,6.1-4.2h1.6v21.8h-2V95.2h-5.8V93.8z"/>
	<path fill="#FFFFFF" d="M384.7,99.7L384.7,99.7c2.8,0.6,4.5,2.7,4.5,5.6c0,4.4-3.4,6.6-7.5,6.6c-4.1,0-7.5-2.2-7.5-6.6
		c0.1-2.8,1.7-5.1,4.4-5.6v-0.1c-2.3-0.7-3.6-2.4-3.6-4.8c0-3.7,3.4-5.5,6.6-5.5c3.2,0,6.6,1.7,6.6,5.5
		C388.2,97.3,386.9,99,384.7,99.7z M387.2,105.3c0-3.1-2.6-4.8-5.5-4.7c-3-0.1-5.5,1.5-5.5,4.7c0,3.3,2.5,4.9,5.5,4.9
		C384.7,110.3,387.2,108.7,387.2,105.3z M386.3,94.9c0-2.5-2-3.8-4.6-3.8c-2.4,0-4.7,1.3-4.7,3.8c0,2.9,2.4,4.1,4.7,4.1
		C384,99,386.3,97.7,386.3,94.9z"/>
</g>
<g>
	<path fill="#FFFFFF" d="M426.7,103.8V102h7.8v1.8H426.7z"/>
	<path fill="#FFFFFF" d="M451.9,111.4h-14.4c0.2-6.5,6.8-8.1,10.5-11.8c1.2-1.2,1.8-2.4,1.8-4.1c0-2.8-2.2-4.5-4.9-4.5
		c-3.6,0-5,2.9-4.9,6.1h-2c-0.1-4.5,2.2-7.7,7-7.7c3.8,0,6.8,2.1,6.8,6.1c0,3.6-2.6,5.9-5.5,7.8c-2.1,1.4-6,3.4-6.5,6.3h12.1V111.4z
		"/>
	<path fill="#FFFFFF" d="M467.5,95.1c-0.3-2.4-2-4.1-4.6-4.1c-5.1,0-6,5.8-6,9.8h0.1c1-2.2,3.3-3.6,5.8-3.6c4.4,0,7.2,3,7.2,7.3
		c0,4.2-3.1,7.4-7.4,7.4c-5.3,0-7.6-3.1-7.6-11.6c0-2.6,0.7-10.9,7.8-10.9c3.8,0,6.2,1.9,6.7,5.7H467.5z M457.3,104.6
		c0,3.1,1.7,5.6,5.5,5.6c3.1,0,5.2-2.6,5.2-5.6c0-3.2-1.9-5.8-5.3-5.8C459.3,98.9,457.3,101.4,457.3,104.6z"/>
</g>
<g>
	<path fill="#FFFFFF" d="M522.6,103.8V102h7.8v1.8H522.6z"/>
	<path fill="#FFFFFF" d="M535.3,104.5c-0.1,3.5,1.9,5.8,5.5,5.8c2.9,0,5.6-1.7,5.6-4.8c0-3.1-2.3-4.6-5.2-4.6h-1.7v-1.7h1.7
		c2,0,4.4-1.2,4.4-4c0-2.9-2.2-4.1-4.8-4.1c-3.3,0-5,2.3-5,5.5h-2c0-4.1,2.6-7.2,6.9-7.2c3.4,0,6.8,1.7,6.8,5.5
		c0,2.4-1.3,4.3-3.7,4.8v0.1c2.8,0.5,4.5,2.5,4.5,5.4c0,4.3-3.5,6.6-7.5,6.6c-4.5,0-7.8-2.7-7.4-7.4H535.3z"/>
	<path fill="#FFFFFF" d="M550.5,104.1l10.1-14.5h1.8v14.7h3.3v1.7h-3.3v5.4h-1.8V106h-10.1V104.1z M560.6,104.4V92.5h-0.1l-8.2,11.9
		H560.6z"/>
</g>
<g>
	<path fill="#FFFFFF" d="M169.4,46.2v-1.8h7.8v1.8H169.4z"/>
	<path fill="#FFFFFF" d="M180,46.6l10.1-14.5h1.8v14.7h3.3v1.7h-3.3v5.4H190v-5.4H180V46.6z M190,46.8V34.9H190l-8.2,11.9H190z"/>
</g>
<g>
	<path fill="#FFFFFF" d="M252.5,46.2v-1.8h7.8v1.8H252.5z"/>
	<path fill="#FFFFFF" d="M265.2,36.3c3.4-0.1,5.5-0.2,6.1-4.2h1.6v21.8h-2V37.7h-5.8V36.3z"/>
	<path fill="#FFFFFF" d="M295,53.9h-14.4c0.2-6.5,6.8-8.1,10.5-11.8c1.2-1.2,1.8-2.4,1.8-4.1c0-2.8-2.2-4.5-4.9-4.5
		c-3.6,0-5,2.9-4.9,6.1h-2c-0.1-4.5,2.2-7.7,7-7.7c3.8,0,6.8,2.1,6.8,6.1c0,3.6-2.6,5.9-5.5,7.8c-2.1,1.4-6,3.4-6.5,6.3H295V53.9z"
		/>
</g>
<g>
	<path fill="#FFFFFF" d="M346,46.2v-1.8h7.8v1.8H346z"/>
	<path fill="#FFFFFF" d="M371.1,53.9h-14.4c0.2-6.5,6.8-8.1,10.5-11.8c1.2-1.2,1.8-2.4,1.8-4.1c0-2.8-2.2-4.5-4.9-4.5
		c-3.6,0-5,2.9-4.9,6.1h-2c-0.1-4.5,2.2-7.7,7-7.7c3.8,0,6.8,2.1,6.8,6.1c0,3.6-2.6,5.9-5.5,7.8c-2.1,1.4-6,3.4-6.5,6.3h12.1V53.9z"
		/>
	<path fill="#FFFFFF" d="M389.2,43.1c0,5.1-1.2,11.3-7.6,11.3c-6.4,0-7.6-6.1-7.6-11.2c0-5.1,1.2-11.3,7.6-11.3
		C388,31.9,389.2,38,389.2,43.1z M376,43.1c0,3.8,0.7,9.6,5.6,9.6s5.6-5.8,5.6-9.6c0-3.8-0.7-9.6-5.6-9.6S376,39.3,376,43.1z"/>
</g>
<g>
	<path fill="#FFFFFF" d="M426.7,46.2v-1.8h7.8v1.8H426.7z"/>
	<path fill="#FFFFFF" d="M451.9,53.9h-14.4c0.2-6.5,6.8-8.1,10.5-11.8c1.2-1.2,1.8-2.4,1.8-4.1c0-2.8-2.2-4.5-4.9-4.5
		c-3.6,0-5,2.9-4.9,6.1h-2c-0.1-4.5,2.2-7.7,7-7.7c3.8,0,6.8,2.1,6.8,6.1c0,3.6-2.6,5.9-5.5,7.8c-2.1,1.4-6,3.4-6.5,6.3h12.1V53.9z"
		/>
	<path fill="#FFFFFF" d="M465.4,42.1L465.4,42.1c2.8,0.6,4.5,2.7,4.5,5.6c0,4.4-3.4,6.6-7.5,6.6c-4.1,0-7.5-2.2-7.5-6.6
		c0.1-2.8,1.7-5.1,4.4-5.6v-0.1c-2.3-0.7-3.6-2.4-3.6-4.8c0-3.7,3.4-5.5,6.6-5.5c3.2,0,6.6,1.7,6.6,5.5
		C469,39.7,467.6,41.5,465.4,42.1z M467.9,47.8c0-3.1-2.6-4.8-5.5-4.7c-3-0.1-5.5,1.5-5.5,4.7c0,3.3,2.5,4.9,5.5,4.9
		C465.4,52.7,467.9,51.1,467.9,47.8z M467,37.3c0-2.5-2-3.8-4.6-3.8c-2.4,0-4.7,1.3-4.7,3.8c0,2.9,2.4,4.1,4.7,4.1
		C464.8,41.5,467,40.1,467,37.3z"/>
</g>
<g>
	<path fill="#FFFFFF" d="M522.6,46.2v-1.8h7.8v1.8H522.6z"/>
	<path fill="#FFFFFF" d="M535.3,46.9c-0.1,3.5,1.9,5.8,5.5,5.8c2.9,0,5.6-1.7,5.6-4.8c0-3.1-2.3-4.6-5.2-4.6h-1.7v-1.7h1.7
		c2,0,4.4-1.2,4.4-4c0-2.9-2.2-4.1-4.8-4.1c-3.3,0-5,2.3-5,5.5h-2c0-4.1,2.6-7.2,6.9-7.2c3.4,0,6.8,1.7,6.8,5.5
		c0,2.4-1.3,4.3-3.7,4.8v0.1c2.8,0.5,4.5,2.5,4.5,5.4c0,4.3-3.5,6.6-7.5,6.6c-4.5,0-7.8-2.7-7.4-7.4H535.3z"/>
	<path fill="#FFFFFF" d="M563.4,37.6c-0.3-2.4-2-4.1-4.6-4.1c-5.1,0-6,5.8-6,9.8h0.1c1-2.2,3.3-3.6,5.8-3.6c4.4,0,7.2,3,7.2,7.3
		c0,4.2-3.1,7.4-7.4,7.4c-5.3,0-7.6-3.1-7.6-11.6c0-2.6,0.7-10.9,7.8-10.9c3.8,0,6.2,1.9,6.7,5.7H563.4z M553.2,47.1
		c0,3.1,1.7,5.6,5.5,5.6c3.1,0,5.2-2.6,5.2-5.6c0-3.2-1.9-5.8-5.3-5.8C555.2,41.3,553.2,43.9,553.2,47.1z"/>
</g>
<g>
	<path fill="#FFFFFF" d="M613.3,272.8V271h7.8v1.8H613.3z"/>
	<path fill="#FFFFFF" d="M626,262.9c3.4-0.1,5.5-0.2,6.1-4.2h1.6v21.8h-2v-16.2H626V262.9z"/>
	<path fill="#FFFFFF" d="M643.4,274.2c0.1,3,2.4,5,5.4,5c3.4,0,5.5-2.8,5.5-6c0-3.2-2.3-5.7-5.6-5.7c-1.9,0-3.8,0.9-4.9,2.6h-1.7
		l2.1-11.3h10.9v1.8h-9.5l-1.4,7.2l0.1,0.1c1.1-1.3,2.9-2,4.6-2c4.5,0,7.3,3.1,7.3,7.5c0,4.3-3.4,7.4-7.6,7.4
		c-4.1,0-7.1-2.6-7.2-6.7H643.4z"/>
</g>
<g>
	<path fill="#FFFFFF" d="M701.2,272.8V271h7.8v1.8H701.2z"/>
	<path fill="#FFFFFF" d="M726.4,280.5H712c0.2-6.5,6.8-8.1,10.5-11.8c1.2-1.2,1.8-2.4,1.8-4.1c0-2.8-2.2-4.5-4.9-4.5
		c-3.6,0-5,2.9-4.9,6.1h-2c-0.1-4.5,2.2-7.7,7-7.7c3.8,0,6.8,2.1,6.8,6.1c0,3.6-2.6,5.9-5.5,7.8c-2.1,1.4-6,3.4-6.5,6.3h12.1V280.5z
		"/>
	<path fill="#FFFFFF" d="M744.5,269.7c0,5.1-1.2,11.3-7.6,11.3c-6.4,0-7.6-6.1-7.6-11.2c0-5.1,1.2-11.3,7.6-11.3
		C743.2,258.5,744.5,264.6,744.5,269.7z M731.2,269.7c0,3.8,0.7,9.6,5.6,9.6s5.6-5.8,5.6-9.6c0-3.8-0.7-9.6-5.6-9.6
		S731.2,265.9,731.2,269.7z"/>
</g>
<g>
	<path fill="#FFFFFF" d="M613.3,216.9v-1.8h7.8v1.8H613.3z"/>
	<path fill="#FFFFFF" d="M638.5,224.5h-14.4c0.2-6.5,6.8-8.1,10.5-11.8c1.2-1.2,1.8-2.4,1.8-4.1c0-2.8-2.2-4.5-4.9-4.5
		c-3.6,0-5,2.9-4.9,6.1h-2c-0.1-4.5,2.2-7.7,7-7.7c3.8,0,6.8,2.1,6.8,6.1c0,3.6-2.6,5.9-5.5,7.8c-2.1,1.4-6,3.4-6.5,6.3h12.1V224.5z
		"/>
	<path fill="#FFFFFF" d="M654.1,208.2c-0.3-2.4-2-4.1-4.6-4.1c-5.1,0-6,5.8-6,9.8h0.1c1-2.2,3.3-3.6,5.8-3.6c4.4,0,7.2,3,7.2,7.3
		c0,4.2-3.1,7.4-7.4,7.4c-5.3,0-7.6-3.1-7.6-11.6c0-2.6,0.7-10.9,7.8-10.9c3.8,0,6.2,1.9,6.7,5.7H654.1z M643.9,217.7
		c0,3.1,1.7,5.6,5.5,5.6c3.1,0,5.2-2.6,5.2-5.6c0-3.2-1.9-5.8-5.3-5.8C645.9,212,643.9,214.5,643.9,217.7z"/>
</g>
<g>
	<path fill="#FFFFFF" d="M701.2,216.9v-1.8h7.8v1.8H701.2z"/>
	<path fill="#FFFFFF" d="M713.9,217.6c-0.1,3.5,1.9,5.8,5.5,5.8c2.9,0,5.6-1.7,5.6-4.8c0-3.1-2.3-4.6-5.2-4.6H718v-1.7h1.7
		c2,0,4.4-1.2,4.4-4c0-2.9-2.2-4.1-4.8-4.1c-3.3,0-5,2.3-5,5.5h-2c0-4.1,2.6-7.2,6.9-7.2c3.4,0,6.8,1.7,6.8,5.5
		c0,2.4-1.3,4.3-3.7,4.8v0.1c2.8,0.5,4.5,2.5,4.5,5.4c0,4.3-3.5,6.6-7.5,6.6c-4.5,0-7.8-2.7-7.4-7.4H713.9z"/>
	<path fill="#FFFFFF" d="M743.7,224.5h-14.4c0.2-6.5,6.8-8.1,10.5-11.8c1.2-1.2,1.8-2.4,1.8-4.1c0-2.8-2.2-4.5-4.9-4.5
		c-3.6,0-5,2.9-4.9,6.1h-2c-0.1-4.5,2.2-7.7,7-7.7c3.8,0,6.8,2.1,6.8,6.1c0,3.6-2.6,5.9-5.5,7.8c-2.1,1.4-6,3.4-6.5,6.3h12.1V224.5z
		"/>
</g>
<g>
	<path fill="#FFFFFF" d="M613.3,160.9v-1.8h7.8v1.8H613.3z"/>
	<path fill="#FFFFFF" d="M626,161.6c-0.1,3.5,1.9,5.8,5.5,5.8c2.9,0,5.6-1.7,5.6-4.8c0-3.1-2.3-4.6-5.2-4.6h-1.7v-1.7h1.7
		c2,0,4.4-1.2,4.4-4c0-2.9-2.2-4.1-4.8-4.1c-3.3,0-5,2.3-5,5.5h-2c0-4.1,2.6-7.2,6.9-7.2c3.4,0,6.8,1.7,6.8,5.5
		c0,2.4-1.3,4.3-3.7,4.8v0.1c2.8,0.5,4.5,2.5,4.5,5.4c0,4.3-3.5,6.6-7.5,6.6c-4.5,0-7.8-2.7-7.4-7.4H626z"/>
	<path fill="#FFFFFF" d="M654.1,152.3c-0.3-2.4-2-4.1-4.6-4.1c-5.1,0-6,5.8-6,9.8h0.1c1-2.2,3.3-3.6,5.8-3.6c4.4,0,7.2,3,7.2,7.3
		c0,4.2-3.1,7.4-7.4,7.4c-5.3,0-7.6-3.1-7.6-11.6c0-2.6,0.7-10.9,7.8-10.9c3.8,0,6.2,1.9,6.7,5.7H654.1z M643.9,161.8
		c0,3.1,1.7,5.6,5.5,5.6c3.1,0,5.2-2.6,5.2-5.6c0-3.2-1.9-5.8-5.3-5.8C645.9,156,643.9,158.6,643.9,161.8z"/>
</g>
<g>
	<path fill="#FFFFFF" d="M701.2,160.9v-1.8h7.8v1.8H701.2z"/>
	<path fill="#FFFFFF" d="M711.8,161.3l10.1-14.5h1.8v14.7h3.3v1.7h-3.3v5.4h-1.8v-5.4h-10.1V161.3z M721.9,161.5v-11.9h-0.1
		l-8.2,11.9H721.9z"/>
	<path fill="#FFFFFF" d="M731.2,161.6c-0.1,3.5,1.9,5.8,5.5,5.8c2.9,0,5.6-1.7,5.6-4.8c0-3.1-2.3-4.6-5.2-4.6h-1.7v-1.7h1.7
		c2,0,4.4-1.2,4.4-4c0-2.9-2.2-4.1-4.8-4.1c-3.3,0-5,2.3-5,5.5h-2c0-4.1,2.6-7.2,6.9-7.2c3.4,0,6.8,1.7,6.8,5.5
		c0,2.4-1.3,4.3-3.7,4.8v0.1c2.8,0.5,4.5,2.5,4.5,5.4c0,4.3-3.5,6.6-7.5,6.6c-4.5,0-7.8-2.7-7.4-7.4H731.2z"/>
</g>
<g>
	<path fill="#FFFFFF" d="M613.3,103.8V102h7.8v1.8H613.3z"/>
	<path fill="#FFFFFF" d="M623.9,104.1L634,89.6h1.8v14.7h3.3v1.7h-3.3v5.4H634V106h-10.1V104.1z M634,104.4V92.5h-0.1l-8.2,11.9H634
		z"/>
	<path fill="#FFFFFF" d="M655.8,111.4h-14.4c0.2-6.5,6.8-8.1,10.5-11.8c1.2-1.2,1.8-2.4,1.8-4.1c0-2.8-2.2-4.5-4.9-4.5
		c-3.6,0-5,2.9-4.9,6.1h-2c-0.1-4.5,2.2-7.7,7-7.7c3.8,0,6.8,2.1,6.8,6.1c0,3.6-2.6,5.9-5.5,7.8c-2.1,1.4-6,3.4-6.5,6.3h12.1V111.4z
		"/>
</g>
<g>
	<path fill="#FFFFFF" d="M701.2,103.8V102h7.8v1.8H701.2z"/>
	<path fill="#FFFFFF" d="M711.8,104.1l10.1-14.5h1.8v14.7h3.3v1.7h-3.3v5.4h-1.8V106h-10.1V104.1z M721.9,104.4V92.5h-0.1l-8.2,11.9
		H721.9z"/>
	<path fill="#FFFFFF" d="M731.8,106.2c0.3,2.4,2,4.1,4.6,4.1c5.1,0,6-5.8,6-9.8h-0.1c-1,2.2-3.3,3.6-5.8,3.6c-4.4,0-7.2-3-7.2-7.3
		c0-4.2,3.1-7.4,7.4-7.4c5.3,0,7.6,3.1,7.6,11.6c0,2.6-0.7,10.9-7.8,10.9c-3.8,0-6.2-1.9-6.7-5.7H731.8z M741.9,96.7
		c0-3.1-1.7-5.6-5.5-5.6c-3.1,0-5.2,2.6-5.2,5.6c0,3.2,1.9,5.8,5.3,5.8C739.9,102.5,741.9,99.9,741.9,96.7z"/>
</g>
<g>
	<path fill="#FFFFFF" d="M613.3,46.2v-1.8h7.8v1.8H613.3z"/>
	<path fill="#FFFFFF" d="M623.9,46.6L634,32.1h1.8v14.7h3.3v1.7h-3.3v5.4H634v-5.4h-10.1V46.6z M634,46.8V34.9h-0.1l-8.2,11.9H634z"
		/>
	<path fill="#FFFFFF" d="M641.2,46.6l10.1-14.5h1.8v14.7h3.3v1.7h-3.3v5.4h-1.8v-5.4h-10.1V46.6z M651.3,46.8V34.9h-0.1L643,46.8
		H651.3z"/>
</g>
<g>
	<path fill="#FFFFFF" d="M701.2,46.2v-1.8h7.8v1.8H701.2z"/>
	<path fill="#FFFFFF" d="M714,47.7c0.1,3,2.4,5,5.4,5c3.4,0,5.5-2.8,5.5-6c0-3.2-2.3-5.7-5.6-5.7c-1.9,0-3.8,0.9-4.9,2.6h-1.7
		l2.1-11.3h10.9v1.8h-9.5l-1.4,7.2l0.1,0.1c1.1-1.3,2.9-2,4.6-2c4.5,0,7.3,3.1,7.3,7.5c0,4.3-3.4,7.4-7.6,7.4
		c-4.1,0-7.1-2.6-7.2-6.7H714z"/>
	<path fill="#FFFFFF" d="M743.7,53.9h-14.4c0.2-6.5,6.8-8.1,10.5-11.8c1.2-1.2,1.8-2.4,1.8-4.1c0-2.8-2.2-4.5-4.9-4.5
		c-3.6,0-5,2.9-4.9,6.1h-2c-0.1-4.5,2.2-7.7,7-7.7c3.8,0,6.8,2.1,6.8,6.1c0,3.6-2.6,5.9-5.5,7.8c-2.1,1.4-6,3.4-6.5,6.3h12.1V53.9z"
		/>
</g>
<g>
	<path d="M365.6,319.7h2.6v9.8h5.8v2.2h-8.5V319.7z"/>
	<path d="M385.7,327.1c0,3.2-1.9,4.8-5.1,4.8c-3.2,0-5.1-1.6-5.1-4.8v-7.5h2.6v7.5c0,1.3,0.3,2.6,2.5,2.6c1.9,0,2.5-0.8,2.5-2.6
		v-7.5h2.6V327.1z"/>
	<path d="M388,319.7h8.4v2.2h-5.8v2.8h5v2h-5v5H388V319.7z"/>
	<path d="M400.6,321.9H397v-2.2h9.8v2.2h-3.6v9.8h-2.6V321.9z"/>
	<path d="M410.8,321.9h-3.6v-2.2h9.8v2.2h-3.6v9.8h-2.6V321.9z"/>
	<path d="M418.4,319.7h9v2.2h-6.3v2.6h5.8v2h-5.8v2.9h6.5v2.2h-9.1V319.7z"/>
	<path d="M429.3,319.7h3.7l2.8,8.2h0l2.7-8.2h3.7v12h-2.5v-8.5h0l-2.9,8.5h-2l-2.9-8.4h0v8.4h-2.5V319.7z"/>
	<path d="M444.5,319.7h5.4c3,0,4.1,1.9,4.1,3.8s-1.2,3.8-4.1,3.8h-2.8v4.3h-2.6V319.7z M447.2,325.3h2c1.2,0,2.3-0.3,2.3-1.8
		c0-1.5-1.1-1.8-2.3-1.8h-2V325.3z"/>
	<path d="M455.7,319.7h9v2.2h-6.3v2.6h5.8v2h-5.8v2.9h6.5v2.2h-9.1V319.7z"/>
	<path d="M466.6,319.7h6.5c2.1,0,3.5,1.5,3.5,3.3c0,1.4-0.6,2.5-1.9,3v0c1.3,0.3,1.7,1.6,1.7,2.8c0.1,0.8,0,2.2,0.5,2.8h-2.6
		c-0.3-0.8-0.3-1.9-0.4-2.9c-0.2-1.3-0.7-1.8-2-1.8h-2.6v4.7h-2.6V319.7z M469.2,325.1h2.9c1.2,0,1.8-0.5,1.8-1.7
		c0-1.2-0.6-1.7-1.8-1.7h-2.9V325.1z"/>
	<path d="M482,319.7h2.7l4.5,12h-2.7l-0.9-2.7H481l-0.9,2.7h-2.7L482,319.7z M481.7,327h3.1l-1.5-4.4h0L481.7,327z"/>
	<path d="M491.6,321.9H488v-2.2h9.8v2.2h-3.6v9.8h-2.6V321.9z"/>
	<path d="M509.4,327.1c0,3.2-1.9,4.8-5.1,4.8c-3.2,0-5.1-1.6-5.1-4.8v-7.5h2.6v7.5c0,1.3,0.3,2.6,2.5,2.6c1.9,0,2.5-0.8,2.5-2.6
		v-7.5h2.6V327.1z"/>
	<path d="M511.7,319.7h6.5c2.1,0,3.5,1.5,3.5,3.3c0,1.4-0.6,2.5-1.9,3v0c1.3,0.3,1.7,1.6,1.7,2.8c0.1,0.8,0,2.2,0.5,2.8h-2.6
		c-0.3-0.8-0.3-1.9-0.4-2.9c-0.2-1.3-0.7-1.8-2-1.8h-2.6v4.7h-2.6V319.7z M514.3,325.1h2.9c1.2,0,1.8-0.5,1.8-1.7
		c0-1.2-0.6-1.7-1.8-1.7h-2.9V325.1z"/>
	<path d="M530.6,319.7c1.4,0,2.5,1.1,2.5,2.5c0,1.4-1.1,2.5-2.5,2.5s-2.5-1.1-2.5-2.5C528.2,320.8,529.3,319.7,530.6,319.7z
		 M530.6,323.6c0.7,0,1.4-0.7,1.4-1.5c0-0.8-0.7-1.5-1.4-1.5c-0.7,0-1.4,0.7-1.4,1.5C529.3,323,529.9,323.6,530.6,323.6z"/>
	<path d="M544,323.3c-0.4-1.8-1.9-2.9-3.7-2.9c-3.2,0-4.5,2.7-4.5,5.3s1.3,5.3,4.5,5.3c2.2,0,3.6-1.7,3.8-3.8h1.1
		c-0.3,2.9-2.2,4.8-5,4.8c-3.8,0-5.7-3-5.7-6.2s1.9-6.2,5.7-6.2c2.3,0,4.5,1.4,4.8,3.9H544z"/>
</g>
<g>
	<path d="M17.1,75.4v-3l13.1-3.9v2.7L21,74v0l9.2,2.7v2.7L17.1,75.4z"/>
	<path d="M30.2,80.4v2.6H17.1v-2.6H30.2z"/>
	<path d="M30.2,85.4V88l-8.8,5v0h8.8v2.5H17.1v-2.6l8.8-5v0h-8.8v-2.5H30.2z"/>
	<path d="M30.2,97.8v5.2c0,3.1-2.1,5.4-6.5,5.4c-3.8,0-6.6-1.8-6.6-5.4v-5.2H30.2z M19.5,100.5v2.4c0,1.5,1,3,3.9,3
		c2.6,0,4.3-0.8,4.3-3.5v-1.9H19.5z"/>
	<path d="M30.2,110.3v2.6h-5v4.9h5v2.6H17.1v-2.6h5.6v-4.9h-5.6v-2.6H30.2z"/>
	<path d="M30.2,126v2.7l-13.1,4.5v-2.7l2.9-0.9V125l-2.9-0.9v-2.7L30.2,126z M22.2,125.7v3.1l4.8-1.5v0L22.2,125.7z"/>
	<path d="M21.4,136c-1.7,0-2.4,1.2-2.4,2.7c0,0.9,0.3,2.3,1.6,2.3c1.4,0,1.6-1.8,2.2-3.6c0.5-1.8,1.3-3.6,3.7-3.6c2.7,0,4,2.3,4,4.5
		c0,2.5-1.2,4.8-4.2,4.8v-2.6c1.6-0.1,2-1.1,2-2.4c0-0.8-0.4-1.8-1.5-1.8c-1,0-1.1,0.6-2,3.6c-0.2,0.9-0.8,3.6-3.8,3.6
		c-2.4,0-4.2-1.7-4.2-5c0-2.7,1.4-5.1,4.7-5.1V136z"/>
	<path d="M27.8,147.8v-3.6h2.4v9.8h-2.4v-3.6H17.1v-2.6H27.8z"/>
	<path d="M30.2,155.4v2.6H17.1v-2.6H30.2z"/>
	<path d="M18.6,169c-1.3-0.9-1.8-2.1-1.8-3.3c0-3.7,3-5.9,6.8-5.9c3.9,0,6.9,2.2,6.9,5.9c0,2.5-1.6,4.8-4.6,5.1v-2.5
		c1.4-0.3,2.2-1.3,2.2-2.5c0-2.4-2.2-3.3-4.5-3.3c-2.2,0-4.4,0.9-4.4,3.3c0,1.7,1,2.7,2.8,2.9v-2.7h2.1v5h-7.1v-1.7L18.6,169z"/>
	<path d="M30.2,173v2.6h-5v4.9h5v2.6H17.1v-2.6h5.6v-4.9h-5.6V173H30.2z"/>
	<path d="M30.2,185.5v9h-2.4v-6.3H25v5.8h-2.2v-5.8h-3.2v6.5h-2.4v-9.1H30.2z"/>
	<path d="M27.8,199v-3.6h2.4v9.8h-2.4v-3.6H17.1V199H27.8z"/>
	<path d="M30.2,211.3v1.7l-11.5,4.1l11.5,4.1v1.7H17.1v-1.1h11.3v0l-11.3-4.1v-1.1l11.3-4.1v0H17.1v-1.1H30.2z"/>
	<path d="M16.8,223.9l13.6,5.2v0.9l-13.6-5.1V223.9z"/>
	<path d="M21.4,231.4c-2.7-0.1-3.5,1.7-3.5,3.9c0,1.3,0.8,3.2,2.7,3.2c1.5,0,2.1-1.4,2.4-2.5l0.7-2.7c0.4-1.4,1.1-2.7,3.1-2.7
		c1.3,0,3.7,0.8,3.7,4.1c0,2.4-1.4,4.4-4.1,4.4v-1.1c2-0.1,3-1.6,3-3.3c0-1.6-0.7-3-2.6-3c-1.2,0-1.7,0.8-2,1.8l-0.8,2.9
		c-0.5,1.7-1.3,3.1-3.4,3.1c-0.9,0-3.7-0.3-3.7-4.6c0-2.8,1.4-4.9,4.6-4.8V231.4z"/>
</g>
<g>
	<path d="M699.5,324c-0.2-1.5-1.2-2.2-2.7-2.2c-1.2,0-2.4,0.4-2.4,1.9c0,1.3,1.7,1.5,3.5,1.9c1.7,0.4,3.5,1,3.5,3.1
		c0,2.3-2.3,3.2-4.2,3.2c-2.4,0-4.5-1.2-4.5-3.8h1.4c0,1.8,1.5,2.6,3.2,2.6c1.3,0,2.7-0.4,2.7-2c0-1.5-1.7-1.7-3.5-2.1
		c-1.7-0.4-3.5-0.9-3.5-2.9c0-2.2,2-3.2,3.9-3.2c2.2,0,3.9,1,4,3.4H699.5z"/>
	<path d="M704.7,323.8h1.6v1.1h-1.6v4.9c0,0.6,0.2,0.7,1,0.7h0.6v1.1h-1c-1.3,0-1.9-0.3-1.9-1.7v-5h-1.3v-1.1h1.3v-2.4h1.3V323.8z"
		/>
	<path d="M711.1,323.6c2.5,0,3.8,1.8,3.8,4.1c0,2.3-1.3,4.1-3.8,4.1c-2.5,0-3.8-1.8-3.8-4.1C707.3,325.4,708.6,323.6,711.1,323.6z
		 M711.1,330.7c1.4,0,2.4-1.1,2.4-3c0-1.9-1.1-3-2.4-3c-1.4,0-2.4,1.1-2.4,3C708.6,329.6,709.7,330.7,711.1,330.7z"/>
	<path d="M716.4,323.8h1.2v1.7h0c0.6-1.3,1.5-1.9,2.9-1.8v1.4c-2.1,0-2.8,1.2-2.8,3.2v3.5h-1.3V323.8z"/>
	<path d="M726.2,324.9h-1.3v-1.1h1.3v-1.2c0-1.3,0.8-1.9,2.2-1.9c0.2,0,0.6,0,0.8,0.1v1.1c-0.2-0.1-0.5-0.1-0.7-0.1
		c-0.6,0-1,0.2-1,0.9v1.1h1.5v1.1h-1.5v6.7h-1.3V324.9z"/>
	<path d="M737.1,331.6c-0.2,0.1-0.5,0.2-0.9,0.2c-0.7,0-1.1-0.4-1.1-1.2c-0.7,0.8-1.7,1.2-2.8,1.2c-1.4,0-2.6-0.6-2.6-2.2
		c0-1.8,1.3-2.2,2.7-2.4c1.4-0.3,2.6-0.2,2.6-1.2c0-1.1-0.9-1.3-1.7-1.3c-1.1,0-1.9,0.3-2,1.5h-1.3c0.1-1.9,1.6-2.6,3.3-2.6
		c1.4,0,2.9,0.3,2.9,2.2v4c0,0.6,0,0.9,0.4,0.9c0.1,0,0.2,0,0.4-0.1V331.6z M735,327.6c-0.5,0.4-1.5,0.4-2.3,0.5
		c-0.8,0.2-1.6,0.5-1.6,1.4c0,0.9,0.7,1.2,1.5,1.2c1.7,0,2.4-1.1,2.4-1.8V327.6z"/>
	<path d="M738.3,323.8h1.2v1.7h0c0.6-1.3,1.5-1.9,2.9-1.8v1.4c-2.1,0-2.8,1.2-2.8,3.2v3.5h-1.3V323.8z"/>
	<path d="M749.8,329.2c-0.3,1.7-1.6,2.7-3.4,2.7c-2.5,0-3.7-1.7-3.8-4.1c0-2.4,1.5-4.1,3.7-4.1c2.8,0,3.6,2.6,3.6,4.5h-5.9
		c0,1.4,0.7,2.6,2.4,2.6c1.1,0,1.8-0.5,2-1.5H749.8z M748.6,327c-0.1-1.2-1-2.2-2.3-2.2c-1.4,0-2.2,1-2.2,2.2H748.6z"/>
</g>
<g>
	<path d="M147.8,320.8h1.4v9.6h5.7v1.2h-7.2V320.8z"/>
	<path d="M157.4,322.4h-1.3v-1.6h1.3V322.4z M156.1,323.8h1.3v7.8h-1.3V323.8z"/>
	<path d="M161.2,323.8h1.6v1.1h-1.6v4.9c0,0.6,0.2,0.7,1,0.7h0.6v1.1h-1c-1.3,0-1.9-0.3-1.9-1.7v-5h-1.3v-1.1h1.3v-2.4h1.3V323.8z"
		/>
	<path d="M170.9,329.2c-0.3,1.7-1.6,2.7-3.4,2.7c-2.5,0-3.7-1.7-3.8-4.1c0-2.4,1.5-4.1,3.7-4.1c2.8,0,3.6,2.6,3.6,4.5h-5.9
		c0,1.4,0.7,2.6,2.4,2.6c1.1,0,1.8-0.5,2-1.5H170.9z M169.7,327c-0.1-1.2-1-2.2-2.3-2.2c-1.4,0-2.2,1-2.2,2.2H169.7z"/>
	<path d="M172.4,323.8h1.2v1.2h0c0.5-1,1.4-1.4,2.6-1.4c2.1,0,2.7,1.2,2.7,2.9v5.2h-1.3v-5.3c0-1-0.6-1.6-1.6-1.6
		c-1.6,0-2.3,1-2.3,2.5v4.4h-1.3V323.8z"/>
	<path d="M185.6,324.9h-1.3v-1.1h1.3v-1.2c0-1.3,0.8-1.9,2.2-1.9c0.2,0,0.6,0,0.8,0.1v1.1c-0.2-0.1-0.5-0.1-0.7-0.1
		c-0.6,0-1,0.2-1,0.9v1.1h1.5v1.1h-1.5v6.7h-1.3V324.9z"/>
	<path d="M196.5,331.6c-0.2,0.1-0.5,0.2-0.9,0.2c-0.7,0-1.1-0.4-1.1-1.2c-0.7,0.8-1.7,1.2-2.8,1.2c-1.4,0-2.6-0.6-2.6-2.2
		c0-1.8,1.3-2.2,2.7-2.4c1.4-0.3,2.6-0.2,2.6-1.2c0-1.1-0.9-1.3-1.7-1.3c-1.1,0-1.9,0.3-2,1.5h-1.3c0.1-1.9,1.6-2.6,3.3-2.6
		c1.4,0,2.9,0.3,2.9,2.2v4c0,0.6,0,0.9,0.4,0.9c0.1,0,0.2,0,0.4-0.1V331.6z M194.4,327.6c-0.5,0.4-1.5,0.4-2.3,0.5
		c-0.9,0.2-1.6,0.5-1.6,1.4c0,0.9,0.7,1.2,1.5,1.2c1.7,0,2.4-1.1,2.4-1.8V327.6z"/>
	<path d="M197.6,323.8h1.2v1.7h0c0.6-1.3,1.5-1.9,2.9-1.8v1.4c-2.1,0-2.8,1.2-2.8,3.2v3.5h-1.3V323.8z"/>
	<path d="M209.2,329.2c-0.3,1.7-1.6,2.7-3.4,2.7c-2.5,0-3.7-1.7-3.8-4.1c0-2.4,1.5-4.1,3.7-4.1c2.8,0,3.6,2.6,3.6,4.5h-5.9
		c0,1.4,0.7,2.6,2.4,2.6c1.1,0,1.8-0.5,2-1.5H209.2z M207.9,327c-0.1-1.2-1-2.2-2.3-2.2c-1.4,0-2.2,1-2.2,2.2H207.9z"/>
</g>
<g>
	<rect x="552.4" y="326.1" width="132.1" height="0.8"/>
	<polygon points="678.9,332.3 678.3,331.7 683.9,326.5 678.3,321.3 678.9,320.7 685.1,326.5 	"/>
</g>
<g>
	<rect x="221.8" y="326.1" width="131.8" height="0.8"/>
	<polygon points="227.5,332.3 221.2,326.5 227.5,320.7 228,321.3 222.4,326.5 228,331.7 	"/>
</g>
<rect x="167.2" y="376.8" fill="#1C75BC" width="35.3" height="27.6"/>
<rect x="167.2" y="428.5" fill="#4B54A4" width="35.3" height="27.6"/>
<rect x="167.2" y="480.2" fill="#9E1F63" width="35.3" height="27.6"/>
<g>
	<path d="M229.6,429.8h7.6v2H232v2.5h4.5v1.9H232v4.5h-2.4V429.8z"/>
	<path d="M238.3,435.2c0.1-2,1.9-2.6,3.7-2.6c1.6,0,3.4,0.3,3.4,2.2v4.1c0,0.7,0.1,1.4,0.3,1.7h-2.2c-0.1-0.2-0.1-0.5-0.2-0.8
		c-0.7,0.7-1.7,1-2.6,1c-1.5,0-2.7-0.7-2.7-2.4c0-1.8,1.3-2.2,2.7-2.4c1.3-0.2,2.6-0.2,2.6-1c0-0.9-0.6-1.1-1.4-1.1
		c-0.8,0-1.4,0.3-1.4,1.2H238.3z M243.3,436.8c-0.4,0.3-1.1,0.3-1.8,0.5c-0.7,0.1-1.3,0.4-1.3,1.2c0,0.8,0.6,1,1.3,1
		c1.7,0,1.7-1.3,1.7-1.8V436.8z"/>
	<path d="M247.1,432.8h2v1.5h0c0.4-1,1.5-1.7,2.5-1.7c0.2,0,0.3,0,0.5,0.1v2c-0.2,0-0.5-0.1-0.8-0.1c-1.6,0-2.1,1.1-2.1,2.5v3.5
		h-2.2V432.8z"/>
	<path d="M254.5,437.2c0.1,1.4,0.7,2,1.9,2c0.9,0,1.6-0.5,1.7-1h1.9c-0.6,1.9-1.9,2.6-3.7,2.6c-2.5,0-4-1.7-4-4.1
		c0-2.4,1.6-4.1,4-4.1c2.7,0,4,2.2,3.8,4.7H254.5z M258,435.9c-0.2-1.1-0.7-1.7-1.7-1.7c-1.4,0-1.8,1.1-1.8,1.7H258z"/>
	<path d="M229.7,445.8h7.1v1.2h-5.7v3.4h5v1.2h-5v5h-1.4V445.8z"/>
	<path d="M245.2,456.6c-0.2,0.1-0.5,0.2-0.9,0.2c-0.7,0-1.1-0.4-1.1-1.2c-0.7,0.8-1.7,1.2-2.8,1.2c-1.4,0-2.6-0.6-2.6-2.2
		c0-1.8,1.3-2.2,2.7-2.4c1.4-0.3,2.6-0.2,2.6-1.2c0-1.1-0.9-1.3-1.7-1.3c-1.1,0-1.9,0.3-2,1.5h-1.3c0.1-1.9,1.6-2.6,3.3-2.6
		c1.4,0,2.9,0.3,2.9,2.2v4c0,0.6,0,0.9,0.4,0.9c0.1,0,0.2,0,0.4-0.1V456.6z M243.1,452.6c-0.5,0.4-1.5,0.4-2.3,0.5
		c-0.8,0.2-1.6,0.5-1.6,1.4c0,0.9,0.7,1.2,1.5,1.2c1.7,0,2.4-1.1,2.4-1.8V452.6z"/>
	<path d="M246.3,448.8h1.2v1.7h0c0.6-1.3,1.5-1.9,2.9-1.8v1.4c-2.1,0-2.8,1.2-2.8,3.2v3.5h-1.3V448.8z"/>
	<path d="M257.9,454.1c-0.3,1.7-1.6,2.7-3.4,2.7c-2.5,0-3.7-1.7-3.8-4.1c0-2.4,1.5-4.1,3.7-4.1c2.8,0,3.6,2.6,3.6,4.5h-5.9
		c0,1.4,0.7,2.6,2.4,2.6c1.1,0,1.8-0.5,2-1.5H257.9z M256.6,451.9c-0.1-1.2-1-2.2-2.3-2.2c-1.4,0-2.2,1-2.2,2.2H256.6z"/>
	<path d="M264.1,449.9h-1.3v-1.1h1.3v-1.2c0-1.3,0.8-1.9,2.2-1.9c0.2,0,0.6,0,0.8,0.1v1.1c-0.2-0.1-0.5-0.1-0.7-0.1
		c-0.6,0-1,0.2-1,0.9v1.1h1.5v1.1h-1.5v6.7h-1.3V449.9z"/>
	<path d="M271.4,448.6c2.5,0,3.8,1.8,3.8,4.1c0,2.3-1.3,4.1-3.8,4.1s-3.8-1.8-3.8-4.1C267.6,450.4,268.9,448.6,271.4,448.6z
		 M271.4,455.7c1.4,0,2.4-1.1,2.4-3c0-1.9-1.1-3-2.4-3c-1.4,0-2.4,1.1-2.4,3C269,454.6,270.1,455.7,271.4,455.7z"/>
	<path d="M276.7,448.8h1.2v1.7h0c0.6-1.3,1.5-1.9,2.9-1.8v1.4c-2.1,0-2.8,1.2-2.8,3.2v3.5h-1.3V448.8z"/>
	<path d="M286.6,449.9h-1.3v-1.1h1.3v-1.2c0-1.3,0.8-1.9,2.2-1.9c0.2,0,0.6,0,0.8,0.1v1.1c-0.2-0.1-0.5-0.1-0.7-0.1
		c-0.6,0-1,0.2-1,0.9v1.1h1.5v1.1h-1.5v6.7h-1.3V449.9z"/>
	<path d="M293.9,448.6c2.5,0,3.8,1.8,3.8,4.1c0,2.3-1.3,4.1-3.8,4.1c-2.5,0-3.8-1.8-3.8-4.1C290.1,450.4,291.4,448.6,293.9,448.6z
		 M293.9,455.7c1.4,0,2.4-1.1,2.4-3c0-1.9-1.1-3-2.4-3c-1.4,0-2.4,1.1-2.4,3C291.5,454.6,292.6,455.7,293.9,455.7z"/>
	<path d="M299.2,448.8h1.2v1.7h0c0.6-1.3,1.5-1.9,2.9-1.8v1.4c-2.1,0-2.8,1.2-2.8,3.2v3.5h-1.3V448.8z"/>
	<path d="M304.8,449.9h-1.3v-1.1h1.3v-1.2c0-1.3,0.8-1.9,2.2-1.9c0.2,0,0.6,0,0.8,0.1v1.1c-0.2-0.1-0.5-0.1-0.7-0.1
		c-0.6,0-1,0.2-1,0.9v1.1h1.5v1.1h-1.5v6.7h-1.3V449.9z"/>
	<path d="M308.7,448.8h1.2v1.7h0c0.6-1.3,1.5-1.9,2.9-1.8v1.4c-2.1,0-2.8,1.2-2.8,3.2v3.5h-1.3V448.8z"/>
	<path d="M316.9,457.7c-0.6,1.5-1.1,2.1-2.3,2.1c-0.3,0-0.6,0-0.9-0.1v-1.2c0.2,0.1,0.5,0.2,0.8,0.2c0.5,0,0.8-0.3,1.1-0.7l0.5-1.3
		l-3.1-7.8h1.5l2.3,6.4h0l2.2-6.4h1.4L316.9,457.7z"/>
	<path d="M322.2,454.1c0,1.2,1,1.5,2.1,1.5c0.8,0,1.9-0.2,1.9-1.2c0-1-1.3-1.2-2.6-1.5c-1.3-0.3-2.6-0.7-2.6-2.2
		c0-1.6,1.6-2.2,2.9-2.2c1.7,0,3.1,0.5,3.2,2.5H326c-0.1-1-1-1.3-1.8-1.3c-0.8,0-1.7,0.2-1.7,1c0,0.9,1.4,1.1,2.6,1.4
		c1.3,0.3,2.6,0.7,2.6,2.2c0,1.9-1.7,2.5-3.3,2.5c-1.8,0-3.2-0.7-3.3-2.7H322.2z"/>
	<path d="M329,448.8h1.2v1.2h0c0.5-1,1.4-1.4,2.6-1.4c2.1,0,2.7,1.2,2.7,2.9v5.2h-1.3v-5.3c0-1-0.6-1.6-1.6-1.6
		c-1.6,0-2.3,1-2.3,2.5v4.4H329V448.8z"/>
	<path d="M338.8,447.4h-1.3v-1.6h1.3V447.4z M337.6,448.8h1.3v7.8h-1.3V448.8z"/>
	<path d="M340.8,448.8h1.2v1.2h0c0.5-1,1.4-1.4,2.6-1.4c2.1,0,2.7,1.2,2.7,2.9v5.2h-1.3v-5.3c0-1-0.6-1.6-1.6-1.6
		c-1.6,0-2.3,1-2.3,2.5v4.4h-1.3V448.8z"/>
	<path d="M356.1,456c0,2.6-1.2,3.9-3.6,3.9c-1.5,0-3.2-0.6-3.2-2.3h1.3c0.1,0.9,1.2,1.3,2,1.3c1.7,0,2.4-1.2,2.4-3v-0.5h0
		c-0.4,1-1.5,1.4-2.4,1.4c-2.3,0-3.5-1.8-3.5-4c0-1.9,0.9-4.1,3.6-4.1c1,0,1.9,0.4,2.3,1.3h0v-1.1h1.2V456z M354.8,452.5
		c0-1.4-0.6-2.8-2.2-2.8c-1.7,0-2.3,1.4-2.3,2.9c0,1.4,0.5,3,2.2,3C354.2,455.6,354.8,454,354.8,452.5z"/>
	<path d="M364.7,454.1c-0.3,1.7-1.6,2.7-3.4,2.7c-2.5,0-3.7-1.7-3.8-4.1c0-2.4,1.5-4.1,3.7-4.1c2.8,0,3.6,2.6,3.6,4.5h-5.9
		c0,1.4,0.7,2.6,2.4,2.6c1.1,0,1.8-0.5,2-1.5H364.7z M363.5,451.9c-0.1-1.2-1-2.2-2.3-2.2c-1.4,0-2.2,1-2.2,2.2H363.5z"/>
	<path d="M366.1,448.8h1.2v1.7h0c0.6-1.3,1.5-1.9,2.9-1.8v1.4c-2.1,0-2.8,1.2-2.8,3.2v3.5h-1.3V448.8z"/>
	<path d="M375.5,445.8h1.3v6.4l3.6-3.4h1.7l-3.1,2.9l3.3,5h-1.6l-2.7-4.1l-1.2,1.1v3h-1.3V445.8z"/>
	<path d="M390.3,456.6c-0.2,0.1-0.5,0.2-0.9,0.2c-0.7,0-1.1-0.4-1.1-1.2c-0.7,0.8-1.7,1.2-2.8,1.2c-1.4,0-2.6-0.6-2.6-2.2
		c0-1.8,1.3-2.2,2.7-2.4c1.4-0.3,2.6-0.2,2.6-1.2c0-1.1-0.9-1.3-1.7-1.3c-1.1,0-1.9,0.3-2,1.5h-1.3c0.1-1.9,1.6-2.6,3.3-2.6
		c1.4,0,2.9,0.3,2.9,2.2v4c0,0.6,0,0.9,0.4,0.9c0.1,0,0.2,0,0.4-0.1V456.6z M388.2,452.6c-0.5,0.4-1.5,0.4-2.3,0.5
		c-0.8,0.2-1.6,0.5-1.6,1.4c0,0.9,0.7,1.2,1.5,1.2c1.7,0,2.4-1.1,2.4-1.8V452.6z"/>
	<path d="M391.5,448.8h1.2v1.2h0c0.5-1,1.4-1.4,2.6-1.4c2.1,0,2.7,1.2,2.7,2.9v5.2h-1.3v-5.3c0-1-0.6-1.6-1.6-1.6
		c-1.6,0-2.3,1-2.3,2.5v4.4h-1.3V448.8z"/>
	<path d="M404.7,449.9h-1.3v-1.1h1.3v-1.2c0-1.3,0.8-1.9,2.2-1.9c0.2,0,0.6,0,0.8,0.1v1.1c-0.2-0.1-0.5-0.1-0.7-0.1
		c-0.6,0-1,0.2-1,0.9v1.1h1.5v1.1H406v6.7h-1.3V449.9z"/>
	<path d="M412,448.6c2.5,0,3.8,1.8,3.8,4.1c0,2.3-1.3,4.1-3.8,4.1s-3.8-1.8-3.8-4.1C408.2,450.4,409.5,448.6,412,448.6z M412,455.7
		c1.4,0,2.4-1.1,2.4-3c0-1.9-1.1-3-2.4-3c-1.4,0-2.4,1.1-2.4,3C409.6,454.6,410.7,455.7,412,455.7z"/>
	<path d="M417.3,448.8h1.2v1.7h0c0.6-1.3,1.5-1.9,2.9-1.8v1.4c-2.1,0-2.8,1.2-2.8,3.2v3.5h-1.3V448.8z"/>
	<path d="M428.8,454.1c-0.3,1.7-1.6,2.7-3.4,2.7c-2.5,0-3.7-1.7-3.8-4.1c0-2.4,1.5-4.1,3.7-4.1c2.8,0,3.6,2.6,3.6,4.5h-5.9
		c0,1.4,0.7,2.6,2.4,2.6c1.1,0,1.8-0.5,2-1.5H428.8z M427.6,451.9c-0.1-1.2-1-2.2-2.3-2.2c-1.4,0-2.2,1-2.2,2.2H427.6z"/>
	<path d="M430.4,445.8h1.3v6.4l3.6-3.4h1.7l-3.1,2.9l3.3,5h-1.6l-2.7-4.1l-1.2,1.1v3h-1.3V445.8z"/>
	<path d="M441.6,448.6c2.5,0,3.8,1.8,3.8,4.1c0,2.3-1.3,4.1-3.8,4.1s-3.8-1.8-3.8-4.1C437.7,450.4,439.1,448.6,441.6,448.6z
		 M441.6,455.7c1.4,0,2.4-1.1,2.4-3c0-1.9-1.1-3-2.4-3s-2.4,1.1-2.4,3C439.1,454.6,440.2,455.7,441.6,455.7z"/>
	<path d="M446.9,448.8h1.2v1.2h0c0.6-0.9,1.5-1.3,2.5-1.3c1,0,1.8,0.4,2.2,1.3c0.5-0.8,1.5-1.3,2.5-1.3c1.6,0,2.6,0.7,2.6,2.3v5.8
		h-1.3v-5.1c0-1-0.3-1.7-1.5-1.7c-1.2,0-2,0.8-2,2v4.9h-1.3v-5.1c0-1-0.3-1.7-1.5-1.7c-1.5,0-2.1,1.4-2.1,2v4.9h-1.3V448.8z"/>
	<path d="M459.8,448.8h1.2v1.2h0c0.6-0.9,1.5-1.3,2.5-1.3c1,0,1.8,0.4,2.2,1.3c0.5-0.8,1.5-1.3,2.5-1.3c1.6,0,2.6,0.7,2.6,2.3v5.8
		h-1.3v-5.1c0-1-0.3-1.7-1.5-1.7c-1.2,0-2,0.8-2,2v4.9h-1.3v-5.1c0-1-0.3-1.7-1.5-1.7c-1.5,0-2.1,1.4-2.1,2v4.9h-1.3V448.8z"/>
	<path d="M479.5,454.1c-0.3,1.7-1.6,2.7-3.4,2.7c-2.5,0-3.7-1.7-3.8-4.1c0-2.4,1.5-4.1,3.7-4.1c2.8,0,3.6,2.6,3.6,4.5h-5.9
		c0,1.4,0.7,2.6,2.4,2.6c1.1,0,1.8-0.5,2-1.5H479.5z M478.2,451.9c-0.1-1.2-1-2.2-2.3-2.2c-1.4,0-2.2,1-2.2,2.2H478.2z"/>
	<path d="M492.1,456.6c-0.2,0.1-0.5,0.2-0.9,0.2c-0.7,0-1.1-0.4-1.1-1.2c-0.7,0.8-1.7,1.2-2.8,1.2c-1.4,0-2.6-0.6-2.6-2.2
		c0-1.8,1.3-2.2,2.7-2.4c1.4-0.3,2.6-0.2,2.6-1.2c0-1.1-0.9-1.3-1.7-1.3c-1.1,0-1.9,0.3-2,1.5H485c0.1-1.9,1.6-2.6,3.3-2.6
		c1.4,0,2.9,0.3,2.9,2.2v4c0,0.6,0,0.9,0.4,0.9c0.1,0,0.2,0,0.4-0.1V456.6z M490,452.6c-0.5,0.4-1.5,0.4-2.3,0.5
		c-0.8,0.2-1.6,0.5-1.6,1.4c0,0.9,0.7,1.2,1.5,1.2c1.7,0,2.4-1.1,2.4-1.8V452.6z"/>
	<path d="M493.4,445.8h1.3v10.8h-1.3V445.8z"/>
	<path d="M496.8,445.8h1.3v10.8h-1.3V445.8z"/>
	<path d="M506.8,454.1c-0.3,1.7-1.6,2.7-3.4,2.7c-2.5,0-3.7-1.7-3.8-4.1c0-2.4,1.5-4.1,3.7-4.1c2.8,0,3.6,2.6,3.6,4.5H501
		c0,1.4,0.7,2.6,2.4,2.6c1.1,0,1.8-0.5,2-1.5H506.8z M505.5,451.9c-0.1-1.2-1-2.2-2.3-2.2c-1.4,0-2.2,1-2.2,2.2H505.5z"/>
	<path d="M508.2,448.8h1.2v1.7h0c0.6-1.3,1.5-1.9,2.9-1.8v1.4c-2.1,0-2.8,1.2-2.8,3.2v3.5h-1.3V448.8z"/>
	<path d="M519.7,454.1c-0.3,1.7-1.6,2.7-3.4,2.7c-2.5,0-3.7-1.7-3.8-4.1c0-2.4,1.5-4.1,3.7-4.1c2.8,0,3.6,2.6,3.6,4.5h-5.9
		c0,1.4,0.7,2.6,2.4,2.6c1.1,0,1.8-0.5,2-1.5H519.7z M518.4,451.9c-0.1-1.2-1-2.2-2.3-2.2c-1.4,0-2.2,1-2.2,2.2H518.4z"/>
	<path d="M528.2,456.6h-1.3v-1.1h0c-0.4,0.9-1.4,1.2-2.5,1.2c-2.4,0-3.6-1.9-3.6-4.1c0-2.2,1.2-4.1,3.6-4.1c0.8,0,2,0.3,2.5,1.2h0
		v-4h1.3V456.6z M524.5,455.7c1.7,0,2.4-1.5,2.4-3c0-1.5-0.7-3-2.5-3c-1.8,0-2.4,1.5-2.4,3C522.1,454.2,522.9,455.7,524.5,455.7z"/>
	<path d="M536.9,454.1c-0.3,1.7-1.6,2.7-3.4,2.7c-2.5,0-3.7-1.7-3.8-4.1c0-2.4,1.5-4.1,3.7-4.1c2.8,0,3.6,2.6,3.6,4.5h-5.9
		c0,1.4,0.7,2.6,2.4,2.6c1.1,0,1.8-0.5,2-1.5H536.9z M535.6,451.9c-0.1-1.2-1-2.2-2.3-2.2c-1.4,0-2.2,1-2.2,2.2H535.6z"/>
	<path d="M543.1,449.9h-1.3v-1.1h1.3v-1.2c0-1.3,0.8-1.9,2.2-1.9c0.2,0,0.6,0,0.8,0.1v1.1c-0.2-0.1-0.5-0.1-0.7-0.1
		c-0.6,0-1,0.2-1,0.9v1.1h1.5v1.1h-1.5v6.7h-1.3V449.9z"/>
	<path d="M547,448.8h1.2v1.7h0c0.6-1.3,1.5-1.9,2.9-1.8v1.4c-2.1,0-2.8,1.2-2.8,3.2v3.5H547V448.8z"/>
	<path d="M559,456.6c-0.2,0.1-0.5,0.2-0.9,0.2c-0.7,0-1.1-0.4-1.1-1.2c-0.7,0.8-1.7,1.2-2.8,1.2c-1.4,0-2.6-0.6-2.6-2.2
		c0-1.8,1.3-2.2,2.7-2.4c1.4-0.3,2.6-0.2,2.6-1.2c0-1.1-0.9-1.3-1.7-1.3c-1.1,0-1.9,0.3-2,1.5H552c0.1-1.9,1.6-2.6,3.3-2.6
		c1.4,0,2.9,0.3,2.9,2.2v4c0,0.6,0,0.9,0.4,0.9c0.1,0,0.2,0,0.4-0.1V456.6z M556.9,452.6c-0.5,0.4-1.5,0.4-2.3,0.5
		c-0.8,0.2-1.6,0.5-1.6,1.4c0,0.9,0.7,1.2,1.5,1.2c1.7,0,2.4-1.1,2.4-1.8V452.6z"/>
	<path d="M571.2,454.1c-0.3,1.7-1.6,2.7-3.4,2.7c-2.5,0-3.7-1.7-3.8-4.1c0-2.4,1.5-4.1,3.7-4.1c2.8,0,3.6,2.6,3.6,4.5h-5.9
		c0,1.4,0.7,2.6,2.4,2.6c1.1,0,1.8-0.5,2-1.5H571.2z M569.9,451.9c-0.1-1.2-1-2.2-2.3-2.2c-1.4,0-2.2,1-2.2,2.2H569.9z"/>
	<path d="M572.6,448.8h1.2v1.2h0c0.5-1,1.4-1.4,2.6-1.4c2.1,0,2.7,1.2,2.7,2.9v5.2h-1.3v-5.3c0-1-0.6-1.6-1.6-1.6
		c-1.6,0-2.3,1-2.3,2.5v4.4h-1.3V448.8z"/>
	<path d="M586.6,447.4h-1.3v-1.6h1.3V447.4z M585.4,448.8h1.3v7.8h-1.3V448.8z"/>
	<path d="M588.6,448.8h1.2v1.2h0c0.5-1,1.4-1.4,2.6-1.4c2.1,0,2.7,1.2,2.7,2.9v5.2h-1.3v-5.3c0-1-0.6-1.6-1.6-1.6
		c-1.6,0-2.3,1-2.3,2.5v4.4h-1.3V448.8z"/>
	<path d="M604.1,456.6h-1.3v-1.1h0c-0.4,0.9-1.4,1.2-2.5,1.2c-2.4,0-3.6-1.9-3.6-4.1c0-2.2,1.2-4.1,3.6-4.1c0.8,0,2,0.3,2.5,1.2h0
		v-4h1.3V456.6z M600.5,455.7c1.7,0,2.4-1.5,2.4-3c0-1.5-0.7-3-2.5-3c-1.8,0-2.4,1.5-2.4,3C598,454.2,598.8,455.7,600.5,455.7z"/>
	<path d="M612.8,454.1c-0.3,1.7-1.6,2.7-3.4,2.7c-2.5,0-3.7-1.7-3.8-4.1c0-2.4,1.5-4.1,3.7-4.1c2.8,0,3.6,2.6,3.6,4.5H607
		c0,1.4,0.7,2.6,2.4,2.6c1.1,0,1.8-0.5,2-1.5H612.8z M611.5,451.9c-0.1-1.2-1-2.2-2.3-2.2c-1.4,0-2.2,1-2.2,2.2H611.5z"/>
	<path d="M614.3,445.8h1.3v6.4l3.6-3.4h1.7l-3.1,2.9l3.3,5h-1.6l-2.7-4.1l-1.2,1.1v3h-1.3V445.8z"/>
	<path d="M622.9,454.1c0,1.2,1,1.5,2.1,1.5c0.8,0,1.9-0.2,1.9-1.2c0-1-1.3-1.2-2.6-1.5c-1.3-0.3-2.6-0.7-2.6-2.2
		c0-1.6,1.6-2.2,2.9-2.2c1.7,0,3.1,0.5,3.2,2.5h-1.3c-0.1-1-1-1.3-1.8-1.3c-0.8,0-1.7,0.2-1.7,1c0,0.9,1.4,1.1,2.6,1.4
		c1.3,0.3,2.6,0.7,2.6,2.2c0,1.9-1.7,2.5-3.3,2.5c-1.8,0-3.2-0.7-3.3-2.7H622.9z"/>
	<path d="M634,448.8h1.3v1.1h0c0.4-0.9,1.4-1.2,2.5-1.2c2.4,0,3.6,1.9,3.6,4.1s-1.2,4.1-3.6,4.1c-0.8,0-2-0.3-2.5-1.2h0v4.1H634
		V448.8z M637.6,449.7c-1.7,0-2.4,1.5-2.4,3c0,1.5,0.7,3,2.5,3c1.8,0,2.4-1.5,2.4-3C640.1,451.2,639.3,449.7,637.6,449.7z"/>
	<path d="M649.9,456.6c-0.2,0.1-0.5,0.2-0.9,0.2c-0.7,0-1.1-0.4-1.1-1.2c-0.7,0.8-1.7,1.2-2.8,1.2c-1.4,0-2.6-0.6-2.6-2.2
		c0-1.8,1.3-2.2,2.7-2.4c1.4-0.3,2.6-0.2,2.6-1.2c0-1.1-0.9-1.3-1.7-1.3c-1.1,0-1.9,0.3-2,1.5h-1.3c0.1-1.9,1.6-2.6,3.3-2.6
		c1.4,0,2.9,0.3,2.9,2.2v4c0,0.6,0,0.9,0.4,0.9c0.1,0,0.2,0,0.4-0.1V456.6z M647.8,452.6c-0.5,0.4-1.5,0.4-2.3,0.5
		c-0.8,0.2-1.6,0.5-1.6,1.4c0,0.9,0.7,1.2,1.5,1.2c1.7,0,2.4-1.1,2.4-1.8V452.6z M646.1,444.9c0.9,0,1.7,0.8,1.7,1.7
		s-0.8,1.7-1.7,1.7c-0.9,0-1.7-0.8-1.7-1.7S645.1,444.9,646.1,444.9z M646.1,447.6c0.6,0,1-0.5,1-1c0-0.6-0.5-1-1-1
		c-0.6,0-1,0.5-1,1C645,447.1,645.5,447.6,646.1,447.6z"/>
	<path d="M655.1,451.8h4.4v1.2h-4.4V451.8z"/>
	<path d="M660.9,449.7c-0.1-2.2,1.2-3.8,3.5-3.8c1.9,0,3.4,1.1,3.4,3.1c0,1.9-1.3,2.9-2.6,3.7c-1.4,0.8-2.8,1.5-3,2.8h5.5v1.1h-7
		c0.2-2.6,1.5-3.5,3-4.4c1.8-1.1,2.7-1.8,2.7-3.3c0-1.2-0.9-1.9-2.1-1.9c-1.5,0-2.1,1.4-2.1,2.7H660.9z"/>
	<path d="M675.8,447.2h-4.3l-0.6,3.1l0,0c0.5-0.5,1.3-0.8,2-0.8c1.9,0,3.5,1.2,3.5,3.7c0,1.8-1.3,3.6-3.8,3.6
		c-1.9,0-3.4-1.1-3.4-3.1h1.3c0.1,1.1,1,1.9,2.3,1.9c1.2,0,2.3-0.8,2.3-2.6c0-1.4-1-2.4-2.4-2.4c-0.8,0-1.5,0.4-2,1l-1.1-0.1l1-5.6
		h5.3V447.2z"/>
</g>
<g>
	<path d="M231.2,488.4c0,1.4,1.1,2,2.4,2c0.8,0,2.1-0.2,2.1-1.4c0-1.2-1.6-1.4-3.2-1.8c-1.6-0.4-3.2-1-3.2-3.1
		c0-2.2,2.1-3.3,4.1-3.3c2.3,0,4.3,1,4.3,3.5h-2.3c-0.1-1.3-1-1.6-2.1-1.6c-0.8,0-1.6,0.3-1.6,1.2c0,0.8,0.5,0.9,3.2,1.6
		c0.8,0.2,3.2,0.7,3.2,3.2c0,2-1.6,3.5-4.5,3.5c-2.4,0-4.6-1.2-4.6-3.9H231.2z"/>
	<path d="M242,484.1h1.6v1.4H242v3.9c0,0.7,0.2,0.9,0.9,0.9c0.2,0,0.4,0,0.7-0.1v1.7c-0.4,0.1-0.8,0.1-1.3,0.1
		c-1.3,0-2.5-0.3-2.5-1.9v-4.6h-1.3v-1.4h1.3v-2.4h2.2V484.1z"/>
	<path d="M248.4,483.9c2.5,0,4.1,1.6,4.1,4.1c0,2.5-1.6,4.1-4.1,4.1c-2.5,0-4.1-1.6-4.1-4.1C244.3,485.6,245.9,483.9,248.4,483.9z
		 M248.4,490.6c1.5,0,1.9-1.3,1.9-2.5c0-1.3-0.4-2.5-1.9-2.5c-1.5,0-1.9,1.3-1.9,2.5C246.5,489.3,246.9,490.6,248.4,490.6z"/>
	<path d="M253.8,484.1h2v1.5h0c0.4-1,1.5-1.7,2.5-1.7c0.2,0,0.3,0,0.5,0.1v2c-0.2,0-0.5-0.1-0.8-0.1c-1.6,0-2.1,1.1-2.1,2.5v3.5
		h-2.2V484.1z"/>
	<path d="M264.4,485.6h-1.3v-1.4h1.3v-0.6c0-1.4,0.9-2.4,2.6-2.4c0.4,0,0.8,0,1.1,0.1v1.6c-0.3,0-0.5,0-0.8,0
		c-0.6,0-0.8,0.2-0.8,0.9v0.5h1.5v1.4h-1.5v6.4h-2.2V485.6z"/>
	<path d="M268.9,486.5c0.1-2,1.9-2.6,3.7-2.6c1.6,0,3.4,0.3,3.4,2.2v4.1c0,0.7,0.1,1.4,0.3,1.7h-2.2c-0.1-0.2-0.1-0.5-0.2-0.8
		c-0.7,0.7-1.7,1-2.6,1c-1.5,0-2.7-0.7-2.7-2.4c0-1.8,1.3-2.2,2.7-2.4c1.3-0.2,2.6-0.2,2.6-1c0-0.9-0.6-1.1-1.4-1.1
		c-0.8,0-1.4,0.3-1.4,1.2H268.9z M273.9,488.1c-0.4,0.3-1.1,0.3-1.8,0.5c-0.7,0.1-1.3,0.4-1.3,1.2c0,0.8,0.6,1,1.3,1
		c1.7,0,1.7-1.3,1.7-1.8V488.1z"/>
	<path d="M277.7,484.1h2v1.5h0c0.4-1,1.5-1.7,2.5-1.7c0.2,0,0.3,0,0.5,0.1v2c-0.2,0-0.5-0.1-0.8-0.1c-1.6,0-2.1,1.1-2.1,2.5v3.5
		h-2.2V484.1z"/>
	<path d="M285.2,488.6c0.1,1.4,0.7,2,1.9,2c0.9,0,1.6-0.5,1.7-1h1.9c-0.6,1.9-1.9,2.6-3.7,2.6c-2.5,0-4-1.7-4-4.1
		c0-2.4,1.6-4.1,4-4.1c2.7,0,4,2.2,3.8,4.7H285.2z M288.7,487.2c-0.2-1.1-0.7-1.7-1.7-1.7c-1.4,0-1.8,1.1-1.8,1.7H288.7z"/>
	<path d="M229.7,497.1h7.1v1.2h-5.7v3.4h5v1.2h-5v5h-1.4V497.1z"/>
	<path d="M245.2,507.9c-0.2,0.1-0.5,0.2-0.9,0.2c-0.7,0-1.1-0.4-1.1-1.2c-0.7,0.8-1.7,1.2-2.8,1.2c-1.4,0-2.6-0.6-2.6-2.2
		c0-1.8,1.3-2.2,2.7-2.4c1.4-0.3,2.6-0.2,2.6-1.2c0-1.1-0.9-1.3-1.7-1.3c-1.1,0-1.9,0.3-2,1.5h-1.3c0.1-1.9,1.6-2.6,3.3-2.6
		c1.4,0,2.9,0.3,2.9,2.2v4c0,0.6,0,0.9,0.4,0.9c0.1,0,0.2,0,0.4-0.1V507.9z M243.1,503.9c-0.5,0.4-1.5,0.4-2.3,0.5
		c-0.8,0.2-1.6,0.5-1.6,1.4c0,0.9,0.7,1.2,1.5,1.2c1.7,0,2.4-1.1,2.4-1.8V503.9z"/>
	<path d="M246.3,500.1h1.2v1.7h0c0.6-1.3,1.5-1.9,2.9-1.8v1.4c-2.1,0-2.8,1.2-2.8,3.2v3.5h-1.3V500.1z"/>
	<path d="M257.9,505.5c-0.3,1.7-1.6,2.7-3.4,2.7c-2.5,0-3.7-1.7-3.8-4.1c0-2.4,1.5-4.1,3.7-4.1c2.8,0,3.6,2.6,3.6,4.5h-5.9
		c0,1.4,0.7,2.6,2.4,2.6c1.1,0,1.8-0.5,2-1.5H257.9z M256.6,503.3c-0.1-1.2-1-2.2-2.3-2.2c-1.4,0-2.2,1-2.2,2.2H256.6z"/>
	<path d="M264.1,501.3h-1.3v-1.1h1.3v-1.2c0-1.3,0.8-1.9,2.2-1.9c0.2,0,0.6,0,0.8,0.1v1.1c-0.2-0.1-0.5-0.1-0.7-0.1
		c-0.6,0-1,0.2-1,0.9v1.1h1.5v1.1h-1.5v6.7h-1.3V501.3z"/>
	<path d="M271.4,499.9c2.5,0,3.8,1.8,3.8,4.1c0,2.3-1.3,4.1-3.8,4.1s-3.8-1.8-3.8-4.1C267.6,501.7,268.9,499.9,271.4,499.9z
		 M271.4,507c1.4,0,2.4-1.1,2.4-3c0-1.9-1.1-3-2.4-3c-1.4,0-2.4,1.1-2.4,3C269,505.9,270.1,507,271.4,507z"/>
	<path d="M276.7,500.1h1.2v1.7h0c0.6-1.3,1.5-1.9,2.9-1.8v1.4c-2.1,0-2.8,1.2-2.8,3.2v3.5h-1.3V500.1z"/>
	<path d="M286.6,501.3h-1.3v-1.1h1.3v-1.2c0-1.3,0.8-1.9,2.2-1.9c0.2,0,0.6,0,0.8,0.1v1.1c-0.2-0.1-0.5-0.1-0.7-0.1
		c-0.6,0-1,0.2-1,0.9v1.1h1.5v1.1h-1.5v6.7h-1.3V501.3z"/>
	<path d="M293.9,499.9c2.5,0,3.8,1.8,3.8,4.1c0,2.3-1.3,4.1-3.8,4.1c-2.5,0-3.8-1.8-3.8-4.1C290.1,501.7,291.4,499.9,293.9,499.9z
		 M293.9,507c1.4,0,2.4-1.1,2.4-3c0-1.9-1.1-3-2.4-3c-1.4,0-2.4,1.1-2.4,3C291.5,505.9,292.6,507,293.9,507z"/>
	<path d="M299.2,500.1h1.2v1.7h0c0.6-1.3,1.5-1.9,2.9-1.8v1.4c-2.1,0-2.8,1.2-2.8,3.2v3.5h-1.3V500.1z"/>
	<path d="M304.8,501.3h-1.3v-1.1h1.3v-1.2c0-1.3,0.8-1.9,2.2-1.9c0.2,0,0.6,0,0.8,0.1v1.1c-0.2-0.1-0.5-0.1-0.7-0.1
		c-0.6,0-1,0.2-1,0.9v1.1h1.5v1.1h-1.5v6.7h-1.3V501.3z"/>
	<path d="M308.7,500.1h1.2v1.7h0c0.6-1.3,1.5-1.9,2.9-1.8v1.4c-2.1,0-2.8,1.2-2.8,3.2v3.5h-1.3V500.1z"/>
	<path d="M316.9,509c-0.6,1.5-1.1,2.1-2.3,2.1c-0.3,0-0.6,0-0.9-0.1v-1.2c0.2,0.1,0.5,0.2,0.8,0.2c0.5,0,0.8-0.3,1.1-0.7l0.5-1.3
		l-3.1-7.8h1.5l2.3,6.4h0l2.2-6.4h1.4L316.9,509z"/>
	<path d="M322.2,505.5c0,1.2,1,1.5,2.1,1.5c0.8,0,1.9-0.2,1.9-1.2c0-1-1.3-1.2-2.6-1.5c-1.3-0.3-2.6-0.7-2.6-2.2
		c0-1.6,1.6-2.2,2.9-2.2c1.7,0,3.1,0.5,3.2,2.5H326c-0.1-1-1-1.3-1.8-1.3c-0.8,0-1.7,0.2-1.7,1c0,0.9,1.4,1.1,2.6,1.4
		c1.3,0.3,2.6,0.7,2.6,2.2c0,1.9-1.7,2.5-3.3,2.5c-1.8,0-3.2-0.7-3.3-2.7H322.2z"/>
	<path d="M329,500.1h1.2v1.2h0c0.5-1,1.4-1.4,2.6-1.4c2.1,0,2.7,1.2,2.7,2.9v5.2h-1.3v-5.3c0-1-0.6-1.6-1.6-1.6
		c-1.6,0-2.3,1-2.3,2.5v4.4H329V500.1z"/>
	<path d="M338.8,498.7h-1.3v-1.6h1.3V498.7z M337.6,500.1h1.3v7.8h-1.3V500.1z"/>
	<path d="M340.8,500.1h1.2v1.2h0c0.5-1,1.4-1.4,2.6-1.4c2.1,0,2.7,1.2,2.7,2.9v5.2h-1.3v-5.3c0-1-0.6-1.6-1.6-1.6
		c-1.6,0-2.3,1-2.3,2.5v4.4h-1.3V500.1z"/>
	<path d="M356.1,507.3c0,2.6-1.2,3.9-3.6,3.9c-1.5,0-3.2-0.6-3.2-2.3h1.3c0.1,0.9,1.2,1.3,2,1.3c1.7,0,2.4-1.2,2.4-3v-0.5h0
		c-0.4,1-1.5,1.4-2.4,1.4c-2.3,0-3.5-1.8-3.5-4c0-1.9,0.9-4.1,3.6-4.1c1,0,1.9,0.4,2.3,1.3h0v-1.1h1.2V507.3z M354.8,503.9
		c0-1.4-0.6-2.8-2.2-2.8c-1.7,0-2.3,1.4-2.3,2.9c0,1.4,0.5,3,2.2,3C354.2,506.9,354.8,505.4,354.8,503.9z"/>
	<path d="M368.9,505.5c-0.3,1.7-1.6,2.7-3.4,2.7c-2.5,0-3.7-1.7-3.8-4.1c0-2.4,1.5-4.1,3.7-4.1c2.8,0,3.6,2.6,3.6,4.5h-5.9
		c0,1.4,0.7,2.6,2.4,2.6c1.1,0,1.8-0.5,2-1.5H368.9z M367.7,503.3c-0.1-1.2-1-2.2-2.3-2.2c-1.4,0-2.2,1-2.2,2.2H367.7z"/>
	<path d="M370.3,500.1h1.2v1.7h0c0.6-1.3,1.5-1.9,2.9-1.8v1.4c-2.1,0-2.8,1.2-2.8,3.2v3.5h-1.3V500.1z"/>
	<path d="M379.7,500.1h1.2v1.2h0c0.6-0.9,1.5-1.3,2.5-1.3c1,0,1.8,0.4,2.2,1.3c0.5-0.8,1.5-1.3,2.5-1.3c1.6,0,2.6,0.7,2.6,2.3v5.8
		h-1.3v-5.1c0-1-0.3-1.7-1.5-1.7c-1.2,0-2,0.8-2,2v4.9h-1.3v-5.1c0-1-0.3-1.7-1.5-1.7c-1.5,0-2.1,1.4-2.1,2v4.9h-1.3V500.1z"/>
	<path d="M399.1,508h-1.2v-1.2h0c-0.5,1-1.4,1.4-2.6,1.4c-2.1,0-2.7-1.2-2.7-2.9v-5.2h1.3v5.3c0,1,0.6,1.6,1.6,1.6
		c1.6,0,2.3-1,2.3-2.5v-4.4h1.3V508z"/>
	<path d="M401.1,497.1h1.3V508h-1.3V497.1z"/>
	<path d="M405.8,498.7h-1.3v-1.6h1.3V498.7z M404.5,500.1h1.3v7.8h-1.3V500.1z"/>
	<path d="M414.6,507.3c0,2.6-1.2,3.9-3.6,3.9c-1.5,0-3.2-0.6-3.2-2.3h1.3c0.1,0.9,1.2,1.3,2,1.3c1.7,0,2.4-1.2,2.4-3v-0.5h0
		c-0.4,1-1.5,1.4-2.4,1.4c-2.3,0-3.5-1.8-3.5-4c0-1.9,0.9-4.1,3.6-4.1c1,0,1.9,0.4,2.3,1.3h0v-1.1h1.2V507.3z M413.3,503.9
		c0-1.4-0.6-2.8-2.2-2.8c-1.7,0-2.3,1.4-2.3,2.9c0,1.4,0.5,3,2.2,3C412.7,506.9,413.3,505.4,413.3,503.9z"/>
	<path d="M427.4,505.5c-0.3,1.7-1.6,2.7-3.4,2.7c-2.5,0-3.7-1.7-3.8-4.1c0-2.4,1.5-4.1,3.7-4.1c2.8,0,3.6,2.6,3.6,4.5h-5.9
		c0,1.4,0.7,2.6,2.4,2.6c1.1,0,1.8-0.5,2-1.5H427.4z M426.2,503.3c-0.1-1.2-1-2.2-2.3-2.2c-1.4,0-2.2,1-2.2,2.2H426.2z"/>
	<path d="M430.7,500.1h1.6v1.1h-1.6v4.9c0,0.6,0.2,0.7,1,0.7h0.6v1.1h-1c-1.3,0-1.9-0.3-1.9-1.7v-5h-1.3v-1.1h1.3v-2.4h1.3V500.1z"
		/>
	<path d="M435.5,500.1h1.6v1.1h-1.6v4.9c0,0.6,0.2,0.7,1,0.7h0.6v1.1h-1c-1.3,0-1.9-0.3-1.9-1.7v-5h-1.3v-1.1h1.3v-2.4h1.3V500.1z"
		/>
	<path d="M445.2,505.5c-0.3,1.7-1.6,2.7-3.4,2.7c-2.5,0-3.7-1.7-3.8-4.1c0-2.4,1.5-4.1,3.7-4.1c2.8,0,3.6,2.6,3.6,4.5h-5.9
		c0,1.4,0.7,2.6,2.4,2.6c1.1,0,1.8-0.5,2-1.5H445.2z M443.9,503.3c-0.1-1.2-1-2.2-2.3-2.2c-1.4,0-2.2,1-2.2,2.2H443.9z"/>
	<path d="M446.6,500.1h1.2v1.7h0c0.6-1.3,1.5-1.9,2.9-1.8v1.4c-2.1,0-2.8,1.2-2.8,3.2v3.5h-1.3V500.1z"/>
	<path d="M460.3,508H459v-7.7h-2.8v-1c1.5,0,2.8-0.4,3.1-2h1V508z"/>
	<path d="M467.6,497.2c3.4,0,3.6,3.1,3.6,5.5c0,2.4-0.2,5.5-3.6,5.5s-3.6-3.1-3.6-5.5C464,500.3,464.2,497.2,467.6,497.2z
		 M467.6,507c2.2,0,2.2-2.7,2.2-4.3c0-1.6,0-4.3-2.2-4.3c-2.2,0-2.2,2.7-2.2,4.3C465.4,504.3,465.4,507,467.6,507z"/>
	<path d="M477,500.1h1.2v1.2h0c0.6-0.9,1.5-1.3,2.5-1.3c1,0,1.8,0.4,2.2,1.3c0.5-0.8,1.5-1.3,2.5-1.3c1.6,0,2.6,0.7,2.6,2.3v5.8
		h-1.3v-5.1c0-1-0.3-1.7-1.5-1.7c-1.2,0-2,0.8-2,2v4.9h-1.3v-5.1c0-1-0.3-1.7-1.5-1.7c-1.5,0-2.1,1.4-2.1,2v4.9H477V500.1z"/>
	<path d="M491.3,498.7H490v-1.6h1.3V498.7z M490,500.1h1.3v7.8H490V500.1z"/>
	<path d="M493.3,500.1h1.2v1.2h0c0.5-1,1.4-1.4,2.6-1.4c2.1,0,2.7,1.2,2.7,2.9v5.2h-1.3v-5.3c0-1-0.6-1.6-1.6-1.6
		c-1.6,0-2.3,1-2.3,2.5v4.4h-1.3V500.1z"/>
	<path d="M508.3,508H507v-1.2h0c-0.5,1-1.4,1.4-2.6,1.4c-2.1,0-2.7-1.2-2.7-2.9v-5.2h1.3v5.3c0,1,0.6,1.6,1.6,1.6
		c1.6,0,2.3-1,2.3-2.5v-4.4h1.3V508z"/>
	<path d="M512,500.1h1.6v1.1H512v4.9c0,0.6,0.2,0.7,1,0.7h0.6v1.1h-1c-1.3,0-1.9-0.3-1.9-1.7v-5h-1.3v-1.1h1.3v-2.4h1.3V500.1z"/>
	<path d="M516.8,500.1h1.6v1.1h-1.6v4.9c0,0.6,0.2,0.7,1,0.7h0.6v1.1h-1c-1.3,0-1.9-0.3-1.9-1.7v-5h-1.3v-1.1h1.3v-2.4h1.3V500.1z"
		/>
	<path d="M526.5,505.5c-0.3,1.7-1.6,2.7-3.4,2.7c-2.5,0-3.7-1.7-3.8-4.1c0-2.4,1.5-4.1,3.7-4.1c2.8,0,3.6,2.6,3.6,4.5h-5.9
		c0,1.4,0.7,2.6,2.4,2.6c1.1,0,1.8-0.5,2-1.5H526.5z M525.2,503.3c-0.1-1.2-1-2.2-2.3-2.2c-1.4,0-2.2,1-2.2,2.2H525.2z"/>
	<path d="M527.9,500.1h1.2v1.7h0c0.6-1.3,1.5-1.9,2.9-1.8v1.4c-2.1,0-2.8,1.2-2.8,3.2v3.5h-1.3V500.1z"/>
	<path d="M540.7,508h-1.4l-2.9-7.8h1.4l2.2,6.5h0l2.1-6.5h1.4L540.7,508z"/>
	<path d="M551.5,505.5c-0.3,1.7-1.6,2.7-3.4,2.7c-2.5,0-3.7-1.7-3.8-4.1c0-2.4,1.5-4.1,3.7-4.1c2.8,0,3.6,2.6,3.6,4.5h-5.9
		c0,1.4,0.7,2.6,2.4,2.6c1.1,0,1.8-0.5,2-1.5H551.5z M550.2,503.3c-0.1-1.2-1-2.2-2.3-2.2c-1.4,0-2.2,1-2.2,2.2H550.2z"/>
	<path d="M560,508h-1.3v-1.1h0c-0.4,0.9-1.4,1.2-2.5,1.2c-2.4,0-3.6-1.9-3.6-4.1c0-2.2,1.2-4.1,3.6-4.1c0.8,0,2,0.3,2.5,1.2h0v-4
		h1.3V508z M556.3,507c1.7,0,2.4-1.5,2.4-3c0-1.5-0.7-3-2.5-3c-1.8,0-2.4,1.5-2.4,3C553.9,505.6,554.6,507,556.3,507z"/>
	<path d="M572.9,505.5c-0.3,1.7-1.6,2.7-3.4,2.7c-2.5,0-3.7-1.7-3.8-4.1c0-2.4,1.5-4.1,3.7-4.1c2.8,0,3.6,2.6,3.6,4.5h-5.9
		c0,1.4,0.7,2.6,2.4,2.6c1.1,0,1.8-0.5,2-1.5H572.9z M571.6,503.3c-0.1-1.2-1-2.2-2.3-2.2c-1.4,0-2.2,1-2.2,2.2H571.6z"/>
	<path d="M574.3,500.1h1.2v1.2h0c0.5-1,1.4-1.4,2.6-1.4c2.1,0,2.7,1.2,2.7,2.9v5.2h-1.3v-5.3c0-1-0.6-1.6-1.6-1.6
		c-1.6,0-2.3,1-2.3,2.5v4.4h-1.3V500.1z"/>
	<path d="M588.4,498.7h-1.3v-1.6h1.3V498.7z M587.1,500.1h1.3v7.8h-1.3V500.1z"/>
	<path d="M590.4,500.1h1.2v1.2h0c0.5-1,1.4-1.4,2.6-1.4c2.1,0,2.7,1.2,2.7,2.9v5.2h-1.3v-5.3c0-1-0.6-1.6-1.6-1.6
		c-1.6,0-2.3,1-2.3,2.5v4.4h-1.3V500.1z"/>
	<path d="M605.8,508h-1.3v-1.1h0c-0.4,0.9-1.4,1.2-2.5,1.2c-2.4,0-3.6-1.9-3.6-4.1c0-2.2,1.2-4.1,3.6-4.1c0.8,0,2,0.3,2.5,1.2h0v-4
		h1.3V508z M602.2,507c1.7,0,2.4-1.5,2.4-3c0-1.5-0.7-3-2.5-3c-1.8,0-2.4,1.5-2.4,3C599.7,505.6,600.5,507,602.2,507z"/>
	<path d="M614.5,505.5c-0.3,1.7-1.6,2.7-3.4,2.7c-2.5,0-3.7-1.7-3.8-4.1c0-2.4,1.5-4.1,3.7-4.1c2.8,0,3.6,2.6,3.6,4.5h-5.9
		c0,1.4,0.7,2.6,2.4,2.6c1.1,0,1.8-0.5,2-1.5H614.5z M613.3,503.3c-0.1-1.2-1-2.2-2.3-2.2c-1.4,0-2.2,1-2.2,2.2H613.3z"/>
	<path d="M616,497.1h1.3v6.4l3.6-3.4h1.7l-3.1,2.9l3.3,5h-1.6l-2.7-4.1l-1.2,1.1v3H616V497.1z"/>
	<path d="M624.6,505.5c0,1.2,1,1.5,2.1,1.5c0.8,0,1.9-0.2,1.9-1.2c0-1-1.3-1.2-2.6-1.5c-1.3-0.3-2.6-0.7-2.6-2.2
		c0-1.6,1.6-2.2,2.9-2.2c1.7,0,3.1,0.5,3.2,2.5h-1.3c-0.1-1-1-1.3-1.8-1.3c-0.8,0-1.7,0.2-1.7,1c0,0.9,1.4,1.1,2.6,1.4
		c1.3,0.3,2.6,0.7,2.6,2.2c0,1.9-1.7,2.5-3.3,2.5c-1.8,0-3.2-0.7-3.3-2.7H624.6z"/>
	<path d="M635.7,500.1h1.3v1.1h0c0.4-0.9,1.4-1.2,2.5-1.2c2.4,0,3.6,1.9,3.6,4.1s-1.2,4.1-3.6,4.1c-0.8,0-2-0.3-2.5-1.2h0v4.1h-1.3
		V500.1z M639.3,501.1c-1.7,0-2.4,1.5-2.4,3c0,1.5,0.7,3,2.5,3c1.8,0,2.4-1.5,2.4-3C641.8,502.5,641,501.1,639.3,501.1z"/>
	<path d="M651.6,507.9c-0.2,0.1-0.5,0.2-0.9,0.2c-0.7,0-1.1-0.4-1.1-1.2c-0.7,0.8-1.7,1.2-2.8,1.2c-1.4,0-2.6-0.6-2.6-2.2
		c0-1.8,1.3-2.2,2.7-2.4c1.4-0.3,2.6-0.2,2.6-1.2c0-1.1-0.9-1.3-1.7-1.3c-1.1,0-1.9,0.3-2,1.5h-1.3c0.1-1.9,1.6-2.6,3.3-2.6
		c1.4,0,2.9,0.3,2.9,2.2v4c0,0.6,0,0.9,0.4,0.9c0.1,0,0.2,0,0.4-0.1V507.9z M649.5,503.9c-0.5,0.4-1.5,0.4-2.3,0.5
		c-0.8,0.2-1.6,0.5-1.6,1.4c0,0.9,0.7,1.2,1.5,1.2c1.7,0,2.4-1.1,2.4-1.8V503.9z M647.8,496.2c0.9,0,1.7,0.8,1.7,1.7
		s-0.8,1.7-1.7,1.7c-0.9,0-1.7-0.8-1.7-1.7S646.8,496.2,647.8,496.2z M647.8,498.9c0.6,0,1-0.5,1-1c0-0.6-0.5-1-1-1
		c-0.6,0-1,0.5-1,1C646.7,498.5,647.2,498.9,647.8,498.9z"/>
	<path d="M656.8,503.1h4.4v1.2h-4.4V503.1z"/>
	<path d="M665.3,501.8c0.2,0,0.4,0,0.6,0c1.1,0,2-0.6,2-1.8c0-1.1-0.8-1.7-1.9-1.7c-1.4,0-2,1.1-2,2.3h-1.3c0.1-2,1.2-3.5,3.3-3.5
		c1.9,0,3.3,0.9,3.3,2.9c0,0.9-0.7,1.8-1.5,2.1v0c1.3,0.3,1.9,1.3,1.9,2.6c0,2.2-1.7,3.3-3.7,3.3c-2.2,0-3.6-1.3-3.6-3.5h1.3
		c0,1.4,0.8,2.4,2.3,2.4c1.3,0,2.3-0.8,2.3-2.1c0-1.4-1-2.1-2.3-2.1c-0.3,0-0.5,0-0.8,0V501.8z"/>
	<path d="M677.6,498.5h-4.3l-0.6,3.1l0,0c0.5-0.5,1.3-0.8,2-0.8c1.9,0,3.5,1.2,3.5,3.7c0,1.8-1.3,3.6-3.8,3.6
		c-1.9,0-3.4-1.1-3.4-3.1h1.3c0.1,1.1,1,1.9,2.3,1.9c1.2,0,2.3-0.8,2.3-2.6c0-1.4-1-2.4-2.4-2.4c-0.8,0-1.5,0.4-2,1l-1.1-0.1l1-5.6
		h5.3V498.5z"/>
</g>
<g>
	<path d="M229.6,377.4h2.4v8.8h5.3v2h-7.7V377.4z"/>
	<path d="M240.6,379.2h-2.2v-1.8h2.2V379.2z M238.4,380.4h2.2v7.8h-2.2V380.4z"/>
	<path d="M245,380.4h1.6v1.4H245v3.9c0,0.7,0.2,0.9,0.9,0.9c0.2,0,0.4,0,0.7-0.1v1.7c-0.4,0.1-0.8,0.1-1.3,0.1
		c-1.3,0-2.5-0.3-2.5-1.9v-4.6h-1.3v-1.4h1.3v-2.4h2.2V380.4z"/>
	<path d="M249.4,384.9c0.1,1.4,0.7,2,1.9,2c0.9,0,1.6-0.5,1.7-1h1.9c-0.6,1.9-1.9,2.6-3.7,2.6c-2.5,0-4-1.7-4-4.1
		c0-2.4,1.6-4.1,4-4.1c2.7,0,4,2.2,3.8,4.7H249.4z M252.9,383.5c-0.2-1.1-0.7-1.7-1.7-1.7c-1.4,0-1.8,1.1-1.8,1.7H252.9z"/>
	<path d="M256.3,380.4h2v1.1h0c0.5-0.9,1.5-1.3,2.4-1.3c2.3,0,2.9,1.3,2.9,3.2v4.8h-2.2v-4.4c0-1.3-0.4-1.9-1.4-1.9
		c-1.2,0-1.7,0.7-1.7,2.2v4.1h-2.2V380.4z"/>
	<path d="M270,381.9h-1.3v-1.4h1.3v-0.6c0-1.4,0.9-2.4,2.6-2.4c0.4,0,0.8,0,1.1,0.1v1.6c-0.3,0-0.5,0-0.8,0c-0.6,0-0.8,0.2-0.8,0.9
		v0.5h1.5v1.4h-1.5v6.4H270V381.9z"/>
	<path d="M274.5,382.9c0.1-2,1.9-2.6,3.7-2.6c1.6,0,3.4,0.3,3.4,2.2v4.1c0,0.7,0.1,1.4,0.3,1.7h-2.2c-0.1-0.2-0.1-0.5-0.2-0.8
		c-0.7,0.7-1.7,1-2.6,1c-1.5,0-2.7-0.7-2.7-2.4c0-1.8,1.3-2.2,2.7-2.4c1.3-0.2,2.6-0.2,2.6-1c0-0.9-0.6-1.1-1.4-1.1
		c-0.8,0-1.4,0.3-1.4,1.2H274.5z M279.5,384.4c-0.4,0.3-1.1,0.3-1.8,0.5c-0.7,0.1-1.3,0.4-1.3,1.2c0,0.8,0.6,1,1.3,1
		c1.7,0,1.7-1.3,1.7-1.8V384.4z"/>
	<path d="M283.3,380.4h2v1.5h0c0.4-1,1.5-1.7,2.5-1.7c0.2,0,0.3,0,0.5,0.1v2c-0.2,0-0.5-0.1-0.8-0.1c-1.6,0-2.1,1.1-2.1,2.5v3.5
		h-2.2V380.4z"/>
	<path d="M290.8,384.9c0.1,1.4,0.7,2,1.9,2c0.9,0,1.6-0.5,1.7-1h1.9c-0.6,1.9-1.9,2.6-3.7,2.6c-2.5,0-4-1.7-4-4.1
		c0-2.4,1.6-4.1,4-4.1c2.7,0,4,2.2,3.8,4.7H290.8z M294.3,383.5c-0.2-1.1-0.7-1.7-1.7-1.7c-1.4,0-1.8,1.1-1.8,1.7H294.3z"/>
	<path d="M229.7,393.4h1.4v9.6h5.7v1.2h-7.2V393.4z"/>
	<path d="M239.3,395H238v-1.6h1.3V395z M238,396.4h1.3v7.8H238V396.4z"/>
	<path d="M243.1,396.4h1.6v1.1h-1.6v4.9c0,0.6,0.2,0.7,1,0.7h0.6v1.1h-1c-1.3,0-1.9-0.3-1.9-1.7v-5h-1.3v-1.1h1.3v-2.4h1.3V396.4z"
		/>
	<path d="M252.8,401.8c-0.3,1.7-1.6,2.7-3.4,2.7c-2.5,0-3.7-1.7-3.8-4.1c0-2.4,1.5-4.1,3.7-4.1c2.8,0,3.6,2.6,3.6,4.5h-5.9
		c0,1.4,0.7,2.6,2.4,2.6c1.1,0,1.8-0.5,2-1.5H252.8z M251.6,399.6c-0.1-1.2-1-2.2-2.3-2.2c-1.4,0-2.2,1-2.2,2.2H251.6z"/>
	<path d="M254.3,396.4h1.2v1.2h0c0.5-1,1.4-1.4,2.6-1.4c2.1,0,2.7,1.2,2.7,2.9v5.2h-1.3V399c0-1-0.6-1.6-1.6-1.6
		c-1.6,0-2.3,1-2.3,2.5v4.4h-1.3V396.4z"/>
	<path d="M268.7,396.4h1.6v1.1h-1.6v4.9c0,0.6,0.2,0.7,1,0.7h0.6v1.1h-1c-1.3,0-1.9-0.3-1.9-1.7v-5h-1.3v-1.1h1.3v-2.4h1.3V396.4z"
		/>
	<path d="M273.1,395h-1.3v-1.6h1.3V395z M271.8,396.4h1.3v7.8h-1.3V396.4z"/>
	<path d="M275.2,393.4h1.3v10.8h-1.3V393.4z"/>
	<path d="M282.7,396.4h1.2v1.2h0c0.6-0.9,1.5-1.3,2.5-1.3c1,0,1.8,0.4,2.2,1.3c0.5-0.8,1.5-1.3,2.5-1.3c1.6,0,2.6,0.7,2.6,2.3v5.8
		h-1.3v-5.1c0-1-0.3-1.7-1.5-1.7c-1.2,0-2,0.8-2,2v4.9h-1.3v-5.1c0-1-0.3-1.7-1.5-1.7c-1.5,0-2.1,1.4-2.1,2v4.9h-1.3V396.4z"/>
	<path d="M299,396.2c2.5,0,3.8,1.8,3.8,4.1c0,2.3-1.3,4.1-3.8,4.1s-3.8-1.8-3.8-4.1C295.2,398,296.5,396.2,299,396.2z M299,403.3
		c1.4,0,2.4-1.1,2.4-3c0-1.9-1.1-3-2.4-3c-1.4,0-2.4,1.1-2.4,3C296.6,402.3,297.7,403.3,299,403.3z"/>
	<path d="M311.4,404.3h-1.3v-1.1h0c-0.4,0.9-1.4,1.2-2.5,1.2c-2.4,0-3.6-1.9-3.6-4.1c0-2.2,1.2-4.1,3.6-4.1c0.8,0,2,0.3,2.5,1.2h0
		v-4h1.3V404.3z M307.7,403.3c1.7,0,2.4-1.5,2.4-3c0-1.5-0.7-3-2.5-3c-1.8,0-2.4,1.5-2.4,3C305.3,401.9,306,403.3,307.7,403.3z"/>
	<path d="M320,401.8c-0.3,1.7-1.6,2.7-3.4,2.7c-2.5,0-3.7-1.7-3.8-4.1c0-2.4,1.5-4.1,3.7-4.1c2.8,0,3.6,2.6,3.6,4.5h-5.9
		c0,1.4,0.7,2.6,2.4,2.6c1.1,0,1.8-0.5,2-1.5H320z M318.8,399.6c-0.1-1.2-1-2.2-2.3-2.2c-1.4,0-2.2,1-2.2,2.2H318.8z"/>
	<path d="M321.5,396.4h1.2v1.7h0c0.6-1.3,1.5-1.9,2.9-1.8v1.4c-2.1,0-2.8,1.2-2.8,3.2v3.5h-1.3V396.4z"/>
	<path d="M333.5,404.2c-0.2,0.1-0.5,0.2-0.9,0.2c-0.7,0-1.1-0.4-1.1-1.2c-0.7,0.8-1.7,1.2-2.8,1.2c-1.4,0-2.6-0.6-2.6-2.2
		c0-1.8,1.3-2.2,2.7-2.4c1.4-0.3,2.6-0.2,2.6-1.2c0-1.1-0.9-1.3-1.7-1.3c-1.1,0-1.9,0.3-2,1.5h-1.3c0.1-1.9,1.6-2.6,3.3-2.6
		c1.4,0,2.9,0.3,2.9,2.2v4c0,0.6,0,0.9,0.4,0.9c0.1,0,0.2,0,0.4-0.1V404.2z M331.4,400.2c-0.5,0.4-1.5,0.4-2.3,0.5
		c-0.8,0.2-1.6,0.5-1.6,1.4c0,0.9,0.7,1.2,1.5,1.2c1.7,0,2.4-1.1,2.4-1.8V400.2z"/>
	<path d="M336.5,396.4h1.6v1.1h-1.6v4.9c0,0.6,0.2,0.7,1,0.7h0.6v1.1h-1c-1.3,0-1.9-0.3-1.9-1.7v-5h-1.3v-1.1h1.3v-2.4h1.3V396.4z"
		/>
	<path d="M344.2,397.6h-1.3v-1.1h1.3v-1.2c0-1.3,0.8-1.9,2.2-1.9c0.2,0,0.6,0,0.8,0.1v1.1c-0.2-0.1-0.5-0.1-0.7-0.1
		c-0.6,0-1,0.2-1,0.9v1.1h1.5v1.1h-1.5v6.7h-1.3V397.6z"/>
	<path d="M355.2,404.2c-0.2,0.1-0.5,0.2-0.9,0.2c-0.7,0-1.1-0.4-1.1-1.2c-0.7,0.8-1.7,1.2-2.8,1.2c-1.4,0-2.6-0.6-2.6-2.2
		c0-1.8,1.3-2.2,2.7-2.4c1.4-0.3,2.6-0.2,2.6-1.2c0-1.1-0.9-1.3-1.7-1.3c-1.1,0-1.9,0.3-2,1.5h-1.3c0.1-1.9,1.6-2.6,3.3-2.6
		c1.4,0,2.9,0.3,2.9,2.2v4c0,0.6,0,0.9,0.4,0.9c0.1,0,0.2,0,0.4-0.1V404.2z M353.1,400.2c-0.5,0.4-1.5,0.4-2.3,0.5
		c-0.8,0.2-1.6,0.5-1.6,1.4c0,0.9,0.7,1.2,1.5,1.2c1.7,0,2.4-1.1,2.4-1.8V400.2z"/>
	<path d="M356.3,396.4h1.2v1.7h0c0.6-1.3,1.5-1.9,2.9-1.8v1.4c-2.1,0-2.8,1.2-2.8,3.2v3.5h-1.3V396.4z"/>
	<path d="M367.8,401.8c-0.3,1.7-1.6,2.7-3.4,2.7c-2.5,0-3.7-1.7-3.8-4.1c0-2.4,1.5-4.1,3.7-4.1c2.8,0,3.6,2.6,3.6,4.5h-5.9
		c0,1.4,0.7,2.6,2.4,2.6c1.1,0,1.8-0.5,2-1.5H367.8z M366.6,399.6c-0.1-1.2-1-2.2-2.3-2.2c-1.4,0-2.2,1-2.2,2.2H366.6z"/>
</g>
</svg>
