<?xml version="1.0" encoding="utf-8"?>
<!-- Generator: Adobe Illustrator 18.1.1, SVG Export Plug-In . SVG Version: 6.00 Build 0)  -->
<svg version="1.1" id="Layer_1" xmlns="http://www.w3.org/2000/svg" xmlns:xlink="http://www.w3.org/1999/xlink" x="0px" y="0px"
	 viewBox="-392 270.3 56 56" enable-background="new -392 270.3 56 56" xml:space="preserve">
<g id="_x37_46-plus-circle_x40_2x.png">
	<g>
		<path d="M-364,270.3c-15.5,0-28,12.5-28,28s12.5,28,28,28s28-12.5,28-28S-348.5,270.3-364,270.3z M-364,324.3
			c-14.4,0-26-11.6-26-26s11.6-26,26-26s26,11.6,26,26S-349.6,324.3-364,324.3z"/>
	</g>
</g>
<g id="_x37_91-warning_x40_2x.png">
	<g>
		<path d="M-368,286.3l2,14c0,1.1,0.9,2,2,2s2-0.9,2-2l2-14c0-1.1-0.9-2-2-2h-4C-367.1,284.3-368,285.2-368,286.3z M-364,300.3
			l-2-14h4L-364,300.3z M-364,304.3c-2.2,0-4,1.8-4,4c0,2.2,1.8,4,4,4s4-1.8,4-4C-360,306.1-361.8,304.3-364,304.3z M-364,310.3
			c-1.1,0-2-0.9-2-2s0.9-2,2-2s2,0.9,2,2S-362.9,310.3-364,310.3z"/>
	</g>
</g>
</svg>
