<?xml version="1.0" encoding="utf-8"?>
<!-- Generator: Adobe Illustrator 18.1.1, SVG Export Plug-In . SVG Version: 6.00 Build 0)  -->
<svg version="1.1" id="Layer_1" xmlns="http://www.w3.org/2000/svg" xmlns:xlink="http://www.w3.org/1999/xlink" x="0px" y="0px"
	 viewBox="-392 272.3 56 52" enable-background="new -392 272.3 56 52" xml:space="preserve">
<g id="_x38_89-sort-descending_x40_2x.png">
	<g>
		<path d="M-369,289.6v22c0,1.1,0.9,2,2,2h6c1.1,0,2-0.9,2-2v-22c0-1.1-0.9-2-2-2h-6C-368.1,287.6-369,288.5-369,289.6z M-361,289.6
			v22h-6v-22H-361z M-381,281.6v30c0,1.1,0.9,2,2,2h6c1.1,0,2-0.9,2-2v-30c0-1.1-0.9-2-2-2h-6C-380.1,279.6-381,280.5-381,281.6z
			 M-373,281.6v30h-6v-30H-373z M-357,297.6v14c0,1.1,0.9,2,2,2h6c1.1,0,2-0.9,2-2v-14c0-1.1-0.9-2-2-2h-6
			C-356.1,295.6-357,296.5-357,297.6z M-349,297.6v14h-6v-14H-349z"/>
	</g>
</g>
</svg>
