<?xml version="1.0" encoding="UTF-8" standalone="no"?>
<svg
   xmlns:dc="http://purl.org/dc/elements/1.1/"
   xmlns:cc="http://creativecommons.org/ns#"
   xmlns:rdf="http://www.w3.org/1999/02/22-rdf-syntax-ns#"
   xmlns:svg="http://www.w3.org/2000/svg"
   xmlns="http://www.w3.org/2000/svg"
   height="36"
   xml:space="preserve"
   viewBox="0 0 36 36"
   width="36"
   y="0px"
   x="0px"
   id="Layer_1"
   version="1.1"><metadata
     id="metadata16"><rdf:RDF><cc:Work
         rdf:about=""><dc:format>image/svg+xml</dc:format><dc:type
           rdf:resource="http://purl.org/dc/dcmitype/StillImage" /><dc:title></dc:title></cc:Work></rdf:RDF></metadata><defs
     id="defs14" /><g
     transform="scale(0.64285714,0.64285714)"
     id="_x37_46-plus-circle_x40_2x.png"><g
       id="g4"><path
         id="path6"
         d="M 28,0 C 12.5,0 0,12.5 0,28 0,43.5 12.5,56 28,56 43.5,56 56,43.5 56,28 56,12.5 43.5,0 28,0 Z m 0,54.1 C 13.6,54.1 2,42.5 2,28.1 2,13.7 13.6,2 28,2 42.4,2 54,13.6 54,28 54,42.4 42.4,54.1 28,54.1 Z" /></g></g><path
     id="path8"
     d="m 15.621429,25.328571 c -0.192858,0 -0.385715,-0.06428 -0.514286,-0.192857 L 9.7714286,19.8 c -0.128572,-0.128571 -0.192858,-0.321429 -0.192858,-0.514286 0,-0.385714 0.321429,-0.707143 0.7071434,-0.707143 0.192857,0 0.385715,0.06429 0.514286,0.192858 l 4.757143,4.757142 12.15,-14.0785708 0.06429,0.06429 c 0.06428,-0.06429 0.192853,-0.06429 0.257138,-0.06429 0.385715,0 0.707143,0.321429 0.707143,0.7071428 0,0.06429 0,0.06429 0,0.128571 l 0.06429,0.06429 -0.257143,0.257143 L 15.878575,25.26429 15.814285,25.2 c 0,0.128571 -0.06429,0.128571 -0.192857,0.128571 z" /><path
     id="path10"
     d="m 28.478571,10.092857 c 0,-0.1928568 -0.192857,-0.3857138 -0.385714,-0.3857138 -0.128571,0 -0.192857,0.06429 -0.321428,0.128571 l 0,0 -12.214286,14.1428568 -5.014286,-5.014285 c -0.06429,-0.06429 -0.192857,-0.128572 -0.257143,-0.128572 -0.192857,0 -0.3857144,0.192857 -0.3857144,0.385715 0,0.128571 0.06429,0.192857 0.1285714,0.257142 l 5.335715,5.335715 c 0.06429,0.06428 0.192857,0.128571 0.257143,0.128571 0.128571,0 0.192857,-0.06429 0.321428,-0.128571 l 0,0 L 28.414286,10.35 l 0,0 c 0.06429,-0.06429 0.06429,-0.128571 0.06429,-0.257143 z" /></svg>