<?xml version="1.0" encoding="utf-8"?>
<!-- Generator: Adobe Illustrator 18.1.1, SVG Export Plug-In . SVG Version: 6.00 Build 0)  -->
<svg version="1.1" id="Layer_1" xmlns="http://www.w3.org/2000/svg" xmlns:xlink="http://www.w3.org/1999/xlink" x="0px" y="0px"
	 viewBox="-392 270.3 56 56" enable-background="new -392 270.3 56 56" xml:space="preserve">
<g id="_x37_46-plus-circle_x40_2x.png">
	<g>
		<path d="M-364,270.3c-15.5,0-28,12.5-28,28s12.5,28,28,28s28-12.5,28-28S-348.5,270.3-364,270.3z M-364,324.3
			c-14.4,0-26-11.6-26-26s11.6-26,26-26s26,11.6,26,26S-349.6,324.3-364,324.3z"/>
	</g>
</g>
<path d="M-367.7,309.6c-0.3,0-0.6-0.1-0.8-0.3l-8.3-8.3c-0.2-0.2-0.3-0.5-0.3-0.8c0-0.6,0.5-1.1,1.1-1.1c0.3,0,0.6,0.1,0.8,0.3
	l7.4,7.4l18.9-21.9l0.1,0.1c0.1-0.1,0.3-0.1,0.4-0.1c0.6,0,1.1,0.5,1.1,1.1c0,0.1,0,0.1,0,0.2l0.1,0.1l-0.4,0.4l-19.7,22.8l-0.1-0.1
	C-367.4,309.6-367.5,309.6-367.7,309.6z"/>
<path d="M-347.7,286c0-0.3-0.3-0.6-0.6-0.6c-0.2,0-0.3,0.1-0.5,0.2l0,0l-19,22l-7.8-7.8c-0.1-0.1-0.3-0.2-0.4-0.2
	c-0.3,0-0.6,0.3-0.6,0.6c0,0.2,0.1,0.3,0.2,0.4l8.3,8.3c0.1,0.1,0.3,0.2,0.4,0.2c0.2,0,0.3-0.1,0.5-0.2l0,0l19.4-22.5l0,0
	C-347.7,286.3-347.7,286.2-347.7,286z"/>
</svg>
