<?xml version="1.0" encoding="utf-8"?>
<!-- Generator: Adobe Illustrator 17.1.0, SVG Export Plug-In . SVG Version: 6.00 Build 0)  -->
<!DOCTYPE svg PUBLIC "-//W3C//DTD SVG 1.1//EN" "http://www.w3.org/Graphics/SVG/1.1/DTD/svg11.dtd">
<svg version="1.1" id="Capa_1" xmlns="http://www.w3.org/2000/svg" xmlns:xlink="http://www.w3.org/1999/xlink" x="0px" y="0px"
	 viewBox="8.8 7.9 82.5 74.2" enable-background="new 8.8 7.9 82.5 74.2" xml:space="preserve">
	<path class="svgfill" fill="#FFFFFF" d="M62.7,44.5c0.1,0.4,0.2,0.8,0.2,1.2c0,0.9-0.2,1.8-0.7,2.6c0,0.3,0.1,0.5,0.1,0.8c0,1.2-0.4,2.3-1.1,3.2
		c0,3.4-2.3,5.4-5.6,5.4h-0.7h-1.7c-2.6,0-5-0.8-7.3-1.6c-0.5-0.2-2-0.7-2.5-0.7h-5.2c-1.3,0-2.3-1-2.3-2.3V41.5
		c0-1.3,1-2.3,2.3-2.3h5c0.7-0.5,1.9-2.1,2.5-2.8c0.6-0.8,1.2-1.6,1.9-2.3c1.1-1.2,0.5-4,2.3-5.8c0.4-0.4,1-0.7,1.6-0.7
		c1.9,0,3.7,0.7,4.6,2.4c0.6,1.1,0.6,2.2,0.6,3.4c0,1.3-0.3,2.3-0.9,3.5H59c2.5,0,4.6,2.1,4.6,4.6C63.6,42.6,63.3,43.6,62.7,44.5z
		 M39.3,50.8c-0.6,0-1.2,0.5-1.2,1.2s0.5,1.2,1.2,1.2c0.6,0,1.2-0.5,1.2-1.2S39.9,50.8,39.3,50.8z M59,39.2h-6.4
		c0-2.1,1.7-3.7,1.7-5.8c0-2.1-0.4-3.5-2.9-3.5c-1.2,1.2-0.6,3.9-2.3,5.8c-0.5,0.5-0.9,1.1-1.4,1.6c-0.8,1-3,4.1-4.4,4.1h-0.6v11.6
		h0.6c1,0,2.7,0.7,3.6,1c2,0.7,4,1.3,6.2,1.3h2.2c2,0,3.5-0.8,3.5-3c0-0.3,0-0.7-0.1-1c0.8-0.4,1.2-1.4,1.2-2.3
		c0-0.4-0.1-0.9-0.3-1.2c0.6-0.6,1-1.3,1-2.2c0-0.6-0.3-1.4-0.6-1.9c0.8,0,1.4-1.6,1.4-2.3C61.3,40.3,60.2,39.2,59,39.2z"/>
</svg>
