<?xml version="1.0" encoding="utf-8"?>
<!-- Generator: Adobe Illustrator 17.1.0, SVG Export Plug-In . SVG Version: 6.00 Build 0)  -->
<!DOCTYPE svg PUBLIC "-//W3C//DTD SVG 1.1//EN" "http://www.w3.org/Graphics/SVG/1.1/DTD/svg11.dtd">
<svg version="1.1" id="Capa_1" xmlns="http://www.w3.org/2000/svg" xmlns:xlink="http://www.w3.org/1999/xlink" x="0px" y="0px"
	 viewBox="8.8 7.9 82.5 74.2" enable-background="new 8.8 7.9 82.5 74.2" xml:space="preserve">
	<path class="svgfill" fill="#FFFFFF" d="M63.1,38.6v17.7c0,0.8-0.7,1.5-1.5,1.5H40.9c-0.8,0-1.5-0.7-1.5-1.5V31.7c0-0.8,0.7-1.5,1.5-1.5h13.8
		c0.8,0,2,0.5,2.5,1l4.8,4.8C62.6,36.7,63.1,37.8,63.1,38.6z M61.1,40.1h-6.4c-0.8,0-1.5-0.7-1.5-1.5v-6.4H41.4v23.6h19.7V40.1z
		 M55.2,38.1H61c-0.1-0.3-0.2-0.5-0.3-0.6l-4.8-4.8c-0.1-0.1-0.4-0.2-0.6-0.3V38.1z"/>
</svg>
