<?xml version="1.0" encoding="utf-8"?>
<!-- Generator: Adobe Illustrator 17.1.0, SVG Export Plug-In . SVG Version: 6.00 Build 0)  -->
<!DOCTYPE svg PUBLIC "-//W3C//DTD SVG 1.1//EN" "http://www.w3.org/Graphics/SVG/1.1/DTD/svg11.dtd">
<svg version="1.1" id="Capa_1" xmlns="http://www.w3.org/2000/svg" xmlns:xlink="http://www.w3.org/1999/xlink" x="0px" y="0px"
	 viewBox="8.8 7.9 82.5 74.2" enable-background="new 8.8 7.9 82.5 74.2" xml:space="preserve">
<!--circle class="svgfill" fill="#231F20" cx="49.8" cy="45" r="33.2"/-->
	<path class="svgfill" fill="#FFFFFF" d="M61.9,56.4h-7.7c0,2.4-2,4.4-4.4,4.4s-4.4-2-4.4-4.4h-7.7c-1.2,0-2.2-1-2.2-2.2c2.5-2.1,5.5-6,5.5-14.3
		c0-3.3,2.7-6.9,7.3-7.6c-0.1-0.2-0.1-0.4-0.1-0.7c0-0.9,0.7-1.6,1.6-1.6s1.6,0.7,1.6,1.6c0,0.2-0.1,0.5-0.1,0.7
		c4.6,0.7,7.3,4.3,7.3,7.6c0,8.3,3,12.1,5.5,14.3C64.1,55.4,63.1,56.4,61.9,56.4z M61,54.2c-3.1-3.5-4.6-8.2-4.6-14.3
		c0-2.2-2.1-5.5-6.6-5.5s-6.6,3.3-6.6,5.5c0,6.1-1.5,10.8-4.6,14.3H61z M49.8,58.9c-1.4,0-2.5-1.1-2.5-2.5c0-0.2-0.1-0.3-0.3-0.3
		c-0.2,0-0.3,0.1-0.3,0.3c0,1.7,1.4,3,3,3c0.2,0,0.3-0.1,0.3-0.3S50,58.9,49.8,58.9z"/>
</svg>
