<?xml version="1.0" encoding="utf-8"?>
<!-- Generator: Adobe Illustrator 17.1.0, SVG Export Plug-In . SVG Version: 6.00 Build 0)  -->
<!DOCTYPE svg PUBLIC "-//W3C//DTD SVG 1.1//EN" "http://www.w3.org/Graphics/SVG/1.1/DTD/svg11.dtd">
<svg version="1.1" id="Capa_1" xmlns="http://www.w3.org/2000/svg" xmlns:xlink="http://www.w3.org/1999/xlink" x="0px" y="0px"
	 viewBox="8.8 7.9 82.5 74.2" enable-background="new 8.8 7.9 82.5 74.2" xml:space="preserve">
<!--circle class="svgfill" fill="#231F20" cx="49.7" cy="45.2" r="33.2"/-->
<path class="svgfill" fill="#FFFFFF" d="M37.7,39.7c-1.4,0-2.5-1.1-2.5-2.5c0-1.4,1.1-2.5,2.5-2.5c1.4,0,2.5,1.1,2.5,2.5
	C40.1,38.6,39,39.7,37.7,39.7z M37.7,47.5c-1.4,0-2.5-1.1-2.5-2.5c0-1.4,1.1-2.5,2.5-2.5c1.4,0,2.5,1.1,2.5,2.5
	C40.1,46.5,39,47.5,37.7,47.5z M37.7,55.5c-1.4,0-2.5-1.1-2.5-2.5c0-1.4,1.1-2.5,2.5-2.5c1.4,0,2.5,1.1,2.5,2.5
	C40.1,54.4,39,55.5,37.7,55.5z M63.4,38.3c0,0.2-0.2,0.4-0.4,0.4H43.5c-0.2,0-0.4-0.2-0.4-0.4v-2.2c0-0.2,0.2-0.4,0.4-0.4H63
	c0.2,0,0.4,0.2,0.4,0.4V38.3z M63.4,46.2c0,0.2-0.2,0.4-0.4,0.4H43.5c-0.2,0-0.4-0.2-0.4-0.4V44c0-0.2,0.2-0.4,0.4-0.4H63
	c0.2,0,0.4,0.2,0.4,0.4V46.2z M63.4,54.1c0,0.2-0.2,0.4-0.4,0.4H43.5c-0.2,0-0.4-0.2-0.4-0.4v-2.2c0-0.2,0.2-0.4,0.4-0.4H63
	c0.2,0,0.4,0.2,0.4,0.4V54.1z"/>
</svg>
