<?xml version="1.0" encoding="utf-8"?>
<!-- Generator: Adobe Illustrator 17.1.0, SVG Export Plug-In . SVG Version: 6.00 Build 0)  -->
<!DOCTYPE svg PUBLIC "-//W3C//DTD SVG 1.1//EN" "http://www.w3.org/Graphics/SVG/1.1/DTD/svg11.dtd">
<svg version="1.1" id="Capa_1" xmlns="http://www.w3.org/2000/svg" xmlns:xlink="http://www.w3.org/1999/xlink" x="0px" y="0px"
	 viewBox="8.8 7.9 82.5 74.2" enable-background="new 8.8 7.9 82.5 74.2" xml:space="preserve">
	<path class="svgfill" fill="#FFFFFF" d="M65.8,45.7c0,8.7-7.1,15.8-15.8,15.8c-2.7,0-5.3-0.7-7.6-2l-8.7,2.8l2.8-8.5c-1.5-2.5-2.3-5.3-2.3-8.1
		c0-8.7,7.1-15.8,15.8-15.8C58.7,29.9,65.8,37,65.8,45.7z M63.2,45.7c0-7.2-5.9-13.2-13.2-13.2c-7.2,0-13.2,5.9-13.2,13.2
		c0,2.8,0.9,5.5,2.5,7.7l-1.7,4.9l5.1-1.6c2.1,1.4,4.7,2.2,7.2,2.2C57.3,58.8,63.2,52.9,63.2,45.7z M58.2,49.8c0,0.1,0,0.2,0,0.3
		c0,0.5-0.2,1.1-0.4,1.6c-0.5,1.2-2.4,1.9-3.6,1.9c-1,0-3.1-0.9-4-1.3c-3-1.4-4.9-3.7-6.7-6.3c-0.8-1.2-1.5-2.6-1.5-4.1v-0.2
		c0-1.4,0.5-2.4,1.5-3.3c0.3-0.3,0.6-0.5,1.1-0.5c0.3,0,0.5,0.1,0.8,0.1c0.6,0,0.7,0.2,0.9,0.7c0.1,0.4,1.2,3.2,1.2,3.4
		c0,0.8-1.4,1.7-1.4,2.2c0,0.1,0,0.2,0.1,0.3c0.5,1,1.3,2.1,2.1,2.9c1,0.9,2,1.5,3.2,2.1c0.1,0.1,0.3,0.1,0.5,0.1c0.6,0,1.7-2,2.2-2
		C54.6,47.7,58,49.5,58.2,49.8z"/>
</svg>
