<?xml version="1.0" encoding="utf-8"?>
<!-- Generator: Adobe Illustrator 17.1.0, SVG Export Plug-In . SVG Version: 6.00 Build 0)  -->
<!DOCTYPE svg PUBLIC "-//W3C//DTD SVG 1.1//EN" "http://www.w3.org/Graphics/SVG/1.1/DTD/svg11.dtd">
<svg version="1.1" id="Capa_1" xmlns="http://www.w3.org/2000/svg" xmlns:xlink="http://www.w3.org/1999/xlink" x="0px" y="0px"
	 viewBox="8.8 7.9 82.5 74.2" enable-background="new 8.8 7.9 82.5 74.2" xml:space="preserve">
<path class="svgfill" fill="#FFFFFF" d="M62.6,41.3L49.7,54.2l-2.4,2.4c-0.3,0.3-0.8,0.5-1.2,0.5c-0.4,0-0.9-0.2-1.2-0.5l-2.4-2.4L36,47.7
		c-0.3-0.3-0.5-0.8-0.5-1.2s0.2-0.9,0.5-1.2l2.4-2.4c0.3-0.3,0.8-0.5,1.2-0.5c0.4,0,0.9,0.2,1.2,0.5l5.2,5.2l11.7-11.7
		c0.3-0.3,0.8-0.5,1.2-0.5c0.4,0,0.9,0.2,1.2,0.5l2.4,2.4c0.3,0.3,0.5,0.8,0.5,1.2C63.1,40.5,62.9,41,62.6,41.3z"/>
</svg>
