<?xml version="1.0" encoding="utf-8"?>
<!-- Generator: Adobe Illustrator 17.1.0, SVG Export Plug-In . SVG Version: 6.00 Build 0)  -->
<!DOCTYPE svg PUBLIC "-//W3C//DTD SVG 1.1//EN" "http://www.w3.org/Graphics/SVG/1.1/DTD/svg11.dtd">
<svg version="1.1" id="Capa_1" xmlns="http://www.w3.org/2000/svg" xmlns:xlink="http://www.w3.org/1999/xlink" x="0px" y="0px"
	 viewBox="8.8 7.9 82.5 74.2" enable-background="new 8.8 7.9 82.5 74.2" xml:space="preserve">
	<path class="svgfill" fill="#FFFFFF" d="M60.9,49.1l-10.2,9.8c-0.2,0.2-0.5,0.3-0.7,0.3c-0.3,0-0.5-0.1-0.7-0.3L39.2,49c-0.1-0.1-3.7-3.4-3.7-7.3
		c0-4.8,2.9-7.6,7.8-7.6c2.9,0,5.5,2.3,6.8,3.5c1.3-1.3,4-3.5,6.8-3.5c4.9,0,7.8,2.9,7.8,7.6C64.7,45.6,61.1,48.9,60.9,49.1z
		 M56.9,36.2c-2.4,0-5.2,2.6-6,3.6c-0.4,0.5-1.2,0.5-1.6,0c-0.8-1-3.6-3.6-6-3.6c-2.6,0-5.7,1-5.7,5.5c0,3,3,5.8,3,5.8l9.5,9.1
		l9.5-9.1c0,0,3.1-2.8,3.1-5.8C62.6,37.1,59.5,36.2,56.9,36.2z"/>
</svg>
