<?xml version="1.0" encoding="utf-8"?>
<!-- Generator: Adobe Illustrator 17.1.0, SVG Export Plug-In . SVG Version: 6.00 Build 0)  -->
<!DOCTYPE svg PUBLIC "-//W3C//DTD SVG 1.1//EN" "http://www.w3.org/Graphics/SVG/1.1/DTD/svg11.dtd">
<svg version="1.1" id="Capa_1" xmlns="http://www.w3.org/2000/svg" xmlns:xlink="http://www.w3.org/1999/xlink" x="0px" y="0px"
	 viewBox="8.8 7.9 82.5 74.2" enable-background="new 8.8 7.9 82.5 74.2" xml:space="preserve">
	<path class="svgfill" fill="#FFFFFF" d="M60.3,57.8H39.1c-2.6,0-3.6-1.8-2.2-4l9.2-14.6v-7.3H45c-0.6,0-1.2-0.5-1.2-1.2s0.5-1.2,1.2-1.2h9.4
		c0.6,0,1.2,0.5,1.2,1.2s-0.5,1.2-1.2,1.2h-1.2v7.3l9.2,14.6C63.8,56,62.9,57.8,60.3,57.8z M43.1,48.4h13.1l-5-7.9l-0.4-0.6v-0.7
		v-7.3h-2.4v7.3v0.7l-0.4,0.6L43.1,48.4z"/>
</svg>
