<?xml version="1.0" encoding="utf-8"?>
<!-- Generator: Adobe Illustrator 17.1.0, SVG Export Plug-In . SVG Version: 6.00 Build 0)  -->
<!DOCTYPE svg PUBLIC "-//W3C//DTD SVG 1.1//EN" "http://www.w3.org/Graphics/SVG/1.1/DTD/svg11.dtd">
<svg version="1.1" id="Capa_1" xmlns="http://www.w3.org/2000/svg" xmlns:xlink="http://www.w3.org/1999/xlink" x="0px" y="0px"
	 viewBox="8.8 7.9 82.5 74.2" enable-background="new 8.8 7.9 82.5 74.2" xml:space="preserve">
	<path class="svgfill" fill="#FFFFFF" d="M63.7,45.3h-6.5l-2-3.9c-0.2-0.4-0.7-0.7-1.1-0.6c-0.5,0.1-0.9,0.4-1,0.8l-2.3,7.6L47.3,37
		c-0.1-0.5-0.6-0.8-1.1-0.8c-0.5,0-1,0.4-1.1,0.9L43,45.3h-7.5c-0.9-1.4-1.8-3.3-1.8-5.3c0-5.2,3.2-8.3,8.5-8.3c3.1,0,6,2.4,7.4,3.8
		c1.4-1.4,4.3-3.8,7.4-3.8c5.3,0,8.5,3.1,8.5,8.3C65.5,42,64.6,43.8,63.7,45.3z M61.8,47.5c-0.2,0.2-0.4,0.4-0.4,0.4l-11,10.6
		c-0.2,0.2-0.5,0.3-0.8,0.3s-0.6-0.1-0.8-0.3L37.8,47.9c0,0-0.2-0.1-0.4-0.4h6.5c0.5,0,1-0.4,1.1-0.9l1.2-5l3.4,11.8
		c0.1,0.5,0.6,0.8,1.1,0.8c0.5,0,0.9-0.3,1.1-0.8l2.6-8.6l1,2c0.2,0.4,0.6,0.6,1,0.6H61.8z"/>
</svg>
