<?xml version="1.0" encoding="utf-8"?>
<!-- Generator: Adobe Illustrator 17.1.0, SVG Export Plug-In . SVG Version: 6.00 Build 0)  -->
<!DOCTYPE svg PUBLIC "-//W3C//DTD SVG 1.1//EN" "http://www.w3.org/Graphics/SVG/1.1/DTD/svg11.dtd">
<svg version="1.1" id="Capa_1" xmlns="http://www.w3.org/2000/svg" xmlns:xlink="http://www.w3.org/1999/xlink" x="0px" y="0px"
	 viewBox="8.8 7.9 82.5 74.2" enable-background="new 8.8 7.9 82.5 74.2" xml:space="preserve">
	<path class="svgfill" fill="#FFFFFF" d="M64.8,49.4l-5.4,1.8v5.7c0,0.2-0.1,0.4-0.2,0.5c-0.2,0.1-0.4,0.1-0.5,0.1l-5.4-1.7l-3.3,4.6
		c-0.1,0.1-0.3,0.2-0.5,0.2c-0.2,0-0.4-0.1-0.5-0.2l-3.3-4.6L40,57.4c-0.2,0.1-0.4,0-0.5-0.1c-0.1-0.1-0.2-0.3-0.2-0.5v-5.7
		l-5.4-1.8c-0.2-0.1-0.3-0.2-0.4-0.4c-0.1-0.2,0-0.4,0.1-0.5l3.3-4.6l-3.3-4.6c-0.1-0.2-0.1-0.4-0.1-0.5c0.1-0.2,0.2-0.3,0.4-0.4
		l5.4-1.8v-5.7c0-0.2,0.1-0.4,0.2-0.5c0.2-0.1,0.4-0.1,0.5-0.1l5.4,1.7l3.3-4.6c0.2-0.3,0.7-0.3,1,0l3.3,4.6l5.4-1.7
		c0.2-0.1,0.4,0,0.5,0.1c0.1,0.1,0.2,0.3,0.2,0.5v5.7l5.4,1.8c0.2,0.1,0.3,0.2,0.4,0.4c0.1,0.2,0,0.4-0.1,0.5l-3.3,4.6l3.3,4.6
		c0.1,0.1,0.1,0.4,0.1,0.5C65.1,49.2,64.9,49.3,64.8,49.4z M49.3,33.1c-5.9,0-10.7,4.8-10.7,10.7s4.8,10.7,10.7,10.7
		S60,49.8,60,43.9S55.2,33.1,49.3,33.1z"/>
</svg>
