<?xml version="1.0" encoding="utf-8"?>
<!-- Generator: Adobe Illustrator 17.1.0, SVG Export Plug-In . SVG Version: 6.00 Build 0)  -->
<!DOCTYPE svg PUBLIC "-//W3C//DTD SVG 1.1//EN" "http://www.w3.org/Graphics/SVG/1.1/DTD/svg11.dtd">
<svg version="1.1" id="Capa_1" xmlns="http://www.w3.org/2000/svg" xmlns:xlink="http://www.w3.org/1999/xlink" x="0px" y="0px"
	 viewBox="8.8 7.9 82.5 74.2" enable-background="new 8.8 7.9 82.5 74.2" xml:space="preserve">
	<path class="svgfill" fill="#FFFFFF" d="M61.2,45.9v7.8c0,4.2-4,7.6-8.9,7.6s-8.9-3.4-8.9-7.6v-2.6c-4.3-0.5-7.6-3.7-7.6-7.5V33.4
		c0-0.7,0.6-1.3,1.3-1.3c0.1,0,0.2,0,0.3,0c0.4-0.8,1.3-1.3,2.2-1.3c1.4,0,2.5,1.1,2.5,2.5S41,36,39.6,36c-0.5,0-0.9-0.1-1.3-0.4v8
		c0,2.8,2.9,5.1,6.3,5.1s6.3-2.3,6.3-5.1v-8c-0.4,0.2-0.8,0.4-1.3,0.4c-1.4,0-2.5-1.1-2.5-2.5s1.1-2.5,2.5-2.5c1,0,1.8,0.5,2.2,1.3
		c0.1,0,0.2,0,0.3,0c0.7,0,1.3,0.6,1.3,1.3v10.2c0,3.8-3.3,7-7.6,7.5v2.6c0,2.8,2.9,5.1,6.3,5.1s6.3-2.3,6.3-5.1v-7.8
		c-1.5-0.5-2.5-1.9-2.5-3.6c0-2.1,1.7-3.8,3.8-3.8s3.8,1.7,3.8,3.8C63.7,44,62.6,45.4,61.2,45.9z M59.9,41c-0.7,0-1.3,0.6-1.3,1.3
		s0.6,1.3,1.3,1.3s1.3-0.6,1.3-1.3S60.6,41,59.9,41z"/>
</svg>
