<?xml version="1.0" encoding="utf-8"?>
<!-- Generator: Adobe Illustrator 19.1.0, SVG Export Plug-In . SVG Version: 6.00 Build 0)  -->
<svg version="1.1" id="Layer_1" xmlns="http://www.w3.org/2000/svg" xmlns:xlink="http://www.w3.org/1999/xlink" x="0px" y="0px"
	 viewBox="453 4.9 1793.8 833" style="enable-background:new 453 4.9 1793.8 833;" xml:space="preserve">
<style type="text/css">
	.st0{enable-background:new    ;}
	.st1{fill:#231F20;}
	.st2{fill:none;stroke:#000000;stroke-width:2;stroke-miterlimit:10;}
</style>
<g>
	<g class="st0">
		<path class="st1" d="M563.3,605h-5.2v9.6h-6.3V605h-17.4v-6.6l17.4-24.4h6.3v25.8h5.2V605z M539.5,599.8h12.3v-17.9h-0.1
			L539.5,599.8z"/>
	</g>
</g>
<g>
	<g class="st0">
		<path class="st1" d="M540.1,712h21v5.9H545l-2.1,10.3l0.1,0.1c1.8-2,4.8-3.1,7.5-3.1c8.1,0,12.7,5.8,12.7,13.6
			c0,6.5-4.1,14.6-14,14.6c-7.8,0-13.9-4.2-14.2-12.4h6.6c0.4,4.3,3.2,6.8,7.5,6.8c5.6,0,7.5-4,7.5-8.9c0-4.5-2.4-8.5-7.7-8.5
			c-2.8,0-5.5,0.9-6.6,3.7h-6.6L540.1,712z"/>
	</g>
</g>
<g>
	<g class="st0">
		<path class="st1" d="M546.2,444.8c4.4,0.2,9-1.4,9-6.4c0-3.4-2.7-5.7-6.3-5.7c-4.6,0-6.8,4.1-6.7,8.3h-6.6
			c0.3-7.9,5.3-13.8,13.5-13.8c6.3,0,12.8,3.7,12.8,10.8c0,4.1-1.9,7.3-5.7,8.7v0.1c4.6,0.9,7.4,4.9,7.4,10.1
			c0,7.7-6.6,12.4-14.4,12.4c-9.4,0-14.1-5.7-14.3-14.2h6.6c-0.2,4.9,2.5,8.6,7.7,8.6c4.4,0,7.8-2.6,7.8-7.2c0-6.3-5.4-7.1-10.6-6.9
			v-4.8H546.2z"/>
	</g>
</g>
<g>
	<g class="st0">
		<path class="st1" d="M563,332.6h-27.7c0.1-6.7,3.5-11.7,8.9-15.4c5.3-3.8,12.1-7,12.2-13.3c0.1-2.9-1.2-7.2-6.8-7.2
			c-5.2,0-6.8,4.5-7,10.2H536c0-9,4.9-15.7,14-15.7c9.9,0,13,7.2,13,12.5c0,6.4-4.4,10.4-9,13.7c-4.7,3.2-9.6,5.7-10.8,9.3H563
			V332.6z"/>
	</g>
</g>
<g>
	<g class="st0">
		<path class="st1" d="M536.1,156.8c5.6,0.1,10.8-1.9,11.8-6.7h5.4v40.6H546V162h-10L536.1,156.8L536.1,156.8z"/>
	</g>
</g>
<g class="st0">
	<path class="st1" d="M688.5,601.5c-0.2,8.5,6,11.1,13.5,11.1c4.4,0,11-2.4,11-8.4c0-4.7-4.7-6.6-8.5-7.5l-9.2-2.3
		c-4.9-1.2-9.3-3.5-9.3-10c0-4.1,2.6-11.7,14.3-11.7c8.2,0,15.4,4.4,15.3,12.9h-3.9c-0.2-6.3-5.5-9.5-11.3-9.5
		c-5.4,0-10.4,2.1-10.4,8.2c0,3.9,2.9,5.5,6.3,6.3l10.1,2.5c5.9,1.6,10.7,4.1,10.7,10.9c0,2.8-1.2,11.8-15.8,11.8
		c-9.8,0-17-4.4-16.5-14.5h3.7V601.5z"/>
	<path class="st1" d="M728.3,585.2h6.1v3.1h-6.1v20.2c0,2.4,0.3,3.8,3,3.9c1,0,2.1-0.1,3.1-0.2v3.1c-1.1,0-2.1,0.1-3.2,0.1
		c-4.9,0-6.6-1.6-6.5-6.7v-20.5h-5.2v-3.1h5.2v-9h3.7v9.1H728.3z"/>
	<path class="st1" d="M766.5,600.2c0,8.6-5,15.8-14.2,15.8s-14.2-7.2-14.2-15.8s5-15.8,14.2-15.8S766.5,591.6,766.5,600.2z
		 M741.8,600.2c0,6.4,3.5,12.8,10.5,12.8s10.5-6.4,10.5-12.8c0-6.4-3.5-12.8-10.5-12.8S741.8,593.8,741.8,600.2z"/>
	<path class="st1" d="M771.9,585.2h3.4v7h0.1c1.9-4.8,5.9-7.7,11.3-7.4v3.7c-6.6-0.3-11.1,4.5-11.1,10.7v15.9h-3.7L771.9,585.2
		L771.9,585.2z"/>
</g>
<g class="st0">
	<path class="st1" d="M688.5,739.5c-0.2,8.5,6,11.1,13.5,11.1c4.4,0,11-2.4,11-8.4c0-4.7-4.7-6.6-8.5-7.5l-9.2-2.3
		c-4.9-1.2-9.3-3.5-9.3-10c0-4.1,2.6-11.7,14.3-11.7c8.2,0,15.4,4.4,15.3,12.9h-3.9c-0.2-6.3-5.5-9.5-11.3-9.5
		c-5.4,0-10.4,2.1-10.4,8.2c0,3.9,2.9,5.5,6.3,6.3l10.1,2.5c5.9,1.6,10.7,4.1,10.7,10.9c0,2.8-1.2,11.8-15.8,11.8
		c-9.8,0-17-4.4-16.5-14.5h3.7V739.5z"/>
	<path class="st1" d="M719.1,723.2h4.1l9.4,26.3h0.1l9.3-26.3h3.8l-11.2,29.9h-3.9L719.1,723.2z"/>
	<path class="st1" d="M772.2,739.2c-0.4,6.4,2.7,11.8,9.7,11.8c4.9,0,7.8-2.8,8.9-7.5h3.7c-1.5,6.7-6.1,10.6-13,10.6
		c-5.3,0-9.2-2.6-11-7.5h-0.1c-0.9,5-7.3,7.5-12.5,7.5c-5.5,0-10-2.7-10-8.8c0-8.4,8.2-8.7,16.1-9.6c3-0.3,4.7-0.8,4.7-4.1
		c0-4.9-3.5-6.1-7.8-6.1c-4.5,0-7.9,2.1-8,7H749c0.3-7,5.3-10,12.1-10c4.1,0,9.3,1.1,10,6.2h0.1c1.6-4.2,6.1-6.2,10.5-6.2
		c9.9,0,12.9,8.1,12.9,16.8h-22.4V739.2z M768.5,736.8L768.5,736.8c-0.6,0.9-2.2,1.2-3.2,1.3c-6.2,1.1-13.9,1-13.9,6.9
		c0,3.7,3.2,5.9,6.7,5.9c5.6,0,10.5-3.5,10.4-9.4V736.8z M791,736.1c0-5.5-3.7-10.7-9.5-10.7c-6.1,0-9.5,5-9.4,10.7H791z"/>
	<path class="st1" d="M799.8,723.2h3.4v7h0.1c1.9-4.8,5.9-7.7,11.3-7.4v3.7c-6.6-0.3-11.1,4.5-11.1,10.7v15.9h-3.7V723.2z"/>
	<path class="st1" d="M823.9,723.2h6.1v3.1h-6.1v20.2c0,2.4,0.3,3.8,3,3.9c1,0,2.1-0.1,3.1-0.2v3.1c-1.1,0-2.1,0.1-3.2,0.1
		c-4.9,0-6.6-1.6-6.5-6.7v-20.5H815v-3.1h5.2v-9h3.7V723.2z"/>
	<path class="st1" d="M869.3,732c-0.2-4.5-3.7-6.6-7.8-6.6c-3.2,0-7.1,1.3-7.1,5.2c0,3.2,3.7,4.4,6.2,5l4.9,1.1
		c4.2,0.6,8.5,3.1,8.5,8.3c0,6.5-6.4,9-12,9c-7,0-11.7-3.2-12.3-10.6h3.7c0.3,4.9,3.9,7.5,8.8,7.5c3.4,0,8.2-1.5,8.2-5.7
		c0-3.5-3.2-4.6-6.6-5.5l-4.7-1c-4.8-1.3-8.4-2.9-8.4-8c0-6.1,6-8.4,11.3-8.4c6,0,10.7,3.1,11,9.6h-3.7V732z"/>
	<path class="st1" d="M885.1,723.2h6.1v3.1h-6.1v20.2c0,2.4,0.3,3.8,3,3.9c1,0,2.1-0.1,3.1-0.2v3.1c-1.1,0-2.1,0.1-3.2,0.1
		c-4.9,0-6.6-1.6-6.5-6.7v-20.5h-5.2v-3.1h5.2v-9h3.7L885.1,723.2L885.1,723.2z"/>
	<path class="st1" d="M923.2,738.2c0,8.6-5,15.8-14.2,15.8s-14.2-7.2-14.2-15.8s5-15.8,14.2-15.8
		C918.3,722.4,923.2,729.6,923.2,738.2z M898.6,738.2c0,6.4,3.5,12.8,10.5,12.8s10.5-6.4,10.5-12.8c0-6.4-3.5-12.8-10.5-12.8
		S898.6,731.8,898.6,738.2z"/>
	<path class="st1" d="M928.7,723.2h3.4v7h0.1c1.9-4.8,5.9-7.7,11.3-7.4v3.7c-6.6-0.3-11.1,4.5-11.1,10.7v15.9h-3.7V723.2z"/>
</g>
<g class="st0">
	<path class="st1" d="M686.5,427.8h5.8l14.3,36.3l14.3-36.3h5.8v41.4h-3.9v-35.8h-0.1l-14.2,35.8h-3.7l-14.2-35.8h-0.1v35.8h-3.9
		L686.5,427.8L686.5,427.8z"/>
	<path class="st1" d="M734.3,427.8h3.7v5.9h-3.7V427.8z M734.3,439.2h3.7v29.9h-3.7V439.2z"/>
	<path class="st1" d="M771.3,469.2H768v-5.7h-0.1c-1.6,3.9-6.3,6.6-10.7,6.6c-9.1,0-13.5-7.4-13.5-15.8s4.3-15.8,13.5-15.8
		c4.5,0,8.8,2.3,10.4,6.6h0.1v-17.2h3.7v41.3H771.3z M757.2,467c7.8,0,10.5-6.6,10.5-12.8s-2.7-12.8-10.5-12.8
		c-7,0-9.8,6.6-9.8,12.8S750.2,467,757.2,467z"/>
	<path class="st1" d="M804.6,469.2h-3.4v-5.7h-0.1c-1.6,3.9-6.3,6.6-10.7,6.6c-9.1,0-13.5-7.4-13.5-15.8s4.3-15.8,13.5-15.8
		c4.5,0,8.8,2.3,10.4,6.6h0.1v-17.2h3.7V469.2z M790.5,467c7.8,0,10.5-6.6,10.5-12.8s-2.7-12.8-10.5-12.8c-7,0-9.8,6.6-9.8,12.8
		S783.5,467,790.5,467z"/>
	<path class="st1" d="M813.7,455.2c0.1,5.3,2.8,11.8,9.9,11.8c5.3,0,8.2-3.1,9.4-7.7h3.7c-1.6,6.8-5.5,10.7-13,10.7
		c-9.5,0-13.5-7.3-13.5-15.8c0-7.9,4-15.8,13.5-15.8c9.6,0,13.5,8.4,13.2,16.8H813.7z M833.1,452.1c-0.2-5.5-3.6-10.7-9.5-10.7
		c-6,0-9.3,5.2-9.9,10.7H833.1z"/>
	<path class="st1" d="M841.8,427.8h3.7v41.4h-3.7V427.8z"/>
	<path class="st1" d="M870.3,448c-0.2-4.5-3.7-6.6-7.8-6.6c-3.2,0-7.1,1.3-7.1,5.2c0,3.2,3.7,4.4,6.2,5l4.9,1.1
		c4.2,0.6,8.5,3.1,8.5,8.3c0,6.5-6.4,9-12,9c-7,0-11.7-3.2-12.3-10.6h3.7c0.3,4.9,3.9,7.5,8.8,7.5c3.4,0,8.2-1.5,8.2-5.7
		c0-3.5-3.2-4.6-6.6-5.5l-4.7-1c-4.8-1.3-8.4-2.9-8.4-8c0-6.1,6-8.4,11.3-8.4c6,0,10.7,3.1,11,9.6h-3.7V448z"/>
</g>
<g class="st0">
	<path class="st1" d="M686.7,291.8h3.9v38h23.2v3.4h-27.1V291.8z"/>
	<path class="st1" d="M717.2,291.8h3.7v5.9h-3.7V291.8z M717.2,303.2h3.7v29.9h-3.7V303.2z"/>
	<path class="st1" d="M733.6,303.2h6.1v3.1h-6.1v20.2c0,2.4,0.3,3.8,3,3.9c1,0,2.1-0.1,3.1-0.2v3.1c-1.1,0-2.1,0.1-3.2,0.1
		c-4.9,0-6.6-1.6-6.5-6.7v-20.5h-5.2v-3.1h5.2v-9h3.7v9.1H733.6z"/>
	<path class="st1" d="M747.2,319.2c0.1,5.3,2.8,11.8,9.9,11.8c5.3,0,8.2-3.1,9.4-7.7h3.7c-1.6,6.8-5.5,10.7-13,10.7
		c-9.5,0-13.5-7.3-13.5-15.8c0-7.9,4-15.8,13.5-15.8c9.6,0,13.5,8.4,13.2,16.8H747.2z M766.5,316.1c-0.2-5.5-3.6-10.7-9.5-10.7
		c-6,0-9.3,5.2-9.9,10.7H766.5z"/>
	<path class="st1" d="M775.1,303.2h3.7v5.2h0.1c1.3-3.6,5.3-6,9.6-6c8.4,0,11,4.4,11,11.5v19.3h-3.7v-18.7c0-5.2-1.7-9-7.6-9
		c-5.8,0-9.3,4.4-9.4,10.3v17.5h-3.7L775.1,303.2L775.1,303.2z"/>
</g>
<g class="st0">
	<path class="st1" d="M1246.6,582.4c6.4-0.2,10.3-0.3,11.4-7.8h3v40.6h-3.7V585h-10.7V582.4z"/>
	<path class="st1" d="M1284.9,599.6l-10.7-14.4h4.6l8.5,11.4l8.4-11.4h4.6l-10.8,14.3l11.7,15.6h-4.6l-9.4-12.6l-9.2,12.6h-4.5
		L1284.9,599.6z"/>
	<path class="st1" d="M1320.7,585.2h3.4v5.7h0.1c1.7-4.1,5.9-6.6,10.7-6.6c9.1,0,13.5,7.4,13.5,15.8c0,8.5-4.3,15.8-13.5,15.8
		c-4.5,0-8.8-2.3-10.4-6.6h-0.1v16.8h-3.7V585.2z M1334.9,587.4c-8.1,0-10.5,6-10.5,12.8c0,6.2,2.7,12.8,10.5,12.8
		c7,0,9.8-6.6,9.8-12.8C1344.7,594,1341.8,587.4,1334.9,587.4z"/>
	<path class="st1" d="M1356.1,601.2c0.1,5.3,2.8,11.8,9.9,11.8c5.3,0,8.2-3.1,9.4-7.7h3.7c-1.6,6.8-5.5,10.7-13,10.7
		c-9.5,0-13.5-7.3-13.5-15.8c0-7.9,4-15.8,13.5-15.8c9.6,0,13.5,8.4,13.2,16.8H1356.1z M1375.5,598.1c-0.2-5.5-3.6-10.7-9.5-10.7
		c-6,0-9.3,5.2-9.9,10.7H1375.5z"/>
	<path class="st1" d="M1384.1,585.2h3.4v7h0.1c1.9-4.8,5.9-7.7,11.3-7.4v3.7c-6.6-0.3-11.1,4.5-11.1,10.7v15.9h-3.7L1384.1,585.2
		L1384.1,585.2z"/>
	<path class="st1" d="M1418.5,585.2h3.4v5h0.2c1.9-3.6,5-5.9,9.8-5.9c3.9,0,7.5,1.9,8.6,5.9c1.8-3.9,5.6-5.9,9.5-5.9
		c6.6,0,9.9,3.4,9.9,10.5v20.3h-3.7V595c0-4.9-1.9-7.6-7.1-7.6c-6.3,0-8.1,5.2-8.1,10.8v16.9h-3.7v-20.2c0.1-4.1-1.6-7.4-6.3-7.4
		c-6.3,0-8.9,4.8-8.9,11v16.7h-3.7L1418.5,585.2L1418.5,585.2z"/>
	<path class="st1" d="M1466.8,585.2h3.7v5.2h0.1c1.3-3.6,5.3-6,9.6-6c8.4,0,11,4.4,11,11.5v19.3h-3.7v-18.7c0-5.2-1.7-9-7.6-9
		c-5.8,0-9.3,4.4-9.4,10.3v17.5h-3.7V585.2z"/>
	<path class="st1" d="M1524.3,615.2h-3.4v-5.7h-0.1c-1.6,3.9-6.3,6.6-10.7,6.6c-9.1,0-13.5-7.4-13.5-15.8c0-8.5,4.3-15.8,13.5-15.8
		c4.5,0,8.8,2.3,10.4,6.6h0.1v-17.2h3.7V615.2z M1510.1,613c7.8,0,10.5-6.6,10.5-12.8s-2.7-12.8-10.5-12.8c-7,0-9.8,6.6-9.8,12.8
		C1500.3,606.4,1503.2,613,1510.1,613z"/>
	<path class="st1" d="M1549.5,601.2c0.1,5.3,2.8,11.8,9.9,11.8c5.3,0,8.2-3.1,9.4-7.7h3.7c-1.6,6.8-5.5,10.7-13,10.7
		c-9.5,0-13.5-7.3-13.5-15.8c0-7.9,4-15.8,13.5-15.8c9.6,0,13.5,8.4,13.2,16.8H1549.5z M1568.9,598.1c-0.2-5.5-3.6-10.7-9.5-10.7
		c-6,0-9.3,5.2-9.9,10.7H1568.9z"/>
	<path class="st1" d="M1577.5,573.8h3.7v41.4h-3.7V573.8z"/>
	<path class="st1" d="M1588.3,573.8h3.7v41.4h-3.7V573.8z"/>
	<path class="st1" d="M1601.1,601.2c0.1,5.3,2.8,11.8,9.9,11.8c5.3,0,8.2-3.1,9.4-7.7h3.7c-1.6,6.8-5.5,10.7-13,10.7
		c-9.5,0-13.5-7.3-13.5-15.8c0-7.9,4-15.8,13.5-15.8c9.6,0,13.5,8.4,13.2,16.8H1601.1z M1620.4,598.1c-0.2-5.5-3.6-10.7-9.5-10.7
		c-6,0-9.3,5.2-9.9,10.7H1620.4z"/>
	<path class="st1" d="M1629,585.2h3.4v7h0.1c1.9-4.8,5.9-7.7,11.3-7.4v3.7c-6.6-0.3-11.1,4.5-11.1,10.7v15.9h-3.7L1629,585.2
		L1629,585.2z"/>
	<path class="st1" d="M1690.2,600.2c0,8.6-5,15.8-14.2,15.8s-14.2-7.2-14.2-15.8s5-15.8,14.2-15.8S1690.2,591.6,1690.2,600.2z
		 M1665.6,600.2c0,6.4,3.5,12.8,10.5,12.8s10.5-6.4,10.5-12.8c0-6.4-3.5-12.8-10.5-12.8S1665.6,593.8,1665.6,600.2z"/>
	<path class="st1" d="M1707.2,588.3h-5.9v26.9h-3.7v-26.9h-5.1v-3.1h5.1v-2.7c-0.1-5.2,1.4-8.8,7.2-8.8c1,0,1.9,0.1,3.1,0.2v3.1
		c-1-0.2-1.8-0.3-2.7-0.3c-4.1,0-3.9,2.6-4,5.8v2.6h5.9L1707.2,588.3L1707.2,588.3z"/>
	<path class="st1" d="M1716.5,585.2h6.1v3.1h-6.1v20.2c0,2.4,0.3,3.8,3,3.9c1,0,2.1-0.1,3.1-0.2v3.1c-1.1,0-2.1,0.1-3.2,0.1
		c-4.9,0-6.6-1.6-6.5-6.7v-20.5h-5.2v-3.1h5.2v-9h3.7L1716.5,585.2L1716.5,585.2z"/>
	<path class="st1" d="M1730,601.2c0.1,5.3,2.8,11.8,9.9,11.8c5.3,0,8.2-3.1,9.4-7.7h3.7c-1.6,6.8-5.5,10.7-13,10.7
		c-9.5,0-13.5-7.3-13.5-15.8c0-7.9,4-15.8,13.5-15.8c9.6,0,13.5,8.4,13.2,16.8H1730z M1749.4,598.1c-0.2-5.5-3.6-10.7-9.5-10.7
		c-6,0-9.3,5.2-9.9,10.7H1749.4z"/>
	<path class="st1" d="M1758,585.2h3.4v7h0.1c1.9-4.8,5.9-7.7,11.3-7.4v3.7c-6.6-0.3-11.1,4.5-11.1,10.7v15.9h-3.7L1758,585.2
		L1758,585.2z"/>
	<path class="st1" d="M1777.3,601.2c0.1,5.3,2.8,11.8,9.9,11.8c5.3,0,8.2-3.1,9.4-7.7h3.7c-1.6,6.8-5.5,10.7-13,10.7
		c-9.5,0-13.5-7.3-13.5-15.8c0-7.9,4-15.8,13.5-15.8c9.6,0,13.5,8.4,13.2,16.8H1777.3z M1796.7,598.1c-0.2-5.5-3.6-10.7-9.5-10.7
		c-6,0-9.3,5.2-9.9,10.7H1796.7z"/>
</g>
<g class="st0">
	<path class="st1" d="M1247,739.5c-0.2,8.5,6,11.1,13.5,11.1c4.4,0,11-2.4,11-8.4c0-4.7-4.7-6.6-8.5-7.5l-9.2-2.3
		c-4.9-1.2-9.3-3.5-9.3-10c0-4.1,2.6-11.7,14.3-11.7c8.2,0,15.4,4.4,15.3,12.9h-3.9c-0.2-6.3-5.5-9.5-11.3-9.5
		c-5.4,0-10.4,2.1-10.4,8.2c0,3.9,2.9,5.5,6.3,6.3l10.1,2.5c5.9,1.6,10.7,4.1,10.7,10.9c0,2.8-1.2,11.8-15.8,11.8
		c-9.8,0-17-4.4-16.5-14.5h3.7V739.5z"/>
	<path class="st1" d="M1281,711.8h3.7v26l16.6-14.5h4.9l-12.8,11.1l13.6,18.8h-4.6l-11.8-16.3l-5.9,4.9v11.4h-3.7V711.8L1281,711.8z
		"/>
	<path class="st1" d="M1310,723.2h3.7v32.7c0,4.5-1.2,8.3-6.4,8.3c-0.9,0-1.7-0.1-2.6-0.1v-3c0.6,0.1,1.4,0.1,2,0.1
		c2.8,0,3.3-1.9,3.3-4.3V723.2z M1310,711.8h3.7v5.9h-3.7V711.8z"/>
	<path class="st1" d="M1322.9,739.2c0.1,5.3,2.8,11.8,9.9,11.8c5.3,0,8.2-3.1,9.4-7.7h3.7c-1.6,6.8-5.5,10.7-13,10.7
		c-9.5,0-13.5-7.3-13.5-15.8c0-7.9,4-15.8,13.5-15.8c9.6,0,13.5,8.4,13.2,16.8H1322.9z M1342.2,736.1c-0.2-5.5-3.6-10.7-9.5-10.7
		c-6,0-9.3,5.2-9.9,10.7H1342.2z"/>
	<path class="st1" d="M1350.8,723.2h3.4v7h0.1c1.9-4.8,5.9-7.7,11.3-7.4v3.7c-6.6-0.3-11.1,4.5-11.1,10.7v15.9h-3.7L1350.8,723.2
		L1350.8,723.2z"/>
	<path class="st1" d="M1409.4,753.2h-3.4v-5.4h-0.1c-1.9,4-5.9,6.3-10.3,6.3c-7.5,0-10.5-4.4-10.5-11.4v-19.4h3.7v19.5
		c0.2,5.4,2.2,8.2,8,8.2c6.3,0,9-5.9,9-12v-15.7h3.7L1409.4,753.2L1409.4,753.2z"/>
	<path class="st1" d="M1416.3,711.8h3.7v26l16.6-14.5h4.9l-12.8,11.1l13.6,18.8h-4.6l-11.8-16.3l-5.9,4.9v11.4h-3.7L1416.3,711.8
		L1416.3,711.8z"/>
	<path class="st1" d="M1447.5,739.2c0.1,5.3,2.8,11.8,9.9,11.8c5.3,0,8.2-3.1,9.4-7.7h3.7c-1.6,6.8-5.5,10.7-13,10.7
		c-9.5,0-13.5-7.3-13.5-15.8c0-7.9,4-15.8,13.5-15.8c9.6,0,13.5,8.4,13.2,16.8H1447.5z M1466.9,736.1c-0.2-5.5-3.6-10.7-9.5-10.7
		c-6,0-9.3,5.2-9.9,10.7H1466.9z"/>
	<path class="st1" d="M1475.4,723.2h3.7v5.2h0.1c1.3-3.6,5.3-6,9.6-6c8.4,0,11,4.4,11,11.5v19.3h-3.7v-18.7c0-5.2-1.7-9-7.6-9
		c-5.8,0-9.3,4.4-9.4,10.3v17.5h-3.7V723.2z"/>
	<path class="st1" d="M1512.4,723.2h6.1v3.1h-6.1v20.2c0,2.4,0.3,3.8,3,3.9c1,0,2.1-0.1,3.1-0.2v3.1c-1.1,0-2.1,0.1-3.2,0.1
		c-4.9,0-6.6-1.6-6.5-6.7v-20.5h-5.2v-3.1h5.2v-9h3.7L1512.4,723.2L1512.4,723.2z"/>
	<path class="st1" d="M1523.8,711.8h3.7v41.4h-3.7V711.8z"/>
	<path class="st1" d="M1534.6,711.8h3.7v5.9h-3.7V711.8z M1534.6,723.2h3.7v29.9h-3.7V723.2z"/>
	<path class="st1" d="M1570.5,750.7c-0.1,8.9-3.5,14.4-13.3,14.4c-6,0-11.9-2.7-12.4-9h3.7c0.8,4.4,4.7,6,8.8,6
		c6.7,0,9.6-4,9.6-11.3v-4.1h-0.1c-1.7,3.7-5.2,6.1-9.5,6.1c-9.6,0-13.5-6.8-13.5-15.4c0-8.2,4.9-15.1,13.5-15.1
		c4.3,0,8.1,2.7,9.5,6h0.1v-5.2h3.7L1570.5,750.7L1570.5,750.7z M1566.9,737.9c0-5.9-2.7-12.4-9.6-12.4c-7,0-9.9,6.2-9.9,12.4
		c0,6,3.1,11.9,9.9,11.9C1563.6,749.7,1566.9,743.9,1566.9,737.9z"/>
</g>
<g class="st0">
	<path class="st1" d="M1273.1,469.6l-29.5-13.6v-3.1l29.5-13.6v3.2l-25.9,11.9l25.9,11.9V469.6z"/>
	<path class="st1" d="M1297.5,436.4c6.4-0.2,10.3-0.3,11.4-7.8h3v40.6h-3.7V439h-10.7L1297.5,436.4L1297.5,436.4z"/>
	<path class="st1" d="M1335.8,453.6l-10.7-14.4h4.6l8.5,11.4l8.4-11.4h4.6l-10.8,14.3l11.7,15.6h-4.6l-9.4-12.6l-9.2,12.6h-4.5
		L1335.8,453.6z"/>
	<path class="st1" d="M1371.6,439.2h3.4v5.7h0.1c1.7-4.1,5.9-6.6,10.7-6.6c9.1,0,13.5,7.4,13.5,15.8s-4.3,15.8-13.5,15.8
		c-4.5,0-8.8-2.3-10.4-6.6h-0.1v16.8h-3.7V439.2z M1385.8,441.4c-8.1,0-10.5,6-10.5,12.8c0,6.2,2.7,12.8,10.5,12.8
		c7,0,9.8-6.6,9.8-12.8S1392.7,441.4,1385.8,441.4z"/>
	<path class="st1" d="M1407.1,455.2c0.1,5.3,2.8,11.8,9.9,11.8c5.3,0,8.2-3.1,9.4-7.7h3.7c-1.6,6.8-5.5,10.7-13,10.7
		c-9.5,0-13.5-7.3-13.5-15.8c0-7.9,4-15.8,13.5-15.8c9.6,0,13.5,8.4,13.2,16.8H1407.1z M1426.4,452.1c-0.2-5.5-3.6-10.7-9.5-10.7
		c-6,0-9.3,5.2-9.9,10.7H1426.4z"/>
	<path class="st1" d="M1435,439.2h3.4v7h0.1c1.9-4.8,5.9-7.7,11.3-7.4v3.7c-6.6-0.3-11.1,4.5-11.1,10.7v15.9h-3.7L1435,439.2
		L1435,439.2z"/>
	<path class="st1" d="M1469.1,448.4c0.3-7,5.3-10,12.1-10c5.3,0,11,1.6,11,9.6v15.9c0,1.4,0.7,2.2,2.1,2.2c0.4,0,0.9-0.1,1.2-0.2
		v3.1c-0.8,0.2-1.4,0.2-2.4,0.2c-3.7,0-4.3-2.1-4.3-5.2h-0.1c-2.6,3.9-5.2,6.1-10.9,6.1c-5.5,0-10-2.7-10-8.8
		c0-8.4,8.2-8.7,16.1-9.6c3-0.3,4.7-0.8,4.7-4.1c0-4.9-3.5-6.1-7.8-6.1c-4.5,0-7.9,2.1-8,7h-3.7V448.4z M1488.6,452.8L1488.6,452.8
		c-0.6,0.9-2.2,1.2-3.2,1.3c-6.2,1.1-13.9,1-13.9,6.9c0,3.7,3.2,5.9,6.7,5.9c5.6,0,10.5-3.5,10.4-9.4V452.8z M1481,423.7
		c3.4,0,6.2,2.8,6.2,6.2c0,3.4-2.8,6.2-6.2,6.2s-6.2-2.8-6.2-6.2C1474.8,426.5,1477.6,423.7,1481,423.7z M1481,433.8
		c2.2,0,3.9-1.7,3.9-3.9c0-2.2-1.7-3.9-3.9-3.9s-3.9,1.7-3.9,3.9C1477.1,432.1,1478.8,433.8,1481,433.8z"/>
	<path class="st1" d="M1499.5,439.2h3.4v7h0.1c1.9-4.8,5.9-7.7,11.3-7.4v3.7c-6.6-0.3-11.1,4.5-11.1,10.7v15.9h-3.7L1499.5,439.2
		L1499.5,439.2z"/>
	<path class="st1" d="M1536.1,455.2c0.1,5.3,2.8,11.8,9.9,11.8c5.3,0,8.2-3.1,9.4-7.7h3.7c-1.6,6.8-5.5,10.7-13,10.7
		c-9.5,0-13.5-7.3-13.5-15.8c0-7.9,4-15.8,13.5-15.8c9.6,0,13.5,8.4,13.2,16.8H1536.1z M1555.4,452.1c-0.2-5.5-3.6-10.7-9.5-10.7
		c-6,0-9.3,5.2-9.9,10.7H1555.4z"/>
	<path class="st1" d="M1564.1,427.8h3.7v41.4h-3.7V427.8z"/>
	<path class="st1" d="M1574.8,427.8h3.7v41.4h-3.7V427.8z"/>
	<path class="st1" d="M1587.6,455.2c0.1,5.3,2.8,11.8,9.9,11.8c5.3,0,8.2-3.1,9.4-7.7h3.7c-1.6,6.8-5.5,10.7-13,10.7
		c-9.5,0-13.5-7.3-13.5-15.8c0-7.9,4-15.8,13.5-15.8c9.6,0,13.5,8.4,13.2,16.8H1587.6z M1607,452.1c-0.2-5.5-3.6-10.7-9.5-10.7
		c-6,0-9.3,5.2-9.9,10.7H1607z"/>
	<path class="st1" d="M1615.6,439.2h3.4v7h0.1c1.9-4.8,5.9-7.7,11.3-7.4v3.7c-6.6-0.3-11.1,4.5-11.1,10.7v15.9h-3.7L1615.6,439.2
		L1615.6,439.2z"/>
	<path class="st1" d="M1667.9,448c-0.2-4.5-3.7-6.6-7.8-6.6c-3.2,0-7.1,1.3-7.1,5.2c0,3.2,3.7,4.4,6.2,5l4.9,1.1
		c4.2,0.6,8.5,3.1,8.5,8.3c0,6.5-6.4,9-12,9c-7,0-11.7-3.2-12.3-10.6h3.7c0.3,4.9,3.9,7.5,8.8,7.5c3.4,0,8.2-1.5,8.2-5.7
		c0-3.5-3.2-4.6-6.6-5.5l-4.7-1c-4.8-1.3-8.4-2.9-8.4-8c0-6.1,6-8.4,11.3-8.4c6,0,10.7,3.1,11,9.6h-3.7V448z"/>
	<path class="st1" d="M1677.9,439.2h3.7v32.7c0,4.5-1.2,8.3-6.4,8.3c-0.9,0-1.7-0.1-2.6-0.1v-3c0.6,0.1,1.4,0.1,2,0.1
		c2.8,0,3.3-1.9,3.3-4.3V439.2z M1677.9,427.8h3.7v5.9h-3.7V427.8z"/>
	<path class="st1" d="M1690.7,455.2c0.1,5.3,2.8,11.8,9.9,11.8c5.3,0,8.2-3.1,9.4-7.7h3.7c-1.6,6.8-5.5,10.7-13,10.7
		c-9.5,0-13.5-7.3-13.5-15.8c0-7.9,4-15.8,13.5-15.8c9.6,0,13.5,8.4,13.2,16.8H1690.7z M1710.1,452.1c-0.2-5.5-3.6-10.7-9.5-10.7
		c-6,0-9.3,5.2-9.9,10.7H1710.1z"/>
	<path class="st1" d="M1718.8,427.8h3.7v41.4h-3.7V427.8z"/>
	<path class="st1" d="M1755.8,469.2h-3.4v-5.7h-0.1c-1.6,3.9-6.3,6.6-10.7,6.6c-9.1,0-13.5-7.4-13.5-15.8s4.3-15.8,13.5-15.8
		c4.5,0,8.8,2.3,10.4,6.6h0.1v-17.2h3.7V469.2z M1741.6,467c7.8,0,10.5-6.6,10.5-12.8s-2.7-12.8-10.5-12.8c-7,0-9.8,6.6-9.8,12.8
		S1734.6,467,1741.6,467z"/>
	<path class="st1" d="M1762.7,439.2h3.7v5.2h0.1c1.3-3.6,5.3-6,9.6-6c8.4,0,11,4.4,11,11.5v19.3h-3.7v-18.7c0-5.2-1.7-9-7.6-9
		c-5.8,0-9.3,4.4-9.4,10.3v17.5h-3.7V439.2z"/>
	<path class="st1" d="M1796,455.2c0.1,5.3,2.8,11.8,9.9,11.8c5.3,0,8.2-3.1,9.4-7.7h3.7c-1.6,6.8-5.5,10.7-13,10.7
		c-9.5,0-13.5-7.3-13.5-15.8c0-7.9,4-15.8,13.5-15.8c9.6,0,13.5,8.4,13.2,16.8H1796z M1815.4,452.1c-0.2-5.5-3.6-10.7-9.5-10.7
		c-6,0-9.3,5.2-9.9,10.7H1815.4z"/>
	<path class="st1" d="M1824,439.2h3.4v7h0.1c1.9-4.8,5.9-7.7,11.3-7.4v3.7c-6.6-0.3-11.1,4.5-11.1,10.7v15.9h-3.7L1824,439.2
		L1824,439.2z"/>
	<path class="st1" d="M1843.3,455.2c0.1,5.3,2.8,11.8,9.9,11.8c5.3,0,8.2-3.1,9.4-7.7h3.7c-1.6,6.8-5.5,10.7-13,10.7
		c-9.5,0-13.5-7.3-13.5-15.8c0-7.9,4-15.8,13.5-15.8c9.6,0,13.5,8.4,13.2,16.8H1843.3z M1862.7,452.1c-0.2-5.5-3.6-10.7-9.5-10.7
		c-6,0-9.3,5.2-9.9,10.7H1862.7z"/>
</g>
<g class="st0">
	<path class="st1" d="M1273.1,333.6l-29.5-13.6v-3.1l29.5-13.6v3.2l-25.9,11.9l25.9,11.9V333.6z"/>
	<path class="st1" d="M1297.5,300.4c6.4-0.2,10.3-0.3,11.4-7.8h3v40.6h-3.7V303h-10.7L1297.5,300.4L1297.5,300.4z"/>
	<path class="st1" d="M1335.8,317.6l-10.7-14.4h4.6l8.5,11.4l8.4-11.4h4.6l-10.8,14.3l11.7,15.6h-4.6l-9.4-12.6l-9.2,12.6h-4.5
		L1335.8,317.6z"/>
	<path class="st1" d="M1371.6,303.2h3.4v5.7h0.1c1.7-4.1,5.9-6.6,10.7-6.6c9.1,0,13.5,7.4,13.5,15.8s-4.3,15.8-13.5,15.8
		c-4.5,0-8.8-2.3-10.4-6.6h-0.1v16.8h-3.7V303.2z M1385.8,305.4c-8.1,0-10.5,6-10.5,12.8c0,6.2,2.7,12.8,10.5,12.8
		c7,0,9.8-6.6,9.8-12.8S1392.7,305.4,1385.8,305.4z"/>
	<path class="st1" d="M1407.1,319.2c0.1,5.3,2.8,11.8,9.9,11.8c5.3,0,8.2-3.1,9.4-7.7h3.7c-1.6,6.8-5.5,10.7-13,10.7
		c-9.5,0-13.5-7.3-13.5-15.8c0-7.9,4-15.8,13.5-15.8c9.6,0,13.5,8.4,13.2,16.8H1407.1z M1426.4,316.1c-0.2-5.5-3.6-10.7-9.5-10.7
		c-6,0-9.3,5.2-9.9,10.7H1426.4z"/>
	<path class="st1" d="M1435,303.2h3.4v7h0.1c1.9-4.8,5.9-7.7,11.3-7.4v3.7c-6.6-0.3-11.1,4.5-11.1,10.7v15.9h-3.7L1435,303.2
		L1435,303.2z"/>
	<path class="st1" d="M1471.6,300.4c6.4-0.2,10.3-0.3,11.4-7.8h3v40.6h-3.7V303h-10.7L1471.6,300.4L1471.6,300.4z"/>
	<path class="st1" d="M1528.5,313.1c0,9.5-2.3,20.9-14.2,20.9c-11.8,0-14.2-11.4-14.2-20.9s2.3-20.9,14.2-20.9
		C1526.1,292.2,1528.5,303.6,1528.5,313.1z M1503.8,313.1c0,7.1,1.2,17.9,10.5,17.9s10.5-10.8,10.5-17.9c0-7-1.2-17.8-10.5-17.8
		C1505,295.3,1503.8,306.1,1503.8,313.1z"/>
	<path class="st1" d="M1549.7,312.4c0.3-7,5.3-10,12.1-10c5.3,0,11,1.6,11,9.6v15.9c0,1.4,0.7,2.2,2.1,2.2c0.4,0,0.9-0.1,1.2-0.2
		v3.1c-0.8,0.2-1.4,0.2-2.4,0.2c-3.7,0-4.3-2.1-4.3-5.2h-0.1c-2.6,3.9-5.2,6.1-10.9,6.1c-5.5,0-10-2.7-10-8.8
		c0-8.4,8.2-8.7,16.1-9.6c3-0.3,4.7-0.8,4.7-4.1c0-4.9-3.5-6.1-7.8-6.1c-4.5,0-7.9,2.1-8,7h-3.7V312.4z M1569.2,316.8L1569.2,316.8
		c-0.6,0.9-2.2,1.2-3.2,1.3c-6.2,1.1-13.9,1-13.9,6.9c0,3.7,3.2,5.9,6.7,5.9c5.6,0,10.5-3.5,10.4-9.4V316.8z M1561.6,287.7
		c3.4,0,6.2,2.8,6.2,6.2c0,3.4-2.8,6.2-6.2,6.2s-6.2-2.8-6.2-6.2C1555.4,290.5,1558.2,287.7,1561.6,287.7z M1561.6,297.8
		c2.2,0,3.9-1.7,3.9-3.9c0-2.2-1.7-3.9-3.9-3.9s-3.9,1.7-3.9,3.9C1557.7,296.1,1559.4,297.8,1561.6,297.8z"/>
	<path class="st1" d="M1580.1,303.2h3.4v7h0.1c1.9-4.8,5.9-7.7,11.3-7.4v3.7c-6.6-0.3-11.1,4.5-11.1,10.7v15.9h-3.7L1580.1,303.2
		L1580.1,303.2z"/>
	<path class="st1" d="M1616.7,319.2c0.1,5.3,2.8,11.8,9.9,11.8c5.3,0,8.2-3.1,9.4-7.7h3.7c-1.6,6.8-5.5,10.7-13,10.7
		c-9.5,0-13.5-7.3-13.5-15.8c0-7.9,4-15.8,13.5-15.8c9.6,0,13.5,8.4,13.2,16.8H1616.7z M1636.1,316.1c-0.2-5.5-3.6-10.7-9.5-10.7
		c-6,0-9.3,5.2-9.9,10.7H1636.1z"/>
	<path class="st1" d="M1644.7,291.8h3.7v41.4h-3.7V291.8z"/>
	<path class="st1" d="M1655.4,291.8h3.7v41.4h-3.7V291.8z"/>
	<path class="st1" d="M1668.2,319.2c0.1,5.3,2.8,11.8,9.9,11.8c5.3,0,8.2-3.1,9.4-7.7h3.7c-1.6,6.8-5.5,10.7-13,10.7
		c-9.5,0-13.5-7.3-13.5-15.8c0-7.9,4-15.8,13.5-15.8c9.6,0,13.5,8.4,13.2,16.8H1668.2z M1687.6,316.1c-0.2-5.5-3.6-10.7-9.5-10.7
		c-6,0-9.3,5.2-9.9,10.7H1687.6z"/>
	<path class="st1" d="M1696.2,303.2h3.4v7h0.1c1.9-4.8,5.9-7.7,11.3-7.4v3.7c-6.6-0.3-11.1,4.5-11.1,10.7v15.9h-3.7L1696.2,303.2
		L1696.2,303.2z"/>
	<path class="st1" d="M1748.5,312c-0.2-4.5-3.7-6.6-7.8-6.6c-3.2,0-7.1,1.3-7.1,5.2c0,3.2,3.7,4.4,6.2,5l4.9,1.1
		c4.2,0.6,8.5,3.1,8.5,8.3c0,6.5-6.4,9-12,9c-7,0-11.7-3.2-12.3-10.6h3.7c0.3,4.9,3.9,7.5,8.8,7.5c3.4,0,8.2-1.5,8.2-5.7
		c0-3.5-3.2-4.6-6.6-5.5l-4.7-1c-4.8-1.3-8.4-2.9-8.4-8c0-6.1,6-8.4,11.3-8.4c6,0,10.7,3.1,11,9.6h-3.7V312z"/>
	<path class="st1" d="M1758.5,303.2h3.7v32.7c0,4.5-1.2,8.3-6.4,8.3c-0.9,0-1.7-0.1-2.6-0.1v-3c0.6,0.1,1.4,0.1,2,0.1
		c2.8,0,3.3-1.9,3.3-4.3V303.2z M1758.5,291.8h3.7v5.9h-3.7V291.8z"/>
	<path class="st1" d="M1771.4,319.2c0.1,5.3,2.8,11.8,9.9,11.8c5.3,0,8.2-3.1,9.4-7.7h3.7c-1.6,6.8-5.5,10.7-13,10.7
		c-9.5,0-13.5-7.3-13.5-15.8c0-7.9,4-15.8,13.5-15.8c9.6,0,13.5,8.4,13.2,16.8H1771.4z M1790.7,316.1c-0.2-5.5-3.6-10.7-9.5-10.7
		c-6,0-9.3,5.2-9.9,10.7H1790.7z"/>
	<path class="st1" d="M1799.4,291.8h3.7v41.4h-3.7V291.8z"/>
	<path class="st1" d="M1836.4,333.2h-3.4v-5.7h-0.1c-1.6,3.9-6.3,6.6-10.7,6.6c-9.1,0-13.5-7.4-13.5-15.8s4.3-15.8,13.5-15.8
		c4.5,0,8.8,2.3,10.4,6.6h0.1v-17.2h3.7V333.2z M1822.2,331c7.8,0,10.5-6.6,10.5-12.8s-2.7-12.8-10.5-12.8c-7,0-9.8,6.6-9.8,12.8
		S1815.3,331,1822.2,331z"/>
	<path class="st1" d="M1843.3,303.2h3.7v5.2h0.1c1.3-3.6,5.3-6,9.6-6c8.4,0,11,4.4,11,11.5v19.3h-3.7v-18.7c0-5.2-1.7-9-7.6-9
		c-5.8,0-9.3,4.4-9.4,10.3v17.5h-3.7V303.2z"/>
	<path class="st1" d="M1876.6,319.2c0.1,5.3,2.8,11.8,9.9,11.8c5.3,0,8.2-3.1,9.4-7.7h3.7c-1.6,6.8-5.5,10.7-13,10.7
		c-9.5,0-13.5-7.3-13.5-15.8c0-7.9,4-15.8,13.5-15.8c9.6,0,13.5,8.4,13.2,16.8H1876.6z M1896,316.1c-0.2-5.5-3.6-10.7-9.5-10.7
		c-6,0-9.3,5.2-9.9,10.7H1896z"/>
	<path class="st1" d="M1904.6,303.2h3.4v7h0.1c1.9-4.8,5.9-7.7,11.3-7.4v3.7c-6.6-0.3-11.1,4.5-11.1,10.7v15.9h-3.7L1904.6,303.2
		L1904.6,303.2z"/>
	<path class="st1" d="M1924,319.2c0.1,5.3,2.8,11.8,9.9,11.8c5.3,0,8.2-3.1,9.4-7.7h3.7c-1.6,6.8-5.5,10.7-13,10.7
		c-9.5,0-13.5-7.3-13.5-15.8c0-7.9,4-15.8,13.5-15.8c9.6,0,13.5,8.4,13.2,16.8H1924z M1943.3,316.1c-0.2-5.5-3.6-10.7-9.5-10.7
		c-6,0-9.3,5.2-9.9,10.7H1943.3z"/>
</g>
<g>
	<g class="st0">
		<path class="st1" d="M689.7,48c0,4.3,3.1,5.9,6.5,5.9c2.3,0,5.7-0.7,5.7-4c0-3.5-4.4-4-8.7-5.3c-4.4-1.3-8.8-3.1-8.8-9.1
			c0-6.6,5.7-9.7,11-9.7c6.1,0,11.8,2.9,11.8,10.3H701c-0.2-3.9-2.7-4.9-5.8-4.9c-2.1,0-4.5,0.9-4.5,3.6c0,2.5,1.4,2.8,8.8,4.9
			c2.1,0.6,8.7,2.1,8.7,9.4c0,5.9-4.2,10.3-12.2,10.3c-6.5,0-12.6-3.5-12.5-11.4C683.5,48,689.7,48,689.7,48z"/>
		<path class="st1" d="M721.8,26.5h6.6l11,32.1h-6.7l-2.2-7.2h-11l-2.3,7.2h-6.6L721.8,26.5z M721.1,46.2h7.6L725,34.4l0,0
			L721.1,46.2z"/>
		<path class="st1" d="M743.6,26.5h6.4l12.3,21.6h0.1V26.5h6.1v32.1H762l-12.2-21.5h-0.1v21.5h-6.1V26.5L743.6,26.5z"/>
		<path class="st1" d="M775.8,26.5h6.4l12.3,21.6h0.1V26.5h6.1v32.1h-6.5L782,37.1h-0.1v21.5h-6.1V26.5z"/>
		<path class="st1" d="M812.3,48c0,4.3,3.1,5.9,6.5,5.9c2.3,0,5.7-0.7,5.7-4c0-3.5-4.4-4-8.7-5.3c-4.4-1.3-8.8-3.1-8.8-9.1
			c0-6.6,5.7-9.7,11-9.7c6.1,0,11.8,2.9,11.8,10.3h-6.3c-0.2-3.9-2.7-4.9-5.8-4.9c-2.1,0-4.5,0.9-4.5,3.6c0,2.5,1.4,2.8,8.8,4.9
			c2.1,0.6,8.7,2.1,8.7,9.4c0,5.9-4.2,10.3-12.2,10.3c-6.5,0-12.6-3.5-12.5-11.4C806,48,812.3,48,812.3,48z"/>
		<path class="st1" d="M843.9,46.1l-10.8-19.6h7.3l6.9,12.7l6.8-12.7h7.2l-10.9,19.8v12.3h-6.5V46.1z"/>
		<path class="st1" d="M865.4,26.5h6.4l12.3,21.6h0.1V26.5h6.1v32.1h-6.5l-12.2-21.5h-0.1v21.5h-6.1V26.5z"/>
		<path class="st1" d="M897.6,26.5h6.5v26.2h14.4v5.9h-20.8V26.5H897.6z"/>
		<path class="st1" d="M923.7,26.5h6.5v32.1h-6.5V26.5z"/>
		<path class="st1" d="M958.7,55c-2.3,3.2-5.2,4.4-8.1,4.4c-9.1,0-14.5-7.4-14.5-16.7c0-9.5,5.4-17,14.5-17c6,0,11.7,4,12.4,11.3
			h-6.2c-0.7-3.6-3.2-5.4-6.2-5.4c-5.8,0-8,5.4-8,11c0,5.4,2.2,10.8,8,10.8c4.2,0,6.6-2.5,7-6.9h-6.5v-5.3h12.4v17.4h-4.1L958.7,55z
			"/>
		<path class="st1" d="M970.4,26.5h6.5v12.3h11.9V26.5h6.5v32.1h-6.5V44.8h-11.9v13.9h-6.5V26.5z"/>
		<path class="st1" d="M1002.6,26.5h22v5.9H1009v6.9h14.3v5.5H1009v7.9h15.9v5.9h-22.4L1002.6,26.5L1002.6,26.5z"/>
		<path class="st1" d="M1037.4,32.4h-8.8v-5.9h24.1v5.9h-8.8v26.2h-6.5V32.4z"/>
	</g>
</g>
<g class="st0">
	<path class="st1" d="M1248.2,48c0,4.3,3.1,5.9,6.5,5.9c2.3,0,5.7-0.7,5.7-4c0-3.5-4.4-4-8.7-5.3c-4.4-1.3-8.8-3.1-8.8-9.1
		c0-6.6,5.7-9.7,11-9.7c6.1,0,11.8,2.9,11.8,10.3h-6.3c-0.2-3.9-2.7-4.9-5.8-4.9c-2.1,0-4.5,0.9-4.5,3.6c0,2.5,1.4,2.8,8.8,4.9
		c2.1,0.6,8.7,2.1,8.7,9.4c0,5.9-4.2,10.3-12.2,10.3c-6.5,0-12.6-3.5-12.5-11.4C1241.9,48,1248.2,48,1248.2,48z"/>
	<path class="st1" d="M1272.2,26.5h13.3c7.3,0,10.2,5.1,10.2,10.3s-2.8,10.3-10.2,10.3h-6.8v11.5h-6.5V26.5L1272.2,26.5z
		 M1278.7,41.6h5c3,0,5.7-0.7,5.7-4.8s-2.7-4.8-5.7-4.8h-5V41.6z"/>
	<path class="st1" d="M1301.3,26.5h22v5.9h-15.5v6.9h14.3v5.5h-14.3v7.9h15.9v5.9h-22.4V26.5z"/>
	<path class="st1" d="M1334.1,48c0,4.3,3.1,5.9,6.5,5.9c2.3,0,5.7-0.7,5.7-4c0-3.5-4.4-4-8.7-5.3c-4.4-1.3-8.8-3.1-8.8-9.1
		c0-6.6,5.7-9.7,11-9.7c6.1,0,11.8,2.9,11.8,10.3h-6.3c-0.2-3.9-2.7-4.9-5.8-4.9c-2.1,0-4.5,0.9-4.5,3.6c0,2.5,1.4,2.8,8.8,4.9
		c2.1,0.6,8.7,2.1,8.7,9.4c0,5.9-4.2,10.3-12.2,10.3c-6.5,0-12.6-3.5-12.5-11.4C1327.8,48,1334.1,48,1334.1,48z"/>
	<path class="st1" d="M1358,26.5h6.5v32.1h-6.5V26.5z"/>
	<path class="st1" d="M1371.8,26.5h20.7v5.9h-14.2v7.5h12.3v5.5h-12.3v13.3h-6.5V26.5z"/>
	<path class="st1" d="M1397.9,26.5h6.5v32.1h-6.5V26.5z"/>
	<path class="st1" d="M1416.1,48c0,4.3,3.1,5.9,6.5,5.9c2.3,0,5.7-0.7,5.7-4c0-3.5-4.4-4-8.7-5.3c-4.4-1.3-8.8-3.1-8.8-9.1
		c0-6.6,5.7-9.7,11-9.7c6.1,0,11.8,2.9,11.8,10.3h-6.3c-0.2-3.9-2.7-4.9-5.8-4.9c-2.1,0-4.5,0.9-4.5,3.6c0,2.5,1.4,2.8,8.8,4.9
		c2.1,0.6,8.7,2.1,8.7,9.4c0,5.9-4.2,10.3-12.2,10.3c-6.5,0-12.6-3.5-12.5-11.4C1409.8,48,1416.1,48,1416.1,48z"/>
	<path class="st1" d="M1440,26.5h22v5.9h-15.5v6.9h14.3v5.5h-14.3v7.9h15.9v5.9H1440V26.5z"/>
	<path class="st1" d="M1468.4,26.5h15.9c5.3,0,8.6,4,8.6,8.9c0,3.8-1.4,6.6-4.7,8.1v0.1c3.2,0.9,4.1,4.3,4.3,7.5
		c0.1,2,0.1,5.8,1.2,7.6h-6.5c-0.8-2-0.7-5.1-1-7.7c-0.5-3.4-1.7-4.9-4.9-4.9h-6.5v12.6h-6.5L1468.4,26.5L1468.4,26.5z M1474.9,41
		h7.1c2.9,0,4.5-1.4,4.5-4.6c0-3.1-1.6-4.5-4.5-4.5h-7.1V41z"/>
	<path class="st1" d="M1499.8,26.5h6.5v32.1h-6.5V26.5z"/>
	<path class="st1" d="M1513.5,26.5h6.4l12.3,21.6h0.1V26.5h6.1v32.1h-6.5l-12.2-21.5h-0.1v21.5h-6.1L1513.5,26.5L1513.5,26.5z"/>
	<path class="st1" d="M1567,55c-2.3,3.2-5.2,4.4-8.1,4.4c-9.1,0-14.5-7.4-14.5-16.7c0-9.5,5.4-17,14.5-17c6,0,11.7,4,12.4,11.3h-6.2
		c-0.7-3.6-3.2-5.4-6.2-5.4c-5.8,0-8,5.4-8,11c0,5.4,2.2,10.8,8,10.8c4.2,0,6.6-2.5,7-6.9h-6.5v-5.3h12.4v17.4h-4.1L1567,55z"/>
</g>
<g class="st0">
	<path class="st1" d="M688.5,177.5c-0.2,8.5,6,11.1,13.5,11.1c4.4,0,11-2.4,11-8.4c0-4.7-4.7-6.6-8.5-7.5l-9.2-2.3
		c-4.9-1.2-9.3-3.5-9.3-10c0-4.1,2.6-11.7,14.3-11.7c8.2,0,15.4,4.4,15.3,12.9h-3.9c-0.2-6.3-5.5-9.5-11.3-9.5
		c-5.4,0-10.4,2.1-10.4,8.2c0,3.9,2.9,5.5,6.3,6.3l10.1,2.5c5.9,1.6,10.7,4.1,10.7,10.9c0,2.8-1.2,11.8-15.8,11.8
		c-9.8,0-17-4.4-16.5-14.5h3.7V177.5z"/>
	<path class="st1" d="M719.1,161.2h4.1l9.4,26.3h0.1l9.3-26.3h3.8l-11.2,29.9h-3.9L719.1,161.2z"/>
	<path class="st1" d="M772.2,177.2c-0.4,6.4,2.7,11.8,9.7,11.8c4.9,0,7.8-2.8,8.9-7.5h3.7c-1.5,6.7-6.1,10.6-13,10.6
		c-5.3,0-9.2-2.6-11-7.5h-0.1c-0.9,5-7.3,7.5-12.5,7.5c-5.5,0-10-2.7-10-8.8c0-8.4,8.2-8.7,16.1-9.6c3-0.3,4.7-0.8,4.7-4.1
		c0-4.9-3.5-6.1-7.8-6.1c-4.5,0-7.9,2.1-8,7H749c0.3-7,5.3-10,12.1-10c4.1,0,9.3,1.1,10,6.2h0.1c1.6-4.2,6.1-6.2,10.5-6.2
		c9.9,0,12.9,8.1,12.9,16.8L772.2,177.2L772.2,177.2z M768.5,174.8L768.5,174.8c-0.6,0.9-2.2,1.2-3.2,1.3c-6.2,1.1-13.9,1-13.9,6.9
		c0,3.7,3.2,5.9,6.7,5.9c5.6,0,10.5-3.5,10.4-9.4V174.8z M791,174.1c0-5.5-3.7-10.7-9.5-10.7c-6.1,0-9.5,5-9.4,10.7H791z"/>
	<path class="st1" d="M799.8,161.2h3.4v7h0.1c1.9-4.8,5.9-7.7,11.3-7.4v3.7c-6.6-0.3-11.1,4.5-11.1,10.7v15.9h-3.7V161.2z"/>
	<path class="st1" d="M823.9,161.2h6.1v3.1h-6.1v20.2c0,2.4,0.3,3.8,3,3.9c1,0,2.1-0.1,3.1-0.2v3.1c-1.1,0-2.1,0.1-3.2,0.1
		c-4.9,0-6.6-1.6-6.5-6.7v-20.5H815v-3.1h5.2v-9h3.7V161.2z"/>
	<path class="st1" d="M851.4,149.8h3.7v41.4h-3.7V149.8z"/>
	<path class="st1" d="M862.2,149.8h3.7v5.9h-3.7V149.8z M862.2,161.2h3.7v29.9h-3.7V161.2z"/>
	<path class="st1" d="M878.6,161.2h6.1v3.1h-6.1v20.2c0,2.4,0.3,3.8,3,3.9c1,0,2.1-0.1,3.1-0.2v3.1c-1.1,0-2.1,0.1-3.2,0.1
		c-4.9,0-6.6-1.6-6.5-6.7v-20.5h-5.2v-3.1h5.2v-9h3.7L878.6,161.2L878.6,161.2z"/>
	<path class="st1" d="M892.2,177.2c0.1,5.3,2.8,11.8,9.9,11.8c5.3,0,8.2-3.1,9.4-7.7h3.7c-1.6,6.8-5.5,10.7-13,10.7
		c-9.5,0-13.5-7.3-13.5-15.8c0-7.9,4-15.8,13.5-15.8c9.6,0,13.5,8.4,13.2,16.8H892.2z M911.5,174.1c-0.2-5.5-3.6-10.7-9.5-10.7
		c-6,0-9.3,5.2-9.9,10.7H911.5z"/>
	<path class="st1" d="M920,161.2h3.7v5.2h0.1c1.3-3.6,5.3-6,9.6-6c8.4,0,11,4.4,11,11.5v19.3h-3.7v-18.7c0-5.2-1.7-9-7.6-9
		c-5.8,0-9.3,4.4-9.4,10.3v17.5H920V161.2z"/>
</g>
<g class="st0">
	<path class="st1" d="M1273.1,191.6l-29.5-13.6v-3.1l29.5-13.6v3.2l-25.9,11.9l25.9,11.9V191.6z"/>
	<path class="st1" d="M1297.5,158.4c6.4-0.2,10.3-0.3,11.4-7.8h3v40.6h-3.7V161h-10.7L1297.5,158.4L1297.5,158.4z"/>
	<path class="st1" d="M1335.8,175.6l-10.7-14.4h4.6l8.5,11.4l8.4-11.4h4.6l-10.8,14.3l11.7,15.6h-4.6l-9.4-12.6l-9.2,12.6h-4.5
		L1335.8,175.6z"/>
	<path class="st1" d="M1371.6,161.2h3.4v5.7h0.1c1.7-4.1,5.9-6.6,10.7-6.6c9.1,0,13.5,7.4,13.5,15.8s-4.3,15.8-13.5,15.8
		c-4.5,0-8.8-2.3-10.4-6.6h-0.1v16.8h-3.7V161.2z M1385.8,163.4c-8.1,0-10.5,6-10.5,12.8c0,6.2,2.7,12.8,10.5,12.8
		c7,0,9.8-6.6,9.8-12.8S1392.7,163.4,1385.8,163.4z"/>
	<path class="st1" d="M1407.1,177.2c0.1,5.3,2.8,11.8,9.9,11.8c5.3,0,8.2-3.1,9.4-7.7h3.7c-1.6,6.8-5.5,10.7-13,10.7
		c-9.5,0-13.5-7.3-13.5-15.8c0-7.9,4-15.8,13.5-15.8c9.6,0,13.5,8.4,13.2,16.8H1407.1z M1426.4,174.1c-0.2-5.5-3.6-10.7-9.5-10.7
		c-6,0-9.3,5.2-9.9,10.7H1426.4z"/>
	<path class="st1" d="M1435,161.2h3.4v7h0.1c1.9-4.8,5.9-7.7,11.3-7.4v3.7c-6.6-0.3-11.1,4.5-11.1,10.7v15.9h-3.7L1435,161.2
		L1435,161.2z"/>
	<path class="st1" d="M1471.7,179.6c0.2,5.6,4.4,9.4,10,9.4c6.3,0,10.1-5.2,10.1-11.1c0-6-4.3-10.6-10.4-10.6c-3.6,0-7.1,1.7-9,4.8
		h-3.1l3.9-21.1h20.3v3.4h-17.7l-2.6,13.5l0.1,0.1c2-2.4,5.5-3.8,8.6-3.8c8.4,0,13.6,5.9,13.6,14c0,7.9-6.3,13.7-14.1,13.7
		c-7.5,0-13.2-4.8-13.3-12.5h3.6V179.6z"/>
	<path class="st1" d="M1528.5,171.1c0,9.5-2.3,20.9-14.2,20.9c-11.8,0-14.2-11.4-14.2-20.9s2.3-20.9,14.2-20.9
		C1526.1,150.2,1528.5,161.6,1528.5,171.1z M1503.8,171.1c0,7.1,1.2,17.9,10.5,17.9s10.5-10.8,10.5-17.9c0-7-1.2-17.8-10.5-17.8
		S1503.8,164.1,1503.8,171.1z"/>
	<path class="st1" d="M1549.7,170.4c0.3-7,5.3-10,12.1-10c5.3,0,11,1.6,11,9.6v15.9c0,1.4,0.7,2.2,2.1,2.2c0.4,0,0.9-0.1,1.2-0.2
		v3.1c-0.8,0.2-1.4,0.2-2.4,0.2c-3.7,0-4.3-2.1-4.3-5.2h-0.1c-2.6,3.9-5.2,6.1-10.9,6.1c-5.5,0-10-2.7-10-8.8
		c0-8.4,8.2-8.7,16.1-9.6c3-0.3,4.7-0.8,4.7-4.1c0-4.9-3.5-6.1-7.8-6.1c-4.5,0-7.9,2.1-8,7L1549.7,170.4L1549.7,170.4z
		 M1569.2,174.8L1569.2,174.8c-0.6,0.9-2.2,1.2-3.2,1.3c-6.2,1.1-13.9,1-13.9,6.9c0,3.7,3.2,5.9,6.7,5.9c5.6,0,10.5-3.5,10.4-9.4
		V174.8z M1561.6,145.7c3.4,0,6.2,2.8,6.2,6.2s-2.8,6.2-6.2,6.2s-6.2-2.8-6.2-6.2S1558.2,145.7,1561.6,145.7z M1561.6,155.8
		c2.2,0,3.9-1.7,3.9-3.9s-1.7-3.9-3.9-3.9s-3.9,1.7-3.9,3.9S1559.4,155.8,1561.6,155.8z"/>
	<path class="st1" d="M1580.1,161.2h3.4v7h0.1c1.9-4.8,5.9-7.7,11.3-7.4v3.7c-6.6-0.3-11.1,4.5-11.1,10.7v15.9h-3.7L1580.1,161.2
		L1580.1,161.2z"/>
	<path class="st1" d="M1616.7,177.2c0.1,5.3,2.8,11.8,9.9,11.8c5.3,0,8.2-3.1,9.4-7.7h3.7c-1.6,6.8-5.5,10.7-13,10.7
		c-9.5,0-13.5-7.3-13.5-15.8c0-7.9,4-15.8,13.5-15.8c9.6,0,13.5,8.4,13.2,16.8H1616.7z M1636.1,174.1c-0.2-5.5-3.6-10.7-9.5-10.7
		c-6,0-9.3,5.2-9.9,10.7H1636.1z"/>
	<path class="st1" d="M1644.7,149.8h3.7v41.4h-3.7V149.8z"/>
	<path class="st1" d="M1655.4,149.8h3.7v41.4h-3.7V149.8z"/>
	<path class="st1" d="M1668.2,177.2c0.1,5.3,2.8,11.8,9.9,11.8c5.3,0,8.2-3.1,9.4-7.7h3.7c-1.6,6.8-5.5,10.7-13,10.7
		c-9.5,0-13.5-7.3-13.5-15.8c0-7.9,4-15.8,13.5-15.8c9.6,0,13.5,8.4,13.2,16.8H1668.2z M1687.6,174.1c-0.2-5.5-3.6-10.7-9.5-10.7
		c-6,0-9.3,5.2-9.9,10.7H1687.6z"/>
	<path class="st1" d="M1696.2,161.2h3.4v7h0.1c1.9-4.8,5.9-7.7,11.3-7.4v3.7c-6.6-0.3-11.1,4.5-11.1,10.7v15.9h-3.7L1696.2,161.2
		L1696.2,161.2z"/>
	<path class="st1" d="M1748.5,170c-0.2-4.5-3.7-6.6-7.8-6.6c-3.2,0-7.1,1.3-7.1,5.2c0,3.2,3.7,4.4,6.2,5l4.9,1.1
		c4.2,0.6,8.5,3.1,8.5,8.3c0,6.5-6.4,9-12,9c-7,0-11.7-3.2-12.3-10.6h3.7c0.3,4.9,3.9,7.5,8.8,7.5c3.4,0,8.2-1.5,8.2-5.7
		c0-3.5-3.2-4.6-6.6-5.5l-4.7-1c-4.8-1.3-8.4-2.9-8.4-8c0-6.1,6-8.4,11.3-8.4c6,0,10.7,3.1,11,9.6L1748.5,170L1748.5,170z"/>
	<path class="st1" d="M1758.5,161.2h3.7v32.7c0,4.5-1.2,8.3-6.4,8.3c-0.9,0-1.7-0.1-2.6-0.1v-3c0.6,0.1,1.4,0.1,2,0.1
		c2.8,0,3.3-1.9,3.3-4.3V161.2z M1758.5,149.8h3.7v5.9h-3.7V149.8z"/>
	<path class="st1" d="M1771.4,177.2c0.1,5.3,2.8,11.8,9.9,11.8c5.3,0,8.2-3.1,9.4-7.7h3.7c-1.6,6.8-5.5,10.7-13,10.7
		c-9.5,0-13.5-7.3-13.5-15.8c0-7.9,4-15.8,13.5-15.8c9.6,0,13.5,8.4,13.2,16.8H1771.4z M1790.7,174.1c-0.2-5.5-3.6-10.7-9.5-10.7
		c-6,0-9.3,5.2-9.9,10.7H1790.7z"/>
	<path class="st1" d="M1799.4,149.8h3.7v41.4h-3.7V149.8z"/>
	<path class="st1" d="M1836.4,191.2h-3.4v-5.7h-0.1c-1.6,3.9-6.3,6.6-10.7,6.6c-9.1,0-13.5-7.4-13.5-15.8s4.3-15.8,13.5-15.8
		c4.5,0,8.8,2.3,10.4,6.6h0.1v-17.2h3.7V191.2z M1822.2,189c7.8,0,10.5-6.6,10.5-12.8s-2.7-12.8-10.5-12.8c-7,0-9.8,6.6-9.8,12.8
		S1815.3,189,1822.2,189z"/>
	<path class="st1" d="M1843.3,161.2h3.7v5.2h0.1c1.3-3.6,5.3-6,9.6-6c8.4,0,11,4.4,11,11.5v19.3h-3.7v-18.7c0-5.2-1.7-9-7.6-9
		c-5.8,0-9.3,4.4-9.4,10.3v17.5h-3.7V161.2z"/>
	<path class="st1" d="M1876.6,177.2c0.1,5.3,2.8,11.8,9.9,11.8c5.3,0,8.2-3.1,9.4-7.7h3.7c-1.6,6.8-5.5,10.7-13,10.7
		c-9.5,0-13.5-7.3-13.5-15.8c0-7.9,4-15.8,13.5-15.8c9.6,0,13.5,8.4,13.2,16.8H1876.6z M1896,174.1c-0.2-5.5-3.6-10.7-9.5-10.7
		c-6,0-9.3,5.2-9.9,10.7H1896z"/>
	<path class="st1" d="M1904.6,161.2h3.4v7h0.1c1.9-4.8,5.9-7.7,11.3-7.4v3.7c-6.6-0.3-11.1,4.5-11.1,10.7v15.9h-3.7L1904.6,161.2
		L1904.6,161.2z"/>
	<path class="st1" d="M1924,177.2c0.1,5.3,2.8,11.8,9.9,11.8c5.3,0,8.2-3.1,9.4-7.7h3.7c-1.6,6.8-5.5,10.7-13,10.7
		c-9.5,0-13.5-7.3-13.5-15.8c0-7.9,4-15.8,13.5-15.8c9.6,0,13.5,8.4,13.2,16.8H1924z M1943.3,174.1c-0.2-5.5-3.6-10.7-9.5-10.7
		c-6,0-9.3,5.2-9.9,10.7H1943.3z"/>
</g>
<line class="st2" x1="515" y1="103.6" x2="2246.8" y2="103.6"/>
<line class="st2" x1="515" y1="243.6" x2="2246.8" y2="243.6"/>
<line class="st2" x1="515" y1="383.6" x2="2246.8" y2="383.6"/>
<line class="st2" x1="515" y1="523.6" x2="2246.8" y2="523.6"/>
<line class="st2" x1="515" y1="663.6" x2="2246.8" y2="663.6"/>
<line class="st2" x1="515" y1="803.6" x2="2246.8" y2="803.6"/>
<line class="st2" x1="515" y1="243.6" x2="2246.8" y2="243.6"/>
</svg>
