<?xml version="1.0" encoding="utf-8"?>
<!-- Generator: Adobe Illustrator 19.1.0, SVG Export Plug-In . SVG Version: 6.00 Build 0)  -->
<svg version="1.1" id="Layer_1" xmlns="http://www.w3.org/2000/svg" xmlns:xlink="http://www.w3.org/1999/xlink" x="0px" y="0px"
	 viewBox="391 17.4 1805 859" style="enable-background:new 391 17.4 1805 859;" xml:space="preserve">
<style type="text/css">
	.st0{enable-background:new    ;}
	.st1{fill:#231F20;}
	.st2{fill:none;stroke:#000000;stroke-width:2;stroke-miterlimit:10;}
</style>
<g>
	<g class="st0">
		<path class="st1" d="M510.1,620.1h-5.2v9.6h-6.3v-9.6h-17.4v-6.6l17.4-24.4h6.3v25.8h5.2V620.1z M486.3,614.9h12.3V597h-0.1
			L486.3,614.9z"/>
	</g>
</g>
<g>
	<g class="st0">
		<path class="st1" d="M487,727.1h21v5.9h-16.1l-2.1,10.3l0.1,0.1c1.8-2,4.8-3.1,7.5-3.1c8.1,0,12.7,5.8,12.7,13.6
			c0,6.5-4.1,14.6-14,14.6c-7.8,0-13.9-4.2-14.2-12.4h6.6c0.4,4.3,3.2,6.8,7.5,6.8c5.6,0,7.5-4,7.5-8.9c0-4.5-2.4-8.5-7.7-8.5
			c-2.8,0-5.5,0.9-6.6,3.7h-6.6L487,727.1z"/>
	</g>
</g>
<g>
	<g class="st0">
		<path class="st1" d="M493.1,459.9c4.4,0.2,9-1.4,9-6.4c0-3.4-2.7-5.7-6.3-5.7c-4.6,0-6.8,4.1-6.7,8.3h-6.6
			c0.3-7.9,5.3-13.8,13.5-13.8c6.3,0,12.8,3.7,12.8,10.8c0,4.1-1.9,7.3-5.7,8.7v0.1c4.6,0.9,7.4,4.9,7.4,10.1
			c0,7.7-6.6,12.4-14.4,12.4c-9.4,0-14.1-5.7-14.3-14.2h6.6c-0.2,4.9,2.5,8.6,7.7,8.6c4.4,0,7.8-2.6,7.8-7.2c0-6.3-5.4-7.1-10.6-6.9
			V459.9z"/>
	</g>
</g>
<g>
	<g class="st0">
		<path class="st1" d="M509.8,347.7h-27.7c0.1-6.7,3.5-11.7,8.9-15.4c5.3-3.8,12.1-7,12.2-13.3c0.1-2.9-1.2-7.2-6.8-7.2
			c-5.2,0-6.8,4.5-7,10.2h-6.6c0-9,4.9-15.7,14-15.7c9.9,0,13,7.2,13,12.5c0,6.4-4.4,10.4-9,13.7c-4.7,3.2-9.6,5.7-10.8,9.3h19.8
			V347.7z"/>
	</g>
</g>
<g>
	<g class="st0">
		<path class="st1" d="M482.9,171.9c5.6,0.1,10.8-1.9,11.8-6.7h5.4v40.6h-7.2v-28.7h-10V171.9z"/>
	</g>
</g>
<g class="st0">
	<path class="st1" d="M635.4,616.6c-0.2,8.5,6,11.1,13.5,11.1c4.3,0,11-2.4,11-8.4c0-4.7-4.7-6.6-8.5-7.5l-9.2-2.3
		c-4.9-1.2-9.3-3.5-9.3-10c0-4.1,2.6-11.7,14.3-11.7c8.2,0,15.4,4.4,15.3,12.9h-3.9c-0.2-6.3-5.5-9.5-11.3-9.5
		c-5.4,0-10.4,2.1-10.4,8.2c0,3.9,2.9,5.5,6.3,6.3l10.1,2.5c5.9,1.6,10.7,4.1,10.7,10.9c0,2.8-1.2,11.8-15.8,11.8
		c-9.8,0-17-4.4-16.5-14.5H635.4z"/>
	<path class="st1" d="M675.1,600.3h6.1v3.1h-6.1v20.2c0,2.4,0.3,3.8,3,3.9c1,0,2.1-0.1,3.1-0.2v3.1c-1.1,0-2.1,0.1-3.2,0.1
		c-4.9,0-6.6-1.6-6.5-6.7v-20.5h-5.2v-3.1h5.2v-9h3.7V600.3z"/>
	<path class="st1" d="M713.3,615.3c0,8.6-5,15.8-14.2,15.8s-14.2-7.2-14.2-15.8s5-15.8,14.2-15.8S713.3,606.7,713.3,615.3z
		 M688.7,615.3c0,6.4,3.5,12.8,10.5,12.8s10.5-6.4,10.5-12.8c0-6.4-3.5-12.8-10.5-12.8S688.7,608.9,688.7,615.3z"/>
	<path class="st1" d="M718.8,600.3h3.4v7h0.1c1.9-4.8,5.9-7.7,11.3-7.4v3.7c-6.6-0.3-11.1,4.5-11.1,10.7v15.9h-3.7V600.3z"/>
</g>
<g class="st0">
	<path class="st1" d="M635.4,754.6c-0.2,8.5,6,11.1,13.5,11.1c4.3,0,11-2.4,11-8.4c0-4.7-4.7-6.6-8.5-7.5l-9.2-2.3
		c-4.9-1.2-9.3-3.5-9.3-10c0-4.1,2.6-11.7,14.3-11.7c8.2,0,15.4,4.4,15.3,12.9h-3.9c-0.2-6.3-5.5-9.5-11.3-9.5
		c-5.4,0-10.4,2.1-10.4,8.2c0,3.9,2.9,5.5,6.3,6.3l10.1,2.5c5.9,1.6,10.7,4.1,10.7,10.9c0,2.8-1.2,11.8-15.8,11.8
		c-9.8,0-17-4.4-16.5-14.5H635.4z"/>
	<path class="st1" d="M666,738.3h4.1l9.4,26.3h0.1l9.3-26.3h3.8l-11.2,29.9h-3.9L666,738.3z"/>
	<path class="st1" d="M719,754.3c-0.4,6.4,2.7,11.8,9.7,11.8c4.9,0,7.8-2.8,8.9-7.5h3.7c-1.5,6.7-6.1,10.6-13,10.6
		c-5.3,0-9.2-2.6-11-7.5h-0.1c-0.9,5-7.3,7.5-12.5,7.5c-5.5,0-10-2.7-10-8.8c0-8.4,8.2-8.7,16.1-9.6c3-0.3,4.7-0.8,4.7-4.1
		c0-4.9-3.5-6.1-7.8-6.1c-4.5,0-7.9,2.1-8,7h-3.7c0.3-7,5.3-10,12.1-10c4.1,0,9.3,1.1,10,6.2h0.1c1.6-4.2,6.1-6.2,10.5-6.2
		c9.9,0,12.9,8.1,12.9,16.8H719z M715.3,751.9h-0.1c-0.5,0.9-2.1,1.2-3.1,1.3c-6.2,1.1-13.9,1-13.9,6.9c0,3.7,3.2,5.9,6.7,5.9
		c5.6,0,10.5-3.5,10.4-9.4V751.9z M737.8,751.2c0-5.5-3.7-10.7-9.5-10.7c-6.1,0-9.5,5-9.4,10.7H737.8z"/>
	<path class="st1" d="M746.7,738.3h3.4v7h0.1c1.9-4.8,5.9-7.7,11.3-7.4v3.7c-6.6-0.3-11.1,4.5-11.1,10.7v15.9h-3.7V738.3z"/>
	<path class="st1" d="M770.7,738.3h6.1v3.1h-6.1v20.2c0,2.4,0.3,3.8,3,3.9c1,0,2.1-0.1,3.1-0.2v3.1c-1.1,0-2.1,0.1-3.2,0.1
		c-4.9,0-6.6-1.6-6.5-6.7v-20.5h-5.2v-3.1h5.2v-9h3.7V738.3z"/>
	<path class="st1" d="M816.1,747.1c-0.2-4.5-3.7-6.6-7.8-6.6c-3.2,0-7.1,1.3-7.1,5.2c0,3.2,3.7,4.4,6.2,5l4.9,1.1
		c4.2,0.6,8.5,3.1,8.5,8.3c0,6.5-6.4,9-12,9c-7,0-11.7-3.2-12.3-10.6h3.7c0.3,4.9,3.9,7.5,8.8,7.5c3.4,0,8.2-1.5,8.2-5.7
		c0-3.5-3.2-4.6-6.6-5.5l-4.7-1c-4.8-1.3-8.4-2.9-8.4-8c0-6.1,6-8.4,11.3-8.4c6,0,10.7,3.1,11,9.6H816.1z"/>
	<path class="st1" d="M831.9,738.3h6.1v3.1h-6.1v20.2c0,2.4,0.3,3.8,3,3.9c1,0,2.1-0.1,3.1-0.2v3.1c-1.1,0-2.1,0.1-3.2,0.1
		c-4.9,0-6.6-1.6-6.5-6.7v-20.5H823v-3.1h5.2v-9h3.7V738.3z"/>
	<path class="st1" d="M870.1,753.3c0,8.6-5,15.8-14.2,15.8s-14.2-7.2-14.2-15.8s5-15.8,14.2-15.8S870.1,744.7,870.1,753.3z
		 M845.4,753.3c0,6.4,3.5,12.8,10.5,12.8s10.5-6.4,10.5-12.8c0-6.4-3.5-12.8-10.5-12.8S845.4,746.9,845.4,753.3z"/>
	<path class="st1" d="M875.5,738.3h3.4v7h0.1c1.9-4.8,5.9-7.7,11.3-7.4v3.7c-6.6-0.3-11.1,4.5-11.1,10.7v15.9h-3.7V738.3z"/>
</g>
<g class="st0">
	<path class="st1" d="M633.4,442.9h5.8l14.3,36.3l14.3-36.3h5.8v41.4h-3.9v-35.8h-0.1l-14.2,35.8h-3.7l-14.2-35.8h-0.1v35.8h-3.9
		V442.9z"/>
	<path class="st1" d="M681.2,442.9h3.7v5.9h-3.7V442.9z M681.2,454.3h3.7v29.9h-3.7V454.3z"/>
	<path class="st1" d="M718.2,484.3h-3.4v-5.7h-0.1c-1.6,3.9-6.3,6.6-10.7,6.6c-9.1,0-13.5-7.4-13.5-15.8s4.3-15.8,13.5-15.8
		c4.5,0,8.8,2.3,10.4,6.6h0.1v-17.2h3.7V484.3z M704,482.1c7.8,0,10.5-6.6,10.5-12.8s-2.7-12.8-10.5-12.8c-7,0-9.8,6.6-9.8,12.8
		S697.1,482.1,704,482.1z"/>
	<path class="st1" d="M751.5,484.3h-3.4v-5.7H748c-1.6,3.9-6.3,6.6-10.7,6.6c-9.1,0-13.5-7.4-13.5-15.8s4.3-15.8,13.5-15.8
		c4.5,0,8.8,2.3,10.4,6.6h0.1v-17.2h3.7V484.3z M737.3,482.1c7.8,0,10.5-6.6,10.5-12.8s-2.7-12.8-10.5-12.8c-7,0-9.8,6.6-9.8,12.8
		S730.4,482.1,737.3,482.1z"/>
	<path class="st1" d="M760.6,470.3c0.1,5.3,2.8,11.8,9.9,11.8c5.3,0,8.2-3.1,9.4-7.7h3.7c-1.6,6.8-5.5,10.7-13,10.7
		c-9.5,0-13.5-7.3-13.5-15.8c0-7.9,4-15.8,13.5-15.8c9.6,0,13.5,8.4,13.2,16.8H760.6z M779.9,467.2c-0.2-5.5-3.6-10.7-9.5-10.7
		c-6,0-9.3,5.2-9.9,10.7H779.9z"/>
	<path class="st1" d="M788.6,442.9h3.7v41.4h-3.7V442.9z"/>
	<path class="st1" d="M817.2,463.1c-0.2-4.5-3.7-6.6-7.8-6.6c-3.2,0-7.1,1.3-7.1,5.2c0,3.2,3.7,4.4,6.2,5l4.9,1.1
		c4.2,0.6,8.5,3.1,8.5,8.3c0,6.5-6.4,9-12,9c-7,0-11.7-3.2-12.3-10.6h3.7c0.3,4.9,3.9,7.5,8.8,7.5c3.4,0,8.2-1.5,8.2-5.7
		c0-3.5-3.2-4.6-6.6-5.5l-4.7-1c-4.8-1.3-8.4-2.9-8.4-8c0-6.1,6-8.4,11.3-8.4c6,0,10.7,3.1,11,9.6H817.2z"/>
</g>
<g class="st0">
	<path class="st1" d="M633.5,306.9h3.9v38h23.2v3.4h-27.1V306.9z"/>
	<path class="st1" d="M664,306.9h3.7v5.9H664V306.9z M664,318.3h3.7v29.9H664V318.3z"/>
	<path class="st1" d="M680.5,318.3h6.1v3.1h-6.1v20.2c0,2.4,0.3,3.8,3,3.9c1,0,2.1-0.1,3.1-0.2v3.1c-1.1,0-2.1,0.1-3.2,0.1
		c-4.9,0-6.6-1.6-6.5-6.7v-20.5h-5.2v-3.1h5.2v-9h3.7V318.3z"/>
	<path class="st1" d="M694,334.3c0.1,5.3,2.8,11.8,9.9,11.8c5.3,0,8.2-3.1,9.4-7.7h3.7c-1.6,6.8-5.5,10.7-13,10.7
		c-9.5,0-13.5-7.3-13.5-15.8c0-7.9,4-15.8,13.5-15.8c9.6,0,13.5,8.4,13.2,16.8H694z M713.4,331.2c-0.2-5.5-3.6-10.7-9.5-10.7
		c-6,0-9.3,5.2-9.9,10.7H713.4z"/>
	<path class="st1" d="M721.9,318.3h3.7v5.2h0.1c1.3-3.6,5.3-6,9.6-6c8.4,0,11,4.4,11,11.5v19.3h-3.7v-18.7c0-5.2-1.7-9-7.6-9
		c-5.8,0-9.3,4.4-9.4,10.3v17.5h-3.7V318.3z"/>
</g>
<g class="st0">
	<path class="st1" d="M1204.1,588.9h4.4l16.2,41.4h-4.2l-5-12.9h-18.8l-5,12.9h-4.2L1204.1,588.9z M1197.8,614h16.3l-8-21.2
		L1197.8,614z"/>
	<path class="st1" d="M1227.9,588.9h3.7v41.4h-3.7V588.9z"/>
	<path class="st1" d="M1235.2,600.3h4.1l9.4,26.3h0.1l9.3-26.3h3.8l-11.2,29.9h-3.9L1235.2,600.3z"/>
	<path class="st1" d="M1292.2,615.3c0,8.6-5,15.8-14.2,15.8s-14.2-7.2-14.2-15.8s5-15.8,14.2-15.8S1292.2,606.7,1292.2,615.3z
		 M1267.5,615.3c0,6.4,3.5,12.8,10.5,12.8s10.5-6.4,10.5-12.8c0-6.4-3.5-12.8-10.5-12.8S1267.5,608.9,1267.5,615.3z"/>
	<path class="st1" d="M1297.7,600.3h3.4v7h0.1c1.9-4.8,5.9-7.7,11.3-7.4v3.7c-6.6-0.3-11.1,4.5-11.1,10.7v15.9h-3.7V600.3z"/>
	<path class="st1" d="M1316,588.9h3.7v41.4h-3.7V588.9z"/>
	<path class="st1" d="M1326.7,588.9h3.7v5.9h-3.7V588.9z M1326.7,600.3h3.7v29.9h-3.7V600.3z"/>
	<path class="st1" d="M1362.7,627.8c-0.1,8.9-3.5,14.4-13.3,14.4c-6,0-11.9-2.7-12.4-9h3.7c0.8,4.4,4.7,6,8.8,6
		c6.7,0,9.6-4,9.6-11.3v-4.1h-0.1c-1.7,3.7-5.2,6.1-9.5,6.1c-9.6,0-13.5-6.8-13.5-15.4c0-8.2,4.9-15.1,13.5-15.1
		c4.3,0,8.1,2.7,9.5,6h0.1v-5.2h3.7V627.8z M1359,615c0-5.9-2.7-12.4-9.6-12.4c-7,0-9.9,6.2-9.9,12.4c0,6,3.1,11.9,9.9,11.9
		C1355.7,626.8,1359,621,1359,615z"/>
	<path class="st1" d="M1385.8,600.3h3.4v5.7h0.1c1.7-4.1,5.9-6.6,10.7-6.6c9.1,0,13.5,7.4,13.5,15.8c0,8.5-4.3,15.8-13.5,15.8
		c-4.5,0-8.8-2.3-10.4-6.6h-0.1v16.8h-3.7V600.3z M1399.9,602.5c-8.1,0-10.5,6-10.5,12.8c0,6.2,2.7,12.8,10.5,12.8
		c7,0,9.8-6.6,9.8-12.8C1409.7,609.1,1406.9,602.5,1399.9,602.5z"/>
	<path class="st1" d="M1421.2,616.3c0.1,5.3,2.8,11.8,9.9,11.8c5.3,0,8.2-3.1,9.4-7.7h3.7c-1.6,6.8-5.5,10.7-13,10.7
		c-9.5,0-13.5-7.3-13.5-15.8c0-7.9,4-15.8,13.5-15.8c9.6,0,13.5,8.4,13.2,16.8H1421.2z M1440.6,613.2c-0.2-5.5-3.6-10.7-9.5-10.7
		c-6,0-9.3,5.2-9.9,10.7H1440.6z"/>
	<path class="st1" d="M1449.1,600.3h3.4v7h0.1c1.9-4.8,5.9-7.7,11.3-7.4v3.7c-6.6-0.3-11.1,4.5-11.1,10.7v15.9h-3.7V600.3z"/>
	<path class="st1" d="M1485.3,609.1c-0.2-4.5-3.7-6.6-7.8-6.6c-3.2,0-7.1,1.3-7.1,5.2c0,3.2,3.7,4.4,6.2,5l4.9,1.1
		c4.2,0.6,8.5,3.1,8.5,8.3c0,6.5-6.4,9-12,9c-7,0-11.7-3.2-12.3-10.6h3.7c0.3,4.9,3.9,7.5,8.8,7.5c3.4,0,8.2-1.5,8.2-5.7
		c0-3.5-3.2-4.6-6.6-5.5l-4.7-1c-4.8-1.3-8.4-2.9-8.4-8c0-6.1,6-8.4,11.3-8.4c6,0,10.7,3.1,11,9.6H1485.3z"/>
	<path class="st1" d="M1522.1,615.3c0,8.6-5,15.8-14.2,15.8c-9.2,0-14.2-7.2-14.2-15.8s5-15.8,14.2-15.8
		C1517.1,599.5,1522.1,606.7,1522.1,615.3z M1497.5,615.3c0,6.4,3.5,12.8,10.5,12.8c7,0,10.5-6.4,10.5-12.8
		c0-6.4-3.5-12.8-10.5-12.8C1500.9,602.5,1497.5,608.9,1497.5,615.3z"/>
	<path class="st1" d="M1527.5,600.3h3.7v5.2h0.1c1.3-3.6,5.3-6,9.6-6c8.4,0,11,4.4,11,11.5v19.3h-3.7v-18.7c0-5.2-1.7-9-7.6-9
		c-5.8,0-9.3,4.4-9.4,10.3v17.5h-3.7V600.3z"/>
	<path class="st1" d="M1576.6,609.1c-0.2-4.5-3.7-6.6-7.8-6.6c-3.2,0-7.1,1.3-7.1,5.2c0,3.2,3.7,4.4,6.2,5l4.9,1.1
		c4.2,0.6,8.5,3.1,8.5,8.3c0,6.5-6.4,9-12,9c-7,0-11.7-3.2-12.3-10.6h3.7c0.3,4.9,3.9,7.5,8.8,7.5c3.4,0,8.2-1.5,8.2-5.7
		c0-3.5-3.2-4.6-6.6-5.5l-4.7-1c-4.8-1.3-8.4-2.9-8.4-8c0-6.1,6-8.4,11.3-8.4c6,0,10.7,3.1,11,9.6H1576.6z"/>
	<path class="st1" d="M1586.6,588.9h3.7v26l16.6-14.5h4.9l-12.8,11.1l13.6,18.8h-4.6l-11.8-16.3l-5.9,4.9v11.4h-3.7V588.9z"/>
	<path class="st1" d="M1615.3,609.5c0.3-7,5.3-10,12.1-10c5.3,0,11,1.6,11,9.6V625c0,1.4,0.7,2.2,2.1,2.2c0.4,0,0.9-0.1,1.2-0.2v3.1
		c-0.8,0.2-1.4,0.2-2.4,0.2c-3.7,0-4.3-2.1-4.3-5.2h-0.1c-2.6,3.9-5.2,6.1-10.9,6.1c-5.5,0-10-2.7-10-8.8c0-8.4,8.2-8.7,16.1-9.6
		c3-0.3,4.7-0.8,4.7-4.1c0-4.9-3.5-6.1-7.8-6.1c-4.5,0-7.9,2.1-8,7H1615.3z M1634.7,613.9h-0.1c-0.5,0.9-2.1,1.2-3.1,1.3
		c-6.2,1.1-13.9,1-13.9,6.9c0,3.7,3.2,5.9,6.7,5.9c5.6,0,10.5-3.5,10.4-9.4V613.9z"/>
	<path class="st1" d="M1672,630.3h-3.4v-5.7h-0.1c-1.6,3.9-6.3,6.6-10.7,6.6c-9.1,0-13.5-7.4-13.5-15.8c0-8.5,4.3-15.8,13.5-15.8
		c4.5,0,8.8,2.3,10.4,6.6h0.1v-17.2h3.7V630.3z M1657.9,628.1c7.8,0,10.5-6.6,10.5-12.8c0-6.2-2.7-12.8-10.5-12.8
		c-7,0-9.8,6.6-9.8,12.8C1648.1,621.5,1650.9,628.1,1657.9,628.1z"/>
	<path class="st1" d="M1681.1,616.3c0.1,5.3,2.8,11.8,9.9,11.8c5.3,0,8.2-3.1,9.4-7.7h3.7c-1.6,6.8-5.5,10.7-13,10.7
		c-9.5,0-13.5-7.3-13.5-15.8c0-7.9,4-15.8,13.5-15.8c9.6,0,13.5,8.4,13.2,16.8H1681.1z M1700.5,613.2c-0.2-5.5-3.6-10.7-9.5-10.7
		c-6,0-9.3,5.2-9.9,10.7H1700.5z"/>
	<path class="st1" d="M1716.1,624.1v6.2c-0.1,3.4-1.6,6.9-5.1,7.9v-2.5c1.9-0.7,2.8-3.5,2.7-5.5h-2.4v-6.1H1716.1z"/>
	<path class="st1" d="M1741.3,600.3h3.4v5h0.2c1.9-3.6,5-5.9,9.8-5.9c3.9,0,7.5,1.9,8.6,5.9c1.8-3.9,5.6-5.9,9.5-5.9
		c6.6,0,9.9,3.4,9.9,10.5v20.3h-3.7v-20.1c0-4.9-1.9-7.6-7.1-7.6c-6.3,0-8.1,5.2-8.1,10.8v16.9h-3.7V610c0.1-4.1-1.6-7.4-6.3-7.4
		c-6.3,0-8.9,4.8-8.9,11v16.7h-3.7V600.3z"/>
	<path class="st1" d="M1813.9,630.3h-3.4v-5.4h-0.1c-1.9,4-5.9,6.3-10.3,6.3c-7.5,0-10.5-4.4-10.5-11.4v-19.4h3.7v19.5
		c0.2,5.4,2.2,8.2,8,8.2c6.3,0,9-5.9,9-12v-15.7h3.7V630.3z"/>
	<path class="st1" d="M1820.9,588.9h3.7v41.4h-3.7V588.9z"/>
	<path class="st1" d="M1831.6,588.9h3.7v5.9h-3.7V588.9z M1831.6,600.3h3.7v29.9h-3.7V600.3z"/>
	<path class="st1" d="M1867.6,627.8c-0.1,8.9-3.5,14.4-13.3,14.4c-6,0-11.9-2.7-12.4-9h3.7c0.8,4.4,4.7,6,8.8,6
		c6.7,0,9.6-4,9.6-11.3v-4.1h-0.1c-1.7,3.7-5.2,6.1-9.5,6.1c-9.6,0-13.5-6.8-13.5-15.4c0-8.2,4.9-15.1,13.5-15.1
		c4.4,0,8.1,2.7,9.5,6h0.1v-5.2h3.7V627.8z M1863.9,615c0-5.9-2.7-12.4-9.6-12.4c-7,0-9.9,6.2-9.9,12.4c0,6,3.1,11.9,9.9,11.9
		C1860.6,626.8,1863.9,621,1863.9,615z"/>
	<path class="st1" d="M1914.9,630.3h-3.4v-5.4h-0.1c-1.9,4-5.9,6.3-10.3,6.3c-7.5,0-10.5-4.4-10.5-11.4v-19.4h3.7v19.5
		c0.2,5.4,2.2,8.2,8,8.2c6.3,0,9-5.9,9-12v-15.7h3.7V630.3z"/>
	<path class="st1" d="M1933.3,603.4h-5.9v26.9h-3.7v-26.9h-5.1v-3.1h5.1v-2.7c-0.1-5.2,1.4-8.8,7.2-8.8c1,0,1.9,0.1,3.1,0.2v3.1
		c-1-0.2-1.8-0.3-2.7-0.3c-4.1,0-3.9,2.6-4,5.8v2.6h5.9V603.4z"/>
	<path class="st1" d="M1963.6,601.3l-3.1,3.4c2.1,2.9,3.1,6.6,3.1,10.6c0,8.6-5,15.8-14.2,15.8c-4.1,0-7.4-1.5-9.7-3.9l-3.4,3.7
		l-1.3-1.2l3.5-3.9c-2.1-2.8-3.2-6.6-3.2-10.6c0-8.6,5-15.8,14.2-15.8c4.2,0,7.5,1.5,9.9,3.9l3-3.2L1963.6,601.3z M1956.9,606
		c-1.7-2.1-4.2-3.5-7.4-3.5c-7,0-10.5,6.4-10.5,12.8c0,2.8,0.6,5.5,2.1,7.8L1956.9,606z M1942.1,624.6c1.6,2,4.1,3.4,7.4,3.4
		c7,0,10.5-6.4,10.5-12.8c0-2.8-0.6-5.5-2-7.8L1942.1,624.6z"/>
	<path class="st1" d="M1969,600.3h3.4v7h0.1c1.9-4.8,5.9-7.7,11.3-7.4v3.7c-6.6-0.3-11.1,4.5-11.1,10.7v15.9h-3.7V600.3z"/>
	<path class="st1" d="M1987.3,588.9h3.7v16.6h0.1c1.3-3.6,5.3-6,9.6-6c8.4,0,11,4.4,11,11.5v19.3h-3.7v-18.7c0-5.2-1.7-9-7.6-9
		c-5.8,0-9.3,4.4-9.4,10.3v17.5h-3.7V588.9z"/>
	<path class="st1" d="M2020.6,616.3c0.1,5.3,2.8,11.8,9.9,11.8c5.3,0,8.2-3.1,9.4-7.7h3.7c-1.6,6.8-5.5,10.7-13,10.7
		c-9.5,0-13.5-7.3-13.5-15.8c0-7.9,4-15.8,13.5-15.8c9.6,0,13.5,8.4,13.2,16.8H2020.6z M2040,613.2c-0.2-5.5-3.6-10.7-9.5-10.7
		c-6,0-9.3,5.2-9.9,10.7H2040z"/>
	<path class="st1" d="M2054.4,600.3h6.1v3.1h-6.1v20.2c0,2.4,0.3,3.8,3,3.9c1,0,2.1-0.1,3.1-0.2v3.1c-1.1,0-2.1,0.1-3.2,0.1
		c-4.9,0-6.6-1.6-6.5-6.7v-20.5h-5.2v-3.1h5.2v-9h3.7V600.3z"/>
</g>
<g class="st0">
	<path class="st1" d="M1192,726.9h14.3c12.5,0.3,19,7.1,19,20.7s-6.6,20.4-19,20.7H1192V726.9z M1195.9,764.9h8.4
		c11.9,0.1,17.1-5,17.1-17.3s-5.2-17.4-17.1-17.3h-8.4V764.9z"/>
	<path class="st1" d="M1257.8,739.3l-3.1,3.4c2.1,2.9,3.1,6.6,3.1,10.6c0,8.6-5,15.8-14.2,15.8c-4.1,0-7.4-1.5-9.7-3.9l-3.4,3.7
		l-1.3-1.2l3.5-3.9c-2.1-2.8-3.2-6.6-3.2-10.6c0-8.6,5-15.8,14.2-15.8c4.2,0,7.5,1.5,9.9,3.9l3-3.2L1257.8,739.3z M1251.1,744
		c-1.7-2.1-4.2-3.5-7.4-3.5c-7,0-10.5,6.4-10.5,12.8c0,2.8,0.6,5.5,2.1,7.8L1251.1,744z M1236.3,762.6c1.6,2,4.1,3.4,7.4,3.4
		c7,0,10.5-6.4,10.5-12.8c0-2.8-0.6-5.5-2-7.8L1236.3,762.6z"/>
	<path class="st1" d="M1289.6,768.3h-3.4v-5.7h-0.1c-1.6,3.9-6.3,6.6-10.7,6.6c-9.1,0-13.5-7.4-13.5-15.8c0-8.5,4.3-15.8,13.5-15.8
		c4.5,0,8.8,2.3,10.4,6.6h0.1v-17.2h3.7V768.3z M1275.4,766.1c7.8,0,10.5-6.6,10.5-12.8c0-6.2-2.7-12.8-10.5-12.8
		c-7,0-9.8,6.6-9.8,12.8C1265.6,759.5,1268.5,766.1,1275.4,766.1z"/>
</g>
<g class="st0">
	<path class="st1" d="M1204.1,442.9h4.4l16.2,41.4h-4.2l-5-12.9h-18.8l-5,12.9h-4.2L1204.1,442.9z M1197.8,468h16.3l-8-21.2
		L1197.8,468z"/>
	<path class="st1" d="M1227.9,442.9h3.7v41.4h-3.7V442.9z"/>
	<path class="st1" d="M1235.2,454.3h4.1l9.4,26.3h0.1l9.3-26.3h3.8l-11.2,29.9h-3.9L1235.2,454.3z"/>
	<path class="st1" d="M1292.2,469.3c0,8.6-5,15.8-14.2,15.8s-14.2-7.2-14.2-15.8s5-15.8,14.2-15.8S1292.2,460.7,1292.2,469.3z
		 M1267.5,469.3c0,6.4,3.5,12.8,10.5,12.8s10.5-6.4,10.5-12.8s-3.5-12.8-10.5-12.8S1267.5,462.9,1267.5,469.3z"/>
	<path class="st1" d="M1297.7,454.3h3.4v7h0.1c1.9-4.8,5.9-7.7,11.3-7.4v3.7c-6.6-0.3-11.1,4.5-11.1,10.7v15.9h-3.7V454.3z"/>
	<path class="st1" d="M1316,442.9h3.7v41.4h-3.7V442.9z"/>
	<path class="st1" d="M1326.7,442.9h3.7v5.9h-3.7V442.9z M1326.7,454.3h3.7v29.9h-3.7V454.3z"/>
	<path class="st1" d="M1362.7,481.8c-0.1,8.9-3.5,14.4-13.3,14.4c-6,0-11.9-2.7-12.4-9h3.7c0.8,4.4,4.7,6,8.8,6
		c6.7,0,9.6-4,9.6-11.3v-4.1h-0.1c-1.7,3.7-5.2,6.1-9.5,6.1c-9.6,0-13.5-6.8-13.5-15.4c0-8.2,4.9-15.1,13.5-15.1
		c4.3,0,8.1,2.7,9.5,6h0.1v-5.2h3.7V481.8z M1359,469c0-5.9-2.7-12.4-9.6-12.4c-7,0-9.9,6.2-9.9,12.4c0,6,3.1,11.9,9.9,11.9
		C1355.7,480.8,1359,475,1359,469z"/>
	<path class="st1" d="M1385.8,454.3h3.4v5.7h0.1c1.7-4.1,5.9-6.6,10.7-6.6c9.1,0,13.5,7.4,13.5,15.8s-4.3,15.8-13.5,15.8
		c-4.5,0-8.8-2.3-10.4-6.6h-0.1v16.8h-3.7V454.3z M1399.9,456.5c-8.1,0-10.5,6-10.5,12.8c0,6.2,2.7,12.8,10.5,12.8
		c7,0,9.8-6.6,9.8-12.8S1406.9,456.5,1399.9,456.5z"/>
	<path class="st1" d="M1421.2,470.3c0.1,5.3,2.8,11.8,9.9,11.8c5.3,0,8.2-3.1,9.4-7.7h3.7c-1.6,6.8-5.5,10.7-13,10.7
		c-9.5,0-13.5-7.3-13.5-15.8c0-7.9,4-15.8,13.5-15.8c9.6,0,13.5,8.4,13.2,16.8H1421.2z M1440.6,467.2c-0.2-5.5-3.6-10.7-9.5-10.7
		c-6,0-9.3,5.2-9.9,10.7H1440.6z"/>
	<path class="st1" d="M1449.1,454.3h3.4v7h0.1c1.9-4.8,5.9-7.7,11.3-7.4v3.7c-6.6-0.3-11.1,4.5-11.1,10.7v15.9h-3.7V454.3z"/>
	<path class="st1" d="M1485.3,463.1c-0.2-4.5-3.7-6.6-7.8-6.6c-3.2,0-7.1,1.3-7.1,5.2c0,3.2,3.7,4.4,6.2,5l4.9,1.1
		c4.2,0.6,8.5,3.1,8.5,8.3c0,6.5-6.4,9-12,9c-7,0-11.7-3.2-12.3-10.6h3.7c0.3,4.9,3.9,7.5,8.8,7.5c3.4,0,8.2-1.5,8.2-5.7
		c0-3.5-3.2-4.6-6.6-5.5l-4.7-1c-4.8-1.3-8.4-2.9-8.4-8c0-6.1,6-8.4,11.3-8.4c6,0,10.7,3.1,11,9.6H1485.3z"/>
	<path class="st1" d="M1522.1,469.3c0,8.6-5,15.8-14.2,15.8c-9.2,0-14.2-7.2-14.2-15.8s5-15.8,14.2-15.8
		C1517.1,453.5,1522.1,460.7,1522.1,469.3z M1497.5,469.3c0,6.4,3.5,12.8,10.5,12.8c7,0,10.5-6.4,10.5-12.8s-3.5-12.8-10.5-12.8
		C1500.9,456.5,1497.5,462.9,1497.5,469.3z"/>
	<path class="st1" d="M1527.5,454.3h3.7v5.2h0.1c1.3-3.6,5.3-6,9.6-6c8.4,0,11,4.4,11,11.5v19.3h-3.7v-18.7c0-5.2-1.7-9-7.6-9
		c-5.8,0-9.3,4.4-9.4,10.3v17.5h-3.7V454.3z"/>
	<path class="st1" d="M1576.6,463.1c-0.2-4.5-3.7-6.6-7.8-6.6c-3.2,0-7.1,1.3-7.1,5.2c0,3.2,3.7,4.4,6.2,5l4.9,1.1
		c4.2,0.6,8.5,3.1,8.5,8.3c0,6.5-6.4,9-12,9c-7,0-11.7-3.2-12.3-10.6h3.7c0.3,4.9,3.9,7.5,8.8,7.5c3.4,0,8.2-1.5,8.2-5.7
		c0-3.5-3.2-4.6-6.6-5.5l-4.7-1c-4.8-1.3-8.4-2.9-8.4-8c0-6.1,6-8.4,11.3-8.4c6,0,10.7,3.1,11,9.6H1576.6z"/>
	<path class="st1" d="M1586.6,442.9h3.7v26l16.6-14.5h4.9l-12.8,11.1l13.6,18.8h-4.6l-11.8-16.3l-5.9,4.9v11.4h-3.7V442.9z"/>
	<path class="st1" d="M1615.3,463.5c0.3-7,5.3-10,12.1-10c5.3,0,11,1.6,11,9.6V479c0,1.4,0.7,2.2,2.1,2.2c0.4,0,0.9-0.1,1.2-0.2v3.1
		c-0.8,0.2-1.4,0.2-2.4,0.2c-3.7,0-4.3-2.1-4.3-5.2h-0.1c-2.6,3.9-5.2,6.1-10.9,6.1c-5.5,0-10-2.7-10-8.8c0-8.4,8.2-8.7,16.1-9.6
		c3-0.3,4.7-0.8,4.7-4.1c0-4.9-3.5-6.1-7.8-6.1c-4.5,0-7.9,2.1-8,7H1615.3z M1634.7,467.9h-0.1c-0.5,0.9-2.1,1.2-3.1,1.3
		c-6.2,1.1-13.9,1-13.9,6.9c0,3.7,3.2,5.9,6.7,5.9c5.6,0,10.5-3.5,10.4-9.4V467.9z"/>
	<path class="st1" d="M1672,484.3h-3.4v-5.7h-0.1c-1.6,3.9-6.3,6.6-10.7,6.6c-9.1,0-13.5-7.4-13.5-15.8s4.3-15.8,13.5-15.8
		c4.5,0,8.8,2.3,10.4,6.6h0.1v-17.2h3.7V484.3z M1657.9,482.1c7.8,0,10.5-6.6,10.5-12.8s-2.7-12.8-10.5-12.8c-7,0-9.8,6.6-9.8,12.8
		S1650.9,482.1,1657.9,482.1z"/>
	<path class="st1" d="M1681.1,470.3c0.1,5.3,2.8,11.8,9.9,11.8c5.3,0,8.2-3.1,9.4-7.7h3.7c-1.6,6.8-5.5,10.7-13,10.7
		c-9.5,0-13.5-7.3-13.5-15.8c0-7.9,4-15.8,13.5-15.8c9.6,0,13.5,8.4,13.2,16.8H1681.1z M1700.5,467.2c-0.2-5.5-3.6-10.7-9.5-10.7
		c-6,0-9.3,5.2-9.9,10.7H1700.5z"/>
</g>
<g class="st0">
	<path class="st1" d="M1193.8,334.6c-0.2,8.5,6,11.1,13.5,11.1c4.3,0,11-2.4,11-8.4c0-4.7-4.7-6.6-8.5-7.5l-9.2-2.3
		c-4.9-1.2-9.3-3.5-9.3-10c0-4.1,2.6-11.7,14.3-11.7c8.2,0,15.4,4.4,15.3,12.9h-3.9c-0.2-6.3-5.5-9.5-11.3-9.5
		c-5.4,0-10.4,2.1-10.4,8.2c0,3.9,2.9,5.5,6.3,6.3l10.1,2.5c5.9,1.6,10.7,4.1,10.7,10.9c0,2.8-1.2,11.8-15.8,11.8
		c-9.8,0-17-4.4-16.5-14.5H1193.8z"/>
	<path class="st1" d="M1227.8,306.9h3.7v26l16.6-14.5h4.9l-12.8,11.1l13.6,18.8h-4.6l-11.8-16.3l-5.9,4.9v11.4h-3.7V306.9z"/>
	<path class="st1" d="M1256.5,327.5c0.3-7,5.3-10,12.1-10c5.3,0,11,1.6,11,9.6V343c0,1.4,0.7,2.2,2.1,2.2c0.4,0,0.9-0.1,1.2-0.2v3.1
		c-0.8,0.2-1.4,0.2-2.4,0.2c-3.7,0-4.3-2.1-4.3-5.2h-0.1c-2.6,3.9-5.2,6.1-10.9,6.1c-5.5,0-10-2.7-10-8.8c0-8.4,8.2-8.7,16.1-9.6
		c3-0.3,4.7-0.8,4.7-4.1c0-4.9-3.5-6.1-7.8-6.1c-4.5,0-7.9,2.1-8,7H1256.5z M1276,331.9h-0.1c-0.5,0.9-2.1,1.2-3.1,1.3
		c-6.2,1.1-13.9,1-13.9,6.9c0,3.7,3.2,5.9,6.7,5.9c5.6,0,10.5-3.5,10.4-9.4V331.9z"/>
	<path class="st1" d="M1313.3,348.3h-3.4v-5.7h-0.1c-1.6,3.9-6.3,6.6-10.7,6.6c-9.1,0-13.5-7.4-13.5-15.8s4.3-15.8,13.5-15.8
		c4.5,0,8.8,2.3,10.4,6.6h0.1v-17.2h3.7V348.3z M1299.1,346.1c7.8,0,10.5-6.6,10.5-12.8s-2.7-12.8-10.5-12.8c-7,0-9.8,6.6-9.8,12.8
		S1292.1,346.1,1299.1,346.1z"/>
	<path class="st1" d="M1322.4,334.3c0.1,5.3,2.8,11.8,9.9,11.8c5.3,0,8.2-3.1,9.4-7.7h3.7c-1.6,6.8-5.5,10.7-13,10.7
		c-9.5,0-13.5-7.3-13.5-15.8c0-7.9,4-15.8,13.5-15.8c9.6,0,13.5,8.4,13.2,16.8H1322.4z M1341.7,331.2c-0.2-5.5-3.6-10.7-9.5-10.7
		c-6,0-9.3,5.2-9.9,10.7H1341.7z"/>
	<path class="st1" d="M1384.4,327.1c-0.2-4.5-3.7-6.6-7.8-6.6c-3.2,0-7.1,1.3-7.1,5.2c0,3.2,3.7,4.4,6.2,5l4.9,1.1
		c4.2,0.6,8.5,3.1,8.5,8.3c0,6.5-6.4,9-12,9c-7,0-11.7-3.2-12.3-10.6h3.7c0.3,4.9,3.9,7.5,8.8,7.5c3.4,0,8.2-1.5,8.2-5.7
		c0-3.5-3.2-4.6-6.6-5.5l-4.7-1c-4.8-1.3-8.4-2.9-8.4-8c0-6.1,6-8.4,11.3-8.4c6,0,10.7,3.1,11,9.6H1384.4z"/>
	<path class="st1" d="M1421.1,333.3c0,8.6-5,15.8-14.2,15.8s-14.2-7.2-14.2-15.8s5-15.8,14.2-15.8S1421.1,324.7,1421.1,333.3z
		 M1396.5,333.3c0,6.4,3.5,12.8,10.5,12.8s10.5-6.4,10.5-12.8s-3.5-12.8-10.5-12.8S1396.5,326.9,1396.5,333.3z"/>
	<path class="st1" d="M1426.6,318.3h3.4v5h0.2c1.9-3.6,5-5.9,9.8-5.9c3.9,0,7.5,1.9,8.6,5.9c1.8-3.9,5.6-5.9,9.5-5.9
		c6.6,0,9.9,3.4,9.9,10.5v20.3h-3.7v-20.1c0-4.9-1.9-7.6-7.1-7.6c-6.3,0-8.1,5.2-8.1,10.8v16.9h-3.7V328c0.1-4.1-1.6-7.4-6.3-7.4
		c-6.3,0-8.9,4.8-8.9,11v16.7h-3.7V318.3z"/>
	<path class="st1" d="M1491,306.9h3.7v26l16.6-14.5h4.9l-12.8,11.1l13.6,18.8h-4.6l-11.8-16.3l-5.9,4.9v11.4h-3.7V306.9z"/>
	<path class="st1" d="M1520,318.3h3.4v7h0.1c1.9-4.8,5.9-7.7,11.3-7.4v3.7c-6.6-0.3-11.1,4.5-11.1,10.7v15.9h-3.7V318.3z"/>
	<path class="st1" d="M1539.4,334.3c0.1,5.3,2.8,11.8,9.9,11.8c5.3,0,8.2-3.1,9.4-7.7h3.7c-1.6,6.8-5.5,10.7-13,10.7
		c-9.5,0-13.5-7.3-13.5-15.8c0-7.9,4-15.8,13.5-15.8c9.6,0,13.5,8.4,13.2,16.8H1539.4z M1558.8,331.2c-0.2-5.5-3.6-10.7-9.5-10.7
		c-6,0-9.3,5.2-9.9,10.7H1558.8z"/>
	<path class="st1" d="M1564,318.3h4.1l9.4,26.3h0.1l9.3-26.3h3.8l-11.2,29.9h-3.9L1564,318.3z"/>
	<path class="st1" d="M1596.3,334.3c0.1,5.3,2.8,11.8,9.9,11.8c5.3,0,8.2-3.1,9.4-7.7h3.7c-1.6,6.8-5.5,10.7-13,10.7
		c-9.5,0-13.5-7.3-13.5-15.8c0-7.9,4-15.8,13.5-15.8c9.6,0,13.5,8.4,13.2,16.8H1596.3z M1615.7,331.2c-0.2-5.5-3.6-10.7-9.5-10.7
		c-6,0-9.3,5.2-9.9,10.7H1615.7z"/>
	<path class="st1" d="M1624.3,318.3h3.4v7h0.1c1.9-4.8,5.9-7.7,11.3-7.4v3.7c-6.6-0.3-11.1,4.5-11.1,10.7v15.9h-3.7V318.3z"/>
	<path class="st1" d="M1658.7,318.3h3.4v5h0.2c1.9-3.6,5-5.9,9.8-5.9c3.9,0,7.5,1.9,8.6,5.9c1.8-3.9,5.6-5.9,9.5-5.9
		c6.6,0,9.9,3.4,9.9,10.5v20.3h-3.7v-20.1c0-4.9-1.9-7.6-7.1-7.6c-6.3,0-8.1,5.2-8.1,10.8v16.9h-3.7V328c0.1-4.1-1.6-7.4-6.3-7.4
		c-6.3,0-8.9,4.8-8.9,11v16.7h-3.7V318.3z"/>
	<path class="st1" d="M1709.2,334.3c0.1,5.3,2.8,11.8,9.9,11.8c5.3,0,8.2-3.1,9.4-7.7h3.7c-1.6,6.8-5.5,10.7-13,10.7
		c-9.5,0-13.5-7.3-13.5-15.8c0-7.9,4-15.8,13.5-15.8c9.6,0,13.5,8.4,13.2,16.8H1709.2z M1728.5,331.2c-0.2-5.5-3.6-10.7-9.5-10.7
		c-6,0-9.3,5.2-9.9,10.7H1728.5z"/>
	<path class="st1" d="M1763.4,348.3h-3.4v-5.7h-0.1c-1.6,3.9-6.3,6.6-10.7,6.6c-9.1,0-13.5-7.4-13.5-15.8s4.3-15.8,13.5-15.8
		c4.5,0,8.8,2.3,10.4,6.6h0.1v-17.2h3.7V348.3z M1749.3,346.1c7.8,0,10.5-6.6,10.5-12.8s-2.7-12.8-10.5-12.8c-7,0-9.8,6.6-9.8,12.8
		S1742.3,346.1,1749.3,346.1z"/>
	<path class="st1" d="M1770.5,306.9h3.7v5.9h-3.7V306.9z M1770.5,318.3h3.7v29.9h-3.7V318.3z"/>
	<path class="st1" d="M1799.1,327.1c-0.2-4.5-3.7-6.6-7.8-6.6c-3.2,0-7.1,1.3-7.1,5.2c0,3.2,3.7,4.4,6.2,5l4.9,1.1
		c4.2,0.6,8.5,3.1,8.5,8.3c0,6.5-6.4,9-12,9c-7,0-11.7-3.2-12.3-10.6h3.7c0.3,4.9,3.9,7.5,8.8,7.5c3.4,0,8.2-1.5,8.2-5.7
		c0-3.5-3.2-4.6-6.6-5.5l-4.7-1c-4.8-1.3-8.4-2.9-8.4-8c0-6.1,6-8.4,11.3-8.4c6,0,10.7,3.1,11,9.6H1799.1z"/>
	<path class="st1" d="M1809.1,306.9h3.7v5.9h-3.7V306.9z M1809.1,318.3h3.7v29.9h-3.7V318.3z"/>
	<path class="st1" d="M1819.7,318.3h3.7v5.2h0.1c1.3-3.6,5.3-6,9.6-6c8.4,0,11,4.4,11,11.5v19.3h-3.7v-18.7c0-5.2-1.7-9-7.6-9
		c-5.8,0-9.3,4.4-9.4,10.3v17.5h-3.7V318.3z"/>
	<path class="st1" d="M1868.8,327.1c-0.2-4.5-3.7-6.6-7.8-6.6c-3.2,0-7.1,1.3-7.1,5.2c0,3.2,3.7,4.4,6.2,5l4.9,1.1
		c4.2,0.6,8.5,3.1,8.5,8.3c0,6.5-6.4,9-12,9c-7,0-11.7-3.2-12.3-10.6h3.7c0.3,4.9,3.9,7.5,8.8,7.5c3.4,0,8.2-1.5,8.2-5.7
		c0-3.5-3.2-4.6-6.6-5.5l-4.7-1c-4.8-1.3-8.4-2.9-8.4-8c0-6.1,6-8.4,11.3-8.4c6,0,10.7,3.1,11,9.6H1868.8z"/>
	<path class="st1" d="M1878.8,306.9h3.7v26l16.6-14.5h4.9l-12.8,11.1l13.6,18.8h-4.6l-11.8-16.3l-5.9,4.9v11.4h-3.7V306.9z"/>
	<path class="st1" d="M1923.9,306.9h3.7V324h0.1c1.6-4.3,5.9-6.6,10.4-6.6c9.1,0,13.5,7.4,13.5,15.8s-4.3,15.8-13.5,15.8
		c-4.8,0-9-2.5-10.7-6.6h-0.1v5.7h-3.4V306.9z M1938.1,320.5c-7.8,0-10.5,6.6-10.5,12.8s2.7,12.8,10.5,12.8c7,0,9.8-6.6,9.8-12.8
		S1945,320.5,1938.1,320.5z"/>
	<path class="st1" d="M1959.4,334.3c0.1,5.3,2.8,11.8,9.9,11.8c5.3,0,8.2-3.1,9.4-7.7h3.7c-1.6,6.8-5.5,10.7-13,10.7
		c-9.5,0-13.5-7.3-13.5-15.8c0-7.9,4-15.8,13.5-15.8c9.6,0,13.5,8.4,13.2,16.8H1959.4z M1978.7,331.2c-0.2-5.5-3.6-10.7-9.5-10.7
		c-6,0-9.3,5.2-9.9,10.7H1978.7z"/>
	<path class="st1" d="M1987.3,306.9h3.7v16.6h0.1c1.3-3.6,5.3-6,9.6-6c8.4,0,11,4.4,11,11.5v19.3h-3.7v-18.7c0-5.2-1.7-9-7.6-9
		c-5.8,0-9.3,4.4-9.4,10.3v17.5h-3.7V306.9z"/>
	<path class="st1" d="M2018.1,327.5c0.3-7,5.3-10,12.1-10c5.3,0,11,1.6,11,9.6V343c0,1.4,0.7,2.2,2.1,2.2c0.4,0,0.9-0.1,1.2-0.2v3.1
		c-0.8,0.2-1.4,0.2-2.4,0.2c-3.7,0-4.3-2.1-4.3-5.2h-0.1c-2.6,3.9-5.2,6.1-10.9,6.1c-5.5,0-10-2.7-10-8.8c0-8.4,8.2-8.7,16.1-9.6
		c3-0.3,4.7-0.8,4.7-4.1c0-4.9-3.5-6.1-7.8-6.1c-4.5,0-7.9,2.1-8,7H2018.1z M2037.6,331.9h-0.1c-0.5,0.9-2.1,1.2-3.1,1.3
		c-6.2,1.1-13.9,1-13.9,6.9c0,3.7,3.2,5.9,6.7,5.9c5.6,0,10.5-3.5,10.4-9.4V331.9z"/>
	<path class="st1" d="M2048.5,318.3h3.7v5.2h0.1c1.3-3.6,5.3-6,9.6-6c8.4,0,11,4.4,11,11.5v19.3h-3.7v-18.7c0-5.2-1.7-9-7.6-9
		c-5.8,0-9.3,4.4-9.4,10.3v17.5h-3.7V318.3z"/>
	<path class="st1" d="M2106,348.3h-3.4v-5.7h-0.1c-1.6,3.9-6.3,6.6-10.7,6.6c-9.1,0-13.5-7.4-13.5-15.8s4.3-15.8,13.5-15.8
		c4.5,0,8.8,2.3,10.4,6.6h0.1v-17.2h3.7V348.3z M2091.9,346.1c7.8,0,10.5-6.6,10.5-12.8s-2.7-12.8-10.5-12.8c-7,0-9.8,6.6-9.8,12.8
		S2084.9,346.1,2091.9,346.1z"/>
	<path class="st1" d="M2113.1,306.9h3.7v41.4h-3.7V306.9z"/>
	<path class="st1" d="M2123.8,306.9h3.7v5.9h-3.7V306.9z M2123.8,318.3h3.7v29.9h-3.7V318.3z"/>
	<path class="st1" d="M2134.4,318.3h3.7v5.2h0.1c1.3-3.6,5.3-6,9.6-6c8.4,0,11,4.4,11,11.5v19.3h-3.7v-18.7c0-5.2-1.7-9-7.6-9
		c-5.8,0-9.3,4.4-9.4,10.3v17.5h-3.7V318.3z"/>
	<path class="st1" d="M2190.9,345.8c-0.1,8.9-3.5,14.4-13.3,14.4c-6,0-11.9-2.7-12.4-9h3.7c0.8,4.4,4.7,6,8.8,6
		c6.7,0,9.6-4,9.6-11.3v-4.1h-0.1c-1.7,3.7-5.2,6.1-9.5,6.1c-9.6,0-13.5-6.8-13.5-15.4c0-8.2,4.9-15.1,13.5-15.1
		c4.4,0,8.1,2.7,9.5,6h0.1v-5.2h3.7V345.8z M2187.2,333c0-5.9-2.7-12.4-9.6-12.4c-7,0-9.9,6.2-9.9,12.4c0,6,3.1,11.9,9.9,11.9
		C2183.9,344.8,2187.2,339,2187.2,333z"/>
</g>
<g>
	<g class="st0">
		<path class="st1" d="M632.2,31.6h6.5v13.3l11.5-13.3h8.1l-11.5,12.7l12.6,19.4h-8.1l-8.9-14.4l-3.7,4.1v10.3h-6.5V31.6z"/>
		<path class="st1" d="M676.8,30.8c9.1,0,14.5,7.4,14.5,17c0,9.3-5.4,16.7-14.5,16.7c-9.1,0-14.5-7.4-14.5-16.7
			C662.3,38.3,667.6,30.8,676.8,30.8z M676.8,58.6c5.8,0,8-5.4,8-10.8c0-5.6-2.2-11-8-11s-8,5.4-8,11
			C668.8,53.2,670.9,58.6,676.8,58.6z"/>
		<path class="st1" d="M697.3,31.6h6.4L716,53.2h0.1V31.6h6.1v32.1h-6.5l-12.2-21.5h-0.1v21.5h-6.1V31.6z"/>
		<path class="st1" d="M733.9,53.1c0,4.3,3.1,5.9,6.5,5.9c2.3,0,5.7-0.7,5.7-4c0-3.5-4.4-4-8.7-5.3c-4.4-1.3-8.8-3.1-8.8-9.1
			c0-6.6,5.7-9.7,11-9.7c6.1,0,11.8,2.9,11.8,10.3h-6.3c-0.2-3.9-2.7-4.9-5.8-4.9c-2.1,0-4.5,0.9-4.5,3.6c0,2.5,1.4,2.8,8.8,4.9
			c2.1,0.6,8.7,2.1,8.7,9.4c0,5.9-4.2,10.3-12.2,10.3c-6.5,0-12.6-3.5-12.5-11.4H733.9z"/>
		<path class="st1" d="M757.8,31.6h22v5.9h-15.5v6.9h14.3v5.5h-14.3v7.9h15.9v5.9h-22.4V31.6z"/>
		<path class="st1" d="M786.2,31.6h6.5v13.3l11.5-13.3h8.1l-11.5,12.7l12.6,19.4h-8.1l-8.9-14.4l-3.7,4.1v10.3h-6.5V31.6z"/>
		<path class="st1" d="M831.2,63.7h-7.3l-9.6-32.1h6.7l6.6,22.6h0.1l6.6-22.6h6.7L831.2,63.7z"/>
		<path class="st1" d="M845.2,31.6h22v5.9h-15.5v6.9h14.3v5.5h-14.3v7.9h15.9v5.9h-22.4V31.6z"/>
		<path class="st1" d="M873.5,31.6h6.4l12.3,21.6h0.1V31.6h6.1v32.1h-6.5l-12.2-21.5h-0.1v21.5h-6.1V31.6z"/>
		<path class="st1" d="M910.1,53.1c0,4.3,3.1,5.9,6.5,5.9c2.3,0,5.7-0.7,5.7-4c0-3.5-4.4-4-8.7-5.3c-4.4-1.3-8.8-3.1-8.8-9.1
			c0-6.6,5.7-9.7,11-9.7c6.1,0,11.8,2.9,11.8,10.3h-6.3c-0.2-3.9-2.7-4.9-5.8-4.9c-2.1,0-4.5,0.9-4.5,3.6c0,2.5,1.4,2.8,8.8,4.9
			c2.1,0.6,8.7,2.1,8.7,9.4c0,5.9-4.2,10.3-12.2,10.3c-6.5,0-12.6-3.5-12.5-11.4H910.1z"/>
	</g>
</g>
<g class="st0">
	<path class="st1" d="M1190.6,31.6h9.1l6.9,22.1h0.1l6.5-22.1h9.1v32.1h-6.1V41h-0.1l-7.2,22.8h-5l-7.2-22.5h-0.1v22.5h-6.1V31.6z"
		/>
	<path class="st1" d="M1229.7,31.6h22v5.9h-15.5v6.9h14.3v5.5h-14.3v7.9h15.9v5.9h-22.4V31.6z"/>
	<path class="st1" d="M1258,31.6h6.4l12.3,21.6h0.1V31.6h6.1v32.1h-6.5l-12.2-21.5h-0.1v21.5h-6.1V31.6z"/>
	<path class="st1" d="M1290.2,31.6h6.4l12.3,21.6h0.1V31.6h6.1v32.1h-6.5l-12.2-21.5h-0.1v21.5h-6.1V31.6z"/>
	<path class="st1" d="M1322.4,31.6h22v5.9h-15.5v6.9h14.3v5.5h-14.3v7.9h15.9v5.9h-22.4V31.6z"/>
	<path class="st1" d="M1355.1,53.1c0,4.3,3.1,5.9,6.5,5.9c2.3,0,5.7-0.7,5.7-4c0-3.5-4.4-4-8.7-5.3c-4.4-1.3-8.8-3.1-8.8-9.1
		c0-6.6,5.7-9.7,11-9.7c6.1,0,11.8,2.9,11.8,10.3h-6.3c-0.2-3.9-2.7-4.9-5.8-4.9c-2.1,0-4.5,0.9-4.5,3.6c0,2.5,1.4,2.8,8.8,4.9
		c2.1,0.6,8.7,2.1,8.7,9.4c0,5.9-4.2,10.3-12.2,10.3c-6.5,0-12.6-3.5-12.5-11.4H1355.1z"/>
	<path class="st1" d="M1379.1,31.6h6.5v13.3l11.5-13.3h8.1l-11.5,12.7l12.6,19.4h-8.1l-8.9-14.4l-3.7,4.1v10.3h-6.5V31.6z"/>
	<path class="st1" d="M1410.5,31.6h22v5.9h-15.5v6.9h14.3v5.5h-14.3v7.9h15.9v5.9h-22.4V31.6z"/>
</g>
<g class="st0">
	<path class="st1" d="M635.4,192.6c-0.2,8.5,6,11.1,13.5,11.1c4.3,0,11-2.4,11-8.4c0-4.7-4.7-6.6-8.5-7.5l-9.2-2.3
		c-4.9-1.2-9.3-3.5-9.3-10c0-4.1,2.6-11.7,14.3-11.7c8.2,0,15.4,4.4,15.3,12.9h-3.9c-0.2-6.3-5.5-9.5-11.3-9.5
		c-5.4,0-10.4,2.1-10.4,8.2c0,3.9,2.9,5.5,6.3,6.3l10.1,2.5c5.9,1.6,10.7,4.1,10.7,10.9c0,2.8-1.2,11.8-15.8,11.8
		c-9.8,0-17-4.4-16.5-14.5H635.4z"/>
	<path class="st1" d="M666,176.3h4.1l9.4,26.3h0.1l9.3-26.3h3.8l-11.2,29.9h-3.9L666,176.3z"/>
	<path class="st1" d="M719,192.3c-0.4,6.4,2.7,11.8,9.7,11.8c4.9,0,7.8-2.8,8.9-7.5h3.7c-1.5,6.7-6.1,10.6-13,10.6
		c-5.3,0-9.2-2.6-11-7.5h-0.1c-0.9,5-7.3,7.5-12.5,7.5c-5.5,0-10-2.7-10-8.8c0-8.4,8.2-8.7,16.1-9.6c3-0.3,4.7-0.8,4.7-4.1
		c0-4.9-3.5-6.1-7.8-6.1c-4.5,0-7.9,2.1-8,7h-3.7c0.3-7,5.3-10,12.1-10c4.1,0,9.3,1.1,10,6.2h0.1c1.6-4.2,6.1-6.2,10.5-6.2
		c9.9,0,12.9,8.1,12.9,16.8H719z M715.3,189.9h-0.1c-0.5,0.9-2.1,1.2-3.1,1.3c-6.2,1.1-13.9,1-13.9,6.9c0,3.7,3.2,5.9,6.7,5.9
		c5.6,0,10.5-3.5,10.4-9.4V189.9z M737.8,189.2c0-5.5-3.7-10.7-9.5-10.7c-6.1,0-9.5,5-9.4,10.7H737.8z"/>
	<path class="st1" d="M746.7,176.3h3.4v7h0.1c1.9-4.8,5.9-7.7,11.3-7.4v3.7c-6.6-0.3-11.1,4.5-11.1,10.7v15.9h-3.7V176.3z"/>
	<path class="st1" d="M770.7,176.3h6.1v3.1h-6.1v20.2c0,2.4,0.3,3.8,3,3.9c1,0,2.1-0.1,3.1-0.2v3.1c-1.1,0-2.1,0.1-3.2,0.1
		c-4.9,0-6.6-1.6-6.5-6.7v-20.5h-5.2v-3.1h5.2v-9h3.7V176.3z"/>
	<path class="st1" d="M798.3,164.9h3.7v41.4h-3.7V164.9z"/>
	<path class="st1" d="M809,164.9h3.7v5.9H809V164.9z M809,176.3h3.7v29.9H809V176.3z"/>
	<path class="st1" d="M825.5,176.3h6.1v3.1h-6.1v20.2c0,2.4,0.3,3.8,3,3.9c1,0,2.1-0.1,3.1-0.2v3.1c-1.1,0-2.1,0.1-3.2,0.1
		c-4.9,0-6.6-1.6-6.5-6.7v-20.5h-5.2v-3.1h5.2v-9h3.7V176.3z"/>
	<path class="st1" d="M839,192.3c0.1,5.3,2.8,11.8,9.9,11.8c5.3,0,8.2-3.1,9.4-7.7h3.7c-1.6,6.8-5.5,10.7-13,10.7
		c-9.5,0-13.5-7.3-13.5-15.8c0-7.9,4-15.8,13.5-15.8c9.6,0,13.5,8.4,13.2,16.8H839z M858.4,189.2c-0.2-5.5-3.6-10.7-9.5-10.7
		c-6,0-9.3,5.2-9.9,10.7H858.4z"/>
	<path class="st1" d="M866.9,176.3h3.7v5.2h0.1c1.3-3.6,5.3-6,9.6-6c8.4,0,11,4.4,11,11.5v19.3h-3.7v-18.7c0-5.2-1.7-9-7.6-9
		c-5.8,0-9.3,4.4-9.4,10.3v17.5h-3.7V176.3z"/>
</g>
<g class="st0">
	<path class="st1" d="M1193.8,192.6c-0.2,8.5,6,11.1,13.5,11.1c4.3,0,11-2.4,11-8.4c0-4.7-4.7-6.6-8.5-7.5l-9.2-2.3
		c-4.9-1.2-9.3-3.5-9.3-10c0-4.1,2.6-11.7,14.3-11.7c8.2,0,15.4,4.4,15.3,12.9h-3.9c-0.2-6.3-5.5-9.5-11.3-9.5
		c-5.4,0-10.4,2.1-10.4,8.2c0,3.9,2.9,5.5,6.3,6.3l10.1,2.5c5.9,1.6,10.7,4.1,10.7,10.9c0,2.8-1.2,11.8-15.8,11.8
		c-9.8,0-17-4.4-16.5-14.5H1193.8z"/>
	<path class="st1" d="M1227.8,164.9h3.7v26l16.6-14.5h4.9l-12.8,11.1l13.6,18.8h-4.6l-11.8-16.3l-5.9,4.9v11.4h-3.7V164.9z"/>
	<path class="st1" d="M1256.5,185.5c0.3-7,5.3-10,12.1-10c5.3,0,11,1.6,11,9.6V201c0,1.4,0.7,2.2,2.1,2.2c0.4,0,0.9-0.1,1.2-0.2v3.1
		c-0.8,0.2-1.4,0.2-2.4,0.2c-3.7,0-4.3-2.1-4.3-5.2h-0.1c-2.6,3.9-5.2,6.1-10.9,6.1c-5.5,0-10-2.7-10-8.8c0-8.4,8.2-8.7,16.1-9.6
		c3-0.3,4.7-0.8,4.7-4.1c0-4.9-3.5-6.1-7.8-6.1c-4.5,0-7.9,2.1-8,7H1256.5z M1276,189.9h-0.1c-0.5,0.9-2.1,1.2-3.1,1.3
		c-6.2,1.1-13.9,1-13.9,6.9c0,3.7,3.2,5.9,6.7,5.9c5.6,0,10.5-3.5,10.4-9.4V189.9z"/>
	<path class="st1" d="M1313.3,206.3h-3.4v-5.7h-0.1c-1.6,3.9-6.3,6.6-10.7,6.6c-9.1,0-13.5-7.4-13.5-15.8s4.3-15.8,13.5-15.8
		c4.5,0,8.8,2.3,10.4,6.6h0.1v-17.2h3.7V206.3z M1299.1,204.1c7.8,0,10.5-6.6,10.5-12.8s-2.7-12.8-10.5-12.8c-7,0-9.8,6.6-9.8,12.8
		S1292.1,204.1,1299.1,204.1z"/>
	<path class="st1" d="M1322.4,192.3c0.1,5.3,2.8,11.8,9.9,11.8c5.3,0,8.2-3.1,9.4-7.7h3.7c-1.6,6.8-5.5,10.7-13,10.7
		c-9.5,0-13.5-7.3-13.5-15.8c0-7.9,4-15.8,13.5-15.8c9.6,0,13.5,8.4,13.2,16.8H1322.4z M1341.7,189.2c-0.2-5.5-3.6-10.7-9.5-10.7
		c-6,0-9.3,5.2-9.9,10.7H1341.7z"/>
	<path class="st1" d="M1384.4,185.1c-0.2-4.5-3.7-6.6-7.8-6.6c-3.2,0-7.1,1.3-7.1,5.2c0,3.2,3.7,4.4,6.2,5l4.9,1.1
		c4.2,0.6,8.5,3.1,8.5,8.3c0,6.5-6.4,9-12,9c-7,0-11.7-3.2-12.3-10.6h3.7c0.3,4.9,3.9,7.5,8.8,7.5c3.4,0,8.2-1.5,8.2-5.7
		c0-3.5-3.2-4.6-6.6-5.5l-4.7-1c-4.8-1.3-8.4-2.9-8.4-8c0-6.1,6-8.4,11.3-8.4c6,0,10.7,3.1,11,9.6H1384.4z"/>
	<path class="st1" d="M1421.1,191.3c0,8.6-5,15.8-14.2,15.8s-14.2-7.2-14.2-15.8s5-15.8,14.2-15.8S1421.1,182.7,1421.1,191.3z
		 M1396.5,191.3c0,6.4,3.5,12.8,10.5,12.8s10.5-6.4,10.5-12.8s-3.5-12.8-10.5-12.8S1396.5,184.9,1396.5,191.3z"/>
	<path class="st1" d="M1426.6,176.3h3.4v5h0.2c1.9-3.6,5-5.9,9.8-5.9c3.9,0,7.5,1.9,8.6,5.9c1.8-3.9,5.6-5.9,9.5-5.9
		c6.6,0,9.9,3.4,9.9,10.5v20.3h-3.7v-20.1c0-4.9-1.9-7.6-7.1-7.6c-6.3,0-8.1,5.2-8.1,10.8v16.9h-3.7V186c0.1-4.1-1.6-7.4-6.3-7.4
		c-6.3,0-8.9,4.8-8.9,11v16.7h-3.7V176.3z"/>
	<path class="st1" d="M1491,164.9h3.7v26l16.6-14.5h4.9l-12.8,11.1l13.6,18.8h-4.6l-11.8-16.3l-5.9,4.9v11.4h-3.7V164.9z"/>
	<path class="st1" d="M1520,176.3h3.4v7h0.1c1.9-4.8,5.9-7.7,11.3-7.4v3.7c-6.6-0.3-11.1,4.5-11.1,10.7v15.9h-3.7V176.3z"/>
	<path class="st1" d="M1539.4,192.3c0.1,5.3,2.8,11.8,9.9,11.8c5.3,0,8.2-3.1,9.4-7.7h3.7c-1.6,6.8-5.5,10.7-13,10.7
		c-9.5,0-13.5-7.3-13.5-15.8c0-7.9,4-15.8,13.5-15.8c9.6,0,13.5,8.4,13.2,16.8H1539.4z M1558.8,189.2c-0.2-5.5-3.6-10.7-9.5-10.7
		c-6,0-9.3,5.2-9.9,10.7H1558.8z"/>
	<path class="st1" d="M1564,176.3h4.1l9.4,26.3h0.1l9.3-26.3h3.8l-11.2,29.9h-3.9L1564,176.3z"/>
	<path class="st1" d="M1596.3,192.3c0.1,5.3,2.8,11.8,9.9,11.8c5.3,0,8.2-3.1,9.4-7.7h3.7c-1.6,6.8-5.5,10.7-13,10.7
		c-9.5,0-13.5-7.3-13.5-15.8c0-7.9,4-15.8,13.5-15.8c9.6,0,13.5,8.4,13.2,16.8H1596.3z M1615.7,189.2c-0.2-5.5-3.6-10.7-9.5-10.7
		c-6,0-9.3,5.2-9.9,10.7H1615.7z"/>
	<path class="st1" d="M1624.3,176.3h3.4v7h0.1c1.9-4.8,5.9-7.7,11.3-7.4v3.7c-6.6-0.3-11.1,4.5-11.1,10.7v15.9h-3.7V176.3z"/>
	<path class="st1" d="M1670.2,179.4h-5.9v26.9h-3.7v-26.9h-5.1v-3.1h5.1v-2.7c-0.1-5.2,1.4-8.8,7.2-8.8c1,0,1.9,0.1,3.1,0.2v3.1
		c-1-0.2-1.8-0.3-2.7-0.3c-4.1,0-3.9,2.6-4,5.8v2.6h5.9V179.4z"/>
	<path class="st1" d="M1700.5,177.3l-3.1,3.4c2.1,2.9,3.1,6.6,3.1,10.6c0,8.6-5,15.8-14.2,15.8c-4.1,0-7.4-1.5-9.7-3.9l-3.4,3.7
		l-1.3-1.2l3.5-3.9c-2.1-2.8-3.2-6.6-3.2-10.6c0-8.6,5-15.8,14.2-15.8c4.2,0,7.5,1.5,9.9,3.9l3-3.2L1700.5,177.3z M1693.8,182
		c-1.7-2.1-4.2-3.5-7.4-3.5c-7,0-10.5,6.4-10.5,12.8c0,2.8,0.6,5.5,2.1,7.8L1693.8,182z M1679,200.6c1.6,2,4.1,3.4,7.4,3.4
		c7,0,10.5-6.4,10.5-12.8c0-2.8-0.6-5.5-2-7.8L1679,200.6z"/>
	<path class="st1" d="M1706,176.3h3.4v7h0.1c1.9-4.8,5.9-7.7,11.3-7.4v3.7c-6.6-0.3-11.1,4.5-11.1,10.7v15.9h-3.7V176.3z"/>
	<path class="st1" d="M1742.2,185.1c-0.2-4.5-3.7-6.6-7.8-6.6c-3.2,0-7.1,1.3-7.1,5.2c0,3.2,3.7,4.4,6.2,5l4.9,1.1
		c4.2,0.6,8.5,3.1,8.5,8.3c0,6.5-6.4,9-12,9c-7,0-11.7-3.2-12.3-10.6h3.7c0.3,4.9,3.9,7.5,8.8,7.5c3.4,0,8.2-1.5,8.2-5.7
		c0-3.5-3.2-4.6-6.6-5.5l-4.7-1c-4.8-1.3-8.4-2.9-8.4-8c0-6.1,6-8.4,11.3-8.4c6,0,10.7,3.1,11,9.6H1742.2z"/>
	<path class="st1" d="M1757.9,176.3h6.1v3.1h-6.1v20.2c0,2.4,0.3,3.8,3,3.9c1,0,2.1-0.1,3.1-0.2v3.1c-1.1,0-2.1,0.1-3.2,0.1
		c-4.9,0-6.6-1.6-6.5-6.7v-20.5h-5.2v-3.1h5.2v-9h3.7V176.3z"/>
	<path class="st1" d="M1771.4,192.3c0.1,5.3,2.8,11.8,9.9,11.8c5.3,0,8.2-3.1,9.4-7.7h3.7c-1.6,6.8-5.5,10.7-13,10.7
		c-9.5,0-13.5-7.3-13.5-15.8c0-7.9,4-15.8,13.5-15.8c9.6,0,13.5,8.4,13.2,16.8H1771.4z M1790.8,189.2c-0.2-5.5-3.6-10.7-9.5-10.7
		c-6,0-9.3,5.2-9.9,10.7H1790.8z"/>
	<path class="st1" d="M1799.3,164.9h3.7v16.6h0.1c1.3-3.6,5.3-6,9.6-6c8.4,0,11,4.4,11,11.5v19.3h-3.7v-18.7c0-5.2-1.7-9-7.6-9
		c-5.8,0-9.3,4.4-9.4,10.3v17.5h-3.7V164.9z"/>
	<path class="st1" d="M1830.6,176.3h3.7v32.7c0,4.5-1.2,8.3-6.4,8.3c-0.9,0-1.7-0.1-2.6-0.1v-3c0.6,0.1,1.4,0.1,2,0.1
		c2.8,0,3.3-1.9,3.3-4.3V176.3z M1830.6,164.9h3.7v5.9h-3.7V164.9z"/>
	<path class="st1" d="M1843.4,192.3c0.1,5.3,2.8,11.8,9.9,11.8c5.3,0,8.2-3.1,9.4-7.7h3.7c-1.6,6.8-5.5,10.7-13,10.7
		c-9.5,0-13.5-7.3-13.5-15.8c0-7.9,4-15.8,13.5-15.8c9.6,0,13.5,8.4,13.2,16.8H1843.4z M1862.8,189.2c-0.2-5.5-3.6-10.7-9.5-10.7
		c-6,0-9.3,5.2-9.9,10.7H1862.8z"/>
	<path class="st1" d="M1871.4,164.9h3.7v41.4h-3.7V164.9z"/>
	<path class="st1" d="M1882.1,176.3h3.4v5.7h0.1c1.7-4.1,5.9-6.6,10.7-6.6c9.1,0,13.5,7.4,13.5,15.8s-4.3,15.8-13.5,15.8
		c-4.5,0-8.8-2.3-10.4-6.6h-0.1v16.8h-3.7V176.3z M1896.3,178.5c-8.1,0-10.5,6-10.5,12.8c0,6.2,2.7,12.8,10.5,12.8
		c7,0,9.8-6.6,9.8-12.8S1903.2,178.5,1896.3,178.5z"/>
</g>
<line class="st2" x1="466" y1="111.4" x2="2196" y2="111.4"/>
<line class="st2" x1="466" y1="251.4" x2="2196" y2="251.4"/>
<line class="st2" x1="466" y1="391.4" x2="2196" y2="391.4"/>
<line class="st2" x1="466" y1="531.4" x2="2196" y2="531.4"/>
<line class="st2" x1="466" y1="671.4" x2="2196" y2="671.4"/>
<line class="st2" x1="466" y1="811.4" x2="2196" y2="811.4"/>
<line class="st2" x1="466" y1="251.4" x2="2196" y2="251.4"/>
</svg>
