<?xml version="1.0" encoding="utf-8"?>
<!-- Generator: Adobe Illustrator 19.1.0, SVG Export Plug-In . SVG Version: 6.00 Build 0)  -->
<svg version="1.1" id="Layer_1" xmlns="http://www.w3.org/2000/svg" xmlns:xlink="http://www.w3.org/1999/xlink" x="0px" y="0px"
	 viewBox="391 17.4 1825 859" style="enable-background:new 391 17.4 1825 859;" xml:space="preserve">
<style type="text/css">
	.st0{fill:#231F20;}
	.st1{font-family:'HelveticaNeueLTStd-Md';}
	.st2{font-size:58px;}
	.st3{font-family:'HelveticaNeueLTStd-Lt';}
	.st4{font-family:'HelveticaNeueLTStd-Bd';}
	.st5{font-size:45px;}
	.st6{letter-spacing:1.1;}
	.st7{fill:none;stroke:#000000;stroke-width:2;stroke-miterlimit:10;}
</style>
<g>
	<text transform="matrix(1 0 0 1 499.8401 629.7208)" class="st0 st1 st2">4</text>
</g>
<g>
	<text transform="matrix(1 0 0 1 499.8401 767.7208)" class="st0 st1 st2">5</text>
</g>
<g>
	<text transform="matrix(1 0 0 1 499.8401 483.7208)" class="st0 st1 st2">3</text>
</g>
<g>
	<text transform="matrix(1 0 0 1 499.8401 347.7208)" class="st0 st1 st2">2</text>
</g>
<g>
	<text transform="matrix(1 0 0 1 499.8401 205.7213)" class="st0 st1 st2">1</text>
</g>
<text transform="matrix(1 0 0 1 649.3254 630.2657)" class="st0 st3 st2">Stor</text>
<text transform="matrix(1 0 0 1 649.3254 768.2657)" class="st0 st3 st2">Svært stor</text>
<text transform="matrix(1 0 0 1 649.3254 484.2657)" class="st0 st3 st2">Middels</text>
<text transform="matrix(1 0 0 1 649.3254 348.2657)" class="st0 st3 st2">Liten</text>
<text transform="matrix(1 0 0 1 1207.8 630.2657)" class="st0 st3 st2">Alvorlig personskade, mulig uførhet</text>
<text transform="matrix(1 0 0 1 1207.8 768.2657)" class="st0 st3 st2">Død</text>
<text transform="matrix(1 0 0 1 1207.8 484.2657)" class="st0 st3 st2">Alvorlig personskade</text>
<text transform="matrix(1 0 0 1 1207.8 348.2657)" class="st0 st3 st2">Skade som krever medisinsk behandling</text>
<g>
	<text transform="matrix(0.9167 0 0 1 649.3254 63.7281)" class="st0 st4 st5 st6">KONSEKVENS</text>
</g>
<text transform="matrix(0.9167 0 0 1 1207.8 63.7281)" class="st0 st4 st5 st6">MENNESKE</text>
<text transform="matrix(1 0 0 1 649.3254 206.2662)" class="st0 st3 st2">Svært liten</text>
<text transform="matrix(1 0 0 1 1207.8 206.2662)" class="st0 st3 st2">Skade som krever førstehjelp</text>
<line class="st7" x1="486" y1="111.4" x2="2216" y2="111.4"/>
<line class="st7" x1="486" y1="251.4" x2="2216" y2="251.4"/>
<line class="st7" x1="486" y1="391.4" x2="2216" y2="391.4"/>
<line class="st7" x1="486" y1="531.4" x2="2216" y2="531.4"/>
<line class="st7" x1="486" y1="671.4" x2="2216" y2="671.4"/>
<line class="st7" x1="486" y1="811.4" x2="2216" y2="811.4"/>
<line class="st7" x1="486" y1="251.4" x2="2216" y2="251.4"/>
</svg>
