<?xml version="1.0" encoding="utf-8"?>
<!-- Generator: Adobe Illustrator 19.1.0, SVG Export Plug-In . SVG Version: 6.00 Build 0)  -->
<svg version="1.1" id="Layer_1" xmlns="http://www.w3.org/2000/svg" xmlns:xlink="http://www.w3.org/1999/xlink" x="0px" y="0px"
	 viewBox="190 17.4 1532 833" style="enable-background:new 190 17.4 1532 833;" xml:space="preserve">
<style type="text/css">
	.st0{fill:#231F20;}
	.st1{font-family:'HelveticaNeueLTStd-Md';}
	.st2{font-size:58px;}
	.st3{font-family:'HelveticaNeueLTStd-Lt';}
	.st4{font-family:'HelveticaNeueLTStd-Bd';}
	.st5{font-size:45px;}
	.st6{letter-spacing:1.1;}
	.st7{fill:none;stroke:#000000;stroke-width:2;stroke-miterlimit:10;}
</style>
<g>
	<text transform="matrix(1 0 0 1 300 609.7208)" class="st0 st1 st2">4</text>
</g>
<g>
	<text transform="matrix(1 0 0 1 300 747.7208)" class="st0 st1 st2">5</text>
</g>
<g>
	<text transform="matrix(1 0 0 1 300 463.7208)" class="st0 st1 st2">3</text>
</g>
<g>
	<text transform="matrix(1 0 0 1 300 327.7208)" class="st0 st1 st2">2</text>
</g>
<g>
	<text transform="matrix(1 0 0 1 300 185.7213)" class="st0 st1 st2">1</text>
</g>
<text transform="matrix(1 0 0 1 449.4854 610.2657)" class="st0 st3 st2">Stor</text>
<text transform="matrix(1 0 0 1 449.4854 748.2657)" class="st0 st3 st2">Svært stor</text>
<text transform="matrix(1 0 0 1 449.4854 464.2657)" class="st0 st3 st2">Middels</text>
<text transform="matrix(1 0 0 1 449.4854 328.2657)" class="st0 st3 st2">Liten</text>
<text transform="matrix(1 0 0 1 1007.96 610.2657)" class="st0 st3 st2">1x per mnd eller oftere</text>
<text transform="matrix(1 0 0 1 1007.96 748.2657)" class="st0 st3 st2">Skjer ukentlig</text>
<text transform="matrix(1 0 0 1 1007.96 464.2657)" class="st0 st3 st2">&lt; 1x per år eller sjeldnere</text>
<text transform="matrix(1 0 0 1 1007.96 328.2657)" class="st0 st3 st2">&lt; 1x per 10 år eller sjeldnere</text>
<g>
	<text transform="matrix(0.9167 0 0 1 449.4854 53.7281)" class="st0 st4 st5 st6">SANNSYNLIGHET</text>
</g>
<text transform="matrix(0.9167 0 0 1 1007.96 53.7281)" class="st0 st4 st5 st6">SPESIFISERING</text>
<text transform="matrix(1 0 0 1 449.4854 186.2662)" class="st0 st3 st2">Svært liten</text>
<text transform="matrix(1 0 0 1 1007.96 186.2662)" class="st0 st3 st2">&lt; 1x per 50 år eller sjeldnere</text>
<line class="st7" x1="282" y1="98.7" x2="1722" y2="98.7"/>
<line class="st7" x1="282" y1="238.7" x2="1722" y2="238.7"/>
<line class="st7" x1="282" y1="378.7" x2="1722" y2="378.7"/>
<line class="st7" x1="282" y1="518.7" x2="1722" y2="518.7"/>
<line class="st7" x1="282" y1="658.7" x2="1722" y2="658.7"/>
<line class="st7" x1="282" y1="798.7" x2="1722" y2="798.7"/>
<line class="st7" x1="282" y1="238.7" x2="1722" y2="238.7"/>
</svg>
