<?xml version="1.0" encoding="utf-8"?>
<!-- Generator: Adobe Illustrator 18.1.1, SVG Export Plug-In . SVG Version: 6.00 Build 0)  -->
<svg version="1.1" id="Layer_1" xmlns="http://www.w3.org/2000/svg" xmlns:xlink="http://www.w3.org/1999/xlink" x="0px" y="0px"
     viewBox="-392 270.3 56 56" enable-background="new -392 270.3 56 56" xml:space="preserve">
<g id="_x37_46-plus-circle_x40_2x.png">
	<g>
		<path d="M-363,299.3h13c0.6,0,1-0.4,1-1s-0.4-1-1-1h-13 M-355,297.3h-23c-0.6,0-1,0.4-1,1s0.4,1,1,1h23 M-364,270.3
			c-15.5,0-28,12.5-28,28s12.5,28,28,28s28-12.5,28-28S-348.5,270.3-364,270.3z M-364,324.3c-14.4,0-26-11.6-26-26s11.6-26,26-26
			s26,11.6,26,26S-349.6,324.3-364,324.3z"/>
	</g>
</g>
</svg>
