<?xml version="1.0" encoding="utf-8"?>
<!-- Generator: Adobe Illustrator 18.1.1, SVG Export Plug-In . SVG Version: 6.00 Build 0)  -->
<svg version="1.1" id="Layer_1" xmlns="http://www.w3.org/2000/svg" xmlns:xlink="http://www.w3.org/1999/xlink" x="0px" y="0px"
	 viewBox="0 0 36 36" style="enable-background:new 0 0 36 36;" xml:space="preserve">
<g id="_x37_46-plus-circle_x40_2x.png">
	<g>
		<path d="M27,17.4h-8.4V9c0-0.4-0.3-0.6-0.6-0.6S17.4,8.6,17.4,9v8.4H9c-0.4,0-0.6,0.3-0.6,0.6s0.3,0.6,0.6,0.6h8.4V27
			c0,0.4,0.3,0.6,0.6,0.6s0.6-0.3,0.6-0.6v-8.4H27c0.4,0,0.6-0.3,0.6-0.6S27.4,17.4,27,17.4z M18,0C8.1,0,0,8.1,0,18s8.1,18,18,18
			s18-8.1,18-18S27.9,0,18,0z M18,34.7C8.8,34.7,1.3,27.2,1.3,18S8.8,1.3,18,1.3S34.7,8.8,34.7,18S27.2,34.7,18,34.7z"/>
	</g>
</g>
</svg>
