<?xml version="1.0" encoding="utf-8"?>
<!-- Generator: Adobe Illustrator 18.1.1, SVG Export Plug-In . SVG Version: 6.00 Build 0)  -->
<svg version="1.1" id="Layer_1" xmlns="http://www.w3.org/2000/svg" xmlns:xlink="http://www.w3.org/1999/xlink" x="0px" y="0px"
	 viewBox="0 0 36 36" style="enable-background:new 0 0 36 36;" xml:space="preserve">
<g id="_x37_46-plus-circle_x40_2x.png">
	<g>
		<path d="M26.9,18.6c0.4,0,0.6-0.3,0.6-0.6s-0.3-0.6-0.6-0.6H9c-0.4,0-0.6,0.3-0.6,0.6s0.3,0.6,0.6,0.6H26.9z M17.9,0
			C8,0,0,8,0,17.9s8,17.9,17.9,17.9s17.9-8,17.9-17.9S27.9,0,17.9,0z M17.9,34.6c-9.2,0-16.7-7.4-16.7-16.7S8.7,1.3,17.9,1.3
			s16.7,7.4,16.7,16.7S27.2,34.6,17.9,34.6z"/>
	</g>
</g>
</svg>
