<?xml version="1.0" encoding="utf-8"?>
<!-- Generator: Adobe Illustrator 18.1.1, SVG Export Plug-In . SVG Version: 6.00 Build 0)  -->
<svg version="1.1" id="Layer_1" xmlns="http://www.w3.org/2000/svg" xmlns:xlink="http://www.w3.org/1999/xlink" x="0px" y="0px"
	 viewBox="0 0 35 55" style="enable-background:new 0 0 35 55;" xml:space="preserve">
<path fill="#FFFFFF" d="M1.5,55C0.7,55,0,54.3,0,53.5V16.8L8.7,11H10V7.5C10,7.2,10.2,7,10.5,7S11,7.2,11,7.5V11h1.3l8.7,5.8v36.7
	c0,0.8-0.7,1.5-1.5,1.5H1.5z M1,17.2V54h19V41h-7.5c-0.3,0-0.5-0.2-0.5-0.5v-16c0-0.3,0.2-0.5,0.5-0.5H20v-6.8L12.3,12H8.7L1,17.2z
	 M13,40h7V25h-7V40z M34.5,17c-0.1,0-0.1,0-0.2,0l-0.4-0.2l0,0L14.8,8.2L14.3,8C14.1,7.9,14,7.7,14,7.5c0-0.2,0.1-0.4,0.3-0.5
	l0.5-0.2l0,0l19.1-6.7L34.3,0c0.1,0,0.1,0,0.2,0C34.8,0,35,0.2,35,0.5v16C35,16.8,34.8,17,34.5,17z M15.8,7.6L34,15.7V1.2L15.8,7.6z
	"/>
</svg>
