<?xml version="1.0" encoding="utf-8"?>
<!-- Generator: Adobe Illustrator 18.1.1, SVG Export Plug-In . SVG Version: 6.00 Build 0)  -->
<svg version="1.1" id="Layer_1" xmlns="http://www.w3.org/2000/svg" xmlns:xlink="http://www.w3.org/1999/xlink" x="0px" y="0px"
	 viewBox="-410 274.6 50.7 45.7" enable-background="new -410 274.6 50.7 45.7" xml:space="preserve">
<text transform="matrix(1 0 0 1 10.9448 572.1998)" font-family="'MyriadPro-Regular'" font-size="12">quotation </text>
<text transform="matrix(1 0 0 1 9.6115 572.1998)" font-family="'MyriadPro-Regular'" font-size="12">quotation </text>
<text transform="matrix(1 0 0 1 16.2781 500.1999)" font-family="'MyriadPro-Regular'" font-size="12">quotation </text>
<path d="M-360.2,280.3c0-0.6-0.4-1-1-1c-0.3,0-0.6,0.2-0.8,0.4l0,0l-32.1,37.1l-13.2-13.2c-0.2-0.2-0.4-0.3-0.7-0.3
	c-0.6,0-1,0.4-1,1c0,0.3,0.1,0.5,0.3,0.7l14,14c0.2,0.2,0.4,0.3,0.7,0.3c0.3,0,0.6-0.2,0.8-0.4l0,0l32.8-38l0,0
	C-360.3,280.7-360.2,280.5-360.2,280.3z"/>
</svg>