<?xml version="1.0" encoding="utf-8"?>
<!-- Generator: Adobe Illustrator 19.1.0, SVG Export Plug-In . SVG Version: 6.00 Build 0)  -->
<svg version="1.1" id="Layer_1" xmlns="http://www.w3.org/2000/svg" xmlns:xlink="http://www.w3.org/1999/xlink" x="0px" y="0px"
	 viewBox="0 0 841.9 595.3" enable-background="new 0 0 841.9 595.3" xml:space="preserve">
<path fill="#010101" d="M58.5,17.2c-0.9,0-1.6,0.5-1.9,0.9L32.5,45.9L20.4,33.9c-0.5-0.5-1.1-0.7-1.8-0.7c-1.4,0-2.5,1.1-2.5,2.5
	c0,0.7,0.2,1.3,0.7,1.8l14,14c0.5,0.5,1.1,0.7,1.8,0.7c0.9,0,1.6-0.5,1.9-0.9l25.9-30l0.1-0.1l0.1-0.1c0.1-0.3,0.4-0.7,0.4-1.3
	C61,18.3,60,17.2,58.5,17.2z"/>
</svg>
