<?xml version="1.0" encoding="utf-8"?>
<!-- Generator: Adobe Illustrator 18.1.1, SVG Export Plug-In . SVG Version: 6.00 Build 0)  -->
<svg version="1.1" id="Layer_1" xmlns="http://www.w3.org/2000/svg" xmlns:xlink="http://www.w3.org/1999/xlink" x="0px" y="0px"
	 viewBox="-410 274.6 49.4 45.7" width="36" height="36" fill="white" enable-background="new -410 274.6 49.4 45.7" xml:space="preserve">
<g>
	<path d="M-390.2,320.3H-410V299c-0.4-12.4,8.2-21.9,19.8-23.4v9.2c-7.1,2.4-9.2,7.2-9.2,14.1h9.2V320.3z M-360.6,320.3h-19.8V299
		c-0.4-12.4,8.2-21.9,19.8-23.4v9.2c-7.1,2.4-9.2,7.2-9.2,14.1h9.2V320.3z"/>
</g>
<text transform="matrix(1 0 0 1 10.9448 572.1998)" font-family="'MyriadPro-Regular'" font-size="12">quotation </text>
<text transform="matrix(1 0 0 1 9.6115 572.1998)" font-family="'MyriadPro-Regular'" font-size="12">quotation </text>
<text transform="matrix(1 0 0 1 16.2781 500.1999)" font-family="'MyriadPro-Regular'" font-size="12">quotation </text>
</svg>
